<svg width="109" height="44" viewBox="0 0 109 44" fill="none" xmlns="http://www.w3.org/2000/svg">
<g opacity="0.8">
<path d="M7.68275 5.16973L35.8822 21.9999L22.9885 29.6975L25.4935 31.1469L40.8171 21.9999L5.15625 0.714355V20.9979L7.68275 19.4412V5.16973Z" fill="white"/>
<path d="M0 18.8577L4.39811 21.5023V19.8132L0.697823 17.6875L0 18.8577Z" fill="white"/>
<path d="M35.9538 38.1038L8.81359 22.3687L5.15625 24.4872V43.2856L22.0008 33.2333L19.5709 31.7375L7.68275 38.8303V24.4228V23.5317L8.44141 23.9969L34.7514 40.2044" fill="white"/>
<path d="M37.715 42.0259L38.9782 39.8537L37.4716 38.9805L36.2441 41.1241L37.715 42.0259Z" fill="white"/>
<path d="M36.359 38.3364L35.1494 40.4478L35.8508 40.8808L37.0711 38.748L36.359 38.3364Z" fill="white"/>
<path d="M0.883056 26.076L21.3742 14.2236L19.4632 13.082L0.181641 24.9058L0.883056 26.076Z" fill="white"/>
<path d="M39.068 3.93885L37.7511 1.79883L36.2695 2.71139L37.5793 4.80487L39.068 3.93885Z" fill="white"/>
<path d="M35.1738 3.38759L36.4621 5.45245L37.1743 5.03734L35.8717 2.95459L35.1738 3.38759Z" fill="white"/>
<path d="M23.3506 10.6915L25.3868 11.9046L36.0618 5.68856L34.7771 3.63086L23.3506 10.6915Z" fill="white"/>
<path d="M46.0985 33.1504L44.8174 37.1119H45.4258L45.6977 36.2602H47.3618L47.6302 37.1119H48.2493L46.9645 33.1504H46.0985ZM46.5781 33.6979L47.2043 35.7162H45.8802L46.5244 33.6979H46.5781Z" fill="white"/>
<path d="M51.4248 35.2441C51.3188 35.1497 51.1979 35.0735 51.067 35.0187C50.9237 34.9589 50.7767 34.9087 50.6268 34.8684L50.4085 34.8183L50.1472 34.7574C50.0562 34.7312 49.9666 34.7002 49.8789 34.6644C49.7988 34.6307 49.7231 34.5875 49.6534 34.5356C49.5922 34.4894 49.5401 34.4324 49.4995 34.3674C49.4616 34.2984 49.4431 34.2205 49.4458 34.1419C49.4455 34.0659 49.4601 33.9905 49.4888 33.92C49.516 33.8535 49.559 33.7945 49.614 33.7483C49.6869 33.6908 49.771 33.6494 49.861 33.6266C49.9914 33.5904 50.1264 33.5735 50.2618 33.5765C50.4965 33.5609 50.7303 33.6184 50.931 33.7411C51.0051 33.8069 51.063 33.8889 51.1003 33.9808C51.1375 34.0727 51.153 34.1719 51.1457 34.2707V34.3781H51.6968V34.2529C51.6918 34.0799 51.6567 33.9091 51.593 33.7483C51.5278 33.5974 51.4315 33.4621 51.3103 33.351C51.1788 33.2383 51.0252 33.1542 50.8594 33.1041C50.4855 33.0037 50.0917 33.0037 49.7178 33.1041C49.559 33.1459 49.4096 33.2175 49.2776 33.3153C49.1541 33.4099 49.0547 33.5326 48.9878 33.6731C48.9167 33.8254 48.8812 33.9918 48.884 34.1598C48.8812 34.3265 48.9232 34.4909 49.0057 34.6357C49.0801 34.7644 49.1814 34.8755 49.3027 34.9614C49.4229 35.0507 49.5555 35.1218 49.6963 35.1725C49.8306 35.2224 49.9681 35.2631 50.1079 35.2942C50.2988 35.3312 50.4866 35.3827 50.6697 35.4481C50.7976 35.4889 50.9183 35.5492 51.0276 35.627C51.0941 35.6772 51.148 35.7421 51.1851 35.8167C51.2185 35.8909 51.2355 35.9715 51.2351 36.0529C51.2384 36.1545 51.2162 36.2554 51.1707 36.3463C51.1312 36.4247 51.0704 36.4905 50.9954 36.536C50.901 36.5942 50.7967 36.6342 50.6876 36.6541C50.5428 36.6827 50.3949 36.6936 50.2474 36.6863C50.0915 36.691 49.9364 36.6617 49.793 36.6004C49.6915 36.5548 49.602 36.4862 49.5317 36.4C49.4693 36.3194 49.4243 36.2268 49.3993 36.128C49.3744 36.0285 49.3611 35.9264 49.3599 35.8238V35.7058H48.8053V35.8346C48.7944 36.2207 48.9372 36.5952 49.2025 36.876C49.4889 37.1155 49.8527 37.2427 50.226 37.2338H50.3226C50.4724 37.2344 50.6221 37.2224 50.7699 37.198C50.9474 37.1689 51.1183 37.1083 51.2745 37.0191C51.4212 36.9308 51.5441 36.808 51.6324 36.6613C51.7349 36.4831 51.7857 36.2798 51.7791 36.0744C51.7823 35.9112 51.7518 35.7492 51.6896 35.5984C51.6293 35.4618 51.5387 35.3407 51.4248 35.2441Z" fill="white"/>
<path d="M52.3262 33.6979H52.8558V36.5716H52.3262V37.1119H53.9652V36.5716H53.432V33.6979H53.9652V33.1504H52.3262V33.6979Z" fill="white"/>
<path d="M55.772 33.1504L54.4873 37.1119H55.1064L55.3748 36.2602H57.0424L57.3073 37.1119H57.9263L56.6416 33.1504H55.772ZM56.248 33.6979L56.8742 35.7162H55.5501L56.1943 33.6979H56.248Z" fill="white"/>
<path d="M62.5966 36.3855L61.7986 33.1504H60.8682V37.1119H61.4336V33.9914L62.2066 37.1119H62.9831L63.7597 33.9914V37.1119H64.3251V33.1504H63.3911L62.5966 36.3855Z" fill="white"/>
<path d="M65.456 35.3799H67.2096V34.8359H65.456V33.6979H67.3992V33.1504H64.8906V37.1119H67.4493V36.5716H65.456V35.3799Z" fill="white"/>
<path d="M69.261 33.1507H68.0156V37.1123H69.261C69.6795 37.1399 70.0935 37.0125 70.424 36.7544C70.5745 36.609 70.6912 36.4324 70.766 36.237C70.8408 36.0417 70.8719 35.8322 70.857 35.6236V34.7361C70.8718 34.5224 70.8418 34.308 70.7691 34.1065C70.6964 33.905 70.5826 33.7209 70.4348 33.5659C70.1127 33.2795 69.6914 33.1305 69.261 33.1507ZM70.2952 34.6717V35.5627C70.301 35.7345 70.2693 35.9055 70.2022 36.0637C70.1534 36.1813 70.0759 36.2846 69.9767 36.3643C69.8801 36.4386 69.7693 36.4922 69.6511 36.5218C69.5207 36.5518 69.3875 36.5674 69.2538 36.5683H68.5811V33.7054H69.3755C69.5082 33.703 69.6399 33.7286 69.762 33.7806C69.8704 33.8266 69.9679 33.8949 70.0483 33.981C70.1273 34.0716 70.1892 34.1759 70.2308 34.2887C70.2736 34.4119 70.2954 34.5413 70.2952 34.6717Z" fill="white"/>
<path d="M71.4219 33.6979H71.9515V36.5716H71.4219V37.1119H73.0609V36.5716H72.5241V33.6979H73.0609V33.1504H71.4219V33.6979Z" fill="white"/>
<path d="M74.8638 33.1504L73.5791 37.1119H74.1982L74.4702 36.2602H76.1342L76.4026 37.1119H77.0217L75.737 33.1504H74.8638ZM75.3434 33.6979L75.9661 35.7162H74.642L75.2897 33.6979H75.3434Z" fill="white"/>
<path d="M81.2121 33.1507H79.9668V37.1123H81.2121C81.6317 37.1395 82.0467 37.0122 82.3788 36.7544C82.5292 36.609 82.6459 36.4324 82.7207 36.237C82.7955 36.0417 82.8266 35.8322 82.8118 35.6236V34.7361C82.826 34.5221 82.7955 34.3076 82.7222 34.1061C82.6489 33.9046 82.5344 33.7206 82.3859 33.5659C82.0639 33.2795 81.6426 33.1305 81.2121 33.1507ZM82.2464 34.6717V35.5627C82.2522 35.7345 82.2204 35.9055 82.1533 36.0637C82.1046 36.1813 82.027 36.2846 81.9279 36.3643C81.8313 36.4386 81.7204 36.4922 81.6022 36.5218C81.4719 36.5518 81.3387 36.5674 81.205 36.5683H80.5322V33.7054H81.3267C81.4594 33.703 81.5911 33.7286 81.7132 33.7806C81.8216 33.8266 81.9191 33.8949 81.9994 33.981C82.0785 34.0716 82.1404 34.1759 82.182 34.2887C82.2236 34.4121 82.2441 34.5415 82.2428 34.6717H82.2464Z" fill="white"/>
<path d="M84.6119 33.1504L83.3271 37.1119H83.9463L84.2147 36.2602H85.8823L86.1471 37.1119H86.7662L85.4815 33.1504H84.6119ZM85.0878 33.6979L85.7141 35.7162H84.39L85.0377 33.6979H85.0878Z" fill="white"/>
<path d="M87.2852 33.6979H88.4196V37.1119H88.9922V33.6979H90.1302V33.1504H87.2852V33.6979Z" fill="white"/>
<path d="M91.9481 33.1504L90.667 37.1119H91.2825L91.5545 36.2602H93.2185L93.4869 37.1119H94.0953L92.8106 33.1504H91.9481ZM92.4277 33.6979L93.0539 35.7162H91.7299L92.374 33.6979H92.4277Z" fill="white"/>
<path d="M96.9765 35.0724L97.0087 35.0474C97.0827 34.98 97.1487 34.9043 97.2055 34.8219C97.2576 34.7382 97.2985 34.6479 97.3272 34.5535C97.3548 34.4667 97.3693 34.3762 97.3701 34.2851C97.3706 34.1442 97.3488 34.0041 97.3057 33.87C97.259 33.735 97.1819 33.6125 97.0803 33.5122C96.9623 33.3996 96.8221 33.3131 96.6687 33.2581C96.4692 33.1918 96.2598 33.1603 96.0496 33.165H94.6182V37.1265H96.1355C96.3386 37.1305 96.5415 37.1113 96.7403 37.0693C96.9 37.0331 97.0493 36.9609 97.1769 36.8581C97.2926 36.7569 97.378 36.6256 97.4238 36.4788C97.4746 36.3094 97.4987 36.1331 97.4954 35.9563C97.5041 35.7221 97.4264 35.4929 97.2771 35.3122C97.1932 35.2137 97.0911 35.1323 96.9765 35.0724ZM96.7582 34.4891C96.7268 34.5586 96.6845 34.6226 96.6329 34.6788C96.5772 34.7326 96.5115 34.7751 96.4397 34.804C96.3601 34.8362 96.2749 34.8521 96.1892 34.8505H95.1693V33.6982H96.1498C96.2407 33.698 96.3312 33.7112 96.4182 33.7376C96.4925 33.7615 96.5617 33.7991 96.6222 33.8485C96.68 33.8976 96.7259 33.9592 96.7563 34.0286C96.7867 34.0981 96.8008 34.1736 96.7975 34.2493C96.8014 34.3311 96.788 34.4128 96.7582 34.4891ZM95.1693 35.3981H96.2428C96.3509 35.3945 96.4588 35.4103 96.5613 35.4446C96.635 35.4705 96.7021 35.512 96.7582 35.5663C96.8078 35.6184 96.8457 35.6807 96.8691 35.7488C96.8946 35.8261 96.9067 35.9072 96.9049 35.9885C96.9086 36.085 96.8928 36.1811 96.8584 36.2712C96.831 36.3377 96.7881 36.3967 96.7331 36.443C96.6747 36.4874 96.6077 36.5191 96.5363 36.5361C96.4485 36.5581 96.3584 36.5689 96.2679 36.5683H95.1693V35.3981Z" fill="white"/>
<path d="M99.2925 33.1504L98.0078 37.1119H98.6269L98.8989 36.2602H100.563L100.831 37.1119H101.45L100.18 33.1504H99.2925ZM99.7721 33.6979L100.395 35.7162H99.0742L99.7184 33.6979H99.7721Z" fill="white"/>
<path d="M104.617 35.2441C104.511 35.15 104.39 35.0738 104.259 35.0187C104.117 34.9584 103.971 34.9081 103.822 34.8684L103.604 34.8183L103.343 34.7574C103.252 34.7312 103.162 34.7002 103.074 34.6644C102.994 34.6317 102.918 34.5883 102.849 34.5356C102.784 34.4946 102.728 34.4411 102.684 34.3781C102.647 34.3092 102.628 34.2313 102.631 34.1526C102.63 34.0766 102.645 34.0012 102.674 33.9308C102.7 33.8635 102.743 33.8043 102.799 33.759C102.871 33.7023 102.954 33.6609 103.042 33.6373C103.173 33.6018 103.308 33.5849 103.443 33.5872C103.679 33.5711 103.914 33.6286 104.116 33.7518C104.19 33.8177 104.248 33.8997 104.285 33.9915C104.322 34.0834 104.338 34.1826 104.331 34.2815V34.3781H104.882V34.2529C104.877 34.0795 104.841 33.9084 104.774 33.7483C104.712 33.5969 104.616 33.4613 104.495 33.351C104.363 33.2397 104.209 33.1557 104.044 33.1041C103.67 33.0037 103.277 33.0037 102.903 33.1041C102.744 33.1451 102.594 33.2169 102.463 33.3153C102.339 33.4099 102.24 33.5326 102.173 33.6731C102.102 33.8254 102.066 33.9918 102.069 34.1598C102.065 34.3262 102.106 34.4905 102.187 34.6357C102.261 34.7644 102.363 34.8755 102.484 34.9614C102.605 35.0492 102.738 35.1202 102.878 35.1725C103.012 35.222 103.15 35.2626 103.289 35.2942C103.481 35.3308 103.67 35.3822 103.855 35.4481C103.982 35.4889 104.103 35.5492 104.212 35.627C104.279 35.6772 104.333 35.7421 104.37 35.8167C104.402 35.8912 104.418 35.9717 104.416 36.0529C104.421 36.1542 104.4 36.255 104.356 36.3463C104.314 36.4231 104.254 36.4883 104.18 36.536C104.085 36.5947 103.979 36.6348 103.869 36.6541C103.725 36.6827 103.579 36.6935 103.432 36.6863C103.276 36.691 103.121 36.6617 102.978 36.6004C102.876 36.5555 102.786 36.4868 102.717 36.4C102.654 36.3194 102.609 36.2268 102.584 36.128C102.56 36.0283 102.545 35.9264 102.541 35.8238V35.7058H101.969V35.8346C101.962 36.0259 101.994 36.2167 102.062 36.3955C102.13 36.5744 102.233 36.7378 102.366 36.876C102.652 37.1161 103.016 37.2433 103.389 37.2338H103.482C103.633 37.2344 103.784 37.2224 103.933 37.198C104.111 37.1683 104.281 37.1078 104.438 37.0191C104.585 36.9308 104.708 36.808 104.796 36.6613C104.898 36.4831 104.949 36.2798 104.942 36.0744C104.946 35.9112 104.915 35.7492 104.853 35.5984C104.801 35.4645 104.72 35.3436 104.617 35.2441Z" fill="white"/>
<path d="M106.084 36.5716V35.3799H107.837V34.8359H106.084V33.6979H108.027V33.1504H105.519V37.1119H108.077V36.5716H106.084Z" fill="white"/>
<path d="M51.0626 29.0103V12.4019L47.3838 13.8334V9.82533L55.2245 6.76562V29.0103H51.0626Z" fill="white"/>
<path d="M63.1446 29.0103V12.4019L59.4658 13.8334V9.82533L67.3066 6.76562V29.0103H63.1446Z" fill="white"/>
<path d="M87.4142 20.9403C87.4142 23.6601 86.6531 25.682 85.131 27.0061C83.6089 28.3302 81.4975 28.9982 78.7969 29.0101H71.6396V7.30225H78.7969C81.5333 7.30225 83.6542 8.01797 85.1597 9.44941C86.6651 10.8809 87.4166 12.9839 87.4142 15.7585V20.9403ZM76.0056 25.2883H78.5106C79.2285 25.3041 79.9448 25.2137 80.6363 25.0199C81.1773 24.8657 81.6645 24.5633 82.0427 24.1467C82.4192 23.7008 82.6853 23.1724 82.8192 22.6044C82.9915 21.8559 83.072 21.0892 83.059 20.3212V16.5386C83.059 14.7469 82.7202 13.368 82.0427 12.4018C81.3651 11.4355 80.1878 10.9524 78.5106 10.9524H76.0056V25.2883Z" fill="white"/>
<path d="M97.8851 7.30227C98.9926 7.27099 100.096 7.45324 101.134 7.83906C101.942 8.14538 102.674 8.62129 103.282 9.23471C103.819 9.79053 104.222 10.4611 104.463 11.1958C104.702 11.9231 104.823 12.6844 104.82 13.4503C104.811 14.3586 104.536 15.2444 104.03 15.9983C103.445 16.8764 102.599 17.5476 101.61 17.9164C102.113 18.0689 102.594 18.2854 103.042 18.5606C104.002 19.1335 104.748 20.0061 105.164 21.0441C105.394 21.6297 105.509 22.2544 105.5 22.8835C105.5 25.0856 104.882 26.6566 103.647 27.5966C102.411 28.5365 100.472 29.0077 97.8314 29.0101H89.6006V7.30227H97.8851ZM93.9486 16.2953H96.357C96.883 16.2961 97.4086 16.2686 97.9316 16.213C98.3833 16.177 98.8242 16.0556 99.2306 15.8551C99.5922 15.6698 99.8938 15.3856 100.1 15.0356C100.332 14.5889 100.442 14.089 100.419 13.5863C100.444 13.0892 100.334 12.5945 100.1 12.1549C99.8933 11.8124 99.5911 11.5376 99.2306 11.364C98.8222 11.1724 98.3817 11.0583 97.9316 11.0276C97.4342 10.9811 96.9081 10.9596 96.357 10.9596H93.9486V16.2953ZM93.9486 25.2884H97.1872C97.8099 25.2884 98.3718 25.2669 98.8692 25.2239C99.3115 25.1931 99.7456 25.0891 100.154 24.9162C100.498 24.7685 100.787 24.5186 100.984 24.2005C101.202 23.7905 101.303 23.329 101.278 22.8656C101.294 22.3773 101.212 21.8907 101.038 21.4342C100.889 21.0716 100.631 20.7641 100.301 20.5539C99.9131 20.3163 99.4805 20.1615 99.0302 20.0994C98.4208 20.0021 97.8043 19.9566 97.1872 19.9634H93.9486V25.2884Z" fill="white"/>
</g>
</svg>
