<svg width="109" height="43" viewBox="0 0 109 43" fill="none" xmlns="http://www.w3.org/2000/svg">
<path d="M7.68275 4.67022L35.8822 21.5004L22.9885 29.198L25.4935 30.6473L40.8171 21.5004L5.15625 0.214844V20.4984L7.68275 18.9417V4.67022Z" fill="white"/>
<path d="M0 18.3587L4.39811 21.0033V19.3142L0.697823 17.1885L0 18.3587Z" fill="white"/>
<path d="M35.9538 37.6043L8.81359 21.8691L5.15625 23.9877V42.7861L22.0008 32.7338L19.5709 31.2379L7.68275 38.3308V23.9233V23.0322L8.44141 23.4974L34.7514 39.7049" fill="white"/>
<path d="M37.715 41.5259L38.9782 39.3537L37.4716 38.4805L36.2441 40.6241L37.715 41.5259Z" fill="white"/>
<path d="M36.359 37.8369L35.1494 39.9483L35.8508 40.3813L37.0711 38.2484L36.359 37.8369Z" fill="white"/>
<path d="M0.883056 25.576L21.3742 13.7236L19.4632 12.582L0.181641 24.4058L0.883056 25.576Z" fill="white"/>
<path d="M39.068 3.43885L37.7511 1.29883L36.2695 2.21139L37.5793 4.30487L39.068 3.43885Z" fill="white"/>
<path d="M35.1738 2.88808L36.4621 4.95294L37.1743 4.53783L35.8717 2.45508L35.1738 2.88808Z" fill="white"/>
<path d="M23.3506 10.1925L25.3868 11.4056L36.0618 5.18954L34.7771 3.13184L23.3506 10.1925Z" fill="white"/>
<path d="M46.0985 32.6504L44.8174 36.6119H45.4258L45.6977 35.7602H47.3618L47.6302 36.6119H48.2493L46.9645 32.6504H46.0985ZM46.5781 33.1979L47.2043 35.2162H45.8802L46.5244 33.1979H46.5781Z" fill="white"/>
<path d="M51.4248 34.7446C51.3188 34.6502 51.1979 34.574 51.067 34.5192C50.9237 34.4594 50.7767 34.4092 50.6268 34.3689L50.4085 34.3187L50.1472 34.2579C50.0562 34.2317 49.9666 34.2007 49.8789 34.1649C49.7988 34.1312 49.7231 34.088 49.6534 34.036C49.5922 33.9899 49.5401 33.9328 49.4995 33.8678C49.4616 33.7989 49.4431 33.721 49.4458 33.6424C49.4455 33.5664 49.4601 33.491 49.4888 33.4205C49.516 33.354 49.559 33.295 49.614 33.2487C49.6869 33.1913 49.771 33.1499 49.861 33.1271C49.9914 33.0909 50.1264 33.074 50.2618 33.077C50.4965 33.0614 50.7303 33.1189 50.931 33.2416C51.0051 33.3074 51.063 33.3894 51.1003 33.4813C51.1375 33.5732 51.153 33.6724 51.1457 33.7712V33.8786H51.6968V33.7533C51.6918 33.5804 51.6567 33.4096 51.593 33.2487C51.5278 33.0979 51.4315 32.9625 51.3103 32.8515C51.1788 32.7388 51.0252 32.6547 50.8594 32.6046C50.4855 32.5042 50.0917 32.5042 49.7178 32.6046C49.559 32.6464 49.4096 32.718 49.2776 32.8157C49.1541 32.9104 49.0547 33.0331 48.9878 33.1736C48.9167 33.3258 48.8812 33.4923 48.884 33.6603C48.8812 33.827 48.9232 33.9913 49.0057 34.1362C49.0801 34.2649 49.1814 34.376 49.3027 34.4619C49.4229 34.5511 49.5555 34.6223 49.6963 34.673C49.8306 34.7229 49.9681 34.7636 50.1079 34.7947C50.2988 34.8317 50.4866 34.8832 50.6697 34.9486C50.7976 34.9893 50.9183 35.0497 51.0276 35.1275C51.0941 35.1777 51.148 35.2426 51.1851 35.3172C51.2185 35.3914 51.2355 35.472 51.2351 35.5534C51.2384 35.655 51.2162 35.7559 51.1707 35.8468C51.1312 35.9252 51.0704 35.9909 50.9954 36.0365C50.901 36.0947 50.7967 36.1347 50.6876 36.1546C50.5428 36.1832 50.3949 36.194 50.2474 36.1868C50.0915 36.1915 49.9364 36.1622 49.793 36.1009C49.6915 36.0553 49.602 35.9867 49.5317 35.9005C49.4693 35.8199 49.4243 35.7273 49.3993 35.6285C49.3744 35.529 49.3611 35.4269 49.3599 35.3243V35.2063H48.8053V35.3351C48.7944 35.7211 48.9372 36.0957 49.2025 36.3765C49.4889 36.616 49.8527 36.7431 50.226 36.7343H50.3226C50.4724 36.7348 50.6221 36.7229 50.7699 36.6985C50.9474 36.6694 51.1183 36.6088 51.2745 36.5196C51.4212 36.4313 51.5441 36.3085 51.6324 36.1617C51.7349 35.9836 51.7857 35.7803 51.7791 35.5748C51.7823 35.4117 51.7518 35.2497 51.6896 35.0989C51.6293 34.9623 51.5387 34.8412 51.4248 34.7446Z" fill="white"/>
<path d="M52.3262 33.1979H52.8558V36.0716H52.3262V36.6119H53.9652V36.0716H53.432V33.1979H53.9652V32.6504H52.3262V33.1979Z" fill="white"/>
<path d="M55.772 32.6504L54.4873 36.6119H55.1064L55.3748 35.7602H57.0424L57.3073 36.6119H57.9263L56.6416 32.6504H55.772ZM56.248 33.1979L56.8742 35.2162H55.5501L56.1943 33.1979H56.248Z" fill="white"/>
<path d="M62.5966 35.8855L61.7986 32.6504H60.8682V36.6119H61.4336V33.4914L62.2066 36.6119H62.9831L63.7597 33.4914V36.6119H64.3251V32.6504H63.3911L62.5966 35.8855Z" fill="white"/>
<path d="M65.456 34.8799H67.2096V34.3359H65.456V33.1979H67.3992V32.6504H64.8906V36.6119H67.4493V36.0716H65.456V34.8799Z" fill="white"/>
<path d="M69.261 32.6503H68.0156V36.6118H69.261C69.6795 36.6394 70.0935 36.512 70.424 36.2539C70.5745 36.1085 70.6912 35.9319 70.766 35.7366C70.8408 35.5412 70.8719 35.3318 70.857 35.1231V34.2356C70.8718 34.0219 70.8418 33.8075 70.7691 33.606C70.6964 33.4045 70.5826 33.2204 70.4348 33.0654C70.1127 32.779 69.6914 32.63 69.261 32.6503ZM70.2952 34.1712V35.0622C70.301 35.234 70.2693 35.405 70.2022 35.5633C70.1534 35.6808 70.0759 35.7841 69.9767 35.8638C69.8801 35.9381 69.7693 35.9917 69.6511 36.0213C69.5207 36.0513 69.3875 36.0669 69.2538 36.0678H68.5811V33.2049H69.3755C69.5082 33.2025 69.6399 33.2281 69.762 33.2801C69.8704 33.3261 69.9679 33.3944 70.0483 33.4805C70.1273 33.5711 70.1892 33.6754 70.2308 33.7883C70.2736 33.9114 70.2954 34.0408 70.2952 34.1712Z" fill="white"/>
<path d="M71.4219 33.1979H71.9515V36.0716H71.4219V36.6119H73.0609V36.0716H72.5241V33.1979H73.0609V32.6504H71.4219V33.1979Z" fill="white"/>
<path d="M74.8638 32.6504L73.5791 36.6119H74.1982L74.4702 35.7602H76.1342L76.4026 36.6119H77.0217L75.737 32.6504H74.8638ZM75.3434 33.1979L75.9661 35.2162H74.642L75.2897 33.1979H75.3434Z" fill="white"/>
<path d="M81.2121 32.6503H79.9668V36.6118H81.2121C81.6317 36.639 82.0467 36.5117 82.3788 36.2539C82.5292 36.1085 82.6459 35.9319 82.7207 35.7366C82.7955 35.5412 82.8266 35.3318 82.8118 35.1231V34.2356C82.826 34.0216 82.7955 33.8071 82.7222 33.6056C82.6489 33.4041 82.5344 33.2201 82.3859 33.0654C82.0639 32.779 81.6426 32.63 81.2121 32.6503ZM82.2464 34.1712V35.0622C82.2522 35.234 82.2204 35.405 82.1533 35.5633C82.1046 35.6808 82.027 35.7841 81.9279 35.8638C81.8313 35.9381 81.7204 35.9917 81.6022 36.0213C81.4719 36.0513 81.3387 36.0669 81.205 36.0678H80.5322V33.2049H81.3267C81.4594 33.2025 81.5911 33.2281 81.7132 33.2801C81.8216 33.3261 81.9191 33.3944 81.9994 33.4805C82.0785 33.5711 82.1404 33.6754 82.182 33.7883C82.2236 33.9116 82.2441 34.041 82.2428 34.1712H82.2464Z" fill="white"/>
<path d="M84.6119 32.6504L83.3271 36.6119H83.9463L84.2147 35.7602H85.8823L86.1471 36.6119H86.7662L85.4815 32.6504H84.6119ZM85.0878 33.1979L85.7141 35.2162H84.39L85.0377 33.1979H85.0878Z" fill="white"/>
<path d="M87.2852 33.1979H88.4196V36.6119H88.9922V33.1979H90.1302V32.6504H87.2852V33.1979Z" fill="white"/>
<path d="M91.9481 32.6504L90.667 36.6119H91.2825L91.5545 35.7602H93.2185L93.4869 36.6119H94.0953L92.8106 32.6504H91.9481ZM92.4277 33.1979L93.0539 35.2162H91.7299L92.374 33.1979H92.4277Z" fill="white"/>
<path d="M96.9765 34.5719L97.0087 34.5469C97.0827 34.4795 97.1487 34.4038 97.2055 34.3214C97.2576 34.2377 97.2985 34.1474 97.3272 34.053C97.3548 33.9662 97.3693 33.8757 97.3701 33.7846C97.3706 33.6437 97.3488 33.5037 97.3057 33.3695C97.259 33.2345 97.1819 33.1121 97.0803 33.0117C96.9623 32.8992 96.8221 32.8126 96.6687 32.7576C96.4692 32.6913 96.2598 32.6598 96.0496 32.6645H94.6182V36.6261H96.1355C96.3386 36.63 96.5415 36.6108 96.7403 36.5688C96.9 36.5326 97.0493 36.4604 97.1769 36.3577C97.2926 36.2564 97.378 36.1251 97.4238 35.9783C97.4746 35.8089 97.4987 35.6327 97.4954 35.4558C97.5041 35.2216 97.4264 34.9924 97.2771 34.8117C97.1932 34.7132 97.0911 34.6318 96.9765 34.5719ZM96.7582 33.9886C96.7268 34.0581 96.6845 34.1221 96.6329 34.1783C96.5772 34.2321 96.5115 34.2746 96.4397 34.3035C96.3601 34.3358 96.2749 34.3516 96.1892 34.3501H95.1693V33.1977H96.1498C96.2407 33.1975 96.3312 33.2107 96.4182 33.2371C96.4925 33.261 96.5617 33.2986 96.6222 33.3481C96.68 33.3971 96.7259 33.4587 96.7563 33.5281C96.7867 33.5976 96.8008 33.6731 96.7975 33.7489C96.8014 33.8307 96.788 33.9123 96.7582 33.9886ZM95.1693 34.8976H96.2428C96.3509 34.894 96.4588 34.9098 96.5613 34.9441C96.635 34.97 96.7021 35.0115 96.7582 35.0658C96.8078 35.1179 96.8457 35.1802 96.8691 35.2483C96.8946 35.3256 96.9067 35.4067 96.9049 35.4881C96.9086 35.5845 96.8928 35.6806 96.8584 35.7708C96.831 35.8372 96.7881 35.8962 96.7331 35.9425C96.6747 35.9869 96.6077 36.0186 96.5363 36.0356C96.4485 36.0576 96.3584 36.0684 96.2679 36.0678H95.1693V34.8976Z" fill="white"/>
<path d="M99.2925 32.6504L98.0078 36.6119H98.6269L98.8989 35.7602H100.563L100.831 36.6119H101.45L100.18 32.6504H99.2925ZM99.7721 33.1979L100.395 35.2162H99.0742L99.7184 33.1979H99.7721Z" fill="white"/>
<path d="M104.617 34.7446C104.511 34.6505 104.39 34.5743 104.259 34.5192C104.117 34.4588 103.971 34.4086 103.822 34.3689L103.604 34.3187L103.343 34.2579C103.252 34.2317 103.162 34.2007 103.074 34.1649C102.994 34.1322 102.918 34.0888 102.849 34.036C102.784 33.9951 102.728 33.9416 102.684 33.8786C102.647 33.8096 102.628 33.7317 102.631 33.6531C102.63 33.5771 102.645 33.5017 102.674 33.4313C102.7 33.364 102.743 33.3048 102.799 33.2595C102.871 33.2028 102.954 33.1614 103.042 33.1378C103.173 33.1023 103.308 33.0854 103.443 33.0877C103.679 33.0716 103.914 33.1291 104.116 33.2523C104.19 33.3181 104.248 33.4002 104.285 33.492C104.322 33.5839 104.338 33.6831 104.331 33.782V33.8786H104.882V33.7533C104.877 33.58 104.841 33.4089 104.774 33.2487C104.712 33.0974 104.616 32.9618 104.495 32.8515C104.363 32.7402 104.209 32.6562 104.044 32.6046C103.67 32.5042 103.277 32.5042 102.903 32.6046C102.744 32.6456 102.594 32.7173 102.463 32.8157C102.339 32.9104 102.24 33.0331 102.173 33.1736C102.102 33.3258 102.066 33.4923 102.069 33.6603C102.065 33.8267 102.106 33.991 102.187 34.1362C102.261 34.2649 102.363 34.376 102.484 34.4619C102.605 34.5497 102.738 34.6207 102.878 34.673C103.012 34.7224 103.15 34.7631 103.289 34.7947C103.481 34.8313 103.67 34.8827 103.855 34.9486C103.982 34.9893 104.103 35.0497 104.212 35.1275C104.279 35.1777 104.333 35.2426 104.37 35.3172C104.402 35.3917 104.418 35.4722 104.416 35.5534C104.421 35.6547 104.4 35.7555 104.356 35.8468C104.314 35.9236 104.254 35.9888 104.18 36.0365C104.085 36.0952 103.979 36.1353 103.869 36.1546C103.725 36.1831 103.579 36.194 103.432 36.1868C103.276 36.1915 103.121 36.1622 102.978 36.1009C102.876 36.056 102.786 35.9873 102.717 35.9005C102.654 35.8199 102.609 35.7273 102.584 35.6285C102.56 35.5288 102.545 35.4269 102.541 35.3243V35.2063H101.969V35.3351C101.962 35.5264 101.994 35.7171 102.062 35.896C102.13 36.0749 102.233 36.2383 102.366 36.3765C102.652 36.6165 103.016 36.7438 103.389 36.7343H103.482C103.633 36.7349 103.784 36.7229 103.933 36.6985C104.111 36.6688 104.281 36.6083 104.438 36.5196C104.585 36.4313 104.708 36.3085 104.796 36.1617C104.898 35.9836 104.949 35.7803 104.942 35.5748C104.946 35.4117 104.915 35.2497 104.853 35.0989C104.801 34.965 104.72 34.8441 104.617 34.7446Z" fill="white"/>
<path d="M106.084 36.0716V34.8799H107.837V34.3359H106.084V33.1979H108.027V32.6504H105.519V36.6119H108.077V36.0716H106.084Z" fill="white"/>
<path d="M51.0626 28.5103V11.9019L47.3838 13.3334V9.32533L55.2245 6.26562V28.5103H51.0626Z" fill="white"/>
<path d="M63.1446 28.5103V11.9019L59.4658 13.3334V9.32533L67.3066 6.26562V28.5103H63.1446Z" fill="white"/>
<path d="M87.4142 20.4408C87.4142 23.1606 86.6531 25.1825 85.131 26.5066C83.6089 27.8307 81.4975 28.4986 78.7969 28.5106H71.6396V6.80273H78.7969C81.5333 6.80273 83.6542 7.51846 85.1597 8.9499C86.6651 10.3813 87.4166 12.4844 87.4142 15.259V20.4408ZM76.0056 24.7888H78.5106C79.2285 24.8046 79.9448 24.7141 80.6363 24.5204C81.1773 24.3662 81.6645 24.0637 82.0427 23.6472C82.4192 23.2013 82.6853 22.6729 82.8192 22.1049C82.9915 21.3564 83.072 20.5897 83.059 19.8217V16.0391C83.059 14.2474 82.7202 12.8685 82.0427 11.9023C81.3651 10.936 80.1878 10.4529 78.5106 10.4529H76.0056V24.7888Z" fill="white"/>
<path d="M97.8851 6.80227C98.9926 6.77099 100.096 6.95324 101.134 7.33906C101.942 7.64538 102.674 8.12129 103.282 8.73471C103.819 9.29053 104.222 9.96109 104.463 10.6958C104.702 11.4231 104.823 12.1844 104.82 12.9503C104.811 13.8586 104.536 14.7444 104.03 15.4983C103.445 16.3764 102.599 17.0476 101.61 17.4164C102.113 17.5689 102.594 17.7854 103.042 18.0606C104.002 18.6335 104.748 19.5061 105.164 20.5441C105.394 21.1297 105.509 21.7544 105.5 22.3835C105.5 24.5856 104.882 26.1566 103.647 27.0966C102.411 28.0365 100.472 28.5077 97.8314 28.5101H89.6006V6.80227H97.8851ZM93.9486 15.7953H96.357C96.883 15.7961 97.4086 15.7686 97.9316 15.713C98.3833 15.677 98.8242 15.5556 99.2306 15.3551C99.5922 15.1698 99.8938 14.8856 100.1 14.5356C100.332 14.0889 100.442 13.589 100.419 13.0863C100.444 12.5892 100.334 12.0945 100.1 11.6549C99.8933 11.3124 99.5911 11.0376 99.2306 10.864C98.8222 10.6724 98.3817 10.5583 97.9316 10.5276C97.4342 10.4811 96.9081 10.4596 96.357 10.4596H93.9486V15.7953ZM93.9486 24.7884H97.1872C97.8099 24.7884 98.3718 24.7669 98.8692 24.7239C99.3115 24.6931 99.7456 24.5891 100.154 24.4162C100.498 24.2685 100.787 24.0186 100.984 23.7005C101.202 23.2905 101.303 22.829 101.278 22.3656C101.294 21.8773 101.212 21.3907 101.038 20.9342C100.889 20.5716 100.631 20.2641 100.301 20.0539C99.9131 19.8163 99.4805 19.6615 99.0302 19.5994C98.4208 19.5021 97.8043 19.4566 97.1872 19.4634H93.9486V24.7884Z" fill="white"/>
</svg>
