<?xml version="1.0" standalone="no"?>
<!DOCTYPE svg PUBLIC "-//W3C//DTD SVG 1.1//EN" "http://www.w3.org/Graphics/SVG/1.1/DTD/svg11.dtd" >
<svg xmlns="http://www.w3.org/2000/svg" xmlns:xlink="http://www.w3.org/1999/xlink" version="1.1">
<metadata>
Created by FontForge 20170731 at Sun Apr 10 06:30:35 2022
 By Aleksey,,,
Copyright (c) 2022 Sunn.
</metadata>
<defs>
<font id="SUIT-ExtraLight" horiz-adv-x="874" >
  <font-face 
    font-family="SUIT ExtraLight"
    font-weight="200"
    font-stretch="normal"
    units-per-em="1000"
    panose-1="0 0 0 0 0 0 0 0 0 0"
    ascent="800"
    descent="-200"
    x-height="509"
    cap-height="722"
    bbox="-60 -230 1097 869"
    underline-thickness="50"
    underline-position="-175"
    unicode-range="U+0020-FFE6"
  />
<missing-glyph horiz-adv-x="1000" 
 />
    <glyph glyph-name=".notdef" horiz-adv-x="1000" 
 />
    <glyph glyph-name=".null" horiz-adv-x="0" 
 />
    <glyph glyph-name="nonmarkingreturn" horiz-adv-x="333" 
 />
    <glyph glyph-name="space" unicode=" " horiz-adv-x="230" 
 />
    <glyph glyph-name="space" unicode="&#xa0;" horiz-adv-x="230" 
 />
    <glyph glyph-name="exclam" unicode="!" horiz-adv-x="290" 
d="M169 138h-47l-10 584h66zM119.5 60q9.5 10 25.5 10q17 0 26 -10t9 -25q0 -16 -9 -25.5t-26 -9.5q-16 0 -25.5 10t-9.5 25t9.5 25z" />
    <glyph glyph-name="quotedbl" unicode="&#x22;" horiz-adv-x="311" 
d="M114 643h-34l-5 128h47zM236 774l-7 -129h-35l-5 129h47z" />
    <glyph glyph-name="numbersign" unicode="#" horiz-adv-x="749" 
d="M534 529h161v-48h-164l-13 -241h154v-49h-160l-11 -191h-50l13 191h-209l-12 -191h-49l12 191h-152v49h158l14 241h-148v48h151l11 193h49l-12 -193h209l10 193h51zM469 240l13 241h-207l-16 -241h210z" />
    <glyph glyph-name="dollar" unicode="$" horiz-adv-x="686" 
d="M496 632q-52 33 -119 42v-296q144 -41 196 -93q16 -19 28 -46.5t12 -58.5q0 -36 -17 -71q-28 -50 -95 -84q-25 -12 -53 -20t-51 -9l-20 -1v-75h-46v76q-77 8 -149 53q-46 29 -73 66.5t-37 65.5l46 16q8 -23 30 -53t60 -53q62 -39 123 -46v295l-31 9q-43 12 -93 43
q-34 22 -58 49q-18 20 -29.5 48t-11.5 60q0 38 17 73q29 51 79.5 74.5t101.5 27.5l25 1v82h46v-84q82 -9 145 -49q55 -36 86 -87l-42 -25q-28 43 -70 70zM156 546q0 -41 29 -72q12 -15 49 -41q43 -27 79 -37l18 -5v285l-21 -1q-103 -9 -141 -76q-13 -27 -13 -53zM393 45
q41 3 86 24q26 13 44 28t30 36q12 23 12 48q0 38 -28 70q-19 19 -54 37t-106 39v-283z" />
    <glyph glyph-name="percent" unicode="%" horiz-adv-x="1019" 
d="M713 722h53l-453 -721h-51zM123 635.5q25 45.5 69 72t96 26.5q53 0 96.5 -26.5t68.5 -71.5t25 -98q0 -52 -25 -97t-68.5 -71.5t-96.5 -26.5q-52 0 -96 26.5t-69 71.5t-25 97t25 97.5zM166.5 462.5q19.5 -34.5 51.5 -54.5t70 -20q39 0 71.5 20t52 54.5t19.5 75.5
t-19.5 75.5t-52 54.5t-71.5 20q-38 0 -70 -20t-51.5 -54.5t-19.5 -75.5t19.5 -75.5zM566 282q25 45 69 71.5t96 26.5q53 0 96.5 -26.5t68.5 -71.5t25 -98q0 -52 -25 -97t-68.5 -71.5t-96.5 -26.5q-52 0 -96 26.5t-69 71.5t-25 97q0 53 25 98zM609.5 108.5
q19.5 -34.5 51.5 -54.5t70 -20q39 0 71.5 20t52 54.5t19.5 75.5t-19.5 75.5t-52 54.5t-71.5 20q-38 0 -70 -20t-51.5 -54.5t-19.5 -75.5t19.5 -75.5z" />
    <glyph glyph-name="ampersand" unicode="&#x26;" horiz-adv-x="673" 
d="M578 0l-82 93q-91 -96 -210 -96q-89 0 -136 38.5t-61 82.5t-14 72q0 23 10.5 61t42.5 81.5t92 73.5q-5 5 -34 32.5t-44.5 59.5t-15.5 67q0 33 18.5 70t55.5 62.5t91 25.5q52 0 89 -25t56 -61.5t19 -71.5q0 -54 -39 -95t-116 -80l194 -221q20 27 37.5 57.5t31 56.5
t17.5 34l43 -23q-4 -8 -21.5 -42t-36.5 -65t-38 -56l116 -131h-65zM134.5 135q10.5 -32 46.5 -60.5t105 -28.5q100 0 177 84l-209 238l-4 -2q-74 -34 -100 -86.5t-26 -89.5q0 -23 10.5 -55zM190.5 514.5q14.5 -21.5 45.5 -53.5q26 -26 31 -32q74 35 106.5 66t32.5 70
q0 25 -12.5 50.5t-38.5 42t-64 16.5q-39 0 -65 -17t-38 -42t-12 -50q0 -29 14.5 -50.5z" />
    <glyph glyph-name="quotesingle" unicode="'" horiz-adv-x="192" 
d="M113 645h-35l-6 128h48z" />
    <glyph glyph-name="parenleft" unicode="(" horiz-adv-x="348" 
d="M232 -45h51q-66 90 -101 193t-35 213t35 213t101 193h-51q-128 -202 -128 -406t128 -406z" />
    <glyph glyph-name="parenright" unicode=")" horiz-adv-x="344" 
d="M117 767h-52q65 -89 99 -192t34 -214t-34 -214t-99 -192h52q123 197 123 406t-123 406z" />
    <glyph glyph-name="asterisk" unicode="*" horiz-adv-x="531" 
d="M291 402l156 50l16 -48l-157 -51l99 -136l-42 -32l-98 138l-96 -138l-41 32l97 136l-157 51l17 49l155 -51v169h51v-169z" />
    <glyph glyph-name="plus" unicode="+" horiz-adv-x="725" 
d="M385 392h267v-47h-267v-265h-45v265h-267v47h267v267h45v-267z" />
    <glyph glyph-name="comma" unicode="," horiz-adv-x="246" 
d="M80 -100h-36l25 155h56z" />
    <glyph glyph-name="hyphen" unicode="-" horiz-adv-x="562" 
d="M492 392v-48h-422v48h422z" />
    <glyph glyph-name="period" unicode="." horiz-adv-x="243" 
d="M127 55q10 -11 10 -27q0 -17 -10 -28t-28 -11t-28.5 11t-10.5 28q0 16 10.5 27t28.5 11t28 -11z" />
    <glyph glyph-name="slash" unicode="/" horiz-adv-x="370" 
d="M94 -48h-48l211 812h47z" />
    <glyph glyph-name="zero" unicode="0" horiz-adv-x="589" 
d="M439 131q52 79 52 230t-52 229.5t-144 78.5q-93 0 -145 -78.5t-52 -229.5t52 -230t145 -79q92 0 144 79zM80 552.5q30 80.5 85.5 122.5t129.5 42t129 -42t85 -122.5t30 -191.5t-30 -191.5t-85 -123t-129 -42.5t-129.5 42.5t-85.5 123t-30 191.5t30 191.5z" />
    <glyph glyph-name="one" unicode="1" horiz-adv-x="264" 
d="M164 11h-47v648l-56 -23l-18 42l74 33h47v-700z" />
    <glyph glyph-name="two" unicode="2" horiz-adv-x="524" 
d="M173 183q79 71 127.5 120.5t82 102.5t33.5 102t-21 85.5t-56 56t-75 19.5q-111 0 -160 -117l-46 18q33 80 90 114t116 34q51 0 97 -26.5t75 -74t29 -109.5q0 -60 -36.5 -120.5t-88.5 -114t-137 -130.5q-86 -80 -82 -76h352v-49h-421v48l-1 1q28 28 122 116z" />
    <glyph glyph-name="three" unicode="3" horiz-adv-x="554" 
d="M470.5 309q33.5 -45 33.5 -99q0 -57 -31.5 -104t-83.5 -73.5t-112 -26.5t-112 26.5t-83.5 73.5t-31.5 104h48q0 -38 23 -73.5t64 -58.5t92 -23t92.5 22t65 56.5t23.5 69.5q0 62 -44.5 104.5t-134.5 42.5h-29v46h28q82 0 126 39t44 100q0 31 -21.5 63t-59.5 53t-85 21
t-84.5 -21t-58.5 -54.5t-21 -69.5h-48q0 53 29.5 97t78.5 69t104 25q56 0 105 -25t78 -68.5t29 -97.5q0 -49 -29.5 -88.5t-88.5 -64.5q61 -20 94.5 -65z" />
    <glyph glyph-name="four" unicode="4" horiz-adv-x="602" 
d="M434 245h117v-47h-117v-187h-48v187h-336v47l336 466h48v-466zM386 245v384l-278 -384h278z" />
    <glyph glyph-name="five" unicode="5" horiz-adv-x="551" 
d="M89 345l10 366h366v-49h-318l-8 -251q62 44 133 44q61 0 114 -31t84 -83.5t31 -113.5q0 -62 -31 -114t-83.5 -82t-114.5 -30q-53 0 -99 23t-78.5 62.5t-44.5 89.5l48 12q14 -62 61.5 -100t112.5 -38q50 0 91.5 23t65 63.5t23.5 90.5t-23.5 91t-65 64.5t-91.5 23.5
q-40 0 -74.5 -16.5t-59.5 -46.5l-1 1v-1z" />
    <glyph glyph-name="six" unicode="6" horiz-adv-x="551" 
d="M363.5 75q40.5 23 64 62.5t23.5 88.5t-23.5 89.5t-64 63.5t-90.5 23q-49 0 -88.5 -23t-62.5 -63.5t-23 -89.5t23 -88.5t62.5 -62.5t88.5 -23q50 0 90.5 23zM81 339h-1l218 378h56l-163 -282q42 16 82 16q61 0 113 -30.5t83 -82.5t31 -112t-31 -111.5t-83 -81.5t-113 -30
q-60 0 -111.5 30t-81.5 81.5t-30 111.5q0 62 31 113z" />
    <glyph glyph-name="seven" unicode="7" horiz-adv-x="522" 
d="M115 7l303 647h-353v49h407v-49l-303 -647h-54z" />
    <glyph glyph-name="eight" unicode="8" horiz-adv-x="559" 
d="M372 71.5q41 21.5 64 56t23 73.5q0 38 -23 72.5t-64 56t-92 21.5t-92 -21.5t-64.5 -56t-23.5 -72.5q0 -39 23 -73.5t64.5 -56t92.5 -21.5t92 21.5zM86.5 304.5q36.5 44.5 91.5 72.5q-47 28 -78 67t-31 82q0 53 29.5 96.5t78 68.5t103.5 25t103.5 -25t78 -68.5t29.5 -96.5
q0 -43 -31 -82t-78 -67q54 -28 90.5 -72.5t36.5 -94.5q0 -59 -31.5 -106.5t-84.5 -74.5t-113 -27q-61 0 -114 27t-84.5 74.5t-31.5 106.5q0 50 36.5 94.5zM138 468.5q21 -30.5 58.5 -49.5t83.5 -19q47 0 84 19t58 49.5t21 64.5t-21 65.5t-58 51t-84 19.5q-46 0 -83.5 -19.5
t-58.5 -51t-21 -65.5t21 -64.5z" />
    <glyph glyph-name="nine" unicode="9" horiz-adv-x="551" 
d="M185.5 651q-40.5 -23 -63.5 -63t-23 -89t23 -89t63.5 -63t90.5 -23q49 0 89 23t63 63t23 89t-23 89t-63 63t-89 23q-50 0 -90.5 -23zM80.5 611.5q30.5 51.5 82.5 81.5t113 30q60 0 111.5 -30.5t82 -82t30.5 -111.5q0 -56 -27 -107l-221 -383h-56l163 282q-42 -16 -83 -16
q-61 0 -113 30.5t-82.5 82t-30.5 111.5q0 61 30.5 112.5z" />
    <glyph glyph-name="colon" unicode=":" horiz-adv-x="263" 
d="M157 549.5q9 -9.5 9 -24.5t-9 -25t-25 -10q-17 0 -26 9.5t-9 25.5q0 15 9 24.5t26 9.5q16 0 25 -9.5zM106 224.5q9 9.5 26 9.5q16 0 25 -9.5t9 -24.5t-9 -24.5t-25 -9.5q-17 0 -26 9.5t-9 24.5t9 24.5z" />
    <glyph glyph-name="semicolon" unicode=";" horiz-adv-x="256" 
d="M109 74h-36l25 156h56zM101 549.5q9 9.5 26 9.5q16 0 25 -9.5t9 -24.5t-9 -24.5t-25 -9.5q-17 0 -26 9.5t-9 24.5t9 24.5z" />
    <glyph glyph-name="less" unicode="&#x3c;" horiz-adv-x="578" 
d="M476 720l32 -32l-335 -337l334 -337l-31 -30l-368 367z" />
    <glyph glyph-name="equal" unicode="=" horiz-adv-x="682" 
d="M572 509v-46h-462v46h462zM110 269h462v-47h-462v47z" />
    <glyph glyph-name="greater" unicode="&#x3e;" horiz-adv-x="578" 
d="M102 -16l-31 30l335 337l-336 337l32 32l368 -369z" />
    <glyph glyph-name="question" unicode="?" horiz-adv-x="514" 
d="M227 247q11 41 28.5 63t50.5 52l15 14q42 37 65 69t23 76q0 80 -46 119.5t-118 39.5q-60 0 -96 -30t-52 -79l-46 14q18 61 68 103t126 42q56 0 105 -23t79 -70.5t30 -115.5q0 -58 -28.5 -98.5t-56 -65.5t-34.5 -31q-31 -28 -45 -46t-21.5 -50.5t-7.5 -91.5h-50
q0 68 11 109zM215.5 60q9.5 10 25.5 10q17 0 26 -10t9 -25q0 -16 -9 -25.5t-26 -9.5q-16 0 -25.5 10t-9.5 25t9.5 25z" />
    <glyph glyph-name="at" unicode="@" horiz-adv-x="1018" 
d="M570.5 171q35.5 25 56 68.5t20.5 96.5t-20.5 95.5t-56 67t-78.5 24.5t-82 -24.5t-63 -67.5t-24 -95t24 -95.5t63 -69t82 -25.5t78.5 25zM137 566.5q58 98.5 156.5 156.5t215.5 58t215.5 -58t156.5 -156.5t58 -215.5q0 -46 -18 -87.5t-40 -58.5q-27 -21 -54 -28t-47 -7
q-35 0 -67.5 22t-42.5 44q-24 -60 -69.5 -98t-104.5 -38q-61 0 -112 32t-80 86.5t-29 117.5q0 62 29.5 116t80 86t111.5 32q43 0 81 -21.5t68 -61.5v72h48v-271q0 -17 13 -34.5t34.5 -28.5t46.5 -11q14 0 32.5 6.5t31.5 18.5q42 45 42 112q0 105 -52 193t-140 139.5
t-192 51.5q-105 0 -193 -51.5t-139.5 -140t-51.5 -192.5t51.5 -192.5t139.5 -140t193 -51.5q103 0 196 54l23 -40q-99 -59 -219 -59q-117 0 -215.5 57.5t-156.5 156t-58 215.5t58 215.5z" />
    <glyph glyph-name="A" unicode="A" horiz-adv-x="780" 
d="M714 0h-53l-91 219h-360l-90 -219h-54l300 722h48zM552 265l-161 391l-164 -391h325z" />
    <glyph glyph-name="B" unicode="B" horiz-adv-x="618" 
d="M83 0h291q54 0 100 27t73 72.5t27 100.5t-35.5 105t-82.5 72q42 24 71 64.5t29 84.5q0 54 -26.5 99t-72 71t-99.5 26h-275v-722zM130 351h248q40 0 73.5 -21t53.5 -57t20 -80q0 -41 -20 -74.5t-53.5 -53t-73.5 -19.5h-248v305zM130 676h232q40 0 73.5 -18.5t53.5 -51.5
t20 -73q0 -56 -40.5 -95t-98.5 -41h-240v279z" />
    <glyph glyph-name="C" unicode="C" horiz-adv-x="728" 
d="M243 41.5q-81 49.5 -125 134t-44 185.5t44 185.5t125 134t187 49.5q72 0 137.5 -28.5t114.5 -79.5l-38 -32q-43 44 -98 67.5t-118 23.5q-92 0 -161.5 -42.5t-106.5 -115.5t-37 -162q0 -90 37 -163t106.5 -115.5t161.5 -42.5q63 0 118 23.5t98 67.5l38 -31
q-49 -51 -114.5 -79.5t-137.5 -28.5q-106 0 -187 49.5z" />
    <glyph glyph-name="D" unicode="D" horiz-adv-x="702" 
d="M424 89q71 42 112.5 114t41.5 157q0 86 -41.5 158t-112.5 114t-155 42h-136v-627h136q84 0 155 42zM84 722h183q97 0 180 -48.5t131.5 -132t48.5 -181.5t-48.5 -180.5t-131.5 -131t-180 -48.5h-183v722z" />
    <glyph glyph-name="E" unicode="E" horiz-adv-x="587" 
d="M524 676h-403v-281h373v-48h-373v-300h403v-47h-452v722h452v-46z" />
    <glyph glyph-name="F" unicode="F" horiz-adv-x="567" 
d="M524 676h-394v-291h351v-48h-351v-337h-48v722h442v-46z" />
    <glyph glyph-name="G" unicode="G" horiz-adv-x="854" 
d="M767 345q0 -19 -3 -39q-12 -151 -101.5 -230.5t-234.5 -83.5q-104 0 -184 49t-123.5 133t-43.5 187q0 102 43.5 186.5t123.5 133t184 48.5q106 0 182.5 -50.5t115.5 -123.5l-42 -24q-32 62 -97.5 105.5t-157.5 43.5q-93 0 -161.5 -42t-105 -114.5t-36.5 -162.5t36.5 -163
t105 -115t161.5 -42q138 6 209.5 76.5t81.5 205.5h-278v45h323q2 -14 2 -23z" />
    <glyph glyph-name="H" unicode="H" horiz-adv-x="691" 
d="M607 0h-49v346h-426v-346h-48v722h48v-327h426v327h49v-722z" />
    <glyph glyph-name="I" unicode="I" horiz-adv-x="215" 
d="M131 722v-722h-47v722h47z" />
    <glyph glyph-name="J" unicode="J" horiz-adv-x="583" 
d="M470 101q-31 -50 -84 -79t-115 -29q-68 0 -125 36t-84 94l41 20q21 -45 66 -73.5t102 -28.5q50 0 92 23.5t66 62t24 83.5v512h48v-511q0 -60 -31 -110z" />
    <glyph glyph-name="K" unicode="K" horiz-adv-x="654" 
d="M293 401l297 -401h-59l-270 363l-129 -144v-219h-49v722h49v-437l391 437h58z" />
    <glyph glyph-name="L" unicode="L" horiz-adv-x="581" 
d="M131 46h387v-46h-436v722h49v-676z" />
    <glyph glyph-name="M" unicode="M" horiz-adv-x="784" 
d="M698 0h-48v618l-242 -459h-33l-245 459v-618h-47v722h47l262 -494l258 494h48v-722z" />
    <glyph glyph-name="N" unicode="N" horiz-adv-x="719" 
d="M638 0h-47l-462 636v-636h-48v722h48l462 -636v636h47v-722z" />
    <glyph glyph-name="O" unicode="O" horiz-adv-x="856" 
d="M586.5 84q68.5 42 105.5 115t37 162t-37 161.5t-105.5 114.5t-158.5 42t-158.5 -42t-105.5 -114.5t-37 -161.5t37 -162t105.5 -115t158.5 -42t158.5 42zM120.5 546.5q43.5 84.5 123 134t184.5 49.5t184.5 -49.5t123 -134t43.5 -185.5q0 -102 -43.5 -186t-123 -133.5
t-184.5 -49.5t-184.5 49.5t-123 133.5t-43.5 186q0 101 43.5 185.5z" />
    <glyph glyph-name="P" unicode="P" horiz-adv-x="631" 
d="M423.5 369q38.5 23 61.5 61t23 82t-23 82t-61.5 60t-83.5 22h-208v-330h208q45 0 83.5 23zM83 722h263q57 0 105 -28t76 -76.5t28 -105.5q0 -58 -28 -106.5t-76 -77t-105 -28.5h-214v-300h-49v722z" />
    <glyph glyph-name="Q" unicode="Q" horiz-adv-x="869" 
d="M713 253q18 57 17 107q0 89 -37.5 161.5t-106 115t-158.5 42.5q-89 0 -157.5 -42.5t-106 -115t-37.5 -161.5q0 -88 37.5 -160.5t106 -115t157.5 -42.5q63 -1 111.5 19t95.5 60l-98 100l33 34l96 -98q29 39 47 96zM120.5 546q43.5 84 123 133.5t184.5 49.5t184.5 -49.5
t123 -133.5t43.5 -186q2 -62 -19.5 -126.5t-58.5 -112.5l91 -92l-33 -36l-89 93q-50 -46 -108.5 -70t-133.5 -24q-105 0 -184.5 49t-123 133.5t-43.5 185.5q0 102 43.5 186z" />
    <glyph glyph-name="R" unicode="R" horiz-adv-x="675" 
d="M428 364q39 23 61.5 62t22.5 84t-22.5 83t-61.5 60.5t-85 22.5h-211v-335h211q46 0 85 23zM84 722h249q61 0 113 -29.5t82 -79t30 -105.5q2 -47 -21.5 -94t-66.5 -79t-96 -38l217 -297h-57l-219 295h-183v-295h-48v722z" />
    <glyph glyph-name="S" unicode="S" horiz-adv-x="619" 
d="M454 630q-35 29 -74.5 40t-75.5 9q-43 -4 -77 -18t-55 -51q-17 -34 -17 -62q0 -35 28 -69q19 -24 46 -43q41 -30 72 -42l47 -19q81 -34 119 -56.5t55 -45.5q14 -18 24.5 -44t10.5 -56q0 -39 -19 -74q-17 -30 -38 -47.5t-49 -32.5q-21 -11 -47 -18.5t-49 -7.5
q-52 -2 -97.5 12.5t-90.5 49.5q-38 30 -60 67t-30 65l46 14q23 -68 76 -109q36 -28 69.5 -40.5t74.5 -12.5q19 0 42 5.5t43 15.5q24 13 39 26t28 36q14 25 14 51q0 37 -26 72q-14 19 -46 37.5t-107 47.5l-47 21q-38 16 -82 47q-36 27 -55 51q-38 44 -38 99q0 40 21 83
q29 56 81.5 75t103.5 19q98 0 171 -58q39 -33 70 -87l-42 -23q-24 43 -59 73z" />
    <glyph glyph-name="T" unicode="T" horiz-adv-x="642" 
d="M579 676h-236v-676h-47v676h-233v46h516v-46z" />
    <glyph glyph-name="U" unicode="U" horiz-adv-x="716" 
d="M598.5 134q-36.5 -65 -99.5 -103t-139 -38q-79 0 -141.5 37.5t-98 103t-35.5 144.5v444h48v-444q0 -68 29.5 -121.5t81.5 -84t116 -30.5q62 0 114.5 30.5t83 84.5t30.5 121v444h47v-444q0 -79 -36.5 -144z" />
    <glyph glyph-name="V" unicode="V" horiz-adv-x="777" 
d="M419 0h-49l-304 722h50l279 -650l269 650h47z" />
    <glyph glyph-name="W" unicode="W" horiz-adv-x="1071" 
d="M779 0h-50l-199 640l-186 -640h-50l-221 722h49l198 -639l184 639h50l202 -639l194 639h48z" />
    <glyph glyph-name="X" unicode="X" horiz-adv-x="739" 
d="M396 362l277 -362h-61l-243 319l-243 -319h-60l277 362l-277 360h60l243 -318l244 319l60 -1z" />
    <glyph glyph-name="Y" unicode="Y" horiz-adv-x="755" 
d="M402 282v-282h-48v282l-288 440h56l256 -390l255 390h56z" />
    <glyph glyph-name="Z" unicode="Z" horiz-adv-x="664" 
d="M620 672l-513 -625h513v-47h-576v49l520 626h-520v47h576v-50z" />
    <glyph glyph-name="bracketleft" unicode="[" horiz-adv-x="336" 
d="M271 725h-121v-730h121v-44h-168v817h168v-43z" />
    <glyph glyph-name="backslash" unicode="\" horiz-adv-x="370" 
d="M113 764l211 -812h-48l-210 812h47z" />
    <glyph glyph-name="bracketright" unicode="]" horiz-adv-x="336" 
d="M233 768v-817h-168v44h121v730h-121v43h168z" />
    <glyph glyph-name="asciicircum" unicode="^" horiz-adv-x="512" 
d="M432 382l11 -26h-50l-136 309l-138 -309h-50l161 366h52z" />
    <glyph glyph-name="underscore" unicode="_" horiz-adv-x="572" 
d="M518 -63v-45h-464v45h464z" />
    <glyph glyph-name="grave" unicode="`" horiz-adv-x="228" 
d="M139 773l26 -128h-34l-49 128h57z" />
    <glyph glyph-name="a" unicode="a" horiz-adv-x="596" 
d="M381 71.5q43 25.5 69 72.5t26 107t-26 106.5t-69 72t-92 25.5q-87 0 -136.5 -57.5t-49.5 -146.5q0 -90 49.5 -147.5t136.5 -57.5q49 0 92 25.5zM80 380q27 58 80 92t127 34q61 0 111 -34t77 -92v129h48v-509h-48v121q-24 -53 -75 -90t-113 -37q-74 0 -127 34.5t-80 93
t-27 129.5t27 129z" />
    <glyph glyph-name="b" unicode="b" horiz-adv-x="609" 
d="M457 100.5q49 58.5 49 152.5q0 93 -51 152t-140 59q-52 0 -96 -28t-70.5 -76t-26.5 -107t25.5 -107.5t69.5 -76t98 -27.5q93 0 142 58.5zM73 741h48v-356q30 63 84.5 95t112.5 32q77 0 130.5 -34.5t80.5 -93.5t27 -131q0 -73 -26.5 -132t-81 -93.5t-134.5 -34.5
q-56 0 -112 36t-81 93v-122h-48v741z" />
    <glyph glyph-name="c" unicode="c" horiz-adv-x="491" 
d="M370.5 58.5q37.5 16.5 66.5 45.5l36 -37q-37 -36 -84 -56.5t-99 -20.5q-79 0 -137.5 35.5t-89.5 96.5t-31 134q0 74 31 135t89 96.5t138 35.5q52 0 99 -20.5t84 -57.5l-36 -34q-29 30 -66.5 46.5t-79.5 16.5q-65 0 -112.5 -28.5t-72 -77.5t-24.5 -110t24.5 -110t72 -77.5
t112.5 -28.5q42 0 79.5 16.5z" />
    <glyph glyph-name="d" unicode="d" horiz-adv-x="611" 
d="M393 70q44 28 70.5 76t26.5 107q0 58 -26.5 107t-70.5 77t-95 28q-60 0 -104 -28t-67 -76t-23 -108t23 -108t67 -75.5t104 -27.5q51 0 95 28zM81 384.5q28 59.5 82.5 94.5t130.5 35q67 0 120.5 -38t75.5 -98v363h48v-741h-48v128q-23 -62 -75.5 -99t-120.5 -37
q-76 0 -130.5 35t-82.5 94.5t-28 131.5t28 131.5z" />
    <glyph glyph-name="e" unicode="e" horiz-adv-x="562" 
d="M438.5 369q-18.5 42 -56.5 68.5t-93 24.5q-83 0 -132 -47.5t-56 -132.5h357q-1 45 -19.5 87zM80 384q27 58 80.5 92.5t127.5 34.5q99 0 141.5 -47.5t58.5 -89.5q12 -31 16.5 -68.5t3.5 -71.5h-407q2 -86 51 -137t137 -51q65 0 106 25.5t56 62.5l40 -22q-21 -47 -72.5 -80
t-130.5 -33q-74 0 -127.5 34.5t-80.5 92.5t-27 129t27 129z" />
    <glyph glyph-name="f" unicode="f" horiz-adv-x="411" 
d="M143 0v463h-104v46h104v109q0 37 18.5 68.5t50.5 50.5t69 19q52 0 91 -36l-32 -36q-26 23 -59 23q-40 0 -64.5 -25t-24.5 -64v-109h158v-46h-158v-463h-49z" />
    <glyph glyph-name="g" unicode="g" horiz-adv-x="596" 
d="M382 71q43 27 68.5 74.5t25.5 105.5q0 57 -25.5 104t-68.5 74.5t-93 27.5q-58 0 -100 -27t-64 -73.5t-22 -105.5q0 -92 49.5 -149.5t136.5 -57.5q50 0 93 27zM79.5 379q26.5 58 78 92.5t122.5 34.5q67 0 121 -38.5t74 -89.5v131h48v-480q-1 -119 -58.5 -189t-187.5 -70
q-118 0 -199 122l42 25q29 -45 66 -71.5t91 -26.5q106 0 151.5 53.5t46.5 160.5v97q-18 -56 -69.5 -95.5t-118.5 -39.5q-74 0 -127 34t-80 92.5t-27 129.5q0 70 26.5 128z" />
    <glyph glyph-name="h" unicode="h" horiz-adv-x="551" 
d="M385.5 413.5q-38.5 37.5 -101.5 37.5q-44 0 -80 -23t-56.5 -64.5t-20.5 -96.5v-267h-49v741h49v-347q17 48 56.5 79t104.5 31q82 0 133.5 -55.5t51.5 -157.5v-291h-49v294q0 82 -38.5 119.5z" />
    <glyph glyph-name="i" unicode="i" horiz-adv-x="191" 
d="M122 509v-509h-48v509h48zM72.5 719q9.5 10 26.5 10q16 0 25.5 -10t9.5 -25t-9.5 -25t-25.5 -10q-17 0 -26.5 10t-9.5 25t9.5 25z" />
    <glyph glyph-name="j" unicode="j" horiz-adv-x="201" 
d="M-25.5 -177q18.5 -4 35.5 -4q34 0 55.5 22.5t21.5 63.5v604h49v-604q0 -40 -17.5 -70.5t-46.5 -47.5t-62 -17q-23 0 -44 4.5t-26 5.5l8 48q8 -1 26.5 -5zM84.5 719q9.5 10 25.5 10q17 0 26 -10t9 -25q0 -16 -9 -25.5t-26 -9.5q-16 0 -25.5 10t-9.5 25t9.5 25z" />
    <glyph glyph-name="k" unicode="k" horiz-adv-x="502" 
d="M125 204l258 305h59l-189 -223l207 -286h-60l-177 248l-98 -116v-132h-48v741h48v-537z" />
    <glyph glyph-name="l" unicode="l" horiz-adv-x="176" 
d="M112 741v-741h-48v741h48z" />
    <glyph glyph-name="m" unicode="m" horiz-adv-x="847" 
d="M693.5 419q-34.5 37 -94.5 37q-34 0 -68.5 -17.5t-56.5 -47.5t-22 -66v-325h-49v325q0 57 -35 93.5t-95 36.5q-44 0 -77.5 -19t-51 -49.5t-17.5 -64.5v-322h-48v509h48v-89q21 37 55 62.5t95 25.5q60 0 95 -26.5t61 -75.5q29 46 73 74t96 28q56 0 95.5 -24t59.5 -63
t20 -83v-338h-49v325q0 57 -34.5 94z" />
    <glyph glyph-name="n" unicode="n" horiz-adv-x="534" 
d="M384.5 414.5q-38.5 40.5 -102.5 40.5q-46 0 -83 -23.5t-58 -58t-21 -65.5v-308h-48v509h48v-100q19 37 58 68t105 31q57 0 100 -26t66 -68t23 -88v-326h-49v311q0 63 -38.5 103.5z" />
    <glyph glyph-name="o" unicode="o" horiz-adv-x="589" 
d="M397.5 72q43.5 27 66.5 74.5t23 107.5t-23 107.5t-66.5 74.5t-103.5 27q-90 0 -141 -58.5t-51 -150.5t51 -150.5t141 -58.5q60 0 103.5 27zM81.5 383.5q28.5 58.5 83 93t129.5 34.5t130 -34.5t83.5 -93t28.5 -129.5q0 -70 -28.5 -128.5t-83.5 -93.5t-130 -35t-129.5 35
t-83 93.5t-28.5 128.5q0 71 28.5 129.5z" />
    <glyph glyph-name="p" unicode="p" horiz-adv-x="603" 
d="M414 70q42 27 64 74.5t22 106.5q0 58 -22 105t-64 73.5t-100 26.5q-49 0 -92 -27t-69 -74t-26 -104q0 -58 26 -105.5t69 -75t92 -27.5q58 0 100 27zM78 509h48v-130q24 57 75 92.5t114 35.5q75 0 128 -34.5t80 -93t27 -128.5q0 -72 -27 -130.5t-80 -93t-128 -34.5
q-68 0 -116.5 38.5t-72.5 90.5v-352h-48v739z" />
    <glyph glyph-name="q" unicode="q" horiz-adv-x="595" 
d="M381 70.5q43 27.5 69 75t26 105.5q0 57 -26 104t-69 74t-92 27q-86 0 -135.5 -57.5t-49.5 -147.5q0 -91 49.5 -149.5t135.5 -58.5q49 0 92 27.5zM80 379.5q27 58.5 80 93t128 34.5q63 0 114 -35.5t75 -92.5v130h48v-739h-48v352q-24 -52 -72.5 -90.5t-116.5 -38.5
q-75 0 -128 34.5t-80 93t-27 130.5q0 70 27 128.5z" />
    <glyph glyph-name="r" unicode="r" horiz-adv-x="335" 
d="M190.5 478.5q48.5 32.5 106.5 32.5v-50q-46 0 -88.5 -26t-68 -71.5t-25.5 -100.5v-263h-48v509h48v-122q27 59 75.5 91.5z" />
    <glyph glyph-name="s" unicode="s" horiz-adv-x="484" 
d="M341 436q-46 29 -102 29q-30 0 -61.5 -10.5t-49.5 -39.5q-10 -19 -10 -34q0 -21 20 -43q12 -17 31 -27q25 -16 53 -24l36 -11q64 -19 97 -35.5t48 -33.5q12 -13 20.5 -32t8.5 -42q0 -25 -13 -51q-22 -41 -69 -61q-29 -14 -72 -20q-8 -1 -25 -1q-63 0 -126 38
q-31 20 -49.5 45t-25.5 45l42 19q18 -45 57 -69q33 -21 60.5 -28t62.5 -4q33 6 57 17q19 9 30 18t17 21q9 18 9 32q0 22 -18 42q-11 13 -37.5 25t-86.5 30l-36 11q-37 12 -65 30q-18 11 -28.5 22t-11.5 12q-31 35 -31 78q0 28 13 53q21 37 57 53t71 19q8 1 24 1
q76 0 130 -37q39 -29 57 -58l-38 -24q-14 22 -46 45z" />
    <glyph glyph-name="t" unicode="t" horiz-adv-x="373" 
d="M246 1q-34 0 -62.5 17t-45.5 45.5t-17 61.5v340h-82v45h82v160h49v-160h136v-45h-136v-340q0 -34 21 -54.5t55 -20.5q28 0 60 8l12 -48q-40 -9 -72 -9z" />
    <glyph glyph-name="u" unicode="u" horiz-adv-x="531" 
d="M158.5 92q38.5 -40 102.5 -40q47 0 83.5 23.5t56.5 58.5t20 67v309h48v-510h-48v100q-20 -39 -58 -69t-105 -30q-56 0 -98.5 26t-65 68t-22.5 88v326h48v-311q0 -66 38.5 -106z" />
    <glyph glyph-name="v" unicode="v" horiz-adv-x="554" 
d="M303 0h-47l-213 509h52l185 -447l179 447h52z" />
    <glyph glyph-name="w" unicode="w" horiz-adv-x="750" 
d="M553 0h-46l-130 432l-129 -432h-47l-153 509h51l126 -428l126 428h51l129 -430l123 430h51z" />
    <glyph glyph-name="x" unicode="x" horiz-adv-x="511" 
d="M283 251l185 -251h-59l-153 208l-153 -208h-60l187 251l-187 258h59l154 -216l153 216h59z" />
    <glyph glyph-name="y" unicode="y" horiz-adv-x="557" 
d="M168 -230l96 243l-208 496h53l180 -434l173 434h52l-188 -470h1l-107 -269h-52z" />
    <glyph glyph-name="z" unicode="z" horiz-adv-x="492" 
d="M441 461l-329 -413h329v-48h-390v48l332 413h-332v48h390v-48z" />
    <glyph glyph-name="braceleft" unicode="{" horiz-adv-x="387" 
d="M166.5 422.5q22.5 39.5 22.5 72.5v164q0 61 30 83.5t65 22.5h38v-42h-38q-25 0 -39 -12.5t-14 -51.5v-164q0 -27 -13.5 -67.5t-59.5 -65.5q46 -26 59.5 -66.5t13.5 -66.5v-165q0 -39 14 -51.5t39 -12.5h38v-42h-38q-35 0 -65 22.5t-30 83.5v165q0 33 -22.5 72.5
t-101.5 39.5v42q79 0 101.5 39.5z" />
    <glyph glyph-name="bar" unicode="|" horiz-adv-x="277" 
d="M155 722v-722h-34v722h34z" />
    <glyph glyph-name="braceright" unicode="}" horiz-adv-x="387" 
d="M220.5 301.5q-22.5 -39.5 -22.5 -72.5v-165q0 -60 -30 -83t-65 -23h-38v42h38q24 0 38.5 12.5t14.5 51.5v165q0 26 13.5 66.5t59.5 66.5q-46 25 -59.5 65.5t-13.5 67.5v164q0 39 -14.5 51.5t-38.5 12.5h-38v42h38q35 0 65 -23t30 -83v-164q0 -33 22.5 -72.5t101.5 -39.5
v-42q-79 0 -101.5 -39.5z" />
    <glyph glyph-name="asciitilde" unicode="~" horiz-adv-x="691" 
d="M146.5 438q41.5 23 79.5 23q32 0 52 -7.5t30 -14t13 -8.5l86 -54q3 -2 12.5 -8t22 -10.5t28.5 -5.5q29 0 53 12.5t39 52.5l46 -18q-21 -55 -57.5 -75t-73.5 -20q-51 0 -72.5 14.5t-23.5 15.5l-86 54q-2 1 -12 7.5t-23.5 11t-29.5 5.5q-28 0 -56.5 -15.5t-45.5 -56.5
l-46 18q23 56 64.5 79z" />
    <glyph glyph-name="yen" unicode="&#xa5;" horiz-adv-x="775" 
d="M435 388h181v-49h-207v-115h203v-47h-203v-177h-48v177h-209v47h209v115h-205v49h180l-263 334h57l255 -318l261 318h56z" />
    <glyph glyph-name="copyright" unicode="&#xa9;" horiz-adv-x="1084" 
d="M158 573q60 102 162 162t222 60t222 -60t162 -162t60 -222t-60 -222t-162 -161.5t-222 -59.5t-222 59.5t-162 161.5t-60 222t60 222zM199.5 153q53.5 -91 144 -144.5t198.5 -53.5t198.5 53.5t144 144.5t53.5 198q0 108 -53 199t-144 144t-199 53t-199 -53t-144 -144
t-53 -199q0 -107 53.5 -198zM324 491q36 63 97.5 100t134.5 37q53 0 102 -21t86 -57l-37 -35q-30 31 -69.5 48t-82.5 17q-58 0 -108 -30.5t-79.5 -82.5t-29.5 -113q0 -62 29.5 -113.5t79.5 -81.5t108 -30q43 0 82.5 16.5t69.5 47.5l37 -35q-37 -37 -85.5 -58t-102.5 -21
q-73 0 -134.5 37.5t-97.5 100.5t-36 137t36 137z" />
    <glyph glyph-name="uni00AD" unicode="&#xad;" horiz-adv-x="602" 
d="M532 392v-48h-462v48h462z" />
    <glyph glyph-name="registered" unicode="&#xae;" horiz-adv-x="529" 
d="M318 528h47l-54 74q20 8 31.5 26t11.5 40q0 32 -21.5 53.5t-53.5 21.5h-103v-215h38v66h56zM79 741.5q29 49.5 78.5 78.5t107.5 29t107 -29t78 -78.5t29 -107.5t-29 -107t-78 -78t-107 -29t-107.5 29t-78.5 78t-29 107t29 107.5zM107.5 542.5q24.5 -41.5 66 -65.5
t91.5 -24q49 0 90.5 24t66 65.5t24.5 91.5t-24.5 91.5t-66 66t-90.5 24.5q-50 0 -91.5 -24.5t-66 -66t-24.5 -91.5t24.5 -91.5zM214 706h67q17 0 27.5 -10.5t10.5 -27.5q0 -15 -10.5 -26t-27.5 -11h-67v75z" />
    <glyph glyph-name="degree" unicode="&#xb0;" horiz-adv-x="449" 
d="M279 792.5q30 -17.5 47.5 -47.5t17.5 -65t-17.5 -64.5t-47.5 -46.5t-65 -17q-53 0 -90.5 37.5t-37.5 90.5q0 35 17 65t46.5 47.5t64.5 17.5t65 -17.5zM151 616.5q27 -26.5 64 -26.5q38 0 64 26.5t26 63.5t-26 63.5t-64 26.5q-37 0 -64 -26.5t-27 -63.5t27 -63.5z" />
    <glyph glyph-name="plusminus" unicode="&#xb1;" horiz-adv-x="654" 
d="M349 472h215v-47h-215v-214h-46v214h-213v47h213v212h46v-212zM90 96h474v-47h-474v47z" />
    <glyph glyph-name="uni00B2" unicode="&#xb2;" horiz-adv-x="371" 
d="M122 549q71 63 107.5 106t36.5 84t-24 64.5t-59 23.5q-30 0 -53.5 -14t-38.5 -51l-38 16q21 49 56 70t74 21q31 0 60 -16.5t47 -46t18 -67.5q0 -37 -22 -74t-52.5 -68.5t-82.5 -78.5l-34 -31h200v-42h-262v42z" />
    <glyph glyph-name="uni00B3" unicode="&#xb3;" horiz-adv-x="369" 
d="M302.5 613.5q20.5 -27.5 20.5 -58.5q0 -36 -19 -64.5t-50.5 -45t-68.5 -16.5t-69 16.5t-51 45t-19 64.5h42q0 -33 27 -58.5t70 -25.5t70 24.5t27 55.5q0 35 -23.5 59t-71.5 24h-17v42h17q44 0 67 22.5t23 56.5q0 28 -25 51.5t-64 23.5t-64 -23t-25 -56h-41q0 33 18 60
t48 42.5t64 15.5q53 0 91 -34t38 -84q0 -29 -18 -54t-49 -41q32 -15 52.5 -42.5z" />
    <glyph glyph-name="paragraph" unicode="&#xb6;" horiz-adv-x="1000" 
d="M511 -39h44v746h75v-746h43v786h-162q-62 0 -115 -31t-84 -84t-31 -115t31 -115.5t84 -84.5t115 -31v-325z" />
    <glyph glyph-name="periodcentered" unicode="&#xb7;" horiz-adv-x="463" 
d="M265 401q12 -13 12 -33q0 -21 -12 -33t-34 -12q-21 0 -33 12t-12 33q0 20 12 33t33 13q22 0 34 -13z" />
    <glyph glyph-name="uni00B9" unicode="&#xb9;" horiz-adv-x="198" 
d="M152 430h-42v387l-50 -19l-14 40l64 26h42v-434z" />
    <glyph glyph-name="multiply" unicode="&#xd7;" horiz-adv-x="722" 
d="M586 110l-225 225l-224 -224l-34 34l224 225l-224 224l33 35l226 -225l225 225l32 -35l-224 -224l225 -225z" />
    <glyph glyph-name="divide" unicode="&#xf7;" horiz-adv-x="725" 
d="M73 388h579v-47h-579v47zM333.5 183.5q10.5 11.5 28.5 11.5t28.5 -11.5t10.5 -27.5q0 -17 -10.5 -28t-28.5 -11t-28.5 11t-10.5 28q0 16 10.5 27.5zM333.5 604q10.5 11 28.5 11t28.5 -11t10.5 -27q0 -18 -10.5 -28.5t-28.5 -10.5t-28.5 10.5t-10.5 28.5q0 16 10.5 27z
" />
    <glyph glyph-name="uni2015" unicode="&#x2015;" horiz-adv-x="995" 
d="M919 392v-48h-843v48h843z" />
    <glyph glyph-name="quoteleft" unicode="&#x2018;" horiz-adv-x="228" 
d="M131 773h34l-25 -128h-58z" />
    <glyph glyph-name="quoteright" unicode="&#x2019;" horiz-adv-x="227" 
d="M97 645h-34l26 128h56z" />
    <glyph glyph-name="quotedblleft" unicode="&#x201c;" horiz-adv-x="366" 
d="M264 774h36l-27 -128h-56zM135 773h33l-24 -128h-59z" />
    <glyph glyph-name="quotedblright" unicode="&#x201d;" horiz-adv-x="366" 
d="M102 644h-36l26 128h57zM222 774h59l-48 -128h-35z" />
    <glyph glyph-name="twodotenleader" unicode="&#x2025;" horiz-adv-x="614" 
d="M276 392.5q9 -9.5 9 -24.5t-9 -24.5t-25 -9.5t-25 9.5t-9 24.5t9 24.5t25 9.5t25 -9.5zM338 392.5q9 9.5 25 9.5t25 -9.5t9 -24.5t-9 -24.5t-25 -9.5t-25 9.5t-9 24.5t9 24.5z" />
    <glyph glyph-name="ellipsis" unicode="&#x2026;" horiz-adv-x="780" 
d="M167 392.5q9 -9.5 9 -24.5t-9 -24.5t-25 -9.5t-25 9.5t-9 24.5t9 24.5t25 9.5t25 -9.5zM364 392.5q9 9.5 25 9.5t25 -9.5t9 -24.5t-9 -24.5t-25 -9.5t-25 9.5t-9 24.5t9 24.5zM612 392.5q9 9.5 26 9.5q16 0 25 -9.5t9 -24.5t-9 -24.5t-25 -9.5q-17 0 -26 9.5t-9 24.5
t9 24.5z" />
    <glyph glyph-name="minute" unicode="&#x2032;" horiz-adv-x="227" 
d="M97 645h-34l26 128h56z" />
    <glyph glyph-name="second" unicode="&#x2033;" horiz-adv-x="366" 
d="M102 644h-36l26 128h57zM222 774h59l-48 -128h-35z" />
    <glyph glyph-name="uni203B" unicode="&#x203b;" horiz-adv-x="906" 
d="M452 396l284 283l34 -34l-284 -283l282 -282l-32 -33l-282 282l-284 -283l-34 34l283 283l-282 282l33 33zM161 392.5q10 10.5 27 10.5t27 -10.5t10 -26.5q0 -17 -9.5 -27.5t-27.5 -10.5t-27.5 10.5t-9.5 27.5q0 16 10 26.5zM428 114.5q10 10.5 27 10.5t27 -10.5
t10 -26.5t-10 -26.5t-27 -10.5t-27 10.5t-10 26.5t10 26.5zM428 671.5q10 10.5 27 10.5t27 -10.5t10 -26.5t-10 -26.5t-27 -10.5t-27 10.5t-10 26.5t10 26.5zM697 392.5q10 10.5 27 10.5t27 -10.5t10 -26.5q0 -17 -9.5 -27.5t-27.5 -10.5t-27.5 10.5t-9.5 27.5q0 16 10 26.5
z" />
    <glyph glyph-name="uni2074" unicode="&#x2074;" horiz-adv-x="418" 
d="M308 581h64v-43h-64v-110h-44v110h-218v43l220 282h42v-282zM264 581v214l-166 -214h166z" />
    <glyph glyph-name="uni2081" unicode="&#x2081;" horiz-adv-x="200" 
d="M154 -151h-43v387l-51 -20l-14 40l65 26h43v-433z" />
    <glyph glyph-name="uni2082" unicode="&#x2082;" horiz-adv-x="371" 
d="M122 -37q71 63 107.5 106t36.5 84t-24 64.5t-59 23.5q-30 0 -53.5 -14t-38.5 -51l-38 16q21 49 56 70t74 21q31 0 60 -16.5t47 -46t18 -67.5q0 -37 -22 -74t-52.5 -68.5t-82.5 -78.5l-34 -31h200v-42h-262v42z" />
    <glyph glyph-name="uni2083" unicode="&#x2083;" horiz-adv-x="369" 
d="M302.5 36.5q20.5 -27.5 20.5 -58.5q0 -36 -19 -64.5t-50.5 -45t-68.5 -16.5t-69 16.5t-51 45t-19 64.5h42q0 -33 27 -58.5t70 -25.5t70 24.5t27 55.5q0 35 -23.5 59t-71.5 24h-17v42h17q44 0 67 22.5t23 56.5q0 28 -25 51.5t-64 23.5t-64 -23t-25 -56h-41q0 33 18 60
t48 42.5t64 15.5q53 0 91 -34t38 -84q0 -29 -18 -54t-49 -41q32 -15 52.5 -42.5z" />
    <glyph glyph-name="uni2084" unicode="&#x2084;" horiz-adv-x="418" 
d="M308 0h64v-43h-64v-110h-44v110h-218v43l220 282h42v-282zM264 0v212l-166 -212h166z" />
    <glyph glyph-name="uni20A9" unicode="&#x20a9;" horiz-adv-x="1088" 
d="M875 391h137v-48h-150l-97 -343h-45l-94 343h-162l-95 -343h-45l-97 343h-151v48h137l-94 331h50l93 -331h168l91 330h47l91 -330h168l93 331h49zM347 91l70 252h-141zM613 391l-68 246l-68 -246h136zM742 91l71 252h-141z" />
    <glyph glyph-name="Euro" unicode="&#x20ac;" horiz-adv-x="806" 
d="M355.5 17q-66.5 30 -115.5 84t-75 123h-108v49h93q-9 41 -9 83q0 47 10 87h-94v48h109q26 68 75.5 121t115.5 83t140 30q73 0 138 -28.5t114 -79.5l-37 -33q-90 93 -212 93q-92 0 -168 -51t-114 -135h174v-48h-191q-12 -42 -12 -87q0 -40 10 -83h193v-49h-176
q37 -85 114 -137.5t170 -52.5q121 0 212 94l37 -33q-49 -51 -114 -79.5t-138 -28.5q-75 0 -141.5 30z" />
    <glyph glyph-name="uni2103" unicode="&#x2103;" horiz-adv-x="1068" 
d="M292 797.5q30 -17.5 47 -47t17 -64.5q0 -54 -37.5 -91.5t-91.5 -37.5t-91.5 37.5t-37.5 91.5q0 35 17 64.5t47 47t65 17.5t65 -17.5zM164.5 622q26.5 -26 63.5 -26t63 26t26 63q0 38 -26 64.5t-63 26.5t-63.5 -26.5t-26.5 -64.5q0 -37 26.5 -63zM428 545q44 84 120 134
t167 50q68 0 128.5 -28.5t106.5 -79.5l-36 -30q-42 44 -89 67t-104 23q-77 0 -144 -42.5t-106.5 -115.5t-39.5 -161t39.5 -160.5t106.5 -115t144 -42.5q57 0 104 23t89 67l36 -31q-46 -51 -106.5 -79.5t-128.5 -28.5q-91 0 -167 50t-120 134t-44 183t44 183z" />
    <glyph glyph-name="uni2109" unicode="&#x2109;" horiz-adv-x="1070" 
d="M291 796.5q30 -17.5 47 -47.5t17 -65q0 -53 -37.5 -90.5t-91.5 -37.5q-53 0 -90.5 37.5t-37.5 90.5q0 35 17 65t46.5 47.5t64.5 17.5t65 -17.5zM163.5 620.5q25.5 -25.5 62.5 -25.5q38 0 64.5 26t26.5 63q0 38 -26.5 64.5t-64.5 26.5q-37 0 -62.5 -26.5t-25.5 -64.5
t25.5 -63.5zM470 721h483v-46h-435v-292h390v-47h-390v-336h-48v721z" />
    <glyph glyph-name="trademark" unicode="&#x2122;" horiz-adv-x="959" 
d="M403 818h-141v-396h-43v396h-142v41h326v-41zM462 852h43l168 -286l168 286h43v-430h-43v332l-147 -242h-43l-146 242v-332h-43v430z" />
    <glyph glyph-name="arrowleft" unicode="&#x2190;" horiz-adv-x="1000" 
d="M259 365l367 368l34 -31l-336 -337l336 -337l-34 -32z" />
    <glyph glyph-name="arrowup" unicode="&#x2191;" horiz-adv-x="1000" 
d="M132 183l366 368l370 -368l-32 -32l-338 335l-336 -335z" />
    <glyph glyph-name="arrowright" unicode="&#x2192;" horiz-adv-x="1000" 
d="M340 28l336 337l-336 337l34 31l367 -368l-367 -369z" />
    <glyph glyph-name="arrowdown" unicode="&#x2193;" horiz-adv-x="1000" 
d="M132 511l30 32l336 -335l338 335l32 -32l-370 -368z" />
    <glyph glyph-name="arrowboth" unicode="&#x2194;" horiz-adv-x="1000" 
d="M49 371l228 228l34 -35l-167 -167l713 -2l-169 170l34 34l228 -228l-228 -228l-34 34l167 169l-714 2l171 -171l-35 -34z" />
    <glyph glyph-name="arrowupdn" unicode="&#x2195;" horiz-adv-x="1000" 
d="M272 210l35 34l168 -168l2 570l-170 -170l-35 35l229 228l227 -228l-35 -34l-167 169l-2 -572l170 170l34 -34l-227 -229z" />
    <glyph glyph-name="uni2196" unicode="&#x2196;" horiz-adv-x="1000" 
d="M645 722v-46h-408l623 -626l-32 -33l-626 624v-408h-46v489h489z" />
    <glyph glyph-name="uni2197" unicode="&#x2197;" horiz-adv-x="1000" 
d="M864 233h-46v408l-627 -624l-31 33l622 626h-407v46h489v-489z" />
    <glyph glyph-name="uni2198" unicode="&#x2198;" horiz-adv-x="1000" 
d="M375 0v46h407l-622 626l31 33l627 -624v408h46v-489h-489z" />
    <glyph glyph-name="uni2199" unicode="&#x2199;" horiz-adv-x="1000" 
d="M156 489h46v-408l626 624l32 -33l-623 -626h408v-46h-489v489z" />
    <glyph glyph-name="uni2219" unicode="&#x2219;" horiz-adv-x="463" 
d="M264.5 401q12.5 -13 12.5 -33t-12 -32.5t-34 -12.5q-21 0 -33 12t-12 33q0 20 12 33t33 13t33.5 -13z" />
    <glyph glyph-name="approxequal" unicode="&#x2248;" horiz-adv-x="691" 
d="M146.5 521q41.5 23 79.5 23q32 0 52 -7.5t30 -14t13 -8.5l86 -54q3 -2 12.5 -8t22 -10.5t28.5 -5.5q29 0 53 12.5t39 52.5l46 -18q-21 -55 -57.5 -75t-73.5 -20q-51 0 -72.5 14.5t-23.5 15.5l-86 54q-2 1 -12 7.5t-23.5 11t-29.5 5.5q-28 0 -56.5 -15.5t-45.5 -56.5
l-46 18q23 56 64.5 79zM148 327q41 23 79 23q32 0 52.5 -7t31 -13.5t13.5 -8.5l86 -54q4 -2 14 -8.5t23.5 -10.5t31.5 -4q28 0 50 13t36 51l46 -18q-21 -53 -56.5 -74t-71.5 -21q-33 0 -54.5 7.5t-31.5 14.5t-13 8l-86 54q-3 2 -12.5 8.5t-24 10.5t-32.5 4q-27 0 -54.5 -16
t-43.5 -55l-46 18q22 55 63 78z" />
    <glyph glyph-name="circleplus" unicode="&#x2295;" horiz-adv-x="1084" 
d="M158 573q60 102 162 162t222 60t222 -60t162 -162t60 -222t-60 -222t-162 -161.5t-222 -59.5t-222 59.5t-162 161.5t-60 222t60 222zM199.5 153q53.5 -91 144 -144.5t198.5 -53.5t198.5 53.5t144 144.5t53.5 198q0 108 -53 199t-144 144t-199 53t-199 -53t-144 -144
t-53 -199q0 -107 53.5 -198zM325 368h194v195h49v-195h194v-48h-194v-195h-49v195h-194v48z" />
    <glyph glyph-name="uni2296" unicode="&#x2296;" horiz-adv-x="1084" 
d="M158 573q60 102 162 162t222 60t222 -60t162 -162t60 -222t-60 -222t-162 -161.5t-222 -59.5t-222 59.5t-162 161.5t-60 222t60 222zM199.5 153q53.5 -91 144 -144.5t198.5 -53.5t198.5 53.5t144 144.5t53.5 198q0 108 -53 199t-144 144t-199 53t-199 -53t-144 -144
t-53 -199q0 -107 53.5 -198zM316 368h438v-48h-438v48z" />
    <glyph glyph-name="circlemultiply" unicode="&#x2297;" horiz-adv-x="1084" 
d="M158 573q60 102 162 162t222 60t222 -60t162 -162t60 -222t-60 -222t-162 -161.5t-222 -59.5t-222 59.5t-162 161.5t-60 222t60 222zM199.5 153q53.5 -91 144 -144.5t198.5 -53.5t198.5 53.5t144 144.5t53.5 198q0 108 -53 199t-144 144t-199 53t-199 -53t-144 -144
t-53 -199q0 -107 53.5 -198zM376 143l168 168l166 -167l31 34l-165 165l166 168l-33 33l-167 -167l-167 166l-31 -32l166 -167l-166 -165z" />
    <glyph glyph-name="uni2460" unicode="&#x2460;" horiz-adv-x="1064" 
d="M119.5 573.5q59.5 101.5 161.5 161.5t222 60t222 -60t162 -162t60 -222t-60 -222t-162 -161.5t-222 -59.5t-222 59.5t-161.5 161.5t-59.5 222q0 121 59.5 222.5zM161 154q54 -91 145 -145t197 -54q107 0 198 54t144.5 145t53.5 197q0 107 -53.5 198t-144.5 144.5
t-198 53.5q-106 0 -197 -53.5t-145 -144.5t-54 -198q0 -106 54 -197zM491 631h47v-545h-47v496l-65 -26l-15 43z" />
    <glyph glyph-name="uni2461" unicode="&#x2461;" horiz-adv-x="1064" 
d="M119.5 573.5q59.5 101.5 161.5 161.5t222 60t222 -60t162 -162t60 -222t-60 -222t-162 -161.5t-222 -59.5t-222 59.5t-161.5 161.5t-59.5 222q0 121 59.5 222.5zM161 154q54 -91 145 -145t197 -54q107 0 198 54t144.5 145t53.5 197q0 107 -53.5 198t-144.5 144.5
t-198 53.5q-106 0 -197 -53.5t-145 -144.5t-54 -198q0 -106 54 -197zM348 149q36 36 88 83q63 57 100 95.5t63 79.5t26 79q0 56 -33.5 88.5t-81.5 32.5q-83 0 -119 -88l-42 16q26 63 70 90t91 27q41 0 77.5 -20.5t59.5 -58.5t23 -87q0 -47 -29 -96t-70 -91t-109 -105
l-49 -45h260v-45h-326z" />
    <glyph glyph-name="uni2462" unicode="&#x2462;" horiz-adv-x="1064" 
d="M119.5 573.5q59.5 101.5 161.5 161.5t222 60t222 -60t162 -162t60 -222t-60 -222t-162 -161.5t-222 -59.5t-222 59.5t-161.5 161.5t-59.5 222q0 121 59.5 222.5zM161 154q54 -91 145 -145t197 -54q107 0 198 54t144.5 145t53.5 197q0 107 -53.5 198t-144.5 144.5
t-198 53.5q-106 0 -197 -53.5t-145 -144.5t-54 -198q0 -106 54 -197zM379 238q0 -28 16 -54t45.5 -42t67.5 -16q37 0 67 16t46.5 41t16.5 51q0 46 -31.5 78.5t-96.5 32.5h-22v44h21q58 0 88.5 29t30.5 74q0 22 -14.5 44.5t-41 37.5t-60.5 15q-51 0 -83.5 -31t-32.5 -72h-47
q0 41 22.5 75t60 53.5t80.5 19.5q42 0 80 -19.5t60.5 -53.5t22.5 -76q0 -40 -21.5 -72.5t-64.5 -46.5q46 -14 70 -49t24 -79t-24.5 -80.5t-64.5 -57.5t-86 -21t-86 21t-64.5 57.5t-24.5 80.5h46z" />
    <glyph glyph-name="uni2463" unicode="&#x2463;" horiz-adv-x="1064" 
d="M119.5 573.5q59.5 101.5 161.5 161.5t222 60t222 -60t162 -162t60 -222t-60 -222t-162 -161.5t-222 -59.5t-222 59.5t-161.5 161.5t-59.5 222q0 121 59.5 222.5zM161 154q54 -91 145 -145t197 -54q107 0 198 54t144.5 145t53.5 197q0 107 -53.5 198t-144.5 144.5
t-198 53.5q-106 0 -197 -53.5t-145 -144.5t-54 -198q0 -106 54 -197zM275 269l273 362h45v-363h83v-45h-83v-138h-45v138h-273v46zM548 268v296l-219 -296h219z" />
    <glyph glyph-name="uni2464" unicode="&#x2464;" horiz-adv-x="1064" 
d="M119.5 573.5q59.5 101.5 161.5 161.5t222 60t222 -60t162 -162t60 -222t-60 -222t-162 -161.5t-222 -59.5t-222 59.5t-161.5 161.5t-59.5 222q0 121 59.5 222.5zM161 154q54 -91 145 -145t197 -54q107 0 198 54t144.5 145t53.5 197q0 107 -53.5 198t-144.5 144.5
t-198 53.5q-106 0 -197 -53.5t-145 -144.5t-54 -198q0 -106 54 -197zM370 220q10 -47 47 -76.5t87 -29.5q60 0 99.5 38.5t39.5 98.5q0 59 -39.5 99t-99.5 40q-31 0 -57.5 -12.5t-45.5 -35.5l-1 -1v0l-43 2l17 282h286v-45h-244l-11 -175q47 30 99 30q50 0 92 -25t67 -67.5
t25 -91.5q0 -50 -25 -91.5t-67 -66t-92 -24.5q-64 0 -114.5 40t-63.5 101z" />
    <glyph glyph-name="uni2465" unicode="&#x2465;" horiz-adv-x="1064" 
d="M119.5 573.5q59.5 101.5 161.5 161.5t222 60t222 -60t162 -162t60 -222t-60 -222t-162 -161.5t-222 -59.5t-222 59.5t-161.5 161.5t-59.5 222q0 121 59.5 222.5zM161 154q54 -91 145 -145t197 -54q107 0 198 54t144.5 145t53.5 197q0 107 -53.5 198t-144.5 144.5
t-198 53.5q-106 0 -197 -53.5t-145 -144.5t-54 -198q0 -106 54 -197zM337 343h-1l172 297h52l-125 -216q26 10 58 10q49 0 90 -24.5t65.5 -65.5t24.5 -90q0 -48 -24.5 -88.5t-65.5 -64.5t-90 -24t-90 24t-65.5 64.5t-24.5 88.5q0 47 24 89zM396.5 159.5
q38.5 -37.5 96.5 -37.5t96.5 37.5t38.5 94.5q0 59 -38 97t-97 38q-58 0 -96.5 -38t-38.5 -97q0 -57 38.5 -94.5z" />
    <glyph glyph-name="uni2466" unicode="&#x2466;" horiz-adv-x="1064" 
d="M119.5 573.5q59.5 101.5 161.5 161.5t222 60t222 -60t162 -162t60 -222t-60 -222t-162 -161.5t-222 -59.5t-222 59.5t-161.5 161.5t-59.5 222q0 121 59.5 222.5zM161 154q54 -91 145 -145t197 -54q107 0 198 54t144.5 145t53.5 197q0 107 -53.5 198t-144.5 144.5
t-198 53.5q-106 0 -197 -53.5t-145 -144.5t-54 -198q0 -106 54 -197zM356 605h327v-45l-234 -495h-50l234 495h-277v45z" />
    <glyph glyph-name="uni2467" unicode="&#x2467;" horiz-adv-x="1064" 
d="M119.5 573.5q59.5 101.5 161.5 161.5t222 60t222 -60t162 -162t60 -222t-60 -222t-162 -161.5t-222 -59.5t-222 59.5t-161.5 161.5t-59.5 222q0 121 59.5 222.5zM161 154q54 -91 145 -145t197 -54q107 0 198 54t144.5 145t53.5 197q0 107 -53.5 198t-144.5 144.5
t-198 53.5q-106 0 -197 -53.5t-145 -144.5t-54 -198q0 -106 54 -197zM353 317q26 35 67 56q-35 22 -56 51.5t-21 64.5q0 42 22.5 75.5t60 52.5t79.5 19t79.5 -19t60.5 -52.5t23 -75.5q0 -35 -21.5 -64.5t-56.5 -51.5q40 -21 66 -56t26 -75q0 -45 -24.5 -82t-65.5 -58
t-87 -21t-87 21t-66 58t-25 82q0 40 26 75zM393 184q16 -25 45.5 -40t66.5 -15t66.5 15t45.5 40t16 54q0 28 -16 52.5t-45.5 39.5t-66.5 15t-66.5 -15t-45.5 -39.5t-16 -52.5q0 -29 16 -54zM423 427q32 -28 82 -28t82 28t32 66t-32 66.5t-82 28.5t-82 -28.5t-32 -66.5
t32 -66z" />
    <glyph glyph-name="uni2468" unicode="&#x2468;" horiz-adv-x="1064" 
d="M119.5 573.5q59.5 101.5 161.5 161.5t222 60t222 -60t162 -162t60 -222t-60 -222t-162 -161.5t-222 -59.5t-222 59.5t-161.5 161.5t-59.5 222q0 121 59.5 222.5zM161 154q54 -91 145 -145t197 -54q107 0 198 54t144.5 145t53.5 197q0 107 -53.5 198t-144.5 144.5
t-198 53.5q-106 0 -197 -53.5t-145 -144.5t-54 -198q0 -106 54 -197zM346.5 544q24.5 41 65.5 65t90 24q48 0 89.5 -24t66 -65t24.5 -89q0 -47 -24 -89l-171 -297h-52l125 217q-26 -10 -58 -10q-49 0 -90 24t-65.5 65t-24.5 90q0 48 24.5 89zM405 359q38 -38 97 -38
q58 0 96.5 38t38.5 96q0 57 -38.5 95t-96.5 38t-96.5 -38t-38.5 -95q0 -58 38 -96z" />
    <glyph glyph-name="uni2469" unicode="&#x2469;" horiz-adv-x="1064" 
d="M119.5 573.5q59.5 101.5 161.5 161.5t222 60t222 -60t162 -162t60 -222t-60 -222t-162 -161.5t-222 -59.5t-222 59.5t-161.5 161.5t-59.5 222q0 121 59.5 222.5zM161 154q54 -91 145 -145t197 -54q107 0 198 54t144.5 145t53.5 197q0 107 -53.5 198t-144.5 144.5
t-198 53.5q-106 0 -197 -53.5t-145 -144.5t-54 -198q0 -106 54 -197zM325 609h44v-525h-44v481l-58 -23l-13 39zM460 543q50 71 135 71q84 0 133.5 -71.5t49.5 -195.5q0 -125 -49.5 -196.5t-133.5 -71.5q-86 0 -135.5 71.5t-49.5 196.5t50 196zM491 179.5
q37 -56.5 104 -56.5q66 0 102.5 57t36.5 167t-36.5 166.5t-102.5 56.5q-67 0 -104 -56t-37 -167t37 -167.5z" />
    <glyph glyph-name="uni246A" unicode="&#x246a;" horiz-adv-x="1064" 
d="M119.5 573.5q59.5 101.5 161.5 161.5t222 60t222 -60t162 -162t60 -222t-60 -222t-162 -161.5t-222 -59.5t-222 59.5t-161.5 161.5t-59.5 222q0 121 59.5 222.5zM161 154q54 -91 145 -145t197 -54q107 0 198 54t144.5 145t53.5 197q0 107 -53.5 198t-144.5 144.5
t-198 53.5q-106 0 -197 -53.5t-145 -144.5t-54 -198q0 -106 54 -197zM381 611h43v-525h-43v481l-58 -23l-14 39zM603 611h44v-525h-44v481l-57 -23l-15 39z" />
    <glyph glyph-name="uni246B" unicode="&#x246b;" horiz-adv-x="1064" 
d="M281 -32.5q-102 59.5 -161.5 161.5t-59.5 222q0 121 59.5 222.5t161.5 161.5t222 60t222 -60t162 -162t60 -222t-60 -222t-162 -161.5t-222 -59.5t-222 59.5zM161 154q54 -91 145 -145t197 -54q107 0 198 54t144.5 145t53.5 197q0 107 -53.5 198t-144.5 144.5t-198 53.5
q-106 0 -197 -53.5t-145 -144.5t-54 -198q0 -106 54 -197zM333 614h42v-525h-42v480l-59 -23l-14 39zM431 135q17 18 85 81q60 56 95.5 92t60 75.5t24.5 75.5q0 53 -32 85t-78 32q-81 0 -115 -85l-38 16q24 59 66 85t87 26q39 0 74 -20t56.5 -56t21.5 -83q0 -45 -27 -90.5
t-65 -85t-103 -100.5q-36 -32 -52 -48h251v-42h-312z" />
    <glyph glyph-name="uni246C" unicode="&#x246c;" horiz-adv-x="1064" 
d="M119.5 573.5q59.5 101.5 161.5 161.5t222 60t222 -60t162 -162t60 -222t-60 -222t-162 -161.5t-222 -59.5t-222 59.5t-161.5 161.5t-59.5 222q0 121 59.5 222.5zM161 154q54 -91 145 -145t197 -54q107 0 198 54t144.5 145t53.5 197q0 107 -53.5 198t-144.5 144.5
t-198 53.5q-106 0 -197 -53.5t-145 -144.5t-54 -198q0 -106 54 -197zM324 610h44v-525h-44v481l-57 -23l-14 39zM461 237q0 -27 15.5 -52t44 -41t65.5 -16q36 0 65 15.5t45 40t16 49.5q0 45 -30.5 76.5t-94.5 31.5h-19v41h19q55 0 85 28.5t30 72.5q0 21 -14.5 42.5t-40 36
t-57.5 14.5q-49 0 -80.5 -30t-31.5 -69h-45q0 39 21.5 72t58 51.5t77.5 18.5t77 -19t57.5 -51.5t21.5 -72.5q0 -39 -20.5 -70t-62.5 -45q44 -14 67.5 -48t23.5 -76t-23 -77t-62 -55t-83 -20t-83 20t-62 55t-23 77h43z" />
    <glyph glyph-name="uni246D" unicode="&#x246d;" horiz-adv-x="1064" 
d="M119.5 573.5q59.5 101.5 161.5 161.5t222 60t222 -60t162 -162t60 -222t-60 -222t-162 -161.5t-222 -59.5t-222 59.5t-161.5 161.5t-59.5 222q0 121 59.5 222.5zM161 154q54 -91 145 -145t197 -54q107 0 198 54t144.5 145t53.5 197q0 107 -53.5 198t-144.5 144.5
t-198 53.5q-106 0 -197 -53.5t-145 -144.5t-54 -198q0 -106 54 -197zM326 610h44v-525h-44v481l-57 -23l-14 39zM405 263l263 350h44v-350h79v-43h-79v-132h-44v132h-263v43zM668 263v286l-212 -286h212z" />
    <glyph glyph-name="uni246E" unicode="&#x246e;" horiz-adv-x="1064" 
d="M119.5 573.5q59.5 101.5 161.5 161.5t222 60t222 -60t162 -162t60 -222t-60 -222t-162 -161.5t-222 -59.5t-222 59.5t-161.5 161.5t-59.5 222q0 121 59.5 222.5zM161 154q54 -91 145 -145t197 -54q107 0 198 54t144.5 145t53.5 197q0 107 -53.5 198t-144.5 144.5
t-198 53.5q-106 0 -197 -53.5t-145 -144.5t-54 -198q0 -106 54 -197zM326 610h44v-526h-44v482l-58 -23l-13 39zM455 220q10 -46 45 -74.5t83 -28.5q57 0 94.5 37.5t37.5 94.5t-37.5 94.5t-94.5 37.5q-61 0 -98 -47l-3 2l-42 2l17 270h275v-44h-233l-11 -167q42 28 95 28
q48 0 88.5 -23.5t64 -64t23.5 -88.5t-23.5 -88.5t-64 -64t-88.5 -23.5q-62 0 -110.5 39t-61.5 98z" />
    <glyph glyph-name="uni24C3" unicode="&#x24c3;" horiz-adv-x="934" 
d="M574 516v-244l-213 244h-41v-312h40v250l219 -250h36v312h-41zM163 537q47 81 127.5 128t176.5 47t176.5 -47t127.5 -128t47 -177t-47 -176.5t-127.5 -127.5t-176.5 -47t-176.5 47t-127.5 127.5t-47 176.5t47 177z" />
    <glyph glyph-name="uni24D8" unicode="&#x24d8;" horiz-adv-x="1084" 
d="M158 573q60 102 162 162t222 60t222 -60t162 -162t60 -222t-60 -222t-162 -161.5t-222 -59.5t-222 59.5t-162 161.5t-60 222t60 222zM199.5 153q53.5 -91 144 -144.5t198.5 -53.5t198.5 53.5t144 144.5t53.5 198q0 108 -53 199t-144 144t-199 53t-199 -53t-144 -144
t-53 -199q0 -107 53.5 -198zM473 478h102v-394h-47v347h-55v47zM524.5 613q9.5 10 26.5 10q16 0 25.5 -10t9.5 -25t-9.5 -25t-25.5 -10q-17 0 -26.5 10t-9.5 25t9.5 25z" />
    <glyph glyph-name="filledbox" unicode="&#x25a0;" horiz-adv-x="1000" 
d="M858 721v-716h-716v716h716z" />
    <glyph glyph-name="uni25A1" unicode="&#x25a1;" horiz-adv-x="1000" 
d="M858 721v-716h-716v716h716zM805 58v610h-610v-610h610z" />
    <glyph glyph-name="uni25A3" unicode="&#x25a3;" horiz-adv-x="1000" 
d="M386 249v227h227v-227h-227zM142 721h716v-716h-716v716zM805 58v610h-610v-610h610z" />
    <glyph glyph-name="triagup" unicode="&#x25b2;" horiz-adv-x="1000" 
d="M894 39h-787l394 644z" />
    <glyph glyph-name="uni25B3" unicode="&#x25b3;" horiz-adv-x="1000" 
d="M107 39l393 644l394 -644h-787zM805 90l-305 498l-304 -498h609z" />
    <glyph glyph-name="uni25B6" unicode="&#x25b6;" horiz-adv-x="1000" 
d="M198 -30v786l644 -393z" />
    <glyph glyph-name="uni25B7" unicode="&#x25b7;" horiz-adv-x="1000" 
d="M198 763l644 -392l-644 -394v786zM746 371l-497 304v-610z" />
    <glyph glyph-name="triagdn" unicode="&#x25bc;" horiz-adv-x="1000" 
d="M107 683h787l-393 -644z" />
    <glyph glyph-name="uni25BD" unicode="&#x25bd;" horiz-adv-x="1000" 
d="M500 39l-393 644h787zM500 135l305 497h-609z" />
    <glyph glyph-name="uni25C0" unicode="&#x25c0;" horiz-adv-x="1000" 
d="M802 756v-786l-644 393z" />
    <glyph glyph-name="uni25C1" unicode="&#x25c1;" horiz-adv-x="1000" 
d="M158 371l644 392v-786zM751 65v610l-497 -304z" />
    <glyph glyph-name="uni25C6" unicode="&#x25c6;" horiz-adv-x="1000" 
d="M930 363l-430 -430l-430 430l430 430z" />
    <glyph glyph-name="uni25C7" unicode="&#x25c7;" horiz-adv-x="1000" 
d="M930 363l-430 -430l-430 430l430 430zM500 -1l365 364l-365 365l-364 -365z" />
    <glyph glyph-name="uni25C8" unicode="&#x25c8;" horiz-adv-x="1000" 
d="M363 363l137 136l136 -136l-136 -136zM500 793l430 -430l-430 -430l-430 430zM500 -1l364 364l-364 365l-365 -365z" />
    <glyph glyph-name="circle" unicode="&#x25cb;" horiz-adv-x="1000" 
d="M656 91.5q71 41.5 112.5 112.5t41.5 156t-41.5 156t-112.5 112.5t-156 41.5t-156 -41.5t-112.5 -112.5t-41.5 -156t41.5 -156t112.5 -112.5t156 -41.5t156 41.5zM189 540.5q48 82.5 130.5 130.5t180.5 48t180.5 -48t130.5 -130.5t48 -180.5t-48 -180.5t-130.5 -130.5
t-180.5 -48t-180.5 48t-130.5 130.5t-48 180.5t48 180.5z" />
    <glyph glyph-name="uni25CE" unicode="&#x25ce;" horiz-adv-x="1000" 
d="M656 91.5q71 41.5 112.5 112.5t41.5 156t-41.5 156t-112.5 112.5t-156 41.5t-156 -41.5t-112.5 -112.5t-41.5 -156t41.5 -156t112.5 -112.5t156 -41.5t156 41.5zM189 540.5q48 82.5 130.5 130.5t180.5 48t180.5 -48t130.5 -130.5t48 -180.5t-48 -180.5t-130.5 -130.5
t-180.5 -48t-180.5 48t-130.5 130.5t-48 180.5t48 180.5zM344 450.5q24 41.5 65.5 65.5t90.5 24t90.5 -24t65.5 -65.5t24 -90.5t-24 -90.5t-65.5 -65.5t-90.5 -24t-90.5 24t-65.5 65.5t-24 90.5t24 90.5zM382.5 292.5q18.5 -31.5 49.5 -50t68 -18.5q36 0 67 18.5t49.5 50
t18.5 67.5t-18.5 67.5t-49.5 50t-67 18.5q-37 0 -68 -18.5t-49.5 -50t-18.5 -67.5t18.5 -67.5z" />
    <glyph glyph-name="uni25CF" unicode="&#x25cf;" horiz-adv-x="1000" 
d="M319.5 49q-82.5 48 -130.5 130.5t-48 180.5t48 180.5t130.5 130.5t180.5 48t180.5 -48t130.5 -130.5t48 -180.5t-48 -180.5t-130.5 -130.5t-180.5 -48t-180.5 48z" />
    <glyph glyph-name="uni25D0" unicode="&#x25d0;" horiz-adv-x="1000" 
d="M656 91.5q71 41.5 112.5 112.5t41.5 156t-41.5 156t-112.5 112.5t-156 41.5v-620q85 0 156 41.5zM189 540.5q48 82.5 130.5 130.5t180.5 48t180.5 -48t130.5 -130.5t48 -180.5t-48 -180.5t-130.5 -130.5t-180.5 -48t-180.5 48t-130.5 130.5t-48 180.5t48 180.5z" />
    <glyph glyph-name="uni25D1" unicode="&#x25d1;" horiz-adv-x="1000" 
d="M344 628.5q-71 -41.5 -112.5 -112.5t-41.5 -156t41.5 -156t112.5 -112.5t156 -41.5v620q-85 0 -156 -41.5zM189 540.5q48 82.5 130.5 130.5t180.5 48t180.5 -48t130.5 -130.5t48 -180.5t-48 -180.5t-130.5 -130.5t-180.5 -48t-180.5 48t-130.5 130.5t-48 180.5t48 180.5z
" />
    <glyph glyph-name="uni2605" unicode="&#x2605;" horiz-adv-x="1000" 
d="M610 482l305 -24l-237 -187l78 -310l-255 171l-256 -171l78 310l-237 187l305 24l110 286z" />
    <glyph glyph-name="uni2606" unicode="&#x2606;" horiz-adv-x="1000" 
d="M422 441l-221 -18l171 -135l-57 -227l186 124l185 -124l-57 227l171 135l-221 18l-78 205zM391 482l110 286l109 -286l305 -24l-237 -187l78 -310l-255 171l-256 -171l78 310l-237 187z" />
    <glyph glyph-name="uni260E" unicode="&#x260e;" horiz-adv-x="1000" 
d="M596 -17q63 -35 99 -35q16 0 26.5 5.5t18.5 12.5t11 9l77 65q44 37 44 64q0 11 -5.5 20t-12.5 16l-10 10l-75 76q-38 39 -68 39q-22 0 -41 -21l-44 -45q-65 65 -107 116l-16 18q-35 44 -53 69.5t-52 79.5l52 32q14 9 22 20t8 27q0 28 -24 65l-58 88q-2 3 -10 14.5
t-17.5 18t-20.5 6.5q-25 0 -64 -31l-80 -61q-2 -2 -14 -12t-18 -24.5t-6 -34.5q0 -32 14 -84q18 -68 69 -144t106 -147q147 -176 249 -232z" />
    <glyph glyph-name="uni260F" unicode="&#x260f;" horiz-adv-x="1000" 
d="M226 347q-55 82 -74 153q-14 53 -14 90q0 34 10 50.5t21 25t14 11.5l80 61q46 36 78 36q21 0 34.5 -12t20.5 -22.5l9 -13.5l58 -89q27 -40 27 -75q0 -42 -39 -66l-34 -21q29 -44 46 -67.5t47 -60.5q5 -7 31 -38t75 -80l28 29q25 27 57 27q40 0 83 -44l75 -76
q2 -2 12 -12.5t16 -23t6 -25.5q0 -38 -52 -80l-77 -66q-3 -2 -13.5 -11t-24 -14.5t-29.5 -5.5q-43 0 -112 38q-106 58 -254 237q-50 63 -105 145zM266 365.5q54 -80.5 99 -135.5q143 -173 241 -227q61 -33 87 -33q11 0 18.5 4t15 10t9.5 8l77 66q20 17 28.5 27t8.5 18
q0 6 -4.5 12.5t-9.5 11.5l-8 8l-75 75q-33 34 -51 34q-7 0 -12 -3.5t-14 -12.5l-59 -61q-52 51 -77 78.5t-41.5 46.5t-22.5 27q-29 36 -51 67t-69 103l72 44q11 7 16 13t5 15q0 18 -23 52l-57 89l-8 12t-11.5 13t-11.5 4q-14 0 -48 -27l-80 -61q-17 -13 -23.5 -23t-6.5 -29
q0 -27 14 -80q18 -65 72 -145.5z" />
    <glyph glyph-name="uni261C" unicode="&#x261c;" horiz-adv-x="1000" 
d="M381 34h-9q-31 0 -52.5 21t-21.5 50q0 23 13 42q-17 9 -27.5 25.5t-10.5 35.5q0 24 14 41q-17 10 -27 26.5t-10 36.5q0 18 7 32h-109q-39 0 -64.5 21t-25.5 57t25.5 57.5t64.5 21.5h292l-40 39q-25 25 -25 63t25 63q26 26 63 26q38 0 63 -26l98 -98q28 -28 64.5 -43
t76.5 -15h101q31 0 54 -23t23 -54v-233q0 -27 -14.5 -49.5t-38.5 -33.5l-67 -30q-127 -54 -257 -54h-185v1zM109.5 393q10.5 -8 38.5 -8h247v-41h-72q-32 0 -32 -32q0 -31 32 -31h107v-42h-79q-37 0 -37 -31q0 -29 32 -29h129v-41h-103q-33 0 -33 -33q0 -30 33 -30h119v-1
h75q122 0 241 51l66 29q16 7 22.5 18t6.5 28v233q0 36 -36 36h-101q-48 0 -92.5 18.5t-77.5 51.5l-98 98q-16 17 -34 17q-17 0 -34 -17q-16 -16 -16 -34t16 -34l112 -109h-393q-27 0 -38 -8t-11 -30q0 -21 10.5 -29z" />
    <glyph glyph-name="uni261D" unicode="&#x261d;" horiz-adv-x="1000" 
d="M478 468v247q0 28 -8 38.5t-29 10.5t-29.5 -11t-8.5 -38v-393l-109 112q-17 17 -34 17t-34 -17t-17 -34q0 -15 17 -34l98 -98q33 -33 51.5 -77.5t18.5 -92.5v-101q0 -36 36 -36h233q17 0 28 6.5t18 22.5l29 66q51 119 51 241v185h1v9q0 34 -31 34q-32 0 -32 -34v-103h-41
v129q0 33 -31 33q-30 0 -30 -38v-79h-42v107q0 16 -8.5 25t-23.5 9q-31 0 -31 -34v-71h-1v-1h-41zM171 400q0 37 26 63t63 26t63 -26l39 -40v292q0 39 21.5 64.5t57.5 25.5t57 -25.5t21 -64.5v-107q16 7 32 7q20 0 37 -10.5t26 -27.5q17 14 41 14q20 0 36.5 -10t26.5 -28
q20 13 41 13q29 0 50.5 -22t21.5 -53v-56h-1v-138q0 -130 -54 -257l-30 -67q-11 -24 -33.5 -38.5t-49.5 -14.5h-233q-31 0 -54 23t-23 54v101q0 40 -15 76.5t-43 64.5l-98 98q-26 28 -26 63z" />
    <glyph glyph-name="uni261E" unicode="&#x261e;" horiz-adv-x="1000" 
d="M606 385h247q28 0 38.5 8t10.5 29q0 22 -11 30t-38 8h-393l112 109q17 17 17 34t-17 34q-16 17 -34 17q-17 0 -34 -17l-98 -98q-33 -33 -77.5 -51.5t-92.5 -18.5h-101q-36 0 -36 -36v-233q0 -17 6.5 -28t22.5 -18l66 -29q119 -51 241 -51h116v1h78q34 0 34 30
q0 16 -9 24.5t-25 8.5h-103v41h129q33 0 33 29q0 15 -10 23t-28 8h-79v42h107q34 0 34 31q0 32 -34 32h-72v41zM58 433q0 31 23 54t54 23h101q40 0 76.5 15t64.5 43l98 98q26 26 63 26q38 0 63 -26q26 -26 26 -63t-26 -63l-40 -39h292q39 0 64.5 -21.5t25.5 -57.5t-25.5 -57
t-64.5 -21h-107q7 -17 7 -32q0 -21 -10 -37.5t-28 -25.5q14 -17 14 -41q0 -19 -10.5 -35.5t-27.5 -25.5q13 -19 13 -42q0 -29 -22 -50t-53 -21h-9v-1h-185q-130 0 -257 54l-67 30q-24 11 -38.5 33.5t-14.5 49.5v233z" />
    <glyph glyph-name="uni261F" unicode="&#x261f;" horiz-adv-x="1000" 
d="M727 337v-103q0 -33 32 -33q31 0 31 33v27h-1v167q0 122 -51 241l-29 66q-7 16 -18 22.5t-28 6.5h-233q-36 0 -36 -36v-101q0 -48 -18.5 -92.5t-51.5 -77.5l-98 -98q-17 -17 -17 -34q0 -15 17 -34q16 -16 34 -16t34 16l109 112v-393q0 -27 8.5 -38t29.5 -11t29 10.5
t8 38.5v247h41v-1h1v-71q0 -32 31 -32q32 0 32 32v107h42v-79q0 -37 30 -37q31 0 31 32v129h41zM171 325q0 37 26 63l98 98q28 28 43 64.5t15 76.5v101q0 31 23 54t54 23h233q27 0 49.5 -14.5t33.5 -38.5l30 -67q54 -127 54 -257v-116h1v-78q0 -31 -21 -52.5t-51 -21.5
q-21 0 -41 13q-9 -17 -26 -27.5t-37 -10.5q-23 0 -41 13q-9 -16 -25 -26t-35 -10q-16 0 -35 7v-109q0 -39 -21 -64.5t-57 -25.5t-57.5 25.5t-21.5 64.5v292l-39 -40q-25 -25 -63 -25t-63 25q-26 28 -26 63z" />
    <glyph glyph-name="spade" unicode="&#x2660;" horiz-adv-x="1000" 
d="M843 399q7 -29 7 -62q0 -32 -6 -64q-15 -68 -66 -114.5t-122 -46.5q-41 0 -74.5 18.5t-57.5 50.5l9 -210h-63l9 213q-24 -33 -58 -52.5t-76 -19.5q-71 0 -121.5 46t-66.5 115q-6 30 -6 63q0 32 7 63q22 74 79 138q45 55 94.5 99t130.5 109l39 33q29 -27 97 -85
q69 -60 106 -93.5t60 -62.5q60 -67 79 -138z" />
    <glyph glyph-name="uni2661" unicode="&#x2661;" horiz-adv-x="1000" 
d="M865 426q7 29 7 60q0 32 -6 66q-16 68 -63 109.5t-118 41.5q-44 0 -76 -18.5t-55 -55.5q-22 -34 -51 -95q-30 53 -42.5 72t-15.5 23q-24 37 -55.5 55.5t-74.5 18.5q-72 0 -119 -41t-63 -110q-6 -33 -6 -63q0 -32 7 -63q24 -74 84 -143q53 -60 113.5 -112.5t150.5 -122.5
l17 -14l85 71q84 70 127 107.5t70 69.5q63 73 84 144zM169.5 693.5q60.5 53.5 145.5 53.5q53 0 95.5 -25.5t71.5 -68.5l18 -28q2 4 17 28q28 43 71 68.5t97 25.5q57 0 103.5 -25t77.5 -67.5t43 -93.5q7 -42 7 -72q0 -36 -9 -74q-24 -80 -93 -161q-28 -32 -70 -69.5
t-124 -106.5q-96 -80 -120 -102l-46 38q-94 75 -154 127t-115 113q-67 78 -93 161q-8 35 -8 75q0 37 6 71q19 79 79.5 132.5z" />
    <glyph glyph-name="club" unicode="&#x2663;" horiz-adv-x="1000" 
d="M583 706.5q38 -22.5 60.5 -61t22.5 -83.5q0 -35 -14 -66.5t-39 -53.5q2 -6 2 -7q32 12 67 12q45 0 83 -22t60 -60t22 -83t-22 -82.5t-60 -59.5t-83 -22q-46 0 -90 22t-65 57h-6l10 -226h-63l10 226h-6q-21 -35 -64.5 -57t-88.5 -22t-83 22t-60 59.5t-22 82.5t22 83t60 60
t83 22q36 0 66 -12l3 7q-26 22 -40 53.5t-14 66.5q0 45 22.5 83.5t60.5 61t83 22.5t83 -22.5z" />
    <glyph glyph-name="heart" unicode="&#x2665;" horiz-adv-x="1000" 
d="M733 188.5q-43 -38.5 -116 -99.5q-67 -56 -117 -100l-45 37q-88 69 -147 120.5t-112 111.5q-65 73 -90 155q-8 33 -8 73q0 35 6 68q18 77 76.5 128.5t140.5 51.5q51 0 92.5 -24.5t69.5 -66.5q5 -7 17 -27q8 15 16 27q28 42 69.5 66.5t92.5 24.5q82 0 141 -52t76 -128
q7 -40 7 -70q0 -35 -9 -71q-23 -79 -90 -155q-27 -31 -70 -69.5z" />
    <glyph glyph-name="uni2669" unicode="&#x2669;" horiz-adv-x="540" 
d="M329 39q29 17 44.5 44.5t12.5 56.5q-5 38 -35 64.5t-73 26.5q-13 0 -19 -1q-32 -3 -57 -21t-37.5 -43.5t-10.5 -51.5q5 -38 35.5 -65t73.5 -27q37 0 66 17zM129 201.5q22 34.5 59.5 55t80.5 20.5q31 0 65.5 -13t52.5 -36v515h46v-604q0 -45 -22 -82t-60 -59t-85 -22
q-42 0 -78.5 19t-58.5 53.5t-22 77.5q0 41 22 75.5z" />
    <glyph glyph-name="musicalnote" unicode="&#x266a;" horiz-adv-x="723" 
d="M470 655q18 -39 43.5 -70t53.5 -46q40 -21 67.5 -51t39.5 -61q12 -28 14 -48l1 -15v-7h-27h-18l-2 20q-2 18 -12 38q-8 21 -29.5 44t-50.5 39q-39 24 -58.5 43.5t-40.5 48.5l-12 16v-463v-25q-3 -39 -26.5 -71.5t-60 -51.5t-78.5 -19q-43 0 -80.5 19t-60.5 53.5t-23 77.5
q0 42 23 77t61 55.5t82 20.5q32 0 64 -11.5t54 -34.5v511h44l4 -11l5 -17q13 -39 23 -61zM193 50q32 -27 77 -27q52 0 86 29t38 70v20q-5 39 -36.5 65.5t-76.5 26.5q-38 0 -67 -17.5t-44.5 -45t-13.5 -56.5q5 -38 37 -65zM439 118v-1v1z" />
    <glyph glyph-name="uni266C" unicode="&#x266c;" horiz-adv-x="932" 
d="M721 409.5q-32 11.5 -65 11.5q-44 0 -82.5 -20.5t-61 -55t-22.5 -76.5q0 -43 22 -77.5t59 -53.5t79 -19q44 0 82 20.5t61.5 55t23.5 76.5v547h-46l-414 -118v-472q-18 24 -49.5 36.5t-63.5 12.5q-47 0 -87.5 -22.5t-62.5 -61.5t-17 -84q7 -58 52.5 -95t104.5 -37
q45 0 84 20t62.5 54.5t23.5 76.5v535l368 106v-396q-19 25 -51 36.5zM137.5 175q15.5 25 44.5 40.5t65 15.5q44 0 75.5 -26.5t36.5 -63.5q2 -29 -13 -56t-43 -44.5t-66 -17.5q-49 0 -82 30t-33 71q0 26 15.5 51zM548 313.5q15 27.5 43.5 44.5t65.5 17q49 0 81.5 -29.5
t32.5 -70.5q0 -40 -30 -71.5t-78 -37.5l-14 -1q-44 0 -76.5 27.5t-37.5 64.5q-2 29 13 56.5z" />
    <glyph glyph-name="uni26A0" unicode="&#x26a0;" horiz-adv-x="1084" 
d="M158 573q60 102 162 162t222 60t222 -60t162 -162t60 -222t-60 -222t-162 -161.5t-222 -59.5t-222 59.5t-162 161.5t-60 222t60 222zM199.5 153q53.5 -91 144 -144.5t198.5 -53.5t198.5 53.5t144 144.5t53.5 198q0 108 -53 199t-144 144t-199 53t-199 -53t-144 -144
t-53 -199q0 -107 53.5 -198zM516.5 123q9.5 10 26.5 10q16 0 25.5 -10t9.5 -25t-9.5 -25t-25.5 -10q-17 0 -26.5 10t-9.5 25t9.5 25zM574 635l-8 -426h-48l-7 426h63z" />
    <glyph glyph-name="uni2713" unicode="&#x2713;" horiz-adv-x="904" 
d="M334 31l-269 330l38 30l229 -286l434 563l34 -27z" />
    <glyph glyph-name="uni3008" unicode="&#x3008;" horiz-adv-x="475" 
d="M160 359l242 -406h-51l-245 406l249 405h52z" />
    <glyph glyph-name="uni3009" unicode="&#x3009;" horiz-adv-x="475" 
d="M121 764l248 -405l-244 -406h-52l243 406l-248 405h53z" />
    <glyph glyph-name="uni300A" unicode="&#x300a;" horiz-adv-x="552" 
d="M158 356l181 -406h-50l-181 406l184 406h49zM432 762h50l-184 -406l181 -406h-50l-180 406z" />
    <glyph glyph-name="uni300B" unicode="&#x300b;" horiz-adv-x="552" 
d="M260 762l184 -406l-181 -406h-50l181 406l-183 406h49zM120 762l183 -406l-180 -406h-50l181 406l-184 406h50z" />
    <glyph glyph-name="uni300C" unicode="&#x300c;" horiz-adv-x="395" 
d="M329 703h-176v-249h-49v298h225v-49z" />
    <glyph glyph-name="uni300D" unicode="&#x300d;" horiz-adv-x="395" 
d="M66 9h177v250h48v-299h-225v49z" />
    <glyph glyph-name="uni300E" unicode="&#x300e;" horiz-adv-x="396" 
d="M330 644h-123v-203h-103v305h226v-102zM176 470v205h126v41h-166v-246h40z" />
    <glyph glyph-name="uni300F" unicode="&#x300f;" horiz-adv-x="396" 
d="M66 57h122v202h104v-305h-226v103zM261 -15v245h-41v-205h-125v-40h166z" />
    <glyph glyph-name="uni3010" unicode="&#x3010;" horiz-adv-x="287" 
d="M140 358q0 -214 83 -406h-121v812h121q-83 -192 -83 -406z" />
    <glyph glyph-name="uni3011" unicode="&#x3011;" horiz-adv-x="287" 
d="M185 764v-812h-121q84 194 84 406t-84 406h121z" />
    <glyph glyph-name="uni3014" unicode="&#x3014;" horiz-adv-x="339" 
d="M148 660v-616l126 -47l-17 -42l-154 60v674l154 60l17 -41z" />
    <glyph glyph-name="uni3015" unicode="&#x3015;" horiz-adv-x="339" 
d="M83 749l153 -60v-674l-153 -60l-18 41l126 48v616l-126 48z" />
    <glyph glyph-name="uni3131" unicode="&#x3131;" 
d="M702 578v-441h-48v399h-482v42h530z" />
    <glyph glyph-name="uni3132" unicode="&#x3132;" 
d="M429 578v-441h-47v399h-238v42h285zM485 579h288v-440h-47v399h-241v41z" />
    <glyph glyph-name="uni3133" unicode="&#x3133;" 
d="M393 577v-440h-48v399h-211v41h259zM546.5 273.5q41.5 71.5 41.5 147.5v167h48v-167q0 -77 41.5 -148t116.5 -105l-29 -35q-57 26 -96 74.5t-57 109.5q-19 -61 -58 -109.5t-96 -74.5l-28 35q75 34 116.5 105.5z" />
    <glyph glyph-name="uni3134" unicode="&#x3134;" 
d="M228 578v-396h493v-42h-541v438h48z" />
    <glyph glyph-name="uni3135" unicode="&#x3135;" 
d="M215 583v-411q54 1 100 7t88 22l7 -34q70 36 108.5 109t38.5 151v107h-134v41h315v-41h-134v-107q0 -80 40.5 -154.5t114.5 -109.5l-30 -37q-55 27 -93 77.5t-56 112.5q-18 -63 -55.5 -113t-93.5 -77l-23 31q-50 -16 -98.5 -20.5t-107.5 -4.5h-36v451h49z" />
    <glyph glyph-name="uni3136" unicode="&#x3136;" 
d="M215 562v-387q54 1 100.5 7t88.5 22l9 -43q-50 -17 -98.5 -21.5t-111.5 -4.5h-36v427h48zM415 498h137v95h47v-95h133v-40h-317v40zM475.5 376q38.5 41 98.5 41q59 0 98 -41.5t39 -106.5q0 -66 -39 -107.5t-98 -41.5q-60 0 -98.5 41.5t-38.5 107.5t38.5 107zM506 190
q26 -31 68 -31t68 31t26 79q0 47 -26 77.5t-68 30.5t-68 -30.5t-26 -77.5q0 -48 26 -79z" />
    <glyph glyph-name="uni3137" unicode="&#x3137;" 
d="M700 583v-41h-470v-362h479v-40h-528v443h519z" />
    <glyph glyph-name="uni3138" unicode="&#x3138;" 
d="M426 583v-41h-219v-357q124 0 217 24l8 -42q-61 -14 -116.5 -19t-116.5 -5h-39v440h266zM457 583h267v-41h-218v-359h220v-41h-269v441z" />
    <glyph glyph-name="uni3139" unicode="&#x3139;" 
d="M706 592v-251h-487v-172h502v-42h-548v253h486v173h-489v39h536z" />
    <glyph glyph-name="uni313A" unicode="&#x313a;" 
d="M431 587v-242h-228v-169q147 0 273 25l7 -41q-77 -14 -143 -19t-139 -5h-45v248h226v162h-229v41h278zM462 587h276v-448h-48v407h-228v41z" />
    <glyph glyph-name="uni313B" unicode="&#x313b;" 
d="M423 585v-241h-221v-167q123 0 238 19l4 -40q-70 -12 -128 -16t-121 -4h-40v248h220v160h-223v41h271zM463 586h280v-449h-280v449zM698 177v368h-191v-368h191z" />
    <glyph glyph-name="uni313C" unicode="&#x313c;" 
d="M423 585v-241h-221v-168q135 0 244 23l7 -40q-70 -14 -129 -18.5t-127 -4.5h-42v248h220v160h-223v41h271zM467 586h46v-173h186v173h46v-450h-278v450zM699 177v195h-186v-195h186z" />
    <glyph glyph-name="uni313D" unicode="&#x313d;" 
d="M422 585v-241h-221v-167q133 0 239 28l5 -32q71 35 110.5 105t39.5 144v167h47v-167q0 -77 41 -148t116 -105l-29 -36q-56 27 -94.5 75t-57.5 108q-19 -60 -57.5 -108t-94.5 -75l-24 30q-64 -16 -122.5 -21.5t-124.5 -5.5h-41v248h221v160h-223v41h270z" />
    <glyph glyph-name="uni313E" unicode="&#x313e;" 
d="M424 585v-241h-221v-165q131 0 239 27l6 -40q-65 -16 -125 -22t-126 -6h-41v246h220v160h-223v41h271zM477 585h278v-41h-230v-157h219v-42h-219v-166h234v-41h-282v447z" />
    <glyph glyph-name="uni313F" unicode="&#x313f;" 
d="M412 585v-241h-210v-167q132 0 234 28l8 -42q-65 -16 -124 -21.5t-125 -5.5h-40v248h209v160h-212v41h260zM454 177h58v367h-55v41h295v-41h-55v-367h63v-41h-306v41zM653 177v367h-95v-367h95z" />
    <glyph glyph-name="uni3140" unicode="&#x3140;" 
d="M399 585v-239h-196v-169q125 0 224 25l7 -41q-62 -15 -118.5 -20t-119.5 -5h-40v248h195v161h-198v40h246zM428 501h137v104h47v-104h132v-42h-316v42zM488 379.5q39 40.5 98 40.5q58 0 97 -40.5t39 -104.5t-38.5 -104t-97.5 -40t-98 40t-39 104t39 104.5zM517.5 199.5
q26.5 -29.5 68.5 -29.5q41 0 68 29.5t27 75.5q0 45 -27 74.5t-68 29.5q-42 0 -68.5 -29.5t-26.5 -74.5q0 -46 26.5 -75.5z" />
    <glyph glyph-name="uni3141" unicode="&#x3141;" 
d="M709 585v-448h-533v448h533zM661 179v364h-436v-364h436z" />
    <glyph glyph-name="uni3142" unicode="&#x3142;" 
d="M226 592v-173h431v173h48v-456h-527v456h48zM657 179v197h-431v-197h431z" />
    <glyph glyph-name="uni3143" unicode="&#x3143;" 
d="M208 586v-173h173v173h45v-450h-264v450h46zM381 178v194h-173v-194h173zM468 586h46v-173h172v173h45v-449h-263v449zM686 178v194h-172v-194h172z" />
    <glyph glyph-name="uni3144" unicode="&#x3144;" 
d="M643 588v-167q0 -76 42 -147.5t117 -105.5l-28 -35q-58 26 -97 74.5t-58 109.5q-19 -61 -58 -109.5t-96 -74.5l-28 35q75 34 117 105.5t42 147.5v167h47zM161 586h46v-173h173v173h45v-450h-264v450zM380 178v194h-173v-194h173z" />
    <glyph glyph-name="uni3145" unicode="&#x3145;" 
d="M469 603v-147q0 -75 38.5 -133.5t101 -96.5t134.5 -56l-24 -40q-94 26 -168.5 81.5t-106.5 138.5q-31 -82 -106 -138t-169 -82l-24 40q72 18 134 56t101 96.5t39 133.5v147h50z" />
    <glyph glyph-name="uni3146" unicode="&#x3146;" 
d="M309 581v-151q0 -59 35.5 -129.5t97.5 -113.5q62 42 97.5 111.5t35.5 131.5v151h48v-146q0 -72 40 -143t113 -106l-29 -36q-55 27 -92.5 75.5t-55.5 107.5q-19 -63 -59.5 -116t-97.5 -82q-58 30 -97.5 84.5t-59.5 118.5q-19 -59 -56 -110t-90 -79l-31 36q49 25 83.5 68.5
t52 92.5t17.5 89v146h48z" />
    <glyph glyph-name="uni3147" unicode="&#x3147;" 
d="M572.5 567.5q60.5 -29.5 95.5 -82.5t35 -120t-35 -120.5t-95.5 -83t-135.5 -29.5t-135.5 29.5t-95.5 83t-35 120.5t35 120t95.5 82.5t135.5 29.5t135.5 -29.5zM248 268q29 -44 79 -69.5t110 -25.5q61 0 110.5 25.5t78.5 69.5t29 97t-29 96t-78.5 68t-110.5 25
q-60 0 -110 -25t-79 -68t-29 -96t29 -97z" />
    <glyph glyph-name="uni3148" unicode="&#x3148;" 
d="M708 591v-39h-237v-82q0 -74 36 -134t95 -100.5t128 -61.5l-26 -39q-90 29 -159 87.5t-98 141.5q-28 -83 -97.5 -141.5t-159.5 -87.5l-26 39q70 21 129 61.5t95 100.5t36 134v82h-239v39h523z" />
    <glyph glyph-name="uni3149" unicode="&#x3149;" 
d="M424 600v-41h-116v-100q0 -96 33.5 -166t100.5 -104q67 34 100.5 104t33.5 166v100h-117v41h287v-41h-122v-100q0 -82 38 -159t111 -114l-31 -38q-51 27 -86 75t-53 108q-36 -143 -161 -194q-125 53 -161 195q-20 -61 -56.5 -109t-89.5 -75l-31 38q75 37 115.5 114
t40.5 159v100h-123v41h287z" />
    <glyph glyph-name="uni314A" unicode="&#x314a;" 
d="M417 509v124h48v-124h236v-42h-234v-35q0 -70 35 -128t92.5 -97t125.5 -58l-25 -39q-90 28 -159 85.5t-96 140.5q-27 -83 -96 -140.5t-158 -85.5l-25 39q68 19 125 58t92 97t35 128v35h-234v42h238z" />
    <glyph glyph-name="uni314B" unicode="&#x314b;" 
d="M705 595v-465h-49v218l-484 -30l-8 48l492 22v166h-476v41h525z" />
    <glyph glyph-name="uni314C" unicode="&#x314c;" 
d="M710 585v-41h-481v-157h475v-42h-475v-166h489v-41h-537v447h529z" />
    <glyph glyph-name="uni314D" unicode="&#x314d;" 
d="M719 582v-42h-130v-364h144v-41h-580v41h144v364h-131v42h553zM540 176v364h-195v-364h195z" />
    <glyph glyph-name="uni314E" unicode="&#x314e;" 
d="M419 511v123h48v-123h263v-42h-573v42h262zM266.5 325q26.5 34 72.5 53t105 19q58 0 103.5 -19t71.5 -53t26 -78q0 -43 -26 -77.5t-71.5 -54t-103.5 -19.5t-104.5 19.5t-73 54t-26.5 77.5q0 44 26.5 78zM309.5 192q20.5 -25 56 -39.5t78.5 -14.5t77.5 14.5t54.5 39.5
t20 55t-20 55t-54.5 39.5t-77.5 14.5t-78.5 -14.5t-56 -39.5t-20.5 -55t20.5 -55z" />
    <glyph glyph-name="uni314F" unicode="&#x314f;" 
d="M434 776v-357h216v-43h-216v-443h-48v843h48z" />
    <glyph glyph-name="uni3150" unicode="&#x3150;" 
d="M577 779v-843h-46v448h-175v-417h-47v797h47v-338h175v353h46z" />
    <glyph glyph-name="uni3151" unicode="&#x3151;" 
d="M404 779v-274h210v-40h-210v-187h210v-41h-210v-301h-48v843h48z" />
    <glyph glyph-name="uni3152" unicode="&#x3152;" 
d="M576 778v-844h-47v317h-173v-285h-47v798h47v-248h173v262h47zM529 291v183h-173v-183h173z" />
    <glyph glyph-name="uni3153" unicode="&#x3153;" 
d="M548 776v-843h-48v446h-217v43h217v354h48z" />
    <glyph glyph-name="uni3154" unicode="&#x3154;" 
d="M610 775v-843h-47v843h47zM220 426h181v338h46v-799h-46v419h-181v42z" />
    <glyph glyph-name="uni3155" unicode="&#x3155;" 
d="M550 778v-844h-48v330h-215v42h215v174h-215v43h215v255h48z" />
    <glyph glyph-name="uni3156" unicode="&#x3156;" 
d="M401 532v232h46v-799h-46v304h-180v42h180v178h-180v43h180zM562 774h47v-843h-47v843z" />
    <glyph glyph-name="uni3157" unicode="&#x3157;" 
d="M410 241v379h47v-379h366v-41h-775v41h362z" />
    <glyph glyph-name="uni3158" unicode="&#x3158;" 
d="M354 510v-301q142 7 240 20l5 -38q-211 -31 -529 -31l-9 43q129 0 246 4v303h47zM638 775h48v-356h144v-43h-144v-444h-48v843z" />
    <glyph glyph-name="uni3159" unicode="&#x3159;" 
d="M310 517v-292q124 7 197 16l4 -38q-163 -26 -442 -26l-6 43q101 0 200 4v293h47zM544 763h46v-334h122v346h47v-842h-47v454h-122v-422h-46v798z" />
    <glyph glyph-name="uni315A" unicode="&#x315a;" 
d="M391 506v-286q140 7 237 20l4 -37q-199 -33 -524 -33l-9 45q156 0 244 3v288h48zM686 776h48v-843h-48v843z" />
    <glyph glyph-name="uni315B" unicode="&#x315b;" 
d="M273 220v401h48v-401h247v401h48v-401h215v-41h-775v41h217z" />
    <glyph glyph-name="uni315C" unicode="&#x315c;" 
d="M830 496v-41h-364v-383h-47v383h-364v41h775z" />
    <glyph glyph-name="uni315D" unicode="&#x315d;" 
d="M770 775v-843h-47v267h-226v40h226v536h47zM390.5 398q135.5 5 260.5 18l3 -38q-118 -16 -296 -25v-353h-48v352q-105 -4 -224 -4l-7 43q176 2 311.5 7z" />
    <glyph glyph-name="uni315E" unicode="&#x315e;" 
d="M784 775v-843h-47v843h47zM309 401q126 6 219 19l4 -37q-88 -14 -213 -22v-362h-47v360q-105 -6 -193 -6l-8 42q112 0 238 6zM406 240h175v512h46v-799h-46v247h-175v40z" />
    <glyph glyph-name="uni315F" unicode="&#x315f;" 
d="M768 775v-843h-47v843h47zM675 418l3 -36q-135 -17 -269 -23v-359h-47v357q-115 -5 -260 -5l-8 42q364 0 581 24z" />
    <glyph glyph-name="uni3160" unicode="&#x3160;" 
d="M823 496v-39h-225v-385h-49v385h-229v-385h-48v385h-224v39h775z" />
    <glyph glyph-name="uni3161" unicode="&#x3161;" 
d="M823 397v-42h-775v42h775z" />
    <glyph glyph-name="uni3162" unicode="&#x3162;" 
d="M747 761v-842h-48v842h48zM383.5 268q136.5 5 259.5 21l4 -37q-224 -33 -564 -33l-11 43q175 1 311.5 6z" />
    <glyph glyph-name="uni3163" unicode="&#x3163;" 
d="M467 776v-843h-48v843h48z" />
    <glyph glyph-name="uni321C" unicode="&#x321c;" horiz-adv-x="1179" 
d="M82 351q0 204 128 406h51q-66 -90 -101 -193t-35 -213t35 -213t101 -193h-51q-128 202 -128 406zM243 294h700v-40h-332v-319h-38v319h-330v40zM415 467.5q66 36.5 111.5 90t45.5 115.5v25h-262v37h563v-37h-260v-25q0 -62 45.5 -115.5t111.5 -90t125 -47.5l-16 -36
q-56 13 -114 42.5t-105 74t-67 98.5q-21 -54 -68 -98.5t-105 -74t-113 -42.5l-17 36q59 11 125 47.5zM1021 137q34 103 34 214t-34 214t-99 192h51q124 -196 124 -406t-124 -406h-51q65 89 99 192z" />
    <glyph glyph-name="uni327C" unicode="&#x327c;" horiz-adv-x="1084" 
d="M158 563q60 102 162 162t222 60t222 -60t162 -162t60 -222t-60 -222t-162 -161.5t-222 -59.5t-222 59.5t-162 161.5t-60 222t60 222zM199.5 143q53.5 -91 144 -144.5t198.5 -53.5t198.5 53.5t144 144.5t53.5 198q0 108 -53 199t-144 144t-199 53t-199 -53t-144 -144
t-53 -199q0 -107 53.5 -198zM437.5 610q41.5 35 104.5 35q44 0 84.5 -19.5t66 -58.5t25.5 -95q0 -37 -15.5 -67t-34 -48.5t-48.5 -44.5q-25 -23 -35.5 -37t-16 -39t-5.5 -72h-50q0 56 9.5 90t23.5 52t42 42q5 4 29 26t37.5 47t13.5 51q0 62 -35.5 92.5t-90.5 30.5
q-88 0 -115 -84l-46 14q15 50 56.5 85zM512.5 101q9.5 10 25.5 10q17 0 26 -10t9 -25q0 -16 -9 -25.5t-26 -9.5q-16 0 -25.5 10t-9.5 25t9.5 25z" />
    <glyph glyph-name="uniAC00" unicode="&#xac00;" 
d="M699 796v-364h151v-42h-151v-458h-48v864h48zM328 365.5q96 133.5 106 293.5h-340v42h387q0 -185 -98.5 -341t-296.5 -254l-26 39q172 87 268 220.5z" />
    <glyph glyph-name="uniAC01" unicode="&#xac01;" 
d="M709 796v-230h135v-42h-135v-238h-49v510h49zM317 479.5q100 92.5 110 215.5h-342v42h392q0 -155 -108.5 -269.5t-298.5 -167.5l-20 40q167 47 267 139.5zM158 244h551v-312h-49v270h-502v42z" />
    <glyph glyph-name="uniAC04" unicode="&#xac04;" 
d="M709 795v-275h135v-42h-135v-322h-49v639h49zM315.5 459.5q101.5 99.5 111.5 226.5h-343v42h394q0 -158 -110 -279t-296 -184l-21 40q163 55 264.5 154.5zM183 221h48v-225h521v-42h-569v267z" />
    <glyph glyph-name="uniAC07" unicode="&#xac07;" 
d="M709 796v-226h135v-41h-135v-229h-49v496h49zM318.5 478.5q99.5 93.5 108.5 216.5h-342v41h393q0 -155 -109 -269.5t-300 -168.5l-18 40q168 47 267.5 140.5zM178 249h533v-43h-485v-219h500v-41h-548v303z" />
    <glyph glyph-name="uniAC08" unicode="&#xac08;" 
d="M709 796v-209h135v-41h-135v-195h-49v445h49zM316.5 500q99.5 87 107.5 205h-339v42h391q0 -153 -109 -260.5t-297 -155.5l-19 41q166 41 265.5 128zM175 308h534v-198h-485v-129h519v-40h-565v210h483v116h-486v41z" />
    <glyph glyph-name="uniAC09" unicode="&#xac09;" 
d="M709 795v-213h136v-41h-136v-213h-49v467h49zM316.5 496q98.5 87 107.5 206h-336v42h389q0 -152 -109 -261t-298 -158l-19 40q167 44 265.5 131zM137 286h277v-185h-227v-118q96 0 158 4t127 16l5 -40q-68 -12 -130.5 -16t-159.5 -4h-47v197h227v107h-230v39zM451 286
h258v-349h-48v309h-210v40z" />
    <glyph glyph-name="uniAC0A" unicode="&#xac0a;" 
d="M389 286v-182h-216v-120q87 0 136 3t103 14l5 -41q-59 -10 -111 -13t-139 -3h-41v200h217v103h-220v39h266zM316 497.5q99 86.5 108 204.5h-337v42h390q0 -152 -109.5 -259.5t-297.5 -156.5l-19 41q166 42 265 128.5zM447 286h262v-346h-262v346zM663 -22v270h-171v-270
h171zM660 795h49v-214h135v-41h-135v-211h-49v466z" />
    <glyph glyph-name="uniAC0B" unicode="&#xac0b;" 
d="M709 796v-208h135v-41h-135v-215h-49v464h49zM317 502q99 87 107 205h-337v42h390q0 -153 -109.5 -260.5t-297.5 -155.5l-19 41q167 41 266 128zM123 284h265v-179h-216v-119q85 0 135 3.5t105 15.5l4 -40q-58 -12 -109.5 -15.5t-140.5 -3.5h-40v196h216v104h-219v38z
M443 295h45v-125h175v125h46v-349h-266v349zM663 -14v145h-175v-145h175z" />
    <glyph glyph-name="uniAC10" unicode="&#xac10;" 
d="M709 796v-226h135v-40h-135v-230h-49v496h49zM317.5 479.5q99.5 93.5 109.5 215.5h-342v41h393q0 -155 -109 -269.5t-300 -167.5l-18 40q167 47 266.5 140.5zM176 256h533v-310h-533v310zM661 -13v227h-436v-227h436z" />
    <glyph glyph-name="uniAC11" unicode="&#xac11;" 
d="M709 796v-217h135v-42h-135v-207h-49v466h49zM317 490.5q100 88.5 109 207.5h-340v42h391q0 -153 -109 -262.5t-298 -159.5l-18 41q165 43 265 131.5zM175 286h49v-126h436v126h49v-340h-534v340zM660 -14v134h-436v-134h436z" />
    <glyph glyph-name="uniAC12" unicode="&#xac12;" 
d="M709 796v-213h135v-41h-135v-216h-49v470h49zM317 490.5q100 88.5 109 208.5h-339v41h390q0 -153 -108.5 -262.5t-298.5 -158.5l-18 40q165 43 265 131.5zM146 280h47v-119h191v119h46v-335h-284v335zM384 -15v136h-191v-136h191zM533 34.5q36 39.5 55 86t19 89.5v78h46
v-74q0 -44 18.5 -91t54 -87t83.5 -63l-27 -37q-55 27 -94 74.5t-58 105.5q-19 -58 -58.5 -105.5t-95.5 -74.5l-28 37q49 22 85 61.5z" />
    <glyph glyph-name="uniAC13" unicode="&#xac13;" 
d="M370 451q-108 -119 -297 -178l-21 38q166 53 266 151t110 224h-341v42h391q0 -158 -108 -277zM273.5 27q69.5 36 115 91.5t45.5 123.5v46h47v-46q0 -67 45 -122t113.5 -90.5t139.5 -50.5l-20 -39q-99 23 -183 77t-118 134q-34 -81 -119.5 -136t-184.5 -78l-22 39
q72 15 141.5 51zM692 798h48v-255h104v-43h-104v-279h-48v577z" />
    <glyph glyph-name="uniAC14" unicode="&#xac14;" 
d="M709 798v-233h135v-41h-135v-214h-49v488h49zM317.5 479.5q99.5 93.5 109.5 215.5h-341v42h392q0 -156 -108.5 -270.5t-300.5 -168.5l-18 41q167 47 266.5 140.5zM181 35.5q42 36.5 66 80t24 84.5v76h45v-76q0 -64 36 -123.5t100 -92.5q63 36 100.5 98.5t37.5 117.5v76
h46v-76q0 -45 23.5 -88.5t65 -78.5t94.5 -53l-25 -37q-65 24 -112.5 70.5t-68.5 104.5q-19 -58 -60 -107.5t-100 -75.5q-61 25 -102.5 72.5t-59.5 107.5q-23 -56 -70 -102t-108 -70l-25 37q51 19 93 55.5z" />
    <glyph glyph-name="uniAC15" unicode="&#xac15;" 
d="M709 796v-238h135v-42h-135v-248h-49v528h49zM316.5 463.5q100.5 96.5 110.5 221.5h-341v43h392q0 -158 -108.5 -275.5t-297.5 -175.5l-21 40q165 50 265.5 146.5zM242.5 214.5q74.5 43.5 201.5 43.5t200.5 -43.5t73.5 -118.5t-73.5 -117.5t-200.5 -42.5t-201.5 42.5
t-74.5 117.5t74.5 118.5zM277.5 9.5q62.5 -32.5 166.5 -32.5q103 0 165.5 32.5t62.5 86.5q0 55 -62.5 88.5t-165.5 33.5q-104 0 -166.5 -33.5t-62.5 -88.5q0 -54 62.5 -86.5z" />
    <glyph glyph-name="uniAC16" unicode="&#xac16;" 
d="M709 798v-238h135v-42h-135v-226h-49v506h49zM318.5 480.5q99.5 92.5 108.5 214.5h-341v42h391q0 -156 -108 -269t-300 -167l-17 40q167 47 266.5 139.5zM272 18q65 33 108 80t43 101v5h-255v42h557v-42h-253v-5q0 -53 43 -100t109 -80.5t132 -46.5l-20 -38
q-92 20 -173.5 71t-114.5 120q-32 -69 -114 -120t-174 -71l-20 38q67 13 132 46z" />
    <glyph glyph-name="uniAC17" unicode="&#xac17;" 
d="M369.5 469.5q-107.5 -111.5 -297.5 -163.5l-20 43q168 44 266 134t106 211h-337v42h390q0 -155 -107.5 -266.5zM267 15.5q66 32.5 110 79.5t44 99h-260v42h260v113h48v-113h262v-42h-262q0 -52 44.5 -99t111 -79.5t132.5 -45.5l-21 -37q-92 19 -174.5 70t-115.5 119
q-33 -68 -115 -119t-175 -70l-21 37q66 13 132 45.5zM660 796h49v-215h135v-41h-135v-222h-49v478z" />
    <glyph glyph-name="uniAC19" unicode="&#xac19;" 
d="M709 796v-216h135v-42h-135v-209h-49v467h49zM318.5 484q99.5 89 107.5 209h-341v41h394q0 -154 -109 -264t-298 -160l-20 42q167 43 266.5 132zM179 286h534v-40h-485v-107h475v-41h-475v-112h506v-40h-555v340z" />
    <glyph glyph-name="uniAC1A" unicode="&#xac1a;" 
d="M709 795v-221h135v-40h-135v-228h-49v489h49zM314 483.5q102 91.5 112 210.5h-338v41h391q0 -102 -52 -187t-144.5 -146.5t-212.5 -96.5l-19 43q161 44 263 135.5zM160 -9h139v227h-132v42h568v-42h-130v-227h140v-41h-585v41zM558 -9v227h-212v-227h212z" />
    <glyph glyph-name="uniAC1B" unicode="&#xac1b;" 
d="M709 796v-205h135v-42h-135v-213h-49v460h49zM318.5 488q98.5 89 107.5 210h-341v41h393q0 -154 -108.5 -264.5t-299.5 -160.5l-18 42q168 43 266.5 132zM156 267h276v112h47v-112h274v-40h-597v40zM280.5 145.5q62.5 31.5 174.5 31.5t174 -31.5t62 -89.5t-62 -90
t-174 -32t-174.5 32t-62.5 90t62.5 89.5zM315 -6q51 -22 140 -22q88 0 139 22t51 62q0 38 -51 60.5t-139 22.5t-139.5 -22.5t-51.5 -60.5q0 -40 51 -62z" />
    <glyph glyph-name="uniAC1C" unicode="&#xac1c;" 
d="M773 796v-864h-47v460h-146v-414h-47v795h47v-339h146v362h47zM282.5 367q75.5 125 82.5 272h-285v42h332q0 -171 -77 -316t-253 -242l-29 36q154 83 229.5 208z" />
    <glyph glyph-name="uniAC1D" unicode="&#xac1d;" 
d="M768 795v-510h-46v240h-143v-234h-47v488h47v-212h143v228h46zM281.5 468.5q81.5 97.5 91.5 218.5h-284v43h333q0 -148 -87.5 -266.5t-248.5 -190.5l-26 36q140 62 221.5 159.5zM201 240h567v-308h-48v266h-519v42z" />
    <glyph glyph-name="uniAC20" unicode="&#xac20;" 
d="M767 795v-644h-46v326h-142v-295h-47v597h47v-260h142v276h46zM281 447.5q81 98.5 90 221.5h-282v40h332q0 -148 -87.5 -267t-249.5 -192l-25 37q141 62 222 160.5zM216 230h48v-227h532v-40h-580v267z" />
    <glyph glyph-name="uniAC23" unicode="&#xac23;" 
d="M773 237v-40h-510v-210h521v-41h-570v291h559zM281.5 471.5q81.5 95.5 91.5 215.5h-284v43h334q0 -148 -88 -264t-248 -187l-27 37q140 60 221.5 155.5zM532 779h47v-209h143v225h45v-499h-45v234h-143v-228h-47v477z" />
    <glyph glyph-name="uniAC24" unicode="&#xac24;" 
d="M767 795v-448h-46v198h-143v-192h-47v426h47v-193h143v209h46zM282.5 498.5q80.5 87.5 89.5 201.5h-282v42h332q0 -142 -88 -250.5t-250 -169.5l-23 37q141 52 221.5 139.5zM209 302h558v-190h-508v-125h546v-41h-593v207h509v109h-512v40z" />
    <glyph glyph-name="uniAC2C" unicode="&#xac2c;" 
d="M768 795v-497h-46v233h-143v-227h-47v475h47v-208h143v224h46zM282 471.5q81 95.5 91 215.5h-284v43h334q0 -148 -88 -264t-248 -187l-26 37q140 60 221 155.5zM214 249h554v-303h-554v303zM721 -13v222h-459v-222h459z" />
    <glyph glyph-name="uniAC2D" unicode="&#xac2d;" 
d="M768 795v-469h-46v207h-143v-201h-47v447h47v-205h143v221h46zM283 483q80 92 89 210h-281v41h331q0 -146 -86.5 -258.5t-249.5 -178.5l-26 38q143 56 223 148zM215 283h49v-119h458v119h46v-337h-553v337zM722 -13v136h-458v-136h458z" />
    <glyph glyph-name="uniAC2F" unicode="&#xac2f;" 
d="M337 441q-85 -119 -251 -191l-27 37q147 62 226 160.5t87 223.5h-280v41h330q0 -152 -85 -271zM299 21.5q71 34.5 118 86.5t47 113v46h48v-46q0 -61 47.5 -113t118.5 -86.5t139 -46.5l-20 -39q-98 21 -186.5 75t-122.5 130q-34 -76 -122 -130t-187 -75l-19 39
q68 12 139 46.5zM531 779h47v-223h143v239h46v-564h-46v283h-143v-205h-47v470z" />
    <glyph glyph-name="uniAC30" unicode="&#xac30;" 
d="M767 795v-502h-46v232h-143v-227h-47v481h47v-213h143v229h46zM280 471.5q81 95.5 91 215.5h-282v43h332q0 -147 -88 -263.5t-247 -186.5l-27 37q140 59 221 154.5zM197 25.5q42 36.5 66 80.5t24 85v69h45v-69q0 -64 36 -123t100 -93q63 36 100.5 99t37.5 117v69h46v-69
q0 -45 23.5 -89t65 -79t94.5 -53l-25 -37q-65 24 -112.5 70.5t-68.5 104.5q-19 -57 -60 -106.5t-99 -75.5q-62 25 -103.5 72.5t-59.5 106.5q-23 -56 -70 -102t-109 -70l-24 37q51 19 93 55.5z" />
    <glyph glyph-name="uniAC31" unicode="&#xac31;" 
d="M768 795v-538h-46v255h-143v-223h-47v490h47v-226h143v242h46zM281.5 460.5q81.5 96.5 91.5 216.5h-283v43h333q0 -147 -88 -264.5t-248 -187.5l-27 37q140 59 221.5 155.5zM278.5 205.5q77.5 41.5 211.5 41.5q135 0 212 -41.5t77 -114.5t-77 -114t-212 -41t-212 41
t-77 114t77.5 114.5zM314.5 7q65.5 -31 175.5 -31q109 0 174.5 31t65.5 84t-65.5 84t-174.5 31q-110 0 -175.5 -31t-65.5 -84t65.5 -84z" />
    <glyph glyph-name="uniAC38" unicode="&#xac38;" 
d="M699 796v-244h150v-42h-150v-218h150v-42h-150v-318h-48v864h48zM328 365.5q96 133.5 106 293.5h-340v42h387q0 -185 -98.5 -341t-296.5 -254l-26 39q172 87 268 220.5z" />
    <glyph glyph-name="uniAC39" unicode="&#xac39;" 
d="M709 796v-144h135v-42h-135v-144h135v-41h-135v-139h-49v510h49zM317 479.5q100 92.5 110 215.5h-342v42h392q0 -155 -108.5 -269.5t-298.5 -167.5l-20 40q167 47 267 139.5zM158 244h551v-312h-49v270h-502v42z" />
    <glyph glyph-name="uniAC3C" unicode="&#xac3c;" 
d="M709 795v-175h135v-41h-135v-173h135v-41h-135v-209h-49v639h49zM315.5 459.5q101.5 99.5 111.5 226.5h-343v42h394q0 -158 -110 -279t-296 -184l-21 40q163 55 264.5 154.5zM183 221h48v-225h521v-42h-569v267z" />
    <glyph glyph-name="uniAC40" unicode="&#xac40;" 
d="M709 796v-123h135v-41h-135v-131h135v-40h-135v-110h-49v445h49zM316.5 500q99.5 87 107.5 205h-339v42h391q0 -153 -109 -260.5t-297 -155.5l-19 41q166 41 265.5 128zM175 308h534v-198h-485v-129h519v-40h-565v210h483v116h-486v41z" />
    <glyph glyph-name="uniAC4B" unicode="&#xac4b;" 
d="M709 796v-161h136v-42h-136v-168h136v-42h-136v-163h-49v576h49zM318 462q100 98 110 224h-341v42h391q0 -158 -108 -277t-297 -178l-21 38q166 53 266 151zM273.5 25q69.5 36 115 91.5t45.5 123.5v46h47v-46q0 -67 45 -121.5t113.5 -90.5t139.5 -51l-22 -37
q-98 23 -182 76.5t-117 132.5q-34 -80 -120 -135t-184 -78l-22 39q72 14 141.5 50z" />
    <glyph glyph-name="uniAC4D" unicode="&#xac4d;" 
d="M709 796v-151h135v-40h-135v-152h135v-40h-135v-145h-49v528h49zM316.5 463.5q100.5 96.5 110.5 221.5h-341v43h392q0 -158 -108.5 -275.5t-297.5 -175.5l-21 40q165 50 265.5 146.5zM242.5 214.5q74.5 43.5 201.5 43.5t200.5 -43.5t73.5 -118.5t-73.5 -117.5
t-200.5 -42.5t-201.5 42.5t-74.5 117.5t74.5 118.5zM278.5 9.5q62.5 -32.5 165.5 -32.5t165.5 32.5t62.5 86.5q0 55 -62.5 88.5t-165.5 33.5q-104 0 -166 -33.5t-62 -88.5q0 -54 62.5 -86.5z" />
    <glyph glyph-name="uniAC54" unicode="&#xac54;" 
d="M773 796v-864h-47v341h-146v-295h-47v795h47v-214h146v237h47zM282.5 367q75.5 125 82.5 272h-285v42h332q0 -171 -77 -316t-253 -242l-29 36q154 83 229.5 208zM726 314v204h-146v-204h146z" />
    <glyph glyph-name="uniAC58" unicode="&#xac58;" 
d="M767 795v-644h-46v215h-142v-184h-47v597h47v-160h142v176h46zM281 447.5q81 98.5 90 221.5h-282v40h332q0 -148 -87.5 -267t-249.5 -192l-25 37q141 62 222 160.5zM216 230h48v-227h532v-40h-580v267zM721 407v172h-142v-172h142z" />
    <glyph glyph-name="uniAC5C" unicode="&#xac5c;" 
d="M767 795v-448h-46v114h-143v-108h-47v426h47v-115h143v131h46zM282.5 498.5q80.5 88.5 89.5 203.5h-282v42h332q0 -143 -88.5 -252.5t-249.5 -170.5l-23 35q141 54 221.5 142.5zM209 300h558v-197h-508v-124h546v-41h-593v206h509v115h-512v41zM721 500v125h-143v-125
h143z" />
    <glyph glyph-name="uniAC65" unicode="&#xac65;" 
d="M768 795v-469h-46v122h-143v-116h-47v447h47v-117h143v133h46zM283 483q80 92 89 210h-281v41h331q0 -146 -86.5 -258.5t-249.5 -178.5l-26 38q143 56 223 148zM215 283h49v-119h458v119h46v-337h-553v337zM722 -13v136h-458v-136h458zM722 489v132h-143v-132h143z" />
    <glyph glyph-name="uniAC70" unicode="&#xac70;" 
d="M747 796v-864h-47v465h-226v43h226v356h47zM323 364q94 133 103 295h-338v42h386q0 -186 -96 -340.5t-297 -253.5l-29 38q177 86 271 219z" />
    <glyph glyph-name="uniAC71" unicode="&#xac71;" 
d="M378.5 468q-109.5 -114 -297.5 -169l-21 39q166 48 266 141t110 216h-333v41h385q0 -154 -109.5 -268zM180 245h567v-311h-48v269h-519v42zM487 558h212v237h48v-510h-48v231h-212v42z" />
    <glyph glyph-name="uniAC74" unicode="&#xac74;" 
d="M747 795v-642h-48v324h-213v42h213v276h48zM323.5 457.5q101.5 100.5 111.5 228.5h-332v42h384q0 -159 -109.5 -281t-294.5 -185l-22 40q161 55 262.5 155.5zM216 218h48v-222h506v-42h-554v264z" />
    <glyph glyph-name="uniAC77" unicode="&#xac77;" 
d="M375.5 467.5q-109.5 -114.5 -297.5 -168.5l-19 39q165 48 265.5 141t110.5 216h-333v41h383q0 -154 -109.5 -268.5zM201 247h548v-42h-500v-218h515v-41h-563v301zM485 551h214v244h48v-496h-48v211h-214v41z" />
    <glyph glyph-name="uniAC78" unicode="&#xac78;" 
d="M747 796v-449h-48v185h-212v39h212v225h48zM323 500.5q98 86.5 108 204.5h-327v42h379q0 -152 -108.5 -259.5t-296.5 -156.5l-17 40q164 43 262 129.5zM202 305h545v-194h-496v-130h532v-40h-578v210h495v113h-498v41z" />
    <glyph glyph-name="uniAC7A" unicode="&#xac7a;" 
d="M747 796v-462h-48v199h-214v42h214v221h48zM324.5 499q98.5 87 107.5 206h-329v41h380q0 -152 -108 -260t-296 -157l-18 40q165 43 263.5 130zM153 292h270v-186h-221v-120q86 0 137 3t107 14l5 -40q-58 -11 -109.5 -14t-144.5 -3h-42v200h222v106h-224v40zM484 292h263
v-346h-263v346zM703 -15v268h-175v-268h175z" />
    <glyph glyph-name="uniAC80" unicode="&#xac80;" 
d="M378 468q-109 -114 -297 -169l-21 39q165 48 265 141t110 216h-333v41h385q0 -154 -109 -268zM200 258h547v-312h-547v312zM700 -13v232h-453v-232h453zM486 562h213v233h48v-498h-48v223h-213v42z" />
    <glyph glyph-name="uniAC81" unicode="&#xac81;" 
d="M746 796v-463h-47v192h-211v42h211v229h47zM327 488.5q99 88.5 108 209.5h-332v41h384q0 -152 -109.5 -262t-298.5 -161l-19 40q168 44 267 132.5zM202 285h47v-125h451v125h46v-340h-544v340zM700 -14v134h-451v-134h451z" />
    <glyph glyph-name="uniAC83" unicode="&#xac83;" 
d="M747 795v-593h-48v298h-211v43h211v252h48zM325 460.5q100 97.5 110 223.5h-332v42h383q0 -156 -108.5 -275t-293.5 -180l-21 39q162 53 262 150.5zM293 24q69 36 114.5 91.5t45.5 123.5v46h48v-46q0 -67 45 -121.5t113.5 -90.5t139.5 -51l-21 -38q-99 23 -183 77
t-118 134q-33 -81 -119 -136t-186 -78l-20 39q72 14 141 50z" />
    <glyph glyph-name="uniAC84" unicode="&#xac84;" 
d="M376 468q-109 -114 -296 -169l-22 39q166 48 266 141t110 216h-328v41h379q0 -154 -109 -268zM186.5 35.5q41.5 36.5 65 80t23.5 84.5v77h47v-77q0 -64 36.5 -123.5t100.5 -91.5q62 36 100.5 98.5t38.5 116.5v77h46v-77q0 -68 51 -130t131 -90l-25 -37
q-64 24 -111.5 69.5t-68.5 103.5q-20 -58 -61 -106.5t-100 -74.5q-61 25 -103 72t-61 106q-23 -55 -69.5 -100.5t-108.5 -69.5l-25 37q52 19 93.5 55.5zM487 563h211v232h48v-498h-48v225h-211v41z" />
    <glyph glyph-name="uniAC85" unicode="&#xac85;" 
d="M747 795v-530h-48v230h-212v43h212v257h48zM325 464.5q102 96.5 111 220.5h-332v42h384q0 -156 -110.5 -273t-295.5 -176l-21 39q162 51 264 147.5zM264.5 213.5q75.5 42.5 206.5 42.5t206 -42.5t75 -117.5t-75 -117t-206 -42t-206.5 42t-75.5 117t75.5 117.5zM300 8.5
q64 -32.5 171 -32.5q105 0 169.5 32.5t64.5 87.5t-64 87.5t-170 32.5q-107 0 -171 -32.5t-64 -87.5t64 -87.5z" />
    <glyph glyph-name="uniAC86" unicode="&#xac86;" 
d="M387.5 467q-111.5 -113 -302.5 -166l-20 40q169 46 271.5 138.5t111.5 215.5h-346v41h397q0 -156 -111.5 -269zM304 17q66 32 109.5 79t43.5 101v6h-254v42h557v-42h-255v-6q0 -53 43.5 -100t110 -79.5t133.5 -45.5l-20 -38q-94 20 -175.5 70t-114.5 119
q-33 -69 -114.5 -119t-175.5 -70l-21 38q67 13 133 45zM487 557h212v238h48v-502h-48v222h-212v42z" />
    <glyph glyph-name="uniAC89" unicode="&#xac89;" 
d="M750 285v-39h-495v-108h485v-40h-485v-112h513v-40h-560v339h542zM325.5 484q98.5 90 108.5 211h-331v42h383q0 -154 -108.5 -265.5t-298.5 -162.5l-19 41q167 44 265.5 134zM491 564h208v232h48v-475h-48v201h-208v42z" />
    <glyph glyph-name="uniAC8A" unicode="&#xac8a;" 
d="M377 469q-110 -113 -297 -165l-20 41q164 44 264.5 135.5t110.5 213.5h-332v42h384q0 -154 -110 -267zM179 -13h140v229h-133v42h569v-42h-133v-229h144v-41h-587v41zM573 -13v229h-207v-229h207zM485 559h214v236h48v-493h-48v215h-214v42z" />
    <glyph glyph-name="uniAC8B" unicode="&#xac8b;" 
d="M375.5 476.5q-107.5 -110.5 -295.5 -161.5l-20 41q166 43 264 132.5t107 210.5h-328v41h380q0 -153 -107.5 -263.5zM173 265h276v109h48v-109h274v-40h-598v40zM298 145.5q63 31.5 175 31.5q111 0 174 -31.5t63 -88.5q0 -59 -63 -90.5t-174 -31.5q-112 0 -175 31.5
t-63 90.5q0 57 63 88.5zM334 -4.5q51 -22.5 139 -22.5q86 0 136.5 22.5t50.5 61.5q0 37 -51 59.5t-136 22.5q-87 0 -138.5 -22.5t-51.5 -59.5q0 -39 51 -61.5zM484 576h215v220h48v-461h-48v200h-215v41z" />
    <glyph glyph-name="uniAC8C" unicode="&#xac8c;" 
d="M773 796v-864h-47v864h47zM277 371q80 126 88 269h-281v41h329q0 -134 -53 -253h189v343h45v-791h-45v407h-209q-86 -160 -256 -264l-31 36q144 86 224 212z" />
    <glyph glyph-name="uniAC90" unicode="&#xac90;" 
d="M767 795v-652h-46v652h46zM284.5 448q82.5 99 91.5 222h-285v41h334q0 -110 -47 -202h174v268h45v-608h-45v298h-198q-89 -137 -270 -216l-25 36q143 62 225.5 161zM217 224h49v-228h531v-42h-580v270z" />
    <glyph glyph-name="uniAC94" unicode="&#xac94;" 
d="M767 795v-448h-46v448h46zM286 498q82 89 91 204h-285v42h334q0 -91 -37 -171h163v203h45v-424h-45v180h-185q-86 -139 -281 -212l-24 36q142 53 224 142zM209 300h558v-192h-507v-121h545v-41h-593v204h508v109h-511v41z" />
    <glyph glyph-name="uniAC9C" unicode="&#xac9c;" 
d="M386 548h167v228h45v-468h-45v199h-189q-43 -71 -113 -128.5t-163 -98.5l-27 36q141 59 223.5 154.5t92.5 216.5h-285v43h333q0 -95 -39 -182zM214 253h554v-306h-554v306zM722 -13v225h-461v-225h461zM722 795h46v-498h-46v498z" />
    <glyph glyph-name="uniAC9D" unicode="&#xac9d;" 
d="M386 553h167v223h45v-449h-45v184h-190q-85 -140 -278 -217l-25 36q145 56 225.5 149t89.5 213h-282v41h331q0 -96 -38 -180zM215 281h49v-120h458v120h46v-335h-553v335zM722 -14v135h-458v-135h458zM722 795h46v-476h-46v476z" />
    <glyph glyph-name="uniAC9F" unicode="&#xac9f;" 
d="M767 795v-583h-46v583h46zM284 448q82 99 91 223h-285v41h334q0 -96 -38 -183h166v247h45v-490h-45v200h-188q-42 -73 -113 -133t-166 -103l-26 37q143 62 225 161zM297 22q71 35 118.5 87t47.5 113v46h48v-46q0 -61 47.5 -113t119 -87t140.5 -47l-20 -38q-99 20 -188 74
t-123 131q-35 -77 -124 -131t-187 -74l-19 38q69 12 140 47z" />
    <glyph glyph-name="uniACA0" unicode="&#xaca0;" 
d="M378 536h174v240h45v-470h-45v188h-198q-44 -67 -112 -121.5t-157 -93.5l-26 37q141 59 224 154.5t93 216.5h-285v43h333q0 -104 -46 -194zM197 25.5q42 36.5 66 80.5t24 85v69h45v-69q0 -64 36 -123t100 -93q63 36 100.5 99t37.5 117v69h46v-69q0 -45 23.5 -89t65 -79
t94.5 -53l-25 -37q-65 24 -112.5 70.5t-68.5 104.5q-19 -57 -60 -106.5t-99 -75.5q-62 25 -103.5 72.5t-59.5 106.5q-23 -56 -70 -102t-109 -70l-24 37q51 19 93 55.5zM721 795h46v-504h-46v504z" />
    <glyph glyph-name="uniACA1" unicode="&#xaca1;" 
d="M385 536h167v240h46v-487h-46v205h-190q-43 -71 -113 -128.5t-163 -97.5l-27 37q141 58 224.5 155t93.5 217h-286v43h334q0 -98 -40 -184zM278.5 205q77.5 42 212.5 42q134 0 211 -42t77 -115t-76.5 -113.5t-211.5 -40.5t-212.5 41t-77.5 113q0 73 77.5 115zM314.5 7
q65.5 -31 176.5 -31q109 0 174.5 31t65.5 83q0 54 -65.5 85t-174.5 31q-111 0 -176.5 -31t-65.5 -85q0 -52 65.5 -83zM722 795h46v-538h-46v538z" />
    <glyph glyph-name="uniACA8" unicode="&#xaca8;" 
d="M461 549h239v248h47v-863h-47v345h-263v42h263v187h-250q-39 -125 -131 -228t-240 -174l-26 39q179 86 274 219t104 295h-343v42h390q0 -76 -17 -152z" />
    <glyph glyph-name="uniACA9" unicode="&#xaca9;" 
d="M479 632h220v163h48v-516h-48v129h-247v41h247v140h-235q-42 -102 -141.5 -177t-240.5 -115l-20 40q167 48 268.5 141t111.5 216h-338v42h389q0 -53 -14 -104zM180 240h567v-306h-48v263h-519v43z" />
    <glyph glyph-name="uniACAA" unicode="&#xacaa;" 
d="M478 631h221v164h48v-504h-48v118h-249v41h249v140h-236q-42 -101 -141 -175.5t-240 -114.5l-21 39q167 47 268.5 140t111.5 216h-337v41h388q0 -54 -14 -105zM163 246h274v-313h-48v271h-226v42zM480 246h267v-313h-48v271h-219v42z" />
    <glyph glyph-name="uniACAC" unicode="&#xacac;" 
d="M748 795v-646h-49v225h-251v42h251v152h-241q-44 -103 -141.5 -181.5t-231.5 -124.5l-23 39q163 55 265 155.5t112 228.5h-335v42h387q0 -60 -17 -117h225v185h49zM216 211h48v-215h506v-42h-554v257z" />
    <glyph glyph-name="uniACAF" unicode="&#xacaf;" 
d="M477 639h222v156h48v-496h-48v117h-249v42h249v140h-236q-40 -104 -139 -180.5t-242 -117.5l-21 39q165 47 266 140t111 216h-336v41h387q0 -50 -12 -97zM201 247h548v-42h-500v-218h515v-41h-563v301z" />
    <glyph glyph-name="uniACB0" unicode="&#xacb0;" 
d="M747 796v-446h-48v106h-249v39h249v124h-233q-39 -104 -139 -177.5t-246 -110.5l-18 41q166 42 265 128t108 205h-332v42h384q0 -48 -10 -88h221v137h48zM202 305h545v-194h-496v-130h532v-40h-578v210h495v113h-498v41z" />
    <glyph glyph-name="uniACB7" unicode="&#xacb7;" 
d="M747 796v-449h-48v111h-250v39h250v125h-234q-39 -102 -139.5 -174.5t-245.5 -106.5l-18 40q165 40 264 124t109 202h-331v42h384q0 -44 -11 -88h222v135h48zM144 292h268v-182h-219v-124q95 0 147 3t109 14l5 -40q-60 -11 -113.5 -14t-150.5 -3h-43v203h218v103h-221v40
zM447 246h151v89h48v-89h152v-40h-351v40zM515 131.5q42 31.5 107 31.5q64 0 106 -31.5t42 -81.5q0 -53 -41.5 -84.5t-106.5 -31.5t-107 31.5t-42 84.5q0 50 42 81.5zM546 -7.5q29 -21.5 76 -21.5t76 21.5t29 57.5q0 33 -29.5 54.5t-75.5 21.5t-75.5 -21.5t-29.5 -54.5
q0 -36 29 -57.5z" />
    <glyph glyph-name="uniACB8" unicode="&#xacb8;" 
d="M699 460v134h-237q-42 -102 -141 -178t-240 -117l-20 39q165 47 265.5 140.5t110.5 216.5h-335v41h387q0 -54 -13 -99h223v158h48v-499h-48v122h-249v42h249zM200 258h547v-312h-547v312zM700 -13v232h-453v-232h453z" />
    <glyph glyph-name="uniACB9" unicode="&#xacb9;" 
d="M699 472v133h-236q-40 -102 -139.5 -176t-243.5 -113l-21 40q169 43 268.5 132t108.5 210h-333v41h385q0 -46 -11 -93h222v150h47v-463h-47v98h-249v41h249zM202 285h47v-125h451v125h46v-340h-544v340zM700 -14v134h-451v-134h451z" />
    <glyph glyph-name="uniACBB" unicode="&#xacbb;" 
d="M699 437v142h-240q-42 -104 -139.5 -183t-235.5 -125l-22 39q163 52 263.5 149.5t110.5 224.5h-333v42h384q0 -54 -14 -107h226v176h48v-593h-48v192h-251v43h251zM293 25q69 36 114.5 91.5t45.5 123.5v45h48v-45q0 -67 45 -121.5t113.5 -90.5t139.5 -51l-21 -38
q-99 23 -183 77t-118 134q-33 -81 -119 -136t-186 -78l-20 39q72 14 141 50z" />
    <glyph glyph-name="uniACBC" unicode="&#xacbc;" 
d="M698 457v137h-238q-42 -102 -141 -178t-240 -117l-21 39q165 47 266 140.5t111 216.5h-329v41h381q0 -54 -13 -100h224v159h48v-498h-48v119h-249v41h249zM186.5 35.5q41.5 36.5 65 80t23.5 84.5v77h47v-77q0 -64 36.5 -123.5t100.5 -91.5q62 36 100.5 98.5t38.5 116.5
v77h46v-77q0 -68 51 -130t131 -90l-25 -37q-64 24 -111.5 69.5t-68.5 103.5q-20 -58 -61 -106.5t-100 -74.5q-61 25 -103 72t-61 106q-23 -55 -69.5 -100.5t-108.5 -69.5l-25 37q52 19 93.5 55.5z" />
    <glyph glyph-name="uniACBD" unicode="&#xacbd;" 
d="M699 442v139h-238q-43 -103 -142 -181t-237 -122l-21 39q162 51 264 147.5t111 220.5h-332v42h385q0 -55 -15 -106h225v174h48v-531h-48v135h-251v43h251zM264.5 213.5q75.5 42.5 206.5 42.5t206 -42.5t75 -117.5t-75 -117t-206 -42t-206.5 42t-75.5 117t75.5 117.5z
M300 8.5q64 -32.5 171 -32.5q105 0 169.5 32.5t64.5 87.5t-64 87.5t-170 32.5q-107 0 -171 -32.5t-64 -87.5t64 -87.5z" />
    <glyph glyph-name="uniACC1" unicode="&#xacc1;" 
d="M699 477v129h-235q-39 -105 -138.5 -181t-246.5 -116l-20 41q168 44 267 133.5t109 211.5h-332v42h384q0 -46 -11 -92h223v151h48v-475h-48v117h-248v39h248zM208 285h542v-39h-495v-108h485v-40h-485v-112h513v-40h-560v339z" />
    <glyph glyph-name="uniACC4" unicode="&#xacc4;" 
d="M556 331v176h-168q-33 -114 -109.5 -212.5t-195.5 -171.5l-30 36q144 86 224 212t88 269h-281v41h328q0 -65 -14 -133h158v223h47v-791h-47v309h-181v42h181zM726 796h47v-864h-47v864z" />
    <glyph glyph-name="uniACC8" unicode="&#xacc8;" 
d="M560 404v149h-163q-35 -97 -115.5 -175.5t-199.5 -131.5l-23 36q143 63 225.5 163.5t91.5 224.5h-285v41h334q0 -61 -15 -118h150v184h47v-604h-47v191h-178v40h178zM217 228h49v-232h531v-42h-580v274zM721 795h46v-644h-46v644z" />
    <glyph glyph-name="uniACCC" unicode="&#xaccc;" 
d="M560 494v118h-155q-33 -97 -114.5 -171.5t-204.5 -120.5l-24 36q142 53 223.5 142t90.5 204h-284v42h334q0 -51 -10 -92h144v124h47v-428h-47v106h-164v40h164zM209 300h558v-192h-507v-127h545v-40h-593v207h508v111h-511v41zM721 795h46v-453h-46v453z" />
    <glyph glyph-name="uniACD5" unicode="&#xacd5;" 
d="M561 475v124h-158q-32 -99 -112.5 -175t-205.5 -126l-25 38q144 55 225 146t90 210h-282v41h331q0 -50 -10 -93h147v136h46v-450h-46v109h-163v40h163zM215 282h49v-119h458v119h46v-336h-553v336zM722 -13v134h-458v-134h458zM722 795h46v-476h-46v476z" />
    <glyph glyph-name="uniACD7" unicode="&#xacd7;" 
d="M552 448v130h-148q-32 -104 -114 -188.5t-205 -139.5l-27 37q143 62 225.5 161t91.5 223h-285v42h334q0 -51 -10 -95h138v158h45v-499h-45v130h-156v41h156zM297 21q71 34 118.5 86t47.5 113v40h48v-40q0 -61 47.5 -113t119 -86t140.5 -46l-20 -39q-99 20 -188 73.5
t-123 130.5q-35 -77 -123.5 -130.5t-187.5 -73.5l-19 39q69 12 140 46zM721 795h46v-589h-46v589z" />
    <glyph glyph-name="uniACE0" unicode="&#xace0;" 
d="M719 699v-86q0 -109 -5 -194t-24 -197l-49 7q21 107 26 192t5 192v45h-542v41h589zM45 106h322v316h48v-316h410v-40h-780v40z" />
    <glyph glyph-name="uniACE1" unicode="&#xace1;" 
d="M387 375v186h47v-186h390v-40h-778v40h341zM132 220h593v-288h-48v246h-545v42zM141 747h582v-68q0 -68 -3.5 -119.5t-18.5 -113.5l-49 6q15 62 19 111.5t4 115.5v27h-534v41z" />
    <glyph glyph-name="uniACE4" unicode="&#xace4;" 
d="M723 743v-60q0 -71 -4 -129.5t-20 -133.5l-49 7q17 74 21 130.5t4 125.5v18h-534v42h582zM46 353h341v188h47v-188h390v-41h-778v41zM149 213h49v-217h547v-42h-596v259z" />
    <glyph glyph-name="uniACE7" unicode="&#xace7;" 
d="M723 754v-74q0 -70 -4 -119.5t-20 -107.5l-48 6q16 59 20 106.5t4 114.5v34h-534v40h582zM46 394h341v173h47v-173h390v-42h-778v42zM147 240h576v-41h-527v-211h538v-41h-587v293z" />
    <glyph glyph-name="uniACE8" unicode="&#xace8;" 
d="M723 759v-58q0 -61 -3 -106t-16 -100l-47 6q12 55 15 98.5t3 101.5v17h-534v41h582zM46 438h341v166h47v-166h390v-42h-778v42zM141 299h585v-189h-535v-124h557v-40h-604v203h535v110h-538v40z" />
    <glyph glyph-name="uniACEA" unicode="&#xacea;" 
d="M722 754v-52q0 -63 -3 -115t-16 -115l-48 4q13 65 16.5 115.5t3.5 110.5v11h-534v41h581zM46 419h341v170h47v-170h390v-42h-778v42zM130 282h272v-179h-223v-118q93 0 143.5 3t105.5 14l7 -40q-59 -11 -111.5 -14t-148.5 -3h-42v196h222v103h-225v38zM464 282h272v-337
h-272v337zM693 -16v260h-186v-260h186z" />
    <glyph glyph-name="uniACEC" unicode="&#xacec;" 
d="M635 303v-85q0 -72 41.5 -141t114.5 -102l-27 -36q-56 27 -95 74.5t-58 106.5q-18 -59 -56.5 -106.5t-94.5 -74.5l-28 36q73 34 114.5 102.5t41.5 140.5v85h47zM46 422h341v171h47v-171h390v-43h-778v43zM130 283h272v-179h-223v-119q87 0 135 3t101 14l7 -41
q-57 -10 -107.5 -13t-140.5 -3h-41v196h222v104h-225v38zM141 758h582v-72q0 -66 -3 -111.5t-16 -99.5l-49 5q13 54 16.5 98t3.5 108v32h-534v40z" />
    <glyph glyph-name="uniACEF" unicode="&#xacef;" 
d="M582 234v87h46v-87h158v-41h-358v41h154zM46 427h341v173h47v-173h390v-41h-778v41zM129 290h265v-182h-216v-122q95 0 147 3t108 14l6 -39q-60 -11 -114.5 -14.5t-149.5 -3.5h-43v200h216v105h-219v39zM141 766h581v-53q0 -61 -3 -112.5t-16 -115.5l-48 5
q13 65 16.5 114.5t3.5 108.5v12h-534v41zM505 125.5q39 29.5 101 29.5t100.5 -29.5t38.5 -80.5t-38.5 -80.5t-100.5 -29.5t-101 29.5t-39 80.5t39 80.5zM535 -9q27 -20 71 -20t70.5 20t26.5 54q0 33 -26.5 53t-70.5 20t-71 -20t-27 -53q0 -34 27 -54z" />
    <glyph glyph-name="uniACF0" unicode="&#xacf0;" 
d="M727 242v-296h-583v296h583zM46 396h341v178h47v-178h390v-42h-778v42zM141 755h582v-74q0 -70 -4 -119.5t-20 -108.5l-48 7q16 59 20 106.5t4 114.5v33h-534v41zM680 -13v215h-489v-215h489z" />
    <glyph glyph-name="uniACF1" unicode="&#xacf1;" 
d="M723 758v-69q0 -65 -4 -113t-20 -108l-49 6q17 59 21 106t4 109v29h-534v40h582zM47 419h340v159h47v-159h391v-43h-778v43zM152 289h48v-121h471v121h47v-343h-566v343zM671 -13v140h-471v-140h471z" />
    <glyph glyph-name="uniACF3" unicode="&#xacf3;" 
d="M722 753v-57q0 -67 -4 -122.5t-20 -124.5l-47 6q16 70 20 123t4 118v17h-534v40h581zM46 381h341v183h47v-183h390v-41h-778v41zM248.5 19.5q68.5 32.5 113.5 82t45 111.5v48h49v-48q0 -62 45 -111.5t114.5 -82t141.5 -44.5l-21 -39q-100 20 -185 70.5t-119 124.5
q-33 -74 -118.5 -124.5t-185.5 -70.5l-20 39q72 12 140.5 44.5z" />
    <glyph glyph-name="uniACF5" unicode="&#xacf5;" 
d="M650 204q80 -42 80 -114t-80 -113t-217 -41t-217 41t-80 113t80 114t217 42t217 -42zM46 382h341v178h47v-178h390v-40h-778v40zM141 749h581v-75q0 -69 -4 -118.5t-20 -109.5l-47 7q16 59 20 107t4 114v34h-534v41zM215.5 30q31.5 -26 88 -40.5t129.5 -14.5
q74 0 130.5 14.5t87.5 40.5t31 60q0 35 -31 61.5t-87.5 41t-130.5 14.5q-73 0 -129.5 -14.5t-88 -41t-31.5 -61.5q0 -34 31.5 -60z" />
    <glyph glyph-name="uniACF6" unicode="&#xacf6;" 
d="M732 242v-41h-271q4 -60 50.5 -107.5t115 -77.5t139.5 -41l-18 -39q-103 19 -191 68.5t-121 124.5q-33 -75 -120 -124.5t-190 -68.5l-19 39q72 11 140.5 41t115 77.5t50.5 107.5h-272v41h591zM46 399h341v171h47v-171h390v-41h-778v41zM141 758h582v-73q0 -68 -4 -116.5
t-20 -105.5l-48 7q16 57 20 103.5t4 111.5v32h-534v41z" />
    <glyph glyph-name="uniACFC" unicode="&#xacfc;" 
d="M514 695v-30q0 -75 -4.5 -157t-20.5 -193l-49 4q27 171 27 335h-382v41h429zM237 177v272h48v-271q185 7 301 22l2 -36q-122 -19 -257 -25.5t-287 -7.5l-8 43q93 0 201 3zM648 796h47v-370h153v-43h-153v-451h-47v864z" />
    <glyph glyph-name="uniACFD" unicode="&#xacfd;" 
d="M514 735v-39q0 -58 -4 -114.5t-20 -128.5l-48 6q16 72 20.5 125t4.5 109h-370v42h417zM243 367v187h48v-186q176 7 299 24l4 -37q-204 -34 -543 -34l-8 43q94 0 200 3zM150 216h555v-276h-49v235h-506v41zM656 796h49v-252h136v-42h-136v-236h-49v530z" />
    <glyph glyph-name="uniAD00" unicode="&#xad00;" 
d="M515 727v-42q0 -61 -4 -120.5t-19 -135.5l-49 5q16 77 20.5 134t4.5 116h-371v43h418zM243 341v198h48v-197q176 7 299 24l5 -37q-205 -34 -544 -34l-8 43q94 0 200 3zM180 203h48v-207h504v-42h-552v249zM656 796h49v-294h137v-42h-137v-316h-49v652z" />
    <glyph glyph-name="uniAD04" unicode="&#xad04;" 
d="M514 741v-35q0 -54 -4 -106t-19 -119l-49 5q16 65 20.5 115t4.5 99h-370v41h417zM243 404v168h48v-167q174 7 300 23l5 -36q-207 -32 -545 -32l-7 41q93 0 199 3zM158 284h547v-183h-497v-118h531v-40h-579v198h497v104h-499v39zM656 796h49v-222h136v-40h-136v-206h-49
v468z" />
    <glyph glyph-name="uniAD06" unicode="&#xad06;" 
d="M388 270v-174h-214v-111q87 0 135 3t100 14l6 -40q-55 -11 -105 -14t-142 -3h-41v189h214v97h-217v39h264zM243 409v168h48v-166q172 5 300 24l5 -37q-122 -21 -255.5 -27t-289.5 -6l-7 42q128 0 199 2zM97 741h417v-35q0 -53 -4 -105t-19 -119l-49 6q16 65 20.5 114
t4.5 98h-370v41zM441 270h264v-325h-264v325zM660 -16v247h-174v-247h174zM656 796h49v-227h136v-41h-136v-212h-49v480z" />
    <glyph glyph-name="uniAD0C" unicode="&#xad0c;" 
d="M514 737v-36q0 -54 -4 -107.5t-20 -122.5l-48 5q16 67 20.5 118.5t4.5 101.5h-370v41h417zM243 381v175h48v-173q173 5 299 24l5 -37q-122 -20 -253 -26t-291 -6l-8 41q128 0 200 2zM169 231h536v-285h-536v285zM658 -13v204h-441v-204h441zM656 796h49v-237h136v-42
h-136v-239h-49v518z" />
    <glyph glyph-name="uniAD0D" unicode="&#xad0d;" 
d="M514 740v-36q0 -54 -4 -106.5t-19 -120.5l-49 6q16 65 20.5 116t4.5 100h-370v41h417zM242 397v166h48v-165q177 7 302 24l4 -37q-212 -34 -545 -34l-7 43q92 0 198 3zM171 277h49v-117h437v117h48v-331h-534v331zM657 -13v133h-437v-133h437zM656 796h49v-225h136v-41
h-136v-216h-49v482z" />
    <glyph glyph-name="uniAD0F" unicode="&#xad0f;" 
d="M514 736v-38q0 -57 -4.5 -113.5t-20.5 -128.5l-47 5q16 71 20.5 125.5t4.5 107.5h-370v42h417zM243 364v185h48v-184q176 7 299 24l5 -37q-206 -33 -544 -33l-8 42q94 0 200 3zM271 18.5q68 31.5 112.5 80t44.5 107.5v40h49v-40q0 -59 44.5 -107.5t113 -80t139.5 -43.5
l-20 -39q-99 19 -183.5 68t-117.5 121q-34 -72 -118.5 -121t-182.5 -68l-20 39q71 12 139 43.5zM656 796h49v-269h136v-43h-136v-276h-49v588z" />
    <glyph glyph-name="uniAD10" unicode="&#xad10;" 
d="M306 239v-40q0 -61 37 -121.5t101 -93.5q63 34 100.5 94.5t37.5 120.5v40h44v-36q0 -69 50.5 -130.5t130.5 -89.5l-24 -37q-63 24 -109.5 68t-69.5 100q-18 -58 -59 -105.5t-101 -72.5q-61 25 -102.5 72.5t-59.5 105.5q-22 -56 -68.5 -100t-109.5 -68l-24 37
q79 29 130 91t51 129v36h45zM243 380v176h48v-175q173 5 299 24l5 -38q-122 -19 -255.5 -25t-288.5 -6l-8 42q128 0 200 2zM97 737h417v-36q0 -54 -4 -107.5t-20 -122.5l-48 5q16 67 20.5 118.5t4.5 101.5h-370v41zM656 796h49v-237h136v-42h-136v-239h-49v518z" />
    <glyph glyph-name="uniAD11" unicode="&#xad11;" 
d="M514 737v-41q0 -58 -4 -113t-20 -124l-48 5q16 70 20.5 122t4.5 109h-370v42h417zM243 370v184h48v-183q176 7 299 24l5 -37q-212 -34 -544 -34l-8 43q94 0 200 3zM231 198.5q74 39.5 204 39.5t203.5 -39.5t73.5 -111.5t-73.5 -112t-203.5 -40t-204 40t-74 112t74 111.5z
M266.5 6q62.5 -30 168.5 -30t168 30t62 81t-62.5 81t-167.5 30t-168 -30t-63 -81t62.5 -81zM656 796h49v-251h136v-42h-136v-254h-49v547z" />
    <glyph glyph-name="uniAD18" unicode="&#xad18;" 
d="M436 692v-54q0 -79 -3.5 -150t-15.5 -163l-46 2q13 91 16.5 162t3.5 149v13h-312v41h357zM202 194v256h46v-254q142 5 242 19l1 -37q-170 -29 -446 -29l-8 43q43 0 165 2zM540 774h46v-356h130v378h48v-864h-48v444h-130v-394h-46v792z" />
    <glyph glyph-name="uniAD1C" unicode="&#xad1c;" 
d="M442 726v-58q0 -64 -3.5 -115.5t-16.5 -116.5l-47 5q15 65 18.5 115.5t3.5 111.5v16h-308v42h353zM210 348v183h46v-181q143 5 234 17l2 -37q-173 -27 -446 -27l-8 43q109 0 172 2zM202 207h47v-211h537v-42h-584v253zM536 780h46v-273h130v288h47v-657h-47v327h-130
v-298h-46v613z" />
    <glyph glyph-name="uniAD20" unicode="&#xad20;" 
d="M442 744v-52q0 -56 -3 -103t-16 -104l-46 5q13 57 16.5 102.5t3.5 99.5v10h-308v42h353zM210 402v166h46v-164q146 5 233 18l3 -37q-172 -27 -446 -27l-8 42q109 0 172 2zM196 278h563v-180h-515v-113h550v-40h-596v193h514v101h-516v39zM536 780h46v-209h130v225h47
v-478h-47v213h-130v-206h-46v455z" />
    <glyph glyph-name="uniAD22" unicode="&#xad22;" 
d="M421 276v-178h-233v-113q97 0 148.5 3t104.5 13l7 -38q-59 -11 -113 -14.5t-150 -3.5h-44v192h234v100h-235v39h281zM211 410v161h46v-160q143 5 233 17l3 -36q-166 -27 -446 -27l-9 42q77 0 173 3zM90 744h352v-52q0 -56 -3 -103t-15 -104l-47 5q13 57 16.5 102.5
t3.5 99.5v10h-307v42zM481 276h279v-331h-279v331zM714 -16v253h-187v-253h187zM537 780h46v-205h129v221h48v-469h-48v207h-129v-201h-46v447z" />
    <glyph glyph-name="uniAD29" unicode="&#xad29;" 
d="M442 740v-53q0 -59 -3 -108.5t-16 -110.5l-46 4q13 61 16.5 109.5t3.5 105.5v12h-307v41h352zM211 387v171h46v-170q143 5 233 17l3 -37q-165 -26 -447 -26l-8 42q77 0 173 3zM196 271h49v-114h467v114h48v-325h-564v325zM712 -13v128h-467v-128h467zM537 780h46v-216
h129v232h48v-486h-48v212h-129v-205h-46v463z" />
    <glyph glyph-name="uniAD2C" unicode="&#xad2c;" 
d="M441 735v-55q0 -62 -3 -112.5t-16 -112.5l-46 6q13 62 16.5 110.5t3.5 108.5v13h-307v42h352zM210 366v176h45v-175q136 5 234 19l3 -35q-156 -29 -446 -29l-8 42q108 0 172 2zM231.5 70q51.5 62 51.5 131v38h45v-38q0 -62 36 -122.5t100 -94.5q64 34 101 95t37 122v38
h45v-38q0 -70 51.5 -132t131.5 -88l-23 -37q-64 23 -112 68.5t-70 102.5q-18 -58 -59 -106t-101 -73q-60 25 -101 73t-60 106q-22 -57 -69.5 -102.5t-111.5 -68.5l-24 37q81 27 132.5 89zM536 780h45v-236h130v252h48v-525h-48v231h-130v-224h-45v502z" />
    <glyph glyph-name="uniAD2D" unicode="&#xad2d;" 
d="M442 728v-58q0 -62 -3 -113.5t-16 -114.5l-46 4q13 63 16.5 113.5t3.5 110.5v16h-307v42h352zM211 359v177h46v-176q136 5 233 19l2 -35q-95 -18 -205.5 -23.5t-239.5 -5.5l-9 42q109 0 173 2zM258.5 184.5q75.5 37.5 212.5 37.5t213 -37.5t76 -106.5q0 -68 -76.5 -106
t-212.5 -38t-212 38t-76 106q0 69 75.5 106.5zM296 2q65 -28 175 -28q111 0 175.5 27.5t64.5 76.5t-64.5 77t-175.5 28q-110 0 -175 -28t-65 -77q0 -48 65 -76zM537 780h46v-233h129v248h48v-549h-48v261h-129v-235h-46v508z" />
    <glyph glyph-name="uniAD34" unicode="&#xad34;" 
d="M535 692v-28q0 -73 -4.5 -155t-22.5 -194l-48 7q27 166 27 328h-381v42h429zM260 176v266h49v-265q186 7 320 24l5 -37q-220 -34 -574 -34l-8 43q97 0 208 3zM691 796h48v-864h-48v864z" />
    <glyph glyph-name="uniAD35" unicode="&#xad35;" 
d="M525 735v-39q0 -58 -4 -114.5t-20 -128.5l-48 5q16 72 21 126.5t5 108.5h-367v42h413zM261 356v187h48v-185q189 7 306 23l4 -37q-127 -19 -266 -25.5t-296 -6.5l-8 42q137 0 212 2zM174 210h571v-278h-48v237h-523v41zM697 796h48v-540h-48v540z" />
    <glyph glyph-name="uniAD38" unicode="&#xad38;" 
d="M531 727v-44q0 -61 -4.5 -120t-21.5 -135l-47 6q16 76 20.5 132.5t4.5 116.5v1h-373v43h421zM262 335v192h47v-190q172 7 306 22l3 -39q-231 -31 -561 -33l-9 45q102 0 214 3zM205 194h48v-198h518v-42h-566v240zM697 796h48v-659h-48v659z" />
    <glyph glyph-name="uniAD3C" unicode="&#xad3c;" 
d="M524 743v-36q0 -53 -4 -105.5t-19 -119.5l-47 4q15 65 19 115.5t4 99.5h-366v42h413zM261 404v176h48v-174q174 5 305 24l4 -37q-215 -33 -562 -33l-8 41q99 0 213 3zM185 277h560v-179h-510v-113h547v-40h-595v192h511v101h-513v39zM697 796h48v-477h-48v477z" />
    <glyph glyph-name="uniAD44" unicode="&#xad44;" 
d="M745 795v-517h-48v517h48zM261 378v171h48v-169q175 5 306 24l4 -37q-128 -20 -267.5 -26.5t-294.5 -6.5l-8 42q136 0 212 2zM112 739h413v-42q0 -57 -4 -110t-19 -120l-47 5q15 68 19 119t4 106h-366v42zM193 230h552v-284h-552v284zM699 -13v202h-458v-202h458z" />
    <glyph glyph-name="uniAD45" unicode="&#xad45;" 
d="M745 794v-484h-48v484h48zM261 382v164h47v-162q168 5 307 22l4 -36q-228 -32 -562 -32l-8 41q100 0 212 3zM112 740h412v-52q0 -57 -4 -106.5t-19 -112.5l-45 6q15 62 19 109.5t4 103.5v12h-367v40zM187 268h47v-114h464v114h47v-322h-558v322zM698 -14v127h-464v-127
h464z" />
    <glyph glyph-name="uniAD47" unicode="&#xad47;" 
d="M744 795v-613h-48v613h48zM260 360v179h48v-178q176 7 306 23l4 -36q-232 -35 -562 -35l-8 43q112 0 212 4zM112 736h412v-56q0 -62 -4 -112t-19 -113l-46 6q15 63 19 111t4 108v14h-366v42zM284.5 23.5q68.5 31.5 113.5 80t45 107.5v37h48v-37q0 -59 45 -107.5
t113.5 -80t139.5 -42.5l-19 -39q-100 19 -184.5 67.5t-118.5 120.5q-34 -72 -118 -120.5t-184 -67.5l-19 39q70 11 138.5 42.5z" />
    <glyph glyph-name="uniAD49" unicode="&#xad49;" 
d="M745 796v-551h-48v551h48zM261 362v174h48v-173q181 7 306 25l4 -37q-127 -21 -260.5 -27t-301.5 -7l-8 43q136 0 212 2zM112 737h413v-55q0 -63 -4 -115.5t-19 -117.5l-46 6q15 66 19 116t4 111v14h-367v41zM260.5 197.5q74.5 39.5 207.5 39.5q132 0 206.5 -39.5
t74.5 -111.5q0 -71 -74.5 -111t-206.5 -40t-207 40t-75 111q0 72 74.5 111.5zM298 5.5q64 -29.5 170 -29.5t169.5 29.5t63.5 80.5t-63.5 81t-169.5 30q-107 0 -170.5 -30t-63.5 -81t64 -80.5z" />
    <glyph glyph-name="uniAD50" unicode="&#xad50;" 
d="M718 699v-102q0 -112 -5 -191.5t-24 -181.5l-47 7q20 97 25 176.5t5 189.5v61h-543v41h589zM45 106h211v294h48v-294h164v294h49v-294h308v-40h-780v40z" />
    <glyph glyph-name="uniAD54" unicode="&#xad54;" 
d="M724 743v-70q0 -72 -3.5 -128t-18.5 -124l-49 5q16 68 20 122.5t4 124.5v29h-538v41h585zM46 349h221v190h47v-190h169v190h47v-190h294v-42h-778v42zM149 209h49v-214h547v-42h-596v256z" />
    <glyph glyph-name="uniAD58" unicode="&#xad58;" 
d="M724 763v-60q0 -60 -3 -105.5t-15 -99.5l-47 7q12 54 15 97t3 101v19h-538v41h585zM46 434h222v171h46v-171h168v171h46v-171h296v-42h-778v42zM141 299h585v-189h-535v-124h557v-40h-604v203h535v110h-538v40z" />
    <glyph glyph-name="uniAD60" unicode="&#xad60;" 
d="M727 242v-296h-583v296h583zM46 388h221v179h47v-179h169v179h47v-179h294v-42h-778v42zM139 758h585v-64q0 -65 -3.5 -116.5t-18.5 -114.5l-48 5q15 63 19 112.5t4 113.5v23h-538v41zM680 -13v215h-489v-215h489z" />
    <glyph glyph-name="uniAD61" unicode="&#xad61;" 
d="M724 759v-68q0 -66 -4 -114.5t-19 -107.5l-48 6q16 59 20 106t4 110v28h-538v40h585zM47 408h221v169h47v-169h165v169h48v-169h297v-42h-778v42zM152 288h48v-121h471v121h47v-342h-566v342zM671 -14v140h-471v-140h471z" />
    <glyph glyph-name="uniAD63" unicode="&#xad63;" 
d="M726 755v-75q0 -71 -4 -121t-19 -110l-47 7q15 58 19 106.5t4 117.5v35h-539v40h586zM45 375h223v188h47v-188h166v188h47v-188h297v-41h-780v41zM248.5 19.5q68.5 32.5 113.5 82t45 111.5v48h49v-48q0 -62 45 -111.5t114.5 -82t141.5 -44.5l-21 -39q-100 20 -185 70.5
t-119 124.5q-33 -74 -118.5 -124.5t-185.5 -70.5l-20 39q72 12 140.5 44.5z" />
    <glyph glyph-name="uniAD65" unicode="&#xad65;" 
d="M724 753v-64q0 -66 -3.5 -118t-18.5 -115l-48 4q15 64 19 114t4 115v22h-538v42h585zM46 379h221v182h47v-182h169v182h47v-182h294v-41h-778v41zM216 204q80 42 217 42t217 -42t80 -114t-80 -113t-217 -41t-217 41t-80 113t80 114zM215.5 30q31.5 -26 88 -40.5
t129.5 -14.5q74 0 130.5 14.5t87.5 40.5t31 60q0 35 -31 61.5t-87.5 41t-130.5 14.5q-73 0 -129.5 -14.5t-88 -41t-31.5 -61.5q0 -34 31.5 -60z" />
    <glyph glyph-name="uniAD6C" unicode="&#xad6c;" 
d="M714 736v-74q0 -84 -4.5 -149.5t-21.5 -149.5h137v-41h-367v-390h-47v390h-366v41h594q19 84 23.5 149.5t4.5 149.5v34h-518v40h565z" />
    <glyph glyph-name="uniAD6D" unicode="&#xad6d;" 
d="M721 753v-60q0 -69 -4 -126t-21 -130h132v-42h-370v-181h270v-282h-48v240h-551v42h282v181h-366v42h604q17 73 21 130t4 126v18h-526v42h573z" />
    <glyph glyph-name="uniAD70" unicode="&#xad70;" 
d="M721 746v-65q0 -74 -4 -135.5t-20 -140.5h131v-41h-367v-224h-46v224h-370v41h603q17 79 21.5 140.5t4.5 135.5v24h-526v41h573zM149 218h48v-222h544v-42h-592v264z" />
    <glyph glyph-name="uniAD73" unicode="&#xad73;" 
d="M721 752v-60q0 -67 -4 -122.5t-19 -126.5h130v-42h-370v-164h271v-40h-537v-210h543v-41h-591v291h267v164h-366v42h605q16 71 20 126.5t4 122.5v19h-526v41h573z" />
    <glyph glyph-name="uniAD74" unicode="&#xad74;" 
d="M721 759v-52q0 -63 -3.5 -116t-16.5 -118h127v-39h-371v-132h269v-193h-535v-123h557v-40h-604v201h535v114h-538v41h269v132h-365v39h608q14 67 17.5 119.5t3.5 114.5v12h-526v40h573z" />
    <glyph glyph-name="uniAD75" unicode="&#xad75;" 
d="M721 760v-52q0 -64 -3.5 -118t-17.5 -121h127v-42h-370v-139h-47v139h-365v42h607q15 69 18.5 122.5t3.5 116.5v12h-526v40h573zM132 276h281v-178h-232v-113h3q101 0 166 5t134 19l7 -40q-73 -14 -138.5 -19t-168.5 -5h-50v193h233v99h-235v39zM464 276h269v-337h-47
v297h-222v40z" />
    <glyph glyph-name="uniAD76" unicode="&#xad76;" 
d="M721 760v-52q0 -64 -3.5 -118t-17.5 -122h127v-41h-371v-137h-46v137h-365v41h606q15 69 19 122.5t4 117.5v12h-526v40h573zM130 282h272v-179h-223v-118q92 0 143 3t106 13l7 -39q-59 -11 -111.5 -14t-148.5 -3h-42v197h222v102h-225v38zM464 282h272v-337h-272v337z
M693 -16v260h-186v-260h186z" />
    <glyph glyph-name="uniAD7B" unicode="&#xad7b;" 
d="M720 762v-52q0 -64 -3.5 -118.5t-16.5 -122.5h127v-41h-370v-137h-48v137h-364v41h607q15 69 18.5 123t3.5 118v12h-526v40h572zM129 282h265v-179h-216v-117q95 0 147 3t108 14l6 -39q-60 -11 -114.5 -14.5t-149.5 -3.5h-43v195h216v103h-219v38zM428 244h154v84h46v-84
h158v-40h-358v40zM505 134.5q39 31.5 101 31.5t100.5 -31.5t38.5 -84.5q0 -54 -38.5 -85t-100.5 -31t-101 31t-39 85q0 53 39 84.5zM535 -8q27 -22 71 -22q43 0 69.5 22t26.5 58q0 35 -26.5 57.5t-69.5 22.5t-70.5 -22.5t-27.5 -57.5q0 -36 27 -58z" />
    <glyph glyph-name="uniAD7C" unicode="&#xad7c;" 
d="M720 754v-58q0 -67 -4 -123.5t-19 -127.5h131v-41h-371v-168h270v-290h-583v290h266v168h-365v41h603q17 72 21 128t4 123v18h-526v40h573zM680 -13v210h-489v-210h489z" />
    <glyph glyph-name="uniAD7D" unicode="&#xad7d;" 
d="M720 757v-58q0 -67 -4 -123.5t-19 -127.5h131v-41h-371v-171h-47v171h-365v41h603q17 72 21 128t4 123v17h-526v41h573zM151 291h49v-125h473v125h49v-345h-571v345zM673 -13v138h-473v-138h473z" />
    <glyph glyph-name="uniAD7F" unicode="&#xad7f;" 
d="M721 758v-56q0 -68 -4 -125.5t-19 -130.5h130v-42h-371v-148h-47v148h-365v42h604q17 73 21 130.5t4 125.5v16h-526v40h573zM250 12.5q69 27.5 114.5 71t45.5 97.5v37h47v-37q0 -54 45.5 -97.5t115 -71t140.5 -37.5l-18 -38q-101 16 -186.5 60t-119.5 111
q-34 -67 -120 -111t-187 -60l-17 38q71 10 140 37.5z" />
    <glyph glyph-name="uniAD81" unicode="&#xad81;" 
d="M721 755v-59q0 -68 -4.5 -125.5t-20.5 -130.5h132v-41h-371v-154q129 -4 201 -44.5t72 -110.5q0 -73 -78.5 -114t-218.5 -41q-138 0 -216.5 41t-78.5 114q0 70 72 110.5t200 44.5v154h-365v41h603q17 73 21.5 130.5t4.5 125.5v18h-526v41h573zM252.5 7
q67.5 -31 180.5 -31q114 0 181.5 31t67.5 83q0 53 -67.5 84t-181.5 31q-113 0 -180.5 -31t-67.5 -84q0 -52 67.5 -83z" />
    <glyph glyph-name="uniAD82" unicode="&#xad82;" 
d="M721 755v-54q0 -66 -4 -123t-20 -128h131v-40h-369v-162h273v-41h-272q1 -62 47.5 -110.5t116.5 -79.5t142 -42l-18 -39q-104 19 -191.5 68.5t-120.5 124.5q-33 -75 -120 -124.5t-190 -68.5l-19 39q73 11 142.5 42t116 79.5t47.5 110.5h-272v41h272v162h-368v40h604
q16 73 20.5 129.5t4.5 121.5v13h-526v41h573z" />
    <glyph glyph-name="uniAD88" unicode="&#xad88;" 
d="M741 795v-864h-49v276h-211v41h211v547h49zM442 398q14 85 18 148.5t4 131.5v3h-346v42h394v-45q0 -68 -3.5 -131t-17.5 -146q47 3 128 11l3 -37q-125 -16 -283 -23v-367h-49v365q-113 -4 -241 -4l-8 42q266 2 401 10z" />
    <glyph glyph-name="uniAD89" unicode="&#xad89;" 
d="M742 796v-551h-49v90h-204v39h204v422h49zM445 486q14 68 18 119t4 106v1h-341v41h389v-42q0 -55 -3.5 -106t-16.5 -117q40 2 108 8l4 -36q-137 -16 -274 -20v-194h-48v192q-126 -3 -237 -3l-8 42q224 0 405 9zM171 207h570v-271h-49v231h-521v40z" />
    <glyph glyph-name="uniAD8C" unicode="&#xad8c;" 
d="M740 795v-653h-48v137h-202v40h202v476h48zM445 456q21 118 21 240h-348v41h397v-36q0 -57 -3.5 -112.5t-17.5 -128.5q56 5 108 12l4 -36q-123 -20 -264 -28v-209h-47v207q-111 -5 -247 -5l-8 44q249 0 405 11zM173 218h49v-222h541v-42h-590v264z" />
    <glyph glyph-name="uniAD90" unicode="&#xad90;" 
d="M740 796v-496h-49v72h-202v38h202v386h49zM445 513q19 101 21 200h-339v42h386v-18q0 -114 -19 -220q74 8 109 13l4 -37q-120 -20 -274 -27v-164h-48v162q-86 -4 -237 -4l-7 40q236 0 404 13zM180 267h560v-175h-511v-107h547v-40h-593v184h510v99h-513v39z" />
    <glyph glyph-name="uniAD9C" unicode="&#xad9c;" 
d="M739 796v-524h-48v80h-203v40h203v404h48zM259.5 494.5q92.5 2.5 186.5 9.5q13 63 16.5 111t3.5 101h-341v41h389v-40q0 -53 -3 -101t-15 -108q56 5 105 12l5 -37q-114 -19 -274 -28v-181h-48v179q-107 -5 -238 -5l-7 43q128 1 220.5 3.5zM234 78q49 62 49 129v35h46v-35
q0 -60 35 -120.5t97 -94.5q62 34 96.5 94t34.5 121v35h46v-35q0 -67 49.5 -129t127.5 -90l-25 -38q-62 24 -108 69t-67 101q-17 -57 -56.5 -104t-97.5 -71q-58 24 -97.5 70.5t-57.5 103.5q-21 -55 -66.5 -99.5t-107.5 -69.5l-25 38q78 28 127 90z" />
    <glyph glyph-name="uniAD9D" unicode="&#xad9d;" 
d="M740 796v-553h-48v93h-203v38h203v422h48zM445 485q14 68 18 118.5t4 106.5v2h-341v41h389v-43q0 -55 -3.5 -106t-16.5 -115q70 8 108 13l4 -37q-117 -18 -274 -27v-183h-48v181q-115 -4 -237 -4l-7 41q249 0 404 12zM264.5 199q74.5 40 205.5 40q132 0 206.5 -40
t74.5 -112q0 -73 -74.5 -113t-206.5 -40q-131 0 -205.5 40.5t-74.5 112.5t74.5 112zM301 5q63 -30 169 -30q108 0 170.5 30t62.5 82t-62.5 81.5t-170.5 29.5q-106 0 -169 -30t-63 -81q0 -52 63 -82z" />
    <glyph glyph-name="uniADA4" unicode="&#xada4;" 
d="M761 796v-864h-48v864h48zM363 393q15 79 19 138t4 122h-304v42h348v-41q0 -64 -3.5 -122.5t-17.5 -134.5q32 2 85 10l4 -37q-91 -16 -214 -23v-338h-47v335q-71 -3 -193 -3l-8 42q198 0 327 10zM380 243h177v530h45v-788h-45v215h-177v43z" />
    <glyph glyph-name="uniADB7" unicode="&#xadb7;" 
d="M758 796v-633h-47v633h47zM362 459q14 68 18 120t4 103h-295v42h340v-37q0 -54 -3.5 -106.5t-16.5 -118.5q40 4 98 11l4 -35q-96 -18 -218 -25v-215h-46v212q-99 -4 -200 -4l-7 44q194 0 322 9zM282.5 14q68.5 29 113.5 75.5t45 104.5v27h48v-27q0 -58 45 -104
t113.5 -75.5t139.5 -40.5l-18 -39q-100 18 -185 64t-119 116q-34 -70 -119.5 -116t-185.5 -64l-18 39q72 11 140.5 40zM386 356h170v424h46v-583h-46v120h-170v39z" />
    <glyph glyph-name="uniADB8" unicode="&#xadb8;" 
d="M757 796v-537h-47v537h47zM361 477q22 104 22 214h-295v42h341v-36q0 -52 -3.5 -102t-17.5 -114q52 5 98 12l5 -36q-83 -16 -218 -25v-163h-46v161q-99 -4 -200 -4l-8 42q194 0 322 9zM193 32q42 34 65.5 77.5t23.5 87.5v28h45v-28q0 -60 36.5 -120t99.5 -93
q64 33 101 93t37 120v28h46v-28q0 -45 23.5 -88.5t65 -77t94.5 -50.5l-24 -37q-64 23 -111.5 67.5t-69.5 100.5q-19 -57 -60 -104t-101 -72q-60 25 -101 72t-60 104q-22 -56 -69.5 -100.5t-111.5 -67.5l-23 37q52 17 94 51zM385 377h170v403h46v-514h-46v72h-170v39z" />
    <glyph glyph-name="uniADC0" unicode="&#xadc0;" 
d="M746 796v-864h-47v864h47zM441 383q29 158 29 299h-351v43h398v-27q0 -65 -4.5 -138.5t-22.5 -173.5q92 6 138 11l5 -37q-126 -16 -286 -23v-352h-48v350q-111 -5 -251 -5l-7 43q265 2 400 10z" />
    <glyph glyph-name="uniADC1" unicode="&#xadc1;" 
d="M737 796v-506h-47v506h47zM448 458q13 68 16.5 121t3.5 114v14h-341v42h388v-56q0 -62 -3 -114t-15 -117q41 3 114 13l4 -37q-113 -18 -265 -27v-171h387v-312h-47v270h-523v42h135v169q-114 -5 -253 -5l-8 42q251 0 407 12z" />
    <glyph glyph-name="uniADC4" unicode="&#xadc4;" 
d="M456 435q21 139 21 256h-348v41h395v-22q0 -139 -20 -271q74 8 110 13l4 -37q-108 -18 -246 -26v-205h-48v202q-116 -6 -269 -6l-9 43q253 0 410 12zM180 212h46v-216h539v-42h-585v258zM689 796h48v-648h-48v648z" />
    <glyph glyph-name="uniADC8" unicode="&#xadc8;" 
d="M736 795v-455h-47v455h47zM450 484q18 128 18 229h-340v41h387v-20q0 -128 -17 -247q58 3 113 9l4 -36q-113 -13 -268 -20v-142h389v-190h-507v-122h544v-41h-591v201h507v113h-509v39h120v140q-116 -4 -243 -4l-9 42q242 0 402 8z" />
    <glyph glyph-name="uniADD0" unicode="&#xadd0;" 
d="M737 796v-502h-47v502h47zM450 448q12 67 15 120.5t3 117.5v17h-341v42h388v-59q0 -64 -2.5 -116.5t-13.5 -117.5q43 3 112 13l4 -36q-112 -20 -265 -30v-161h387v-292h-549v292h114v159q-114 -5 -253 -5l-8 44q252 0 409 12zM691 -13v212h-456v-212h456z" />
    <glyph glyph-name="uniADD1" unicode="&#xadd1;" 
d="M737 796v-490h-47v490h47zM449 476q13 69 16.5 121.5t3.5 110.5v3h-342v42h390v-45q0 -59 -3.5 -111t-15.5 -118q76 6 113 10l4 -35q-117 -16 -264 -23v-170h-48v167q-152 -5 -254 -5l-8 44q248 0 408 9zM184 268h49v-113h458v113h46v-322h-553v322zM691 -13v127h-458
v-127h458z" />
    <glyph glyph-name="uniADD3" unicode="&#xadd3;" 
d="M736 795v-616h-48v616h48zM449 448q13 72 16.5 128t3.5 118v7h-340v41h387v-48q0 -61 -3.5 -116.5t-15.5 -125.5q41 3 114 13l3 -37q-120 -21 -276 -30v-197h-48v195q-113 -4 -235 -4l-9 44q248 0 403 12zM302.5 17q68.5 31 113.5 79t45 107v49h47v-49q0 -59 45 -107
t113.5 -79t139.5 -43l-21 -38q-99 19 -183 67.5t-118 119.5q-33 -71 -117.5 -119.5t-184.5 -67.5l-19 38q71 12 139.5 43z" />
    <glyph glyph-name="uniADD5" unicode="&#xadd5;" 
d="M737 795v-558h-48v558h48zM449 443q14 74 17.5 130.5t3.5 118.5v7h-341v41h388v-48q0 -62 -3.5 -118.5t-15.5 -126.5q76 8 113 13l4 -37q-124 -21 -277 -29v-161q57 11 123 11q132 0 206.5 -41t74.5 -114t-74.5 -113.5t-206.5 -40.5t-206.5 40.5t-74.5 113.5
q0 45 28.5 78t82.5 52v173q-112 -4 -235 -4l-9 44q247 0 402 11zM291.5 6.5q63.5 -30.5 169.5 -30.5q107 0 170.5 30.5t63.5 82.5q0 53 -63.5 84t-170.5 31q-106 0 -169.5 -31t-63.5 -84q0 -52 63.5 -82.5z" />
    <glyph glyph-name="uniADDC" unicode="&#xaddc;" 
d="M713 736v-71q0 -85 -4.5 -153.5t-21.5 -156.5h138v-41h-221v-380h-47v380h-244v-380h-49v380h-219v41h593q19 88 23.5 156.5t4.5 153.5v30h-517v41h564z" />
    <glyph glyph-name="uniADE0" unicode="&#xade0;" 
d="M721 745v-61q0 -71 -3.5 -130.5t-18.5 -134.5h129v-43h-232v-222h-47v222h-197v-222h-46v222h-261v43h605q16 76 20 135t4 130v20h-527v41h574zM148 218h47v-222h548v-42h-595v264z" />
    <glyph glyph-name="uniADE4" unicode="&#xade4;" 
d="M721 759v-52q0 -62 -3.5 -114.5t-16.5 -117.5h127v-40h-222v-133h120v-193h-535v-123h557v-40h-604v201h535v114h-538v41h126v133h-222v40h608q14 67 17.5 119t3.5 113v12h-526v40h573zM558 302v133h-243v-133h243z" />
    <glyph glyph-name="uniADEC" unicode="&#xadec;" 
d="M720 754v-58q0 -67 -4 -123t-19 -127h131v-40h-222v-170h121v-290h-583v290h123v170h-222v40h603q17 72 21 127.5t4 122.5v18h-526v40h573zM680 -13v210h-489v-210h489zM558 236v170h-243v-170h243z" />
    <glyph glyph-name="uniADF8" unicode="&#xadf8;" 
d="M714 695v-75q0 -109 -6 -202t-28 -221l-48 7q24 121 30 214.5t6 201.5v34h-535v41h581zM45 109h780v-41h-780v41z" />
    <glyph glyph-name="uniADF9" unicode="&#xadf9;" 
d="M721 753v-59q0 -73 -4 -133t-21 -137h132v-41h-783v41h602q18 78 22.5 138t4.5 132v17h-526v42h573zM129 235h600v-306h-49v265h-551v41z" />
    <glyph glyph-name="uniADFC" unicode="&#xadfc;" 
d="M721 743v-63q0 -77 -4 -142t-20 -149h131v-42h-783v42h604q17 85 21 149.5t4 141.5v21h-526v42h573zM150 236h49v-239h548v-42h-597v281z" />
    <glyph glyph-name="uniADFF" unicode="&#xadff;" 
d="M720 748v-60q0 -69 -4 -126.5t-21 -131.5h132v-41h-782v41h602q18 75 22.5 132t4.5 126v19h-527v41h573zM144 244h585v-40h-537v-217h543v-42h-591v299z" />
    <glyph glyph-name="uniAE00" unicode="&#xae00;" 
d="M721 758v-53q0 -64 -3.5 -118.5t-17.5 -123.5h128v-41h-783v41h606q15 69 19 123.5t4 118.5v13h-526v40h573zM141 318h585v-202h-535v-130h557v-40h-604v209h535v122h-538v41z" />
    <glyph glyph-name="uniAE01" unicode="&#xae01;" 
d="M721 755v-57q0 -67 -4 -123.5t-20 -128.5h130v-42h-782v42h604q17 73 21 129t4 123v17h-526v40h573zM132 288h281v-183h-232v-119h3q101 0 166 5t134 19l7 -40q-73 -14 -138.5 -19t-168.5 -5h-50v198h233v105h-235v39zM464 288h269v-349h-47v309h-222v40z" />
    <glyph glyph-name="uniAE02" unicode="&#xae02;" 
d="M402 293v-184h-223v-124q93 0 143.5 3t105.5 14l7 -40q-59 -11 -111.5 -14t-148.5 -3h-42v202h222v107h-225v39h272zM45 448h604q17 72 21 128t4 122v17h-526v40h573v-57q0 -66 -4 -122.5t-19 -127.5h129v-41h-782v41zM464 293h272v-348h-272v348zM693 -16v271h-186v-271
h186z" />
    <glyph glyph-name="uniAE07" unicode="&#xae07;" 
d="M582 247v82h46v-82h158v-40h-358v40h154zM45 447h604q17 72 21 128t4 123v17h-526v40h573v-57q0 -67 -4 -123.5t-20 -127.5h130v-40h-782v40zM129 298h265v-188h-216v-124q100 0 150 2.5t105 13.5l6 -39q-59 -11 -112.5 -14t-151.5 -3h-43v203h216v110h-219v39zM505 131
q39 30 101 30t100.5 -30t38.5 -82t-38.5 -83t-100.5 -31t-101 31t-39 83t39 82zM535 -8q27 -21 71 -21t70 21t26 57q0 33 -26.5 54.5t-69.5 21.5t-70.5 -21.5t-27.5 -54.5q0 -36 27 -57z" />
    <glyph glyph-name="uniAE08" unicode="&#xae08;" 
d="M721 746v-61q0 -71 -4.5 -129t-21.5 -133h133v-42h-783v42h603q17 75 21.5 133t4.5 129v19h-526v42h573zM144 246h583v-300h-583v300zM680 -13v218h-489v-218h489z" />
    <glyph glyph-name="uniAE09" unicode="&#xae09;" 
d="M200 299v-128h474v128h48v-353h-570v353h48zM45 434h603q17 75 21.5 132.5t4.5 127.5v19h-526v41h573v-60q0 -70 -4.5 -128t-21.5 -132h133v-43h-783v43zM674 -14v144h-474v-144h474z" />
    <glyph glyph-name="uniAE0B" unicode="&#xae0b;" 
d="M720 749v-62q0 -76 -4.5 -139.5t-22.5 -146.5h131v-43h-778v43h599q18 82 22.5 146t4.5 140v20h-530v42h578zM249.5 20.5q68.5 33.5 113 84.5t44.5 114v47h49v-47q0 -63 45 -114t113.5 -84.5t140.5 -46.5l-21 -38q-99 20 -183.5 71.5t-118.5 127.5q-33 -76 -118 -127.5
t-184 -71.5l-20 38q71 13 139.5 46.5z" />
    <glyph glyph-name="uniAE0D" unicode="&#xae0d;" 
d="M721 747v-61q0 -72 -4.5 -132t-21.5 -137h133v-42h-783v42h601q19 78 23.5 137.5t4.5 131.5v20h-526v41h573zM216.5 210q78.5 41 216.5 41q140 0 218.5 -41t78.5 -116t-79 -116.5t-218 -41.5q-138 0 -216.5 41.5t-78.5 116.5t78.5 116zM253 9q68 -32 180 -32
q113 0 181 32t68 85q0 54 -68 86t-181 32q-112 0 -180 -32t-68 -86q0 -53 68 -85z" />
    <glyph glyph-name="uniAE13" unicode="&#xae13;" 
d="M413 266v94h46v-94h294v-41h-634v41h294zM45 463h606q15 69 19 123.5t4 118.5v13h-526v40h573v-53q0 -64 -3.5 -118.5t-17.5 -123.5h128v-41h-783v41zM245.5 142.5q65.5 29.5 190.5 29.5t190 -29.5t65 -87.5q0 -59 -65 -89t-190 -30t-190.5 30t-65.5 89q0 58 65.5 87.5z
M282.5 -6q54.5 -21 153.5 -21t153.5 21t54.5 61q0 39 -55 59.5t-153 20.5t-153 -20.5t-55 -59.5q0 -40 54.5 -61z" />
    <glyph glyph-name="uniAE14" unicode="&#xae14;" 
d="M541 687v-58q0 -82 -5 -154.5t-23 -167.5l-48 8q19 92 24 163t5 151v18h-380v40h427zM359.5 204.5q141.5 5.5 267.5 24.5l5 -38q-131 -21 -269 -28t-303 -8l-9 44q167 0 308.5 5.5zM688 796h48v-864h-48v864z" />
    <glyph glyph-name="uniAE30" unicode="&#xae30;" 
d="M746 796v-864h-47v864h47zM337.5 363.5q98.5 133.5 108.5 295.5h-348v42h397q0 -186 -102 -342t-304 -255l-26 40q176 86 274.5 219.5z" />
    <glyph glyph-name="uniAE31" unicode="&#xae31;" 
d="M384.5 466q-112.5 -114 -303.5 -167l-20 39q169 47 271.5 140.5t112.5 217.5h-341v40h393q0 -156 -112.5 -270zM180 241h566v-311h-48v270h-518v41zM698 795h48v-510h-48v510z" />
    <glyph glyph-name="uniAE34" unicode="&#xae34;" 
d="M746 795v-626h-48v626h48zM332 459q103 100 113 228h-341v43h394q0 -160 -112.5 -281.5t-303.5 -183.5l-21 39q168 55 271 155zM198 216h48v-221h526v-41h-574v262z" />
    <glyph glyph-name="uniAE37" unicode="&#xae37;" 
d="M384.5 466.5q-110.5 -113.5 -305.5 -166.5l-19 40q171 46 272.5 138.5t111.5 216.5h-342v41h393q0 -156 -110.5 -269.5zM201 249h548v-43h-499v-219h514v-41h-563v303zM698 795h49v-498h-49v498z" />
    <glyph glyph-name="uniAE38" unicode="&#xae38;" 
d="M746 796v-446h-48v446h48zM329 501q101 86 110 204h-335v42h388q0 -153 -112 -260t-300 -154l-18 40q166 42 267 128zM199 304h547v-193h-497v-130h532v-40h-579v210h497v113h-500v40z" />
    <glyph glyph-name="uniAE3A" unicode="&#xae3a;" 
d="M746 796v-463h-48v463h48zM331 498q101 85 111 204h-339v42h391q0 -152 -111.5 -259t-301.5 -153l-19 40q168 41 269 126zM161 287h267v-183h-219v-120q87 0 136.5 3t102.5 13l6 -40q-58 -10 -109 -13t-140 -3h-42v199h219v103h-221v41zM484 287h262v-343h-262v343z
M702 -16v263h-174v-263h174z" />
    <glyph glyph-name="uniAE40" unicode="&#xae40;" 
d="M384.5 466.5q-111.5 -113.5 -304.5 -166.5l-20 41q170 45 272.5 137.5t112.5 216.5h-342v41h393q0 -156 -111.5 -269.5zM199 258h547v-312h-547v312zM700 -13v232h-454v-232h454zM698 795h48v-491h-48v491z" />
    <glyph glyph-name="uniAE41" unicode="&#xae41;" 
d="M746 796v-470h-48v470h48zM335.5 489q100.5 88 108.5 210h-340v41h393q0 -154 -110 -263t-307 -158l-19 40q174 42 274.5 130zM200 286h49v-126h450v126h47v-340h-546v340zM699 -14v134h-450v-134h450z" />
    <glyph glyph-name="uniAE43" unicode="&#xae43;" 
d="M743 795v-585h-47v585h47zM333 459.5q103 97.5 113 224.5h-342v43h392q0 -158 -111.5 -277.5t-300.5 -178.5l-19 39q165 52 268 149.5zM290.5 23.5q69.5 35.5 115 91t45.5 123.5v37h50v-37q0 -67 44.5 -122t113 -91.5t139.5 -50.5l-21 -38q-99 24 -184 78.5t-118 134.5
q-33 -81 -118.5 -135t-186.5 -78l-21 38q72 14 141.5 49.5z" />
    <glyph glyph-name="uniAE44" unicode="&#xae44;" 
d="M383.5 466.5q-111.5 -113.5 -304.5 -166.5l-21 41q170 45 273 137.5t113 216.5h-342v41h393q0 -156 -111.5 -269.5zM185.5 37.5q41.5 36.5 65 80t23.5 84.5v76h47v-76q0 -64 36.5 -123.5t100.5 -91.5q63 36 101 98t38 117v76h46v-76q0 -44 23 -88t64.5 -79t94.5 -54
l-25 -36q-64 24 -111.5 70t-68.5 103q-20 -58 -61 -106.5t-99 -74.5q-62 25 -104 72t-60 106q-23 -55 -69.5 -100.5t-108.5 -69.5l-26 36q52 20 93.5 56.5zM697 797h48v-500h-48v500z" />
    <glyph glyph-name="uniAE45" unicode="&#xae45;" 
d="M744 795v-529h-48v529h48zM330.5 462q105.5 97 115.5 223h-342v43h392q0 -105 -52.5 -194.5t-146.5 -154.5t-216 -102l-21 38q165 50 270.5 147zM255 217.5q76 42.5 210 42.5q133 0 209 -42.5t76 -118.5q0 -77 -76 -120.5t-209 -43.5q-134 0 -210 43.5t-76 120.5
q0 76 76 118.5zM291.5 9.5q64.5 -33.5 173.5 -33.5q107 0 172 33.5t65 89.5q0 36 -29.5 63.5t-83.5 43t-124 15.5q-108 0 -173 -33.5t-65 -88.5q0 -56 64.5 -89.5z" />
    <glyph glyph-name="uniAE46" unicode="&#xae46;" 
d="M384.5 467q-111.5 -113 -304.5 -165l-20 40q171 46 273.5 138t111.5 215h-343v41h394q0 -156 -111.5 -269zM304 17.5q66 32.5 109 79.5t43 101v7h-254v42h557v-42h-255v-7q0 -54 44 -101t111 -79.5t134 -44.5l-19 -38q-93 19 -176.5 68.5t-116.5 118.5q-33 -69 -115 -118
t-175 -69l-19 38q66 12 132 44.5zM697 795h48v-491h-48v491z" />
    <glyph glyph-name="uniAE4A" unicode="&#xae4a;" 
d="M385.5 468q-112.5 -112 -304.5 -163l-19 42q170 43 272.5 133t111.5 213h-343v42h395q0 -155 -112.5 -267zM187 -13h137v236h-129v40h569v-40h-132v-236h141v-41h-586v41zM585 -13v236h-213v-236h213zM698 795h48v-477h-48v477z" />
    <glyph glyph-name="uniAE4C" unicode="&#xae4c;" 
d="M717 796v-368h140v-42h-140v-454h-48v864h48zM203 393q53 130 59 264h-192v42h236q0 -151 -52.5 -299.5t-162.5 -263.5l-41 27q100 100 153 230zM445 360.5q46 147.5 50 296.5h-162v42h208q0 -164 -45 -329t-157 -293l-41 26q101 110 147 257.5z" />
    <glyph glyph-name="uniAE4D" unicode="&#xae4d;" 
d="M709 796v-239h135v-42h-135v-231h-49v512h49zM200 516.5q47 74.5 54 173.5h-181v42h227q0 -125 -50 -218t-157 -164l-32 32q92 60 139 134.5zM158 243h551v-313h-49v270h-502v43zM495 690h-159v42h206q0 -132 -47.5 -241.5t-153.5 -196.5l-34 32q175 136 188 364z" />
    <glyph glyph-name="uniAE4E" unicode="&#xae4e;" 
d="M709 796v-232h135v-42h-135v-224h-49v498h49zM200 520.5q47 73.5 54 172.5h-181v41h227q0 -123 -49.5 -214.5t-155.5 -162.5l-34 32q92 58 139 131.5zM129 248h269v-316h-48v274h-221v42zM443.5 496q45.5 89 51.5 197h-159v41h206q0 -130 -47.5 -236.5t-152.5 -190.5
l-35 30q91 70 136.5 159zM445 248h264v-316h-48v274h-216v42z" />
    <glyph glyph-name="uniAE50" unicode="&#xae50;" 
d="M249.5 487.5q-50.5 -103.5 -158.5 -184.5l-34 33q94 65 142 150t55 191h-181v42h227q0 -128 -50.5 -231.5zM182 211h47v-215h516v-42h-563v257zM443.5 464q45.5 99 51.5 213h-159v42h206q0 -290 -204 -460l-34 31q94 75 139.5 174zM660 796h49v-284h135v-42h-135v-309
h-49v635z" />
    <glyph glyph-name="uniAE54" unicode="&#xae54;" 
d="M710 796v-202h134v-42h-134v-200h-50v444h50zM193.5 548.5q47.5 62.5 55.5 152.5h-179v43h228q0 -115 -52 -195.5t-153 -148.5l-33 32q86 54 133.5 116.5zM176 306h534v-195h-485v-124h520v-41h-567v206h483v115h-485v39zM441 520.5q45 78.5 52 180.5h-159v43h206
q0 -124 -48 -221t-151 -173l-35 30q90 62 135 140.5z" />
    <glyph glyph-name="uniAE56" unicode="&#xae56;" 
d="M709 796v-206h135v-41h-135v-213h-49v460h49zM195 543.5q48 64.5 56 155.5h-181v42h228q0 -115 -52 -197t-152 -152l-33 33q86 54 134 118.5zM124 283h266v-182h-217v-119q87 0 136 3t103 14l5 -40q-58 -10 -108.5 -13t-141.5 -3h-41v199h217v102h-219v39zM442 514
q46 82 52 185h-160v42h207q0 -126 -48 -225.5t-152 -176.5l-35 29q90 64 136 146zM448 283h261v-340h-261v340zM663 -19v264h-171v-264h171z" />
    <glyph glyph-name="uniAE5C" unicode="&#xae5c;" 
d="M250.5 517.5q-49.5 -93.5 -156.5 -165.5l-32 32q91 59 138 134t54 175h-181v42h227q0 -124 -49.5 -217.5zM179 247h530v-301h-530v301zM661 -13v220h-435v-220h435zM495 693h-159v42h205q0 -131 -47 -239.5t-153 -194.5l-35 32q176 134 189 360zM660 795h49v-225h135v-40
h-135v-238h-49v503z" />
    <glyph glyph-name="uniAE5D" unicode="&#xae5d;" 
d="M250 525q-50 -90 -155 -160l-33 32q91 57 138 129t54 170h-181v42h227q0 -123 -50 -213zM178 281h48v-124h435v124h48v-336h-531v336zM661 -15v131h-435v-131h435zM444 502q45 87 51 194h-159v42h205q0 -129 -47 -234.5t-151 -187.5l-35 30q91 69 136 156zM660 795h49
v-208h135v-41h-135v-217h-49v466z" />
    <glyph glyph-name="uniAE5F" unicode="&#xae5f;" 
d="M249.5 507q-49.5 -93 -155.5 -167l-32 32q91 60 137.5 134.5t53.5 174.5h-181v43h227q0 -124 -49.5 -217zM273.5 25q69.5 35 115 88.5t45.5 120.5v29h47v-29q0 -67 45.5 -120.5t114.5 -88t140 -48.5l-19 -39q-101 22 -186 75t-119 132q-34 -79 -119.5 -132t-184.5 -75
l-21 39q72 13 141.5 48zM495 681h-159v43h205q0 -132 -47 -242.5t-153 -195.5l-35 30q176 138 189 365zM660 796h49v-252h135v-41h-135v-285h-49v578z" />
    <glyph glyph-name="uniAE60" unicode="&#xae60;" 
d="M251.5 517q-49.5 -93 -156.5 -165l-33 32q92 59 138.5 134t53.5 175h-180v41h227q0 -124 -49.5 -217zM180 28q42 36 65.5 79.5t23.5 85.5v68h44v-68q0 -64 36.5 -123.5t101.5 -92.5q64 36 101.5 98.5t37.5 117.5v68h46v-68q0 -68 51 -130.5t132 -90.5l-25 -37
q-64 24 -112 70t-70 103q-19 -57 -60.5 -105.5t-99.5 -74.5q-61 25 -102.5 72t-59.5 107q-23 -55 -70 -101.5t-109 -70.5l-25 37q52 20 94 56zM496 693h-159v41h205q0 -131 -47 -239t-153 -194l-35 32q176 136 189 360zM660 796h49v-226h135v-41h-135v-229h-49v496z" />
    <glyph glyph-name="uniAE61" unicode="&#xae61;" 
d="M250.5 517.5q-49.5 -93.5 -156.5 -165.5l-32 32q91 59 138 134t54 175h-181v42h227q0 -124 -49.5 -217.5zM234 205.5q74 41.5 203 41.5q131 0 205 -41.5t74 -115.5q0 -73 -74 -114t-205 -41q-129 0 -203 41t-74 114q0 74 74 115.5zM269.5 7q63.5 -31 167.5 -31
q106 0 169 31t63 83q0 54 -63 85t-169 31q-105 0 -168 -31t-63 -85q0 -52 63.5 -83zM443.5 496q45.5 89 51.5 197h-159v42h205q0 -131 -47 -238t-152 -191l-35 31q91 70 136.5 159zM660 796h49v-229h135v-42h-135v-246h-49v517z" />
    <glyph glyph-name="uniAE65" unicode="&#xae65;" 
d="M246 543.5q-52 -80.5 -153 -148.5l-33 32q86 54 133.5 117t55.5 153h-179v42h228q0 -115 -52 -195.5zM180 274h533v-40h-484v-103h473v-38h-473v-108h505v-39h-554v328zM441 517q45 79 52 180h-159v42h206q0 -124 -48 -221t-151 -172l-35 29q90 63 135 142zM660 795h49
v-212h135v-42h-135v-214h-49v468z" />
    <glyph glyph-name="uniAE68" unicode="&#xae68;" 
d="M778 797v-864h-47v458h-133v-413h-47v796h47v-341h133v364h47zM177 397q37 121 40 250h-148v41h191q0 -337 -162 -533l-40 26q82 95 119 216zM383.5 357.5q32.5 140.5 34.5 289.5h-128v41h171q0 -167 -30 -322t-129 -279l-41 25q90 105 122.5 245.5z" />
    <glyph glyph-name="uniAE69" unicode="&#xae69;" 
d="M770 795v-510h-46v240h-132v-234h-47v488h47v-212h132v228h46zM175.5 516q38.5 76 43.5 175h-147v42h194q0 -123 -40 -216.5t-133 -169.5l-36 30q80 63 118.5 139zM194 240h576v-308h-47v266h-529v42zM379.5 485.5q36.5 93.5 41.5 205.5h-132v42h179q0 -131 -37 -241.5
t-127 -200.5l-42 27q81 74 117.5 167.5z" />
    <glyph glyph-name="uniAE6C" unicode="&#xae6c;" 
d="M769 795v-646h-46v336h-132v-305h-46v599h46v-251h132v267h46zM176.5 500.5q37.5 78.5 42.5 180.5h-150v42h197q0 -124 -39 -220t-132 -177l-36 30q80 66 117.5 144.5zM214 219h48v-223h536v-42h-584v265zM379.5 472.5q36.5 95.5 40.5 208.5h-131v42h177
q0 -133 -36.5 -245.5t-125.5 -204.5l-42 27q81 77 117.5 172.5z" />
    <glyph glyph-name="uniAE6F" unicode="&#xae6f;" 
d="M777 241v-41h-534v-213h543v-41h-592v295h583zM177 523q37 73 42 171h-151v42h198q0 -121 -39 -211.5t-130 -166.5l-36 30q79 62 116 135zM378.5 493.5q36.5 90.5 41.5 200.5h-131v42h177q0 -131 -36 -238.5t-125 -195.5l-43 28q80 73 116.5 163.5zM545 779h47v-215h131
v231h46v-497h-46v225h-131v-220h-47v476z" />
    <glyph glyph-name="uniAE70" unicode="&#xae70;" 
d="M769 795v-450h-46v199h-132v-194h-46v429h46v-194h132v210h46zM176 538q37 66 43 160h-150v42h197q0 -117 -40 -201t-131 -154l-35 30q79 57 116 123zM211 299h558v-191h-508v-121h545v-41h-592v201h509v111h-512v41zM379 511.5q37 82.5 42 186.5h-133v42h179
q0 -126 -37.5 -226t-128.5 -181l-40 27q81 69 118 151.5z" />
    <glyph glyph-name="uniAE78" unicode="&#xae78;" 
d="M770 795v-497h-46v225h-132v-220h-47v476h47v-215h132v231h46zM177 523q37 73 42 171h-151v42h198q0 -121 -39 -211.5t-130 -166.5l-35 30q78 62 115 135zM215 254h555v-308h-555v308zM724 -13v226h-462v-226h462zM379 494.5q37 90.5 42 199.5h-132v42h178
q0 -130 -36.5 -238t-125.5 -196l-43 28q80 74 117 164.5z" />
    <glyph glyph-name="uniAE79" unicode="&#xae79;" 
d="M770 795v-470h-46v208h-132v-202h-47v448h47v-206h132v222h46zM177.5 532q37.5 71 42.5 168h-151v41h198q0 -120 -39.5 -209t-131.5 -163l-35 30q79 62 116.5 133zM216 282h49v-120h459v120h46v-337h-554v337zM724 -15v137h-459v-137h459zM380.5 503q35.5 88 40.5 197
h-132v41h179q0 -128 -36 -233t-126 -192l-40 28q79 71 114.5 159z" />
    <glyph glyph-name="uniAE7B" unicode="&#xae7b;" 
d="M769 796v-564h-46v292h-132v-220h-47v475h47v-214h132v231h46zM176.5 508.5q37.5 78.5 42.5 179.5h-151v42h197q0 -124 -39 -220t-129 -176l-37 30q79 66 116.5 144.5zM301 21.5q71 34.5 118 86.5t47 113v46h49v-46q0 -61 47 -113t118 -86.5t139 -46.5l-20 -39
q-98 21 -186.5 75.5t-122.5 130.5q-34 -76 -122 -130.5t-186 -75.5l-20 39q68 12 139 46.5zM379.5 478.5q36.5 95.5 40.5 209.5h-132v42h178q0 -133 -36.5 -246t-125.5 -205l-42 26q81 78 117.5 173.5z" />
    <glyph glyph-name="uniAE7C" unicode="&#xae7c;" 
d="M769 795v-504h-46v234h-132v-228h-47v482h47v-213h132v229h46zM176 521q37 73 42 171h-150v42h197q0 -121 -39 -211t-129 -166l-36 30q78 61 115 134zM199 35q42 36 65.5 80t23.5 85v56h46v-56q0 -64 36 -123.5t100 -92.5q63 36 100.5 99t37.5 117v56h46v-56
q0 -44 23.5 -88t65.5 -79t94 -53l-25 -37q-64 24 -111.5 70t-69.5 104q-19 -57 -60 -106.5t-99 -75.5q-62 25 -103.5 72.5t-58.5 106.5q-24 -55 -71.5 -101t-108.5 -70l-24 37q51 19 93 55zM378.5 495q36.5 89 41.5 197h-132v42h178q0 -128 -36.5 -234t-125.5 -194l-41 28
q79 72 115.5 161z" />
    <glyph glyph-name="uniAE7D" unicode="&#xae7d;" 
d="M770 795v-531h-46v246h-132v-214h-47v483h47v-227h132v243h46zM177 511.5q37 73.5 42 171.5h-150v42h197q0 -121 -39 -211.5t-129 -167.5l-36 30q78 62 115 135.5zM280 204q77 41 212 41q136 0 212.5 -41t76.5 -114t-76.5 -114t-212.5 -41q-135 0 -212 41t-77 114t77 114
zM315.5 6q65.5 -31 176.5 -31q110 0 175.5 31t65.5 84q0 52 -65.5 83.5t-175.5 31.5t-176 -31.5t-66 -83.5q0 -53 65.5 -84zM378.5 483q36.5 90 41.5 200h-131v42h177q0 -130 -37 -237.5t-127 -195.5l-40 28q80 73 116.5 163z" />
    <glyph glyph-name="uniAE84" unicode="&#xae84;" 
d="M717 796v-243h140v-42h-140v-218h140v-42h-140v-319h-48v864h48zM203 393q53 130 59 264h-192v42h236q0 -151 -52.5 -299.5t-162.5 -263.5l-41 27q100 100 153 230zM445 360.5q46 147.5 50 296.5h-162v42h208q0 -164 -45 -329t-157 -293l-41 26q101 110 147 257.5z" />
    <glyph glyph-name="uniAE85" unicode="&#xae85;" 
d="M709 796v-144h134v-42h-134v-137h134v-41h-134v-148h-49v512h49zM200 516.5q47 74.5 54 173.5h-181v42h227q0 -125 -50 -218t-157 -164l-32 32q92 60 139 134.5zM158 243h551v-313h-49v270h-502v43zM495 690h-158v42h205q0 -132 -47 -241.5t-154 -196.5l-34 32
q175 136 188 364z" />
    <glyph glyph-name="uniAE86" unicode="&#xae86;" 
d="M284 732q0 -124 -49.5 -217t-153.5 -166l-37 31q92 61 139 135.5t54 174.5h-180v42h227zM117 254h276v-326h-49v283h-227v43zM476 690h-160v42h207q0 -272 -195 -437l-39 30q174 138 187 365zM440 254h266v-326h-49v283h-217v43zM657 795h48v-144h133v-42h-133v-146h133
v-43h-133v-138h-48v513z" />
    <glyph glyph-name="uniAE8C" unicode="&#xae8c;" 
d="M710 796v-121h133v-41h-133v-116h133v-42h-133v-124h-50v444h50zM193.5 548.5q47.5 62.5 55.5 152.5h-179v43h228q0 -115 -52 -195.5t-153 -148.5l-33 32q86 54 133.5 116.5zM176 306h534v-195h-485v-124h520v-41h-567v206h483v115h-485v39zM441 520.5q45 78.5 52 180.5
h-159v43h206q0 -124 -48 -221t-151 -173l-35 30q90 62 135 140.5z" />
    <glyph glyph-name="uniAE8D" unicode="&#xae8d;" 
d="M706 287v-353h-50v311h-210v42h260zM185.5 548.5q48.5 62.5 56.5 152.5h-180v42h227q0 -114 -52 -194.5t-152 -149.5l-34 33q86 54 134.5 116.5zM126 287h279v-187h-228v-121q103 0 162.5 3.5t124.5 15.5l5 -41q-68 -12 -129.5 -15.5t-162.5 -3.5h-48v203h229v105h-232
v41zM433 521q45 79 52 180h-158v42h206q0 -122 -47.5 -219t-144.5 -173l-40 28q87 63 132 142zM657 795h48v-127h133v-39h-133v-125h133v-42h-133v-125h-48v458z" />
    <glyph glyph-name="uniAEBC" unicode="&#xaebc;" 
d="M746 796v-864h-47v472h-194q-49 -194 -166 -327l-41 26q100 110 146.5 257.5t50.5 296.5h-162v42h207q0 -133 -25 -253h184v350h47zM204 393q53 130 59 264h-191v42h236q0 -151 -52.5 -299.5t-162.5 -263.5l-42 27q100 100 153 230z" />
    <glyph glyph-name="uniAEBD" unicode="&#xaebd;" 
d="M746 243v-310h-48v267h-519v43h567zM197 516.5q47 74.5 54 174.5h-179v41h225q0 -125 -50 -218t-157 -165l-32 32q92 61 139 135.5zM436.5 488.5q44.5 91.5 50.5 202.5h-156v41h203q0 -94 -21 -171h185v235h48v-512h-48v236h-198q-49 -130 -164 -227l-36 33
q92 71 136.5 162.5z" />
    <glyph glyph-name="uniAEBE" unicode="&#xaebe;" 
d="M746 796v-510h-48v232h-201q-47 -124 -160 -214l-36 30q92 71 136.5 160.5t49.5 198.5h-156v41h203q0 -94 -23 -175h187v237h48zM197 519.5q47 74.5 54 173.5h-179v41h225q0 -123 -50 -215t-156 -164l-33 32q92 58 139 132.5zM157 245h274v-312h-48v271h-226v41zM478 245
h268v-312h-47v271h-221v41z" />
    <glyph glyph-name="uniAEC0" unicode="&#xaec0;" 
d="M746 794v-634h-48v322h-203q-50 -128 -158 -221l-36 31q175 141 187 385h-157v43h204q0 -107 -27 -198h190v272h48zM200 489q45 83 51 188h-179v43h225q0 -127 -47.5 -230t-151.5 -183l-34 33q91 66 136 149zM205 204h48v-208h516v-42h-564v250z" />
    <glyph glyph-name="uniAEC4" unicode="&#xaec4;" 
d="M245.5 550q-51.5 -80 -151.5 -148l-34 33q87 53 134.5 115.5t55.5 152.5h-175v41h222q0 -114 -51.5 -194zM198 303h547v-193h-498v-129h529v-40h-576v209h498v112h-500v41zM437 521.5q45 78.5 51 181.5h-160v41h207q0 -92 -25 -168h188v220h47v-447h-47v187h-204
q-48 -106 -156 -185l-36 30q90 62 135 140.5z" />
    <glyph glyph-name="uniAECC" unicode="&#xaecc;" 
d="M247 516q-50 -93 -157 -164l-32 32q92 60 139 134.5t54 173.5h-179v42h225q0 -125 -50 -218zM197 258h549v-312h-549v312zM700 -13v232h-455v-232h455zM437.5 492q44.5 90 49.5 200h-156v42h203q0 -94 -23 -175h187v236h48v-492h-48v214h-201q-47 -125 -159 -217l-37 32
q92 70 136.5 160z" />
    <glyph glyph-name="uniAECD" unicode="&#xaecd;" 
d="M746 795v-461h-48v191h-200q-50 -123 -159 -210l-35 31q90 68 134 155.5t50 195.5h-156v41h203q0 -93 -23 -171h186v228h48zM197 527q47 72 54 170h-177v41h224q0 -122 -50 -212t-156 -161l-33 32q91 58 138 130zM200 286h48v-126h451v126h47v-340h-546v340zM699 -14v135
h-451v-135h451z" />
    <glyph glyph-name="uniAECF" unicode="&#xaecf;" 
d="M746 795v-597h-48v290h-208q-49 -116 -153 -202l-37 30q92 71 136.5 163t50.5 203h-157v43h204q0 -110 -29 -196h193v266h48zM196 508q47 74 54 174h-178v43h225q0 -124 -50 -217.5t-157 -165.5l-33 32q92 60 139 134zM291.5 23.5q69.5 35.5 115 91t45.5 123.5v45h48v-45
q0 -67 44.5 -121t113 -90t140.5 -51l-22 -38q-99 23 -183.5 76.5t-117.5 133.5q-34 -80 -119 -135t-185 -78l-21 39q72 14 141.5 49.5z" />
    <glyph glyph-name="uniAED0" unicode="&#xaed0;" 
d="M245.5 517.5q-50.5 -92.5 -157.5 -164.5l-32 32q93 59 139.5 134t53.5 174h-178v41h225q0 -124 -50.5 -216.5zM188 35.5q42 36.5 65.5 80t23.5 84.5v69h46v-69q0 -64 36 -123.5t100 -92.5q63 36 101 99t38 117v69h46v-69q0 -45 23 -88.5t64.5 -78.5t94.5 -53l-25 -37
q-64 24 -111.5 70t-69.5 103q-20 -57 -60.5 -105.5t-98.5 -75.5q-62 25 -103.5 72t-60.5 106q-23 -55 -69.5 -100.5t-107.5 -69.5l-25 37q51 19 93 55.5zM435.5 498q44.5 88 50.5 195h-156v41h203q0 -100 -26 -182h190v243h49v-500h-49v216h-205q-49 -117 -155 -203l-35 32
q89 70 133.5 158z" />
    <glyph glyph-name="uniAED1" unicode="&#xaed1;" 
d="M746 795v-536h-48v243h-207q-48 -114 -154 -201l-36 31q175 134 186 360h-156v42h203q0 -106 -28 -190h192v251h48zM197 518.5q47 74.5 54 173.5h-179v42h225q0 -125 -50 -218t-158 -164l-32 32q93 60 140 134.5zM256.5 212q75.5 42 208.5 42q134 0 210 -42t76 -117
t-76 -117.5t-210 -42.5q-133 0 -208.5 42t-75.5 118q0 75 75.5 117zM293 8q64 -32 172 -32t173.5 32t65.5 87t-65.5 87t-173.5 32t-172 -32t-64 -87t64 -87z" />
    <glyph glyph-name="uniAED3" unicode="&#xaed3;" 
d="M246.5 531.5q-49.5 -87.5 -155.5 -155.5l-32 31q92 56 138 126t53 167h-179v41h225q0 -122 -49.5 -209.5zM297.5 14q69.5 30 116 74t46.5 91v4h-261v40h261v99h48v-99h263v-40h-262v-4q0 -46 45 -89.5t113 -74t132 -40.5l-18 -39q-93 17 -178 65t-119 112
q-33 -65 -120.5 -113t-181.5 -64l-18 39q64 9 133.5 39zM436.5 511q43.5 84 49.5 189h-156v41h203q0 -96 -24 -172h189v226h48v-497h-48v230h-204q-48 -114 -156 -197l-35 30q90 66 133.5 150z" />
    <glyph glyph-name="uniAED5" unicode="&#xaed5;" 
d="M284 743q0 -115 -51 -197t-152 -151l-35 33q87 54 135 118t56 156h-178v41h225zM181 284h565v-39h-517v-112h507v-40h-507v-112h538v-39h-586v342zM421.5 519.5q44.5 79.5 51.5 182.5h-158v41h205q0 -90 -23 -162h192v214h48v-458h-48v202h-208q-47 -111 -154 -193
l-39 30q89 64 133.5 143.5z" />
    <glyph glyph-name="uniAED8" unicode="&#xaed8;" 
d="M96 152l-39 25q83 95 120 217.5t40 252.5h-149v41h191q0 -337 -163 -536zM370 356.5q32 139.5 35 290.5h-116v41h158q0 -144 -15 -242h140v325h46v-791h-46v425h-147q-38 -195 -136 -318l-41 25q90 105 122 244.5zM727 796h47v-864h-47v864z" />
    <glyph glyph-name="uniAED9" unicode="&#xaed9;" 
d="M769 795v-511h-46v511h46zM177 516.5q37 75.5 42 174.5h-150v42h197q0 -121 -39 -214.5t-129 -170.5l-36 29q78 64 115 139.5zM193 239h576v-307h-47v265h-529v42zM370.5 486.5q36.5 93.5 41.5 204.5h-123v42h169q0 -96 -16 -169h131v212h45v-484h-45v231h-141
q-39 -134 -137 -232l-41 27q80 75 116.5 168.5z" />
    <glyph glyph-name="uniAEDC" unicode="&#xaedc;" 
d="M262 219v-211h535v-42h-583v253h48zM176.5 500.5q37.5 78.5 42.5 181.5h-150v42h197q0 -124 -39 -220.5t-131 -178.5l-37 30q80 67 117.5 145.5zM371.5 470.5q36.5 96.5 40.5 211.5h-123v42h169q0 -101 -18 -185h134v237h45v-604h-45v325h-145q-39 -133 -136 -230l-39 29
q81 78 117.5 174.5zM723 795h46v-646h-46v646z" />
    <glyph glyph-name="uniAEE8" unicode="&#xaee8;" 
d="M769 795v-498h-46v498h46zM177 521.5q37 73.5 42 172.5h-150v41h195q0 -120 -38.5 -210.5t-128.5 -167.5l-35 29q78 62 115 135.5zM215 254h554v-308h-554v308zM371 493q36 91 41 201h-123v41h167q0 -96 -18 -175h135v216h45v-468h-45v210h-146q-39 -124 -133 -217
l-39 26q80 75 116 166zM723 -13v226h-461v-226h461z" />
    <glyph glyph-name="uniAEEB" unicode="&#xaeeb;" 
d="M769 795v-585h-47v585h47zM176.5 508q37.5 76 42.5 176h-150v43h197q0 -123 -39.5 -217.5t-130.5 -170.5l-37 28q80 65 117.5 141zM297 23.5q71 34.5 119 87.5t48 115v37h49v-37q0 -62 47.5 -115t119 -87.5t140.5 -46.5l-20 -38q-99 20 -188.5 74t-123.5 132
q-34 -78 -123 -132t-188 -74l-19 38q68 12 139 46.5zM370.5 476.5q36.5 94.5 41.5 207.5h-124v43h170q0 -92 -17 -173h130v222h47v-487h-47v224h-140q-39 -135 -137 -235l-40 27q80 77 116.5 171.5z" />
    <glyph glyph-name="uniAEED" unicode="&#xaeed;" 
d="M769 795v-531h-46v531h46zM177 514q37 73 42 171h-148v42h195q0 -122 -39 -212.5t-129 -166.5l-36 30q78 63 115 136zM261.5 203.5q78.5 40.5 217.5 40.5q140 0 218.5 -40.5t78.5 -114.5q0 -73 -78.5 -113.5t-218.5 -40.5q-139 0 -217.5 40.5t-78.5 113.5
q0 74 78.5 114.5zM298 6q67 -30 181 -30q115 0 182 30t67 83t-67.5 84t-181.5 31q-113 0 -180.5 -31t-67.5 -84t67 -83zM371 484q36 91 41 201h-123v42h169q0 -94 -17 -173h132v222h45v-480h-45v216h-143q-38 -126 -135 -221l-39 27q79 75 115 166z" />
    <glyph glyph-name="uniAEF4" unicode="&#xaef4;" 
d="M746 796v-864h-47v345h-244q-47 -114 -124 -203l-42 27q101 110 147 258.5t50 297.5h-159v42h204q0 -82 -9 -153h177v250h47zM196 391.5q54 130.5 60 265.5h-189v42h234q0 -152 -53.5 -300.5t-166.5 -264.5l-40 28q101 99 155 229.5zM699 319v186h-182q-14 -96 -46 -186
h228z" />
    <glyph glyph-name="uniAEF8" unicode="&#xaef8;" 
d="M698 409v169h-181q-36 -191 -184 -317l-36 31q174 141 186 385h-153v43h200q0 -51 -6 -102h174v176h48v-638h-48v212h-199v41h199zM200 489q45 83 51 188h-179v43h225q0 -127 -47.5 -230t-151.5 -183l-34 33q91 66 136 149zM205 202h48v-206h516v-42h-564v248z" />
    <glyph glyph-name="uniAEFC" unicode="&#xaefc;" 
d="M698 495v123h-179q-37 -159 -182 -267l-37 30q90 62 135 140.5t51 181.5h-158v41h204q0 -44 -6 -86h172v138h47v-447h-47v107h-191v39h191zM194.5 551q47.5 62 55.5 152h-175v41h222q0 -114 -51.5 -194t-151.5 -148l-34 33q87 54 134.5 116zM198 303h547v-193h-498v-129
h529v-40h-576v209h498v112h-500v41z" />
    <glyph glyph-name="uniAF07" unicode="&#xaf07;" 
d="M698 433v144h-181q-39 -175 -180 -291l-37 30q91 71 135.5 163t50.5 203h-156v43h202q0 -60 -8 -107h174v177h48v-598h-48v193h-196v43h196zM196 508q47 74 54 174h-178v43h225q0 -124 -50 -217.5t-157 -165.5l-33 32q92 60 139 134zM291.5 23.5q69.5 35.5 115 91
t45.5 123.5v34h48v-34q0 -67 44.5 -121.5t113 -89.5t140.5 -50l-21 -38q-99 22 -183.5 75.5t-118.5 133.5q-33 -81 -118.5 -135t-185.5 -77l-21 38q72 14 141.5 49.5z" />
    <glyph glyph-name="uniAF08" unicode="&#xaf08;" 
d="M697 453v145h-179q-36 -172 -181 -290l-36 32q90 70 134.5 158t49.5 195h-155v41h202q0 -47 -6 -94h171v155h49v-500h-49v117h-191v41h191zM195.5 519q46.5 75 53.5 174h-178v41h225q0 -124 -50.5 -216.5t-157.5 -164.5l-32 32q93 59 139.5 134zM188 35.5
q42 36.5 65.5 80t23.5 84.5v69h46v-69q0 -64 36 -123.5t100 -92.5q63 36 101 99t38 117v69h46v-69q0 -45 23 -88.5t64.5 -78.5t94.5 -53l-25 -37q-64 24 -111.5 70t-69.5 103q-20 -57 -60.5 -105.5t-98.5 -75.5q-62 25 -103.5 72t-60.5 106q-23 -55 -69.5 -100.5
t-107.5 -69.5l-25 37q51 19 93 55.5z" />
    <glyph glyph-name="uniAF09" unicode="&#xaf09;" 
d="M746 795v-536h-48v150h-195v42h195v135h-180q-39 -169 -181 -285l-36 31q175 134 186 360h-156v42h203q0 -61 -8 -106h172v167h48zM197 518.5q47 74.5 54 173.5h-179v42h225q0 -125 -50 -218t-158 -164l-32 32q93 60 140 134.5zM256.5 212q75.5 42 208.5 42
q134 0 210 -42t76 -117t-76 -117.5t-210 -42.5q-133 0 -208.5 42t-75.5 118q0 75 75.5 117zM293 8q64 -32 172 -32t173.5 32t65.5 87t-65.5 87t-173.5 32t-172 -32t-64 -87t64 -87z" />
    <glyph glyph-name="uniAF0D" unicode="&#xaf0d;" 
d="M749 275v-41h-499v-104h487v-39h-487v-105h517v-40h-565v329h547zM196.5 527.5q46.5 71.5 53.5 169.5h-178v42h225q0 -122 -50 -212t-155 -160l-33 32q91 57 137.5 128.5zM427 503q46 87 52 194h-149v42h194q0 -52 -7 -95h181v151h48v-475h-48v115h-194v39h194v130h-188
q-38 -173 -186 -287l-36 31q93 68 139 155z" />
    <glyph glyph-name="uniAF10" unicode="&#xaf10;" 
d="M96 152l-39 25q83 95 120 217.5t40 252.5h-149v41h191q0 -337 -163 -536zM370 356.5q32 139.5 35 290.5h-116v41h158q0 -70 -4 -138h131v221h46v-791h-46v307h-179q-41 -119 -106 -200l-41 25q90 105 122 244.5zM574 329v180h-134q-10 -99 -33 -180h167zM727 796h47v-864
h-47v864z" />
    <glyph glyph-name="uniAF2C" unicode="&#xaf2c;" 
d="M371 700v-20q0 -80 -9.5 -180.5t-44.5 -242.5l-50 9q54 197 57 392h-216v42h263zM45 108h385v291h48v-291h347v-41h-780v41zM445 700h283v-61q0 -99 -6 -182t-30 -199l-49 9q26 109 32.5 193t6.5 179v19h-237v42z" />
    <glyph glyph-name="uniAF2D" unicode="&#xaf2d;" 
d="M728 756v-27q0 -60 -4 -123t-19 -146l-46 6q22 130 22 250h-232v40h279zM46 373h383v188h48v-188h347v-41h-778v41zM116 756h257v-24q0 -58 -6.5 -123t-29.5 -150l-47 7q37 132 37 250h-211v40zM132 225h594v-288h-48v247h-546v41z" />
    <glyph glyph-name="uniAF30" unicode="&#xaf30;" 
d="M728 749v-29q0 -63 -4 -129t-19 -153l-47 6q23 136 23 264h-232v41h279zM46 359h383v185h48v-185h347v-41h-778v41zM116 749h257v-26q0 -61 -6.5 -128.5t-30.5 -156.5l-47 7q38 139 38 263h-211v41zM151 219h48v-223h544v-42h-592v265z" />
    <glyph glyph-name="uniAF32" unicode="&#xaf32;" 
d="M552 237v87h48v-87h166v-41h-384v41h170zM46 409h383v166h48v-166h347v-42h-778v42zM116 757h257v-26q0 -55 -6.5 -116t-29.5 -142l-48 8q38 126 38 236h-211v40zM142 253h48v-256q112 3 206 26l7 -42q-111 -26 -223 -26h-38v298zM469 128.5q42 30.5 106 30.5t106 -30.5
t42 -80.5q0 -51 -41.5 -81.5t-106.5 -30.5t-106.5 30.5t-41.5 81.5q0 50 42 80.5zM449 757h279v-26q0 -57 -4 -118t-19 -141l-46 6q22 125 22 239h-232v40zM500 -7q29 -21 75 -21t75 21t29 55q0 32 -29 53t-75 21t-75 -21t-29 -53q0 -34 29 -55z" />
    <glyph glyph-name="uniAF33" unicode="&#xaf33;" 
d="M728 756v-26q0 -59 -4 -121.5t-19 -143.5l-46 5q22 128 22 246h-232v40h279zM46 388h383v183h48v-183h347v-42h-778v42zM116 756h257v-24q0 -57 -6.5 -120t-29.5 -146l-47 7q37 129 37 243h-211v40zM147 228h576v-42h-527v-198h538v-41h-587v281z" />
    <glyph glyph-name="uniAF34" unicode="&#xaf34;" 
d="M728 766v-24q0 -128 -22 -243l-47 7q22 118 22 219h-232v41h279zM46 434h383v166h47v-166h348v-42h-778v42zM116 766h257v-24q0 -52 -6.5 -110.5t-29.5 -133.5l-48 9q36 110 38 218h-211v41zM143 295h581v-187h-531v-122h562v-41h-609v203h531v106h-534v41z" />
    <glyph glyph-name="uniAF3C" unicode="&#xaf3c;" 
d="M728 757v-27q0 -60 -4 -122.5t-19 -143.5l-47 5q23 128 23 247h-232v41h279zM46 390h383v178h48v-178h347v-42h-778v42zM116 757h257v-25q0 -57 -6.5 -120.5t-29.5 -147.5l-47 8q37 129 37 244h-211v41zM145 237h581v-291h-581v291zM680 -13v211h-488v-211h488z" />
    <glyph glyph-name="uniAF3D" unicode="&#xaf3d;" 
d="M728 757v-27q0 -57 -4 -118t-19 -142l-47 6q23 126 23 241h-232v40h279zM46 405h383v167h48v-167h347v-42h-778v42zM116 757h257v-24q0 -56 -6.5 -118.5t-29.5 -146.5l-47 9q37 127 37 240h-211v40zM153 284h48v-118h472v118h48v-338h-568v338zM673 -14v139h-472v-139
h472z" />
    <glyph glyph-name="uniAF3F" unicode="&#xaf3f;" 
d="M728 750v-28q0 -60 -4 -123.5t-19 -148.5l-47 6q23 130 23 253h-232v41h279zM46 378h383v175h48v-175h347v-41h-778v41zM250 19.5q69 32.5 114.5 83t45.5 112.5v51h47v-51q0 -62 45.5 -112.5t115.5 -83t142 -44.5l-20 -39q-101 20 -187 70.5t-119 126.5
q-33 -76 -118.5 -126.5t-187.5 -70.5l-19 39q72 12 141 44.5zM116 750h257v-24q0 -59 -6.5 -124.5t-29.5 -151.5l-47 8q37 132 37 251h-211v41z" />
    <glyph glyph-name="uniAF41" unicode="&#xaf41;" 
d="M651.5 212.5q78.5 -41.5 78.5 -118.5q0 -75 -79 -117t-218 -42t-217 42t-78 117q0 77 78 118.5t217 41.5q140 0 218.5 -41.5zM46 386h383v178h48v-178h347v-42h-778v42zM116 756h257v-24q0 -57 -6.5 -120.5t-29.5 -147.5l-47 7q37 130 37 245h-211v40zM253.5 7.5
q67.5 -32.5 179.5 -32.5q113 0 180.5 32.5t67.5 86.5q0 55 -67.5 87.5t-180.5 32.5q-112 0 -179.5 -32.5t-67.5 -87.5q0 -54 67.5 -86.5zM449 756h279v-27q0 -59 -4 -121.5t-19 -143.5l-47 5q23 129 23 247h-232v40z" />
    <glyph glyph-name="uniAF42" unicode="&#xaf42;" 
d="M728 757v-27q0 -59 -4 -121.5t-19 -143.5l-47 5q23 128 23 246h-232v41h279zM46 389h383v178h48v-178h347v-42h-778v42zM243.5 16.5q67.5 29.5 114 76t53.5 104.5h-269v40h590v-40h-270q6 -59 52.5 -105.5t114 -76.5t136.5 -41l-18 -38q-102 19 -190 69.5t-121 126.5
q-33 -76 -120 -125.5t-190 -69.5l-19 39q69 11 136.5 40.5zM116 757h257v-24q0 -57 -6.5 -121t-29.5 -148l-47 8q37 129 37 244h-211v41z" />
    <glyph glyph-name="uniAF43" unicode="&#xaf43;" 
d="M728 760v-27q0 -135 -23 -259l-46 7q22 124 22 238h-232v41h279zM46 412h383v164h48v-164h347v-42h-778v42zM249 18q68 31 114 77.5t46 99.5h-259v40h259v101h48v-101h262v-40h-262q0 -53 46.5 -99.5t115 -77.5t135.5 -42l-22 -38q-94 18 -179.5 67.5t-118.5 118.5
q-33 -68 -119 -118t-180 -68l-20 38q66 11 134 42zM116 760h257v-26q0 -55 -6.5 -116t-29.5 -143l-48 9q38 125 38 235h-211v41z" />
    <glyph glyph-name="uniAF45" unicode="&#xaf45;" 
d="M728 766v-24q0 -129 -22 -246l-47 7q22 120 22 222h-232v41h279zM46 424h383v167h47v-167h348v-42h-778v42zM116 766h257v-24q0 -53 -6.5 -112t-29.5 -136l-48 9q36 112 38 222h-211v41zM145 278h585v-39h-537v-105h515v-40h-515v-109h542v-40h-590v333z" />
    <glyph glyph-name="uniAF48" unicode="&#xaf48;" 
d="M259 692v-53q0 -80 -7.5 -152.5t-36.5 -169.5l-45 10q29 93 36.5 162.5t7.5 149.5v12h-149v41h194zM306 178v265h46v-263q150 9 238 21l4 -38q-217 -33 -548 -33l-9 43q182 2 269 5zM316 692h217v-46q0 -78 -3.5 -152t-17.5 -170l-45 5q14 96 17.5 169t3.5 148v5h-172v41
zM650 796h47v-371h151v-42h-151v-451h-47v864z" />
    <glyph glyph-name="uniAF49" unicode="&#xaf49;" 
d="M257 734v-19q0 -57 -6 -123.5t-28 -153.5l-47 7q33 125 35 247h-142v42h188zM300 356v175h46v-173q139 7 239 20l4 -36q-205 -34 -544 -34l-6 43q145 0 261 5zM140 214h559v-273h-48v232h-511v41zM311 734h213v-43q0 -61 -4.5 -119.5t-22.5 -134.5l-47 7
q18 75 22.5 131.5t4.5 115.5v1h-166v42zM651 795h48v-258h134v-43h-134v-235h-48v536z" />
    <glyph glyph-name="uniAF50" unicode="&#xaf50;" 
d="M257 743v-17q0 -129 -33 -249l-47 7q32 112 34 216h-142v43h188zM300 407v158h46v-156q129 6 241 21l3 -37q-206 -32 -545 -32l-6 42q137 0 261 4zM151 282h548v-181h-498v-116h531v-40h-578v196h496v103h-499v38zM311 743h213v-38q0 -54 -4 -107t-20 -120l-47 7
q15 65 19.5 115t4.5 100h-166v43zM651 796h48v-224h134v-40h-134v-205h-48v469z" />
    <glyph glyph-name="uniAF5C" unicode="&#xaf5c;" 
d="M257 736v-18q0 -57 -6 -123t-28 -153l-47 7q33 124 35 246h-142v41h188zM300 361v175h46v-173q132 7 239 22l4 -37q-122 -21 -255.5 -27t-288.5 -6l-6 42q167 0 261 4zM206 71q47 62 47 128v43h44v-43q0 -61 37.5 -121.5t100.5 -92.5q64 33 101.5 93t37.5 121v43h46v-43
q0 -67 47 -128.5t123 -89.5l-26 -37q-60 24 -103 68t-63 98q-20 -57 -61.5 -103t-100.5 -71q-59 25 -100.5 71.5t-60.5 103.5q-21 -55 -64 -99t-103 -68l-25 37q76 28 123 90zM311 736h213v-42q0 -61 -4.5 -119.5t-22.5 -133.5l-46 6q17 75 21.5 131.5t4.5 115.5v1h-166v41z
M651 795h48v-242h134v-42h-134v-234h-48v518z" />
    <glyph glyph-name="uniAF5D" unicode="&#xaf5d;" 
d="M633.5 193q73.5 -39 73.5 -109q0 -69 -73.5 -108t-202.5 -39q-130 0 -203.5 38.5t-73.5 108.5t73.5 109t203.5 39q129 0 202.5 -39zM300 363v175h46v-173q132 7 239 22l4 -37q-122 -21 -255.5 -27t-288.5 -6l-6 42q167 0 261 4zM69 736h188v-18q0 -57 -6 -123t-28 -153
l-47 7q33 124 35 246h-142v41zM263 5.5q62 -28.5 168 -28.5q105 0 166.5 28.5t61.5 78.5t-61.5 78.5t-166.5 28.5q-106 0 -168 -28.5t-62 -78.5t62 -78.5zM311 736h213v-41q0 -61 -4.5 -119t-22.5 -133l-47 7q18 74 22.5 130t4.5 115h-166v41zM651 795h48v-247h134v-40h-134
v-260h-48v547z" />
    <glyph glyph-name="uniAF64" unicode="&#xaf64;" 
d="M317 432v-238q109 5 201 18l3 -36q-102 -19 -221 -25t-252 -6l-9 43q118 0 233 4v240h45zM64 692h170v-34q0 -68 -6 -140.5t-27 -170.5l-46 5q35 150 35 298h-126v42zM282 692h194v-60q0 -77 -3 -140.5t-14 -143.5l-45 7q13 79 16 140.5t3 136.5v18h-151v42zM556 774h46
v-353h118v375h46v-864h-46v447h-118v-401h-46v796z" />
    <glyph glyph-name="uniAF65" unicode="&#xaf65;" 
d="M317 546v-182q120 7 196 16l3 -36q-173 -28 -466 -28l-8 42q118 0 230 4v184h45zM63 737h170v-15q0 -60 -5 -123t-26 -146l-42 8q27 120 29 235h-126v41zM187 217h579v-286h-47v245h-532v41zM279 737h197v-40q0 -60 -3.5 -116t-15.5 -127l-43 4q12 71 15.5 125.5
t3.5 112.5h-154v41zM558 780h45v-235h117v251h46v-536h-46v244h-117v-238h-45v514z" />
    <glyph glyph-name="uniAF78" unicode="&#xaf78;" 
d="M316 546v-181q120 7 196 16l2 -37q-180 -27 -465 -27l-8 42q118 0 230 4v183h45zM62 737h170v-15q0 -60 -5 -123t-26 -146l-42 8q27 120 29 235h-126v41zM238.5 58q51.5 62 51.5 129v43h45v-43q0 -62 37 -122t101 -93q64 33 101 93.5t37 121.5v43h45v-43q0 -69 50.5 -130
t130.5 -89l-24 -37q-64 24 -110.5 68.5t-68.5 100.5q-19 -58 -60.5 -105t-101.5 -71q-59 25 -100 71t-61 103q-22 -55 -68.5 -99t-108.5 -68l-26 37q79 28 130.5 90zM278 737h197v-40q0 -60 -3.5 -116t-15.5 -127l-43 4q12 71 15.5 125.5t3.5 112.5h-154v41zM557 780h45
v-235h117v251h46v-534h-46v243h-117v-231h-45v506z" />
    <glyph glyph-name="uniAF79" unicode="&#xaf79;" 
d="M766 796v-545h-46v252h-117v-223h-45v500h45v-235h117v251h46zM272 364v183h45v-181q112 7 196 18l3 -37q-173 -30 -466 -30l-8 42q125 0 230 5zM63 737h170v-15q0 -57 -5.5 -121t-25.5 -148l-42 8q27 120 29 235h-126v41zM267 200.5q77 40.5 213 40.5q138 0 215.5 -40
t77.5 -113t-77.5 -113.5t-215.5 -40.5q-135 0 -212.5 41t-77.5 113t77 112.5zM304.5 5.5q65.5 -30.5 175.5 -30.5q112 0 178 30.5t66 82.5t-66 82.5t-178 30.5q-110 0 -175.5 -30.5t-65.5 -82.5t65.5 -82.5zM279 737h197v-40q0 -60 -3.5 -116t-15.5 -127l-43 4
q12 71 15.5 125.5t3.5 112.5h-154v41z" />
    <glyph glyph-name="uniAF80" unicode="&#xaf80;" 
d="M272 692v-35q0 -75 -6.5 -153t-30.5 -183l-47 6q24 101 31 176t7 148h-151v41h197zM325 177v268h46v-266q143 7 255 23l3 -37q-130 -21 -271.5 -28t-301.5 -7l-9 43q179 0 278 4zM335 692h224v-46q0 -78 -4 -152t-19 -171l-45 6q14 96 18 169t4 148v5h-178v41zM691 796
h48v-864h-48v864z" />
    <glyph glyph-name="uniAF84" unicode="&#xaf84;" 
d="M371 513v-175q160 9 257 21l4 -37q-224 -33 -580 -35l-5 43q131 0 278 6v177h46zM86 715h197v-18q0 -57 -6.5 -123t-29.5 -153l-47 6q34 124 36 248h-150v40zM191 196h49v-200h532v-42h-581v242zM339 715h232v-41q0 -61 -4.5 -119.5t-22.5 -135.5l-46 6q18 76 23 132.5
t5 116.5v1h-187v40zM696 795h48v-642h-48v642z" />
    <glyph glyph-name="uniAF88" unicode="&#xaf88;" 
d="M282 743v-16q0 -130 -33 -250l-47 7q32 112 34 217h-151v42h197zM324 404v162h46v-160q143 7 255 23l5 -37q-227 -35 -577 -35l-8 42q155 0 279 5zM177 277h567v-183h-518v-109h552v-40h-599v190h518v102h-520v40zM338 743h232v-38q0 -54 -4 -107t-20 -120l-45 6
q15 66 19.5 116.5t4.5 100.5h-187v42zM696 796h48v-478h-48v478z" />
    <glyph glyph-name="uniAF90" unicode="&#xaf90;" 
d="M745 795v-516h-48v516h48zM325 366v173h46v-170q138 6 257 21l5 -37q-226 -33 -581 -35l-5 42q131 0 278 6zM86 731h197v-19q0 -135 -35 -263l-46 7q33 121 35 232h-151v43zM193 230h552v-284h-552v284zM698 -13v202h-458v-202h458zM338 731h233v-42q0 -58 -4.5 -114
t-21.5 -129l-45 7q18 72 22.5 125t4.5 110h-189v43z" />
    <glyph glyph-name="uniAF91" unicode="&#xaf91;" 
d="M234 270v-112h463v112h48v-324h-559v324h48zM325 378v169h46v-166q138 6 257 21l5 -37q-233 -34 -581 -36l-5 43q131 0 278 6zM86 736h197v-18q0 -55 -6 -118t-29 -145l-46 7q33 121 35 232h-151v42zM697 -13v130h-463v-130h463zM338 736h233v-41q0 -59 -4.5 -115
t-21.5 -128l-45 7q18 72 22.5 125t4.5 110h-189v42zM697 795h48v-494h-48v494z" />
    <glyph glyph-name="uniAF95" unicode="&#xaf95;" 
d="M674.5 202.5q74.5 -40.5 74.5 -113.5t-74.5 -113.5t-207.5 -40.5q-132 0 -206.5 40.5t-74.5 113.5t74.5 113.5t206.5 40.5q133 0 207.5 -40.5zM325 365v172h46v-170q146 8 257 22l4 -37q-223 -34 -580 -36l-5 43q131 0 278 6zM86 729h197v-18q0 -136 -35 -263l-46 6
q33 122 35 233h-151v42zM296.5 6q63.5 -31 170.5 -31q108 0 171.5 31t63.5 83t-63.5 83t-171.5 31q-107 0 -170.5 -31t-63.5 -83t63.5 -83zM338 729h233v-41q0 -58 -4.5 -114t-21.5 -129l-45 6q17 72 21.5 125.5t4.5 110.5h-188v42zM697 795h48v-537h-48v537z" />
    <glyph glyph-name="uniAF9C" unicode="&#xaf9c;" 
d="M336 700v-36q0 -86 -9 -178t-42 -225l-49 13q34 120 43.5 209.5t9.5 174.5h-192v42h239zM45 107h306v278h47v-278h133v278h46v-278h248v-41h-780v41zM418 700h309v-61q0 -94 -6 -179t-28 -200l-47 8q23 110 29 193.5t6 177.5v19h-263v42z" />
    <glyph glyph-name="uniAFB8" unicode="&#xafb8;" 
d="M289 364q46 170 49 326h-229v41h275v-11q0 -172 -44 -356h309q39 168 39 326h-238v41h285v-25q0 -69 -6.5 -149.5t-30.5 -192.5h127v-41h-365v-391h-47v391h-368v41h244z" />
    <glyph glyph-name="uniAFB9" unicode="&#xafb9;" 
d="M396 753v-9q0 -150 -36 -303h294q30 133 33 271h-218v41h264v-21q0 -147 -30 -291h125v-41h-370v-177h268v-286h-48v245h-547v41h280v177h-366v41h267q36 142 38 271h-225v41h271z" />
    <glyph glyph-name="uniAFBC" unicode="&#xafbc;" 
d="M310 405q38 152 40 292h-225v41h271v-9q0 -158 -36 -324h293q34 155 34 292h-218v41h264v-20q0 -64 -5.5 -138t-25.5 -175h126v-42h-366v-223h-46v223h-371v42h265zM151 220h48v-224h540v-42h-588v266z" />
    <glyph glyph-name="uniAFC0" unicode="&#xafc0;" 
d="M314 484q34 127 36 237h-225v40h271v-11q0 -133 -32 -266h292q29 121 31 237h-218v40h264v-18q0 -131 -27 -259h122v-41h-371v-131h268v-200h-534v-126h564v-41h-611v208h534v118h-537v41h269v131h-365v41h269z" />
    <glyph glyph-name="uniAFC7" unicode="&#xafc7;" 
d="M313 477q35 128 37 241h-225v41h271v-11q0 -136 -33 -271h292q29 123 32 241h-218v41h264v-19q0 -133 -28 -263h122v-41h-370v-141h-48v141h-365v41h269zM130 282h267v-180h-219v-116q99 0 151.5 3t109.5 14l6 -39q-60 -12 -114 -15t-155 -3h-44v194h218v102h-220v40z
M429 237h154v89h47v-89h156v-39h-357v39zM506 131q39 30 100 30q63 0 101.5 -30t38.5 -82t-38.5 -82.5t-101.5 -30.5q-61 0 -100 30.5t-39 82.5t39 82zM535.5 -7q26.5 -21 70.5 -21t70 21t26 56q0 34 -26 55t-70 21q-43 0 -70 -21t-27 -55q0 -35 26.5 -56z" />
    <glyph glyph-name="uniAFC8" unicode="&#xafc8;" 
d="M396 753v-10q0 -145 -33 -293h293q28 127 31 261h-218v42h264v-21q0 -144 -28 -282h123v-41h-371v-169h269v-294h-581v294h265v169h-365v41h269q34 138 36 261h-225v42h271zM680 -13v213h-488v-213h488z" />
    <glyph glyph-name="uniAFC9" unicode="&#xafc9;" 
d="M396 757v-9q0 -141 -32 -287h294q26 125 29 255h-218v41h264v-20q0 -141 -27 -276h122v-43h-371v-179h-47v179h-365v43h270q33 135 35 255h-225v41h271zM151 289h48v-125h474v125h49v-343h-571v343zM673 -14v138h-474v-138h474z" />
    <glyph glyph-name="uniAFCB" unicode="&#xafcb;" 
d="M312 441q36 142 38 270h-225v41h271v-10q0 -148 -35 -301h293q33 143 33 270h-218v41h264v-21q0 -147 -30 -290h125v-42h-372v-146h-46v146h-365v42h267zM248 11q70 26 115.5 68.5t45.5 94.5v42h48v-42q0 -53 46 -95t116 -68t141 -35l-19 -39q-101 15 -187.5 57.5
t-119.5 108.5q-34 -66 -120.5 -109t-187.5 -57l-19 39q71 9 141 35z" />
    <glyph glyph-name="uniAFCD" unicode="&#xafcd;" 
d="M396 749v-10q0 -147 -34 -297h293q29 130 32 265h-218v42h264v-20q0 -60 -5 -128t-24 -159h124v-42h-371v-143q128 -4 199.5 -46t71.5 -114q0 -75 -78.5 -116.5t-216.5 -41.5t-216 41.5t-78 116.5q0 72 71.5 114t199.5 46v143h-365v42h268q35 140 37 265h-225v42h271z
M254 11q67 -32 179 -32q113 0 180 32t67 86q0 55 -67 87.5t-180 32.5q-112 0 -179 -32.5t-67 -87.5q0 -54 67 -86z" />
    <glyph glyph-name="uniAFCE" unicode="&#xafce;" 
d="M313 443q35 141 37 267h-225v41h271v-9q0 -147 -34 -299h293q32 143 32 267h-218v41h264v-21q0 -145 -28 -287h123v-42h-369v-155h273v-41h-271q5 -60 51.5 -107.5t114.5 -77.5t138 -41l-21 -39q-102 20 -188.5 70t-119.5 126q-33 -76 -120 -125.5t-188 -68.5l-21 39
q70 11 138 40.5t114.5 77t51.5 106.5h-269v41h272v155h-369v42h268z" />
    <glyph glyph-name="uniAFD4" unicode="&#xafd4;" 
d="M740 795v-864h-48v276h-212v40h212v548h48zM226 389q22 91 28 159t6 132h-167v42h214v-36q0 -66 -5.5 -134.5t-27.5 -161.5q115 3 205 10q19 85 24 148t5 130v2h-157v42h203v-44q0 -66 -4.5 -129t-22.5 -146l96 9l5 -37q-114 -15 -276 -24v-370h-48v368q-115 -5 -261 -5
l-8 43q57 0 191 2z" />
    <glyph glyph-name="uniAFD8" unicode="&#xafd8;" 
d="M305 726v-35q0 -59 -4.5 -120.5t-22.5 -142.5q105 3 203 9q17 75 21.5 131t4.5 115h-160v43h205v-43q0 -59 -4 -115.5t-19 -127.5l74 6l4 -39q-117 -13 -272 -20v-197h-48v195q-140 -5 -241 -5l-8 45q59 0 193 2q18 80 23.5 140t5.5 116h-163v43h208zM171 200h49v-211
h547v-42h-596v253zM488 315h207v480h46v-656h-46v135h-207v41z" />
    <glyph glyph-name="uniAFDC" unicode="&#xafdc;" 
d="M738 796v-491h-48v65h-201v40h201v386h48zM227 503q27 105 29 207h-153v41h200v-18q0 -117 -27 -229q130 4 193 8q27 108 27 198h-151v41h197v-24q0 -47 -4 -97t-20 -115l85 7l4 -35q-111 -14 -274 -21v-160h-48v158q-112 -4 -237 -4l-8 41q121 0 187 2zM178 272h560
v-179h-510v-108h547v-40h-594v186h510v101h-513v40z" />
    <glyph glyph-name="uniAFE8" unicode="&#xafe8;" 
d="M738 796v-543h-47v85h-202v38h202v420h47zM225 473q28 114 30 224h-153v41h200v-16q0 -128 -27 -247q80 1 192 10q27 109 27 212h-150v41h196v-24q0 -49 -4 -102t-19 -123q29 3 85 11l4 -37q-117 -18 -274 -27v-174h-48v172q-115 -4 -237 -4l-7 42q119 0 185 1z
M192.5 32.5q41.5 34.5 65 78t23.5 88.5v31h45v-31q0 -61 36.5 -121.5t100.5 -93.5q64 34 100.5 94t36.5 121v31h46v-31q0 -69 51.5 -130.5t131.5 -87.5l-24 -37q-64 23 -111.5 68t-69.5 101q-18 -58 -59 -105t-102 -72q-59 25 -100.5 72.5t-60.5 105.5q-22 -57 -69 -102
t-111 -68l-24 37q53 17 94.5 51.5z" />
    <glyph glyph-name="uniAFE9" unicode="&#xafe9;" 
d="M739 796v-553h-48v92h-201v39h201v422h48zM225 473q29 116 31 228h-153v42h200v-18q0 -130 -28 -251q109 3 193 10q28 112 28 217h-150v42h197v-25q0 -50 -4.5 -104.5t-20.5 -124.5q54 6 85 10l5 -37q-116 -18 -275 -27v-181h-48v179q-113 -4 -236 -4l-8 42q118 0 184 2z
M257 196q74 39 206 39t206 -39t74 -110q0 -72 -74 -111.5t-206 -39.5t-206 39.5t-74 111.5q0 71 74 110zM294 5q63 -30 169 -30q108 0 171 29.5t63 81.5q0 51 -63 80.5t-171 29.5q-106 0 -169 -29.5t-63 -80.5t63 -81z" />
    <glyph glyph-name="uniAFF0" unicode="&#xaff0;" 
d="M761 796v-864h-48v864h48zM163 387q21 84 27.5 148.5t6.5 122.5h-130v42h174v-34q0 -61 -5 -126t-25 -152q120 6 169 10q19 79 24 138.5t5 121.5h-132v42h177v-41q0 -61 -4.5 -120t-22.5 -137q59 6 89 10l4 -37q-101 -16 -228 -24v-346h-46v343q-114 -6 -210 -6l-9 42
q63 0 136 3zM388 251h172v522h47v-788h-47v226h-172v40z" />
    <glyph glyph-name="uniAFF1" unicode="&#xaff1;" 
d="M759 795v-548h-47v548h47zM181 467q26 112 28 220h-129v42h172v-19q0 -124 -26 -242q91 3 173 9q15 63 19 111t4 99h-130v42h173v-40q0 -52 -3.5 -100t-16.5 -108l74 9l3 -35q-85 -16 -218 -25v-177h-47v175q-78 -4 -211 -4l-9 42q91 0 144 1zM172 207h587v-270h-48v229
h-539v41zM396 370h168v410h46v-531h-46v83h-168v38z" />
    <glyph glyph-name="uniAFF4" unicode="&#xaff4;" 
d="M758 795v-656h-47v656h47zM179 442q28 119 30 235h-129v42h172v-17q0 -132 -27 -259q118 4 172 8q16 69 20.5 121t4.5 105h-131v42h173v-38q0 -56 -4 -108t-18 -118l77 9l3 -36q-85 -16 -218 -25v-170h-48v168q-78 -4 -210 -4l-9 44q90 0 142 1zM185 200h48v-204h555v-42
h-603v246zM395 328h168v452h47v-621h-47v129h-168v40z" />
    <glyph glyph-name="uniAFF8" unicode="&#xaff8;" 
d="M758 795v-491h-47v491h47zM181 498q26 102 28 200h-129v41h172v-15q0 -117 -26 -225q117 4 173 9q15 58 19 102.5t4 87.5h-130v41h172v-36q0 -46 -3.5 -91t-16.5 -101l75 9l3 -34q-100 -18 -218 -24v-161h-48v159q-77 -4 -210 -4l-9 41q91 0 144 1zM187 268h571v-175
h-521v-108h550v-40h-597v185h522v99h-525v39zM395 413h168v368h47v-470h-47v62h-168v40z" />
    <glyph glyph-name="uniB000" unicode="&#xb000;" 
d="M759 795v-536h-47v536h47zM180 471q27 112 29 221h-129v42h173v-18q0 -127 -27 -244q117 4 173 9q15 64 19 112t4 99h-130v42h174v-39q0 -51 -3.5 -99.5t-16.5 -110.5q39 3 73 9l3 -35q-85 -16 -218 -25v-172h-47v170q-78 -4 -211 -4l-9 42q91 0 143 1zM185 222h574v-276
h-574v276zM712 -13v195h-480v-195h480zM396 374h168v406h46v-511h-46v67h-168v38z" />
    <glyph glyph-name="uniB001" unicode="&#xb001;" 
d="M759 795v-511h-47v511h47zM180 478q27 112 29 218h-129v41h173v-17q0 -125 -26 -241q89 3 172 9q15 64 19 111t4 97h-130v41h174v-39q0 -50 -3.5 -97.5t-16.5 -108.5l73 9l3 -35q-102 -18 -218 -24v-163h-47v161q-78 -4 -211 -4l-9 41q91 0 143 1zM186 246h48v-101h477
v101h48v-300h-573v300zM711 -13v117h-477v-117h477zM396 396h168v384h46v-493h-46v71h-168v38z" />
    <glyph glyph-name="uniB004" unicode="&#xb004;" 
d="M327 229v-32q0 -60 36.5 -120.5t99.5 -93.5q64 33 101 93t37 121v32h46v-32q0 -68 52 -129.5t132 -87.5l-25 -37q-65 23 -112 67.5t-69 101.5q-19 -58 -60 -105t-101 -72q-59 25 -100.5 72.5t-59.5 104.5q-22 -56 -70 -101t-112 -68l-23 37q53 17 94.5 51t65 77.5
t23.5 88.5v32h45zM179 471q27 112 29 221h-129v42h173v-18q0 -127 -27 -244q117 4 173 9q15 64 19 112t4 99h-130v42h174v-39q0 -51 -3.5 -99.5t-16.5 -110.5q39 3 73 9l3 -35q-85 -16 -218 -25v-172h-47v170q-78 -4 -211 -4l-9 42q91 0 143 1zM395 374h167v406h47v-511h-47
v67h-167v38zM711 796h47v-537h-47v537z" />
    <glyph glyph-name="uniB00C" unicode="&#xb00c;" 
d="M746 797v-864h-48v864h48zM234 382q22 93 28 161.5t6 133.5h-166v42h214v-36q0 -66 -5.5 -136t-26.5 -163q91 1 202 8q20 87 25.5 151.5t5.5 132.5v1h-156v42h202v-43q0 -67 -4.5 -131t-22.5 -149q32 2 96 8l3 -36q-117 -14 -273 -23v-361h-47v359q-142 -6 -269 -6l-7 43
q59 0 195 2z" />
    <glyph glyph-name="uniB010" unicode="&#xb010;" 
d="M744 795v-648h-47v648h47zM236 418q30 129 33 264h-160v43h207v-23q0 -142 -31 -282q111 3 198 10q29 128 29 252h-159v43h205v-30q0 -58 -4.5 -118.5t-22.5 -141.5q36 3 96 11l6 -38q-115 -18 -267 -27v-195h-47v192q-119 -5 -264 -5l-9 43q56 0 190 2zM166 215h48v-219
h561v-42h-609v261z" />
    <glyph glyph-name="uniB014" unicode="&#xb014;" 
d="M316 745v-19q0 -129 -28 -250q132 4 196 8q27 114 27 218h-158v43h204v-26q0 -52 -4 -106.5t-20 -125.5q59 4 91 7l5 -36q-115 -13 -268 -20v-134h383v-190h-515v-128h553v-39h-600v206h515v112h-517v39h132v132q-91 -3 -256 -3l-9 41q124 0 191 1q28 115 30 227h-160v43
h208zM697 795h47v-448h-47v448z" />
    <glyph glyph-name="uniB01C" unicode="&#xb01c;" 
d="M746 796v-518h-48v518h48zM239 444q27 120 30 246h-160v41h207v-20q0 -137 -29 -266q116 4 198 11q27 119 27 234h-159v41h206v-29q0 -54 -4.5 -111t-21.5 -131q32 3 94 11l5 -37q-126 -20 -270 -28v-171h383v-285h-562v285h131v168q-116 -5 -258 -5l-9 44q124 0 192 2z
M698 -10v205h-468v-205h468z" />
    <glyph glyph-name="uniB01D" unicode="&#xb01d;" 
d="M746 795v-491h-48v491h48zM239 460q28 119 30 236h-160v42h207v-18q0 -134 -28 -259q132 4 196 8q28 116 28 227h-159v42h206v-27q0 -54 -4.5 -110t-22.5 -130l95 8l5 -37q-111 -13 -264 -20v-169h-48v167q-125 -4 -264 -4l-9 43q125 0 192 1zM183 266h46v-115h469v115
h48v-320h-563v320zM698 -13v124h-469v-124h469z" />
    <glyph glyph-name="uniB028" unicode="&#xb028;" 
d="M289 367q46 169 49 323h-229v41h275v-11q0 -170 -44 -353h309q39 170 39 323h-238v41h285v-24q0 -69 -6.5 -148.5t-30.5 -191.5h127v-41h-213v-391h-48v391h-256v-391h-48v391h-215v41h244z" />
    <glyph glyph-name="uniB030" unicode="&#xb030;" 
d="M259 281v136h-223v41h263q32 132 34 255h-227v42h276v-16q0 -143 -31 -281h293q23 123 26 255h-221v42h269v-16q0 -141 -24 -281h125v-41h-222v-136h122v-181h-537v-116h565v-42h-612v199h537v101h-540v39h127zM549 281v136h-243v-136h243z" />
    <glyph glyph-name="uniB03C" unicode="&#xb03c;" 
d="M385 757v-39q0 -66 -5 -133.5t-25 -156.5h294q18 89 23 156.5t5 131.5h-216v41h265v-36q0 -67 -4.5 -134.5t-21.5 -158.5h118v-40h-220v-141h-48v141h-245v-141h-48v141h-221v40h267q22 88 28 154t6 134h-222v41h270zM157.5 32q41.5 33 65.5 73t24 77v27h46v-27
q0 -58 35.5 -112t97.5 -84q62 33 98.5 90t36.5 106v27h46v-27q0 -61 51.5 -117.5t131.5 -82.5l-27 -36q-63 21 -110 63.5t-69 95.5q-19 -53 -59.5 -98t-97.5 -69q-60 23 -100.5 67t-58.5 99q-23 -51 -70.5 -93.5t-108.5 -64.5l-24 35q51 18 92.5 51z" />
    <glyph glyph-name="uniB044" unicode="&#xb044;" 
d="M389 687v-23q0 -84 -10 -191t-46 -259l-51 8q60 221 60 424h-234v41h281zM45 109h780v-41h-780v41zM457 687h271v-68q0 -104 -6 -193t-31 -212l-50 7q27 118 34 207t7 191v27h-225v41z" />
    <glyph glyph-name="uniB045" unicode="&#xb045;" 
d="M393 744v-9q0 -151 -36 -308h289q29 135 32 276h-220v41h267v-19q0 -63 -5 -133.5t-24 -164.5h132v-40h-783v40h262q37 146 39 276h-228v41h275zM130 250h598v-313h-49v272h-549v41z" />
    <glyph glyph-name="uniB048" unicode="&#xb048;" 
d="M306 388q38 165 40 302h-228v42h275v-8q0 -163 -38 -336h292q31 163 31 302h-219v42h266v-20q0 -69 -5 -144t-25 -180h133v-42h-783v42h261zM150 240h48v-235h548v-41h-596v276z" />
    <glyph glyph-name="uniB04A" unicode="&#xb04a;" 
d="M308 433q36 146 38 274h-228v42h275v-12q0 -150 -35 -304h290q31 142 31 274h-220v42h267v-24q0 -63 -5 -131.5t-25 -160.5h132v-41h-783v41h263zM142 265h48v-268q112 3 206 26l7 -41q-110 -27 -223 -27h-38v310zM382 254h171v86h48v-86h165v-39h-384v39zM470 136.5
q41 31.5 107 31.5t106.5 -31.5t40.5 -85.5t-40.5 -85t-106.5 -31t-107 31t-41 85t41 85.5zM500.5 -6q28.5 -22 76.5 -22q46 0 75 22t29 57q0 37 -28.5 58.5t-75.5 21.5q-48 0 -76.5 -21.5t-28.5 -58.5q0 -35 28.5 -57z" />
    <glyph glyph-name="uniB04C" unicode="&#xb04c;" 
d="M309 471q35 132 37 246h-229v40h276v-11q0 -136 -34 -275h289q27 121 30 246h-221v40h268v-19q0 -136 -28 -267h131v-40h-783v40h264zM141 320h584v-200h-534v-133h564v-41h-611v214h534v119h-537v41z" />
    <glyph glyph-name="uniB04E" unicode="&#xb04e;" 
d="M308 445q36 143 38 268h-229v41h276v-12q0 -147 -36 -297h290q32 143 32 268h-222v41h269v-21q0 -145 -30 -288h132v-42h-783v42h263zM130 296h272v-184h-224v-126q97 0 146.5 2.5t103.5 13.5l7 -39q-58 -12 -109 -14.5t-151 -2.5h-42v204h223v107h-226v39zM464 296h272
v-350h-272v350zM693 -15v273h-186v-273h186z" />
    <glyph glyph-name="uniB053" unicode="&#xb053;" 
d="M311 451q37 139 39 265h-230v40h276v-11q0 -147 -36 -294h290q29 130 32 265h-222v40h269v-20q0 -145 -30 -285h129v-40h-783v40h266zM130 309h267v-193h-219v-130q94 0 148 3.5t113 14.5l6 -40q-60 -12 -114 -15t-154 -3h-45v208h218v115h-220v40zM429 259h154v93h47
v-93h156v-39h-357v39zM505 143.5q39 32.5 101 32.5q63 0 102 -32.5t39 -87.5t-39 -87.5t-102 -32.5q-62 0 -101 32.5t-39 87.5t39 87.5zM535 -4.5q27 -22.5 71 -22.5q45 0 71 22.5t26 60.5t-26 60t-71 22q-44 0 -71 -22.5t-27 -59.5q0 -38 27 -60.5z" />
    <glyph glyph-name="uniB054" unicode="&#xb054;" 
d="M308 437q36 145 38 275h-228v42h275v-10q0 -151 -35 -307h289q31 148 31 275h-220v42h267v-22q0 -150 -29 -295h132v-41h-783v41h263zM144 250h583v-303h-583v303zM680 -13v224h-489v-224h489z" />
    <glyph glyph-name="uniB055" unicode="&#xb055;" 
d="M307 448q37 142 39 269h-228v41h275v-10q0 -148 -36 -300h289q32 142 32 269h-220v41h267v-21q0 -148 -29 -289h132v-39h-783v39h262zM152 315h48v-137h473v137h49v-369h-570v369zM673 -13v150h-473v-150h473z" />
    <glyph glyph-name="uniB057" unicode="&#xb057;" 
d="M307 413q37 161 39 295h-228v41h275v-7q0 -160 -36 -329h291q30 158 30 295h-219v41h266v-19q0 -68 -5 -141.5t-24 -175.5h132v-43h-783v43h262zM250.5 19.5q69.5 32.5 114.5 82.5t45 113v52h47v-52q0 -63 45.5 -113t115.5 -82.5t142 -44.5l-21 -39q-101 20 -186.5 70.5
t-118.5 126.5q-33 -76 -119 -126.5t-188 -70.5l-18 39q72 12 141.5 44.5z" />
    <glyph glyph-name="uniB059" unicode="&#xb059;" 
d="M306 424q38 153 40 283h-228v41h275v-9q0 -155 -36 -315h289q32 150 32 283h-220v41h267v-20q0 -63 -5.5 -135t-24.5 -169h133v-41h-783v41h261zM216.5 222.5q78.5 43.5 216.5 43.5t217.5 -43.5t79.5 -121.5t-79.5 -122t-217.5 -44t-216.5 44t-78.5 122t78.5 121.5z
M216 34.5q31 -28.5 87.5 -44t129.5 -15.5q112 0 180 34.5t68 91.5t-67.5 90.5t-180.5 33.5q-112 0 -180 -33.5t-68 -90.5q0 -38 31 -66.5z" />
    <glyph glyph-name="uniB05D" unicode="&#xb05d;" 
d="M308 452q36 143 38 267h-228v40h275v-9q0 -146 -36 -298h289q32 142 32 267h-220v40h267v-21q0 -60 -5.5 -128t-24.5 -158h133v-40h-783v40h263zM145 299h585v-40h-537v-115h515v-39h-515v-119h542v-40h-590v353z" />
    <glyph glyph-name="uniB07C" unicode="&#xb07c;" 
d="M746 796v-864h-47v864h47zM204.5 391q54.5 131 61.5 266h-191v42h235q0 -151 -54 -300.5t-166 -265.5l-40 29q100 98 154.5 229zM454.5 359.5q46.5 148.5 51.5 297.5h-169v42h213q0 -166 -44 -331.5t-157 -293.5l-42 27q101 110 147.5 258.5z" />
    <glyph glyph-name="uniB07D" unicode="&#xb07d;" 
d="M746 243v-310h-48v267h-519v43h567zM202.5 517q46.5 74 53.5 173h-180v42h227q0 -124 -50 -216t-156 -164l-33 32q92 59 138.5 133zM454 491q44 89 50 199h-166v42h212q0 -132 -45 -239.5t-149 -191.5l-37 31q91 70 135 159zM698 796h48v-512h-48v512z" />
    <glyph glyph-name="uniB080" unicode="&#xb080;" 
d="M746 794v-625h-48v625h48zM204.5 488.5q44.5 82.5 50.5 188.5h-180v43h226q0 -128 -47 -230.5t-151 -181.5l-35 33q92 65 136.5 147.5zM197 211h48v-215h528v-42h-576v257zM505 677h-167v43h213q0 -136 -45.5 -251.5t-150.5 -204.5l-36 30q174 139 186 383z" />
    <glyph glyph-name="uniB084" unicode="&#xb084;" 
d="M249 549.5q-52 -80.5 -153 -150.5l-33 33q86 54 133.5 116.5t55.5 152.5h-179v43h228q0 -114 -52 -194.5zM198 306h548v-194h-498v-125h536v-41h-583v206h498v115h-501v39zM450 520.5q45 78.5 52 180.5h-166v43h212q0 -125 -46.5 -221.5t-149.5 -172.5l-37 30
q90 62 135 140.5zM698 796h47v-444h-47v444z" />
    <glyph glyph-name="uniB08C" unicode="&#xb08c;" 
d="M253 517q-50 -93 -157 -164l-32 32q92 59 138.5 134t53.5 174h-180v42h227q0 -125 -50 -218zM196 247h549v-301h-549v301zM699 -13v220h-455v-220h455zM505 693h-167v42h212q0 -131 -45.5 -239.5t-149.5 -193.5l-36 32q175 136 186 359zM698 795h47v-504h-47v504z" />
    <glyph glyph-name="uniB08D" unicode="&#xb08d;" 
d="M745 795v-465h-47v465h47zM203 526q47 72 54 171h-180v41h227q0 -123 -49.5 -213.5t-156.5 -161.5l-32 34q90 57 137 129zM199 282h49v-124h451v124h46v-337h-546v337zM699 -15v132h-451v-132h451zM454.5 501.5q44.5 87.5 50.5 195.5h-166v41h212q0 -130 -45.5 -235.5
t-148.5 -188.5l-37 32q90 68 134.5 155.5z" />
    <glyph glyph-name="uniB08F" unicode="&#xb08f;" 
d="M744 795v-589h-47v589h47zM201.5 507q46.5 74 53.5 174h-179v43h226q0 -124 -50 -217t-157 -166l-32 32q92 60 138.5 134zM293 19q70 34 115.5 87.5t45.5 118.5v38h49v-38q0 -65 45.5 -118.5t114.5 -87.5t141 -47l-21 -39q-102 23 -187 75.5t-118 131.5
q-33 -79 -118.5 -131.5t-187.5 -75.5l-21 39q72 13 142 47zM454.5 478.5q44.5 91.5 50.5 202.5h-167v43h213q0 -277 -197 -439l-36 31q92 71 136.5 162.5z" />
    <glyph glyph-name="uniB091" unicode="&#xb091;" 
d="M746 795v-521h-48v521h48zM202 519.5q47 74.5 54 173.5h-180v42h226q0 -125 -49.5 -218t-157.5 -164l-31 32q91 60 138 134.5zM251 209q77 42 213 42t213.5 -42.5t77.5 -117.5t-77.5 -117t-213.5 -42t-213 42t-77 117q0 76 77 118zM289 4.5q66 -32.5 175 -32.5t176 32.5
t67 86.5q0 55 -67 88t-176 33q-110 0 -175.5 -33t-65.5 -88q0 -54 66 -86.5zM455.5 493q44.5 90 49.5 200h-166v42h212q0 -132 -45.5 -240t-150.5 -193l-36 31q92 70 136.5 160z" />
    <glyph glyph-name="uniB098" unicode="&#xb098;" 
d="M699 796v-356h151v-43h-151v-465h-48v864h48zM83 711h49v-513h17q218 0 405 40l7 -43q-202 -39 -412 -39h-66v555z" />
    <glyph glyph-name="uniB099" unicode="&#xb099;" 
d="M708 796v-223h136v-42h-136v-230h-49v495h49zM90 746h48v-327h17q106 0 203.5 8.5t199.5 29.5l7 -42q-108 -22 -206.5 -31t-203.5 -9h-65v371zM159 247h549v-315h-49v273h-500v42z" />
    <glyph glyph-name="uniB09A" unicode="&#xb09a;" 
d="M708 796v-219h136v-42h-136v-223h-49v484h49zM90 746h48v-318h17q209 0 402 40l7 -41q-107 -23 -205 -32.5t-204 -9.5h-65v361zM139 258h263v-326h-47v286h-216v40zM447 258h261v-326h-48v286h-213v40z" />
    <glyph glyph-name="uniB09C" unicode="&#xb09c;" 
d="M138 730v-353h18q215 0 402 40l7 -42q-107 -22 -205 -31t-204 -9h-66v395h48zM186 232h49v-236h505v-42h-554v278zM659 795h49v-265h136v-43h-136v-317h-49v625z" />
    <glyph glyph-name="uniB09F" unicode="&#xb09f;" 
d="M708 796v-213h136v-41h-136v-230h-49v484h49zM90 750h48v-321h17q209 0 402 40l7 -42q-107 -22 -205.5 -31.5t-203.5 -9.5h-65v364zM177 255h533v-42h-485v-226h493v-41h-541v309z" />
    <glyph glyph-name="uniB0A0" unicode="&#xb0a0;" 
d="M708 796v-192h136v-42h-136v-208h-49v442h49zM90 758h48v-307h17q106 0 203 8.5t199 30.5l7 -41q-107 -22 -205.5 -31.5t-203.5 -9.5h-65v350zM175 308h533v-193h-484v-128h518v-41h-564v208h481v114h-484v40z" />
    <glyph glyph-name="uniB0A1" unicode="&#xb0a1;" 
d="M708 795v-202h137v-41h-137v-208h-49v451h49zM90 758h48v-312h17q106 0 203 8.5t199 30.5l7 -42q-107 -22 -205.5 -31t-203.5 -9h-65v355zM136 290h277v-185h-227v-119q97 0 158.5 4t126.5 16l5 -39q-66 -13 -127 -17t-163 -4h-47v198h227v106h-230v40zM451 290h257v-351
h-48v310h-209v41z" />
    <glyph glyph-name="uniB0A2" unicode="&#xb0a2;" 
d="M708 795v-201h137v-40h-137v-210h-49v451h49zM90 758h48v-311h17q105 0 202.5 8.5t199.5 29.5l7 -42q-106 -22 -204 -31t-205 -9h-65v355zM123 296h267v-187h-216v-123q86 0 135 3t102 14l6 -40q-58 -11 -108.5 -14t-140.5 -3h-41v202h216v109h-220v39zM447 296h261v-350
h-261v350zM663 -15v273h-172v-273h172z" />
    <glyph glyph-name="uniB0A8" unicode="&#xb0a8;" 
d="M708 795v-209h137v-41h-137v-239h-49v489h49zM90 751h48v-322h17q210 0 403 40l7 -42q-108 -22 -206.5 -31.5t-203.5 -9.5h-65v365zM176 254h532v-308h-532v308zM660 -13v227h-437v-227h437z" />
    <glyph glyph-name="uniB0A9" unicode="&#xb0a9;" 
d="M709 795v-203h136v-41h-136v-202h-50v446h50zM90 754h48v-311h17q106 0 203.5 8.5t199.5 30.5l7 -42q-108 -22 -206.5 -31.5t-203.5 -9.5h-65v355zM177 300h47v-134h436v134h48v-354h-531v354zM660 -13v136h-436v-136h436z" />
    <glyph glyph-name="uniB0AB" unicode="&#xb0ab;" 
d="M708 796v-248h136v-41h-136v-280h-49v569h49zM90 737h48v-334h17q207 0 403 42l7 -43q-107 -22 -205 -31t-205 -9h-65v375zM272.5 24.5q69.5 35.5 115 91t45.5 123.5v46h47v-46q0 -67 45 -121.5t113.5 -90t139.5 -49.5l-20 -38q-99 22 -183 75.5t-118 132.5
q-35 -80 -120.5 -134t-184.5 -77l-21 38q72 14 141.5 49.5z" />
    <glyph glyph-name="uniB0AC" unicode="&#xb0ac;" 
d="M708 795v-218h137v-42h-137v-227h-48v487h48zM180 29.5q42 36.5 66 80.5t24 85v77h45v-77q0 -64 36 -124t101 -93q63 36 100 99t37 118v77h47v-77q0 -44 23 -88t64.5 -79t94.5 -54l-25 -36q-64 24 -111.5 70.5t-68.5 103.5q-19 -57 -60.5 -106.5t-99.5 -75.5
q-62 25 -103.5 72.5t-59.5 107.5q-23 -56 -69.5 -102t-108.5 -70l-25 36q51 19 93 55.5zM90 739h49v-325h16q208 0 403 39l7 -40q-109 -23 -207.5 -32.5t-202.5 -9.5h-65v368z" />
    <glyph glyph-name="uniB0AD" unicode="&#xb0ad;" 
d="M708 796v-227h136v-40h-136v-254h-49v521h49zM90 740h48v-328h17q201 0 403 39l7 -40q-109 -23 -207.5 -32.5t-202.5 -9.5h-65v371zM234 219q75 44 203 44t203 -44t75 -120q0 -50 -34 -87.5t-97 -57.5t-147 -20t-147 20t-97 57.5t-34 87.5q0 76 75 120zM234.5 34
q29.5 -28 82 -43.5t120.5 -15.5t120.5 15.5t82 43.5t29.5 65t-29.5 65t-82 43.5t-120.5 15.5t-120.5 -15.5t-82 -43.5t-29.5 -65t29.5 -65z" />
    <glyph glyph-name="uniB0AE" unicode="&#xb0ae;" 
d="M708 798v-228h136v-41h-136v-232h-49v501h49zM90 745h48v-320h17q106 0 203.5 8.5t199.5 29.5l7 -42q-107 -21 -205.5 -30t-204.5 -9h-65v363zM271.5 18.5q65.5 32.5 108 80t42.5 101.5v5h-254v42h557v-42h-253v-5q0 -53 43 -100.5t109 -80.5t132 -46l-21 -38
q-92 20 -173 70.5t-114 118.5q-32 -68 -113.5 -118.5t-174.5 -70.5l-21 38q67 13 132.5 45.5z" />
    <glyph glyph-name="uniB0AF" unicode="&#xb0af;" 
d="M709 796v-214h135v-41h-135v-223h-50v478h50zM90 754h48v-310h17q105 0 202.5 8.5t199.5 29.5l7 -41q-204 -41 -409 -41h-65v354zM265.5 18.5q65.5 32.5 110 79t45.5 98.5h-260v42h260v105h48v-105h261v-42h-261q1 -52 45.5 -99t110.5 -79t132 -44l-21 -38
q-93 19 -175.5 69.5t-115.5 119.5q-33 -69 -115.5 -119.5t-175.5 -69.5l-19 38q65 12 130.5 44.5z" />
    <glyph glyph-name="uniB0B1" unicode="&#xb0b1;" 
d="M708 796v-208h136v-41h-136v-215h-49v464h49zM90 750h48v-311h17q212 0 402 38l7 -41q-107 -22 -205.5 -31.5t-203.5 -9.5h-65v355zM179 286h533v-40h-485v-107h475v-40h-475v-113h506v-40h-554v340z" />
    <glyph glyph-name="uniB0B3" unicode="&#xb0b3;" 
d="M708 796v-189h136v-42h-136v-220h-49v451h49zM90 758h48v-298h17q209 0 402 40l7 -41q-106 -22 -204 -31t-205 -9h-65v339zM156 276h275v94h47v-94h275v-40h-597v40zM280 155q63 33 175 33q111 0 173 -33t62 -93t-62 -93.5t-173 -33.5q-112 0 -175 33.5t-63 93.5t63 93z
M316.5 -3q50.5 -23 138.5 -23q87 0 137.5 23t50.5 65q0 41 -51 64.5t-137 23.5q-87 0 -138 -23.5t-51 -64.5q0 -42 50.5 -65z" />
    <glyph glyph-name="uniB0B4" unicode="&#xb0b4;" 
d="M772 796v-864h-47v457h-152v-410h-46v795h46v-342h152v364h47zM93 686h49v-478h3q164 0 310 30l6 -44q-83 -17 -157.5 -22.5t-158.5 -5.5h-52v520z" />
    <glyph glyph-name="uniB0B5" unicode="&#xb0b5;" 
d="M767 795v-510h-46v241h-149v-234h-46v487h46v-211h149v227h46zM93 735h49v-313h3q82 0 156 6t154 23l6 -42q-83 -17 -157.5 -23t-158.5 -6h-52v355zM199 240h568v-308h-48v267h-520v41z" />
    <glyph glyph-name="uniB0B8" unicode="&#xb0b8;" 
d="M767 795v-643h-46v344h-150v-313h-45v596h45v-241h150v257h46zM92 721h49v-335h4q166 0 311 27l5 -42q-85 -16 -159.5 -22t-156.5 -6h-53v378zM215 246h49v-238h532v-42h-581v280z" />
    <glyph glyph-name="uniB0BB" unicode="&#xb0bb;" 
d="M775 236v-43h-530v-209h538v-41h-587v293h579zM90 731h50v-324h3q84 0 158 6.5t155 23.5l4 -45q-81 -16 -155 -22t-162 -6h-53v367zM532 779h48v-222h142v238h46v-523h-46v244h-142v-239h-48v502z" />
    <glyph glyph-name="uniB0BC" unicode="&#xb0bc;" 
d="M767 795v-446h-46v204h-150v-200h-46v426h46v-186h150v202h46zM93 744h49v-292h3q165 0 310 27l6 -41q-85 -16 -159 -22t-157 -6h-52v334zM209 303h558v-192h-507v-124h544v-41h-592v205h508v112h-511v40z" />
    <glyph glyph-name="uniB0C4" unicode="&#xb0c4;" 
d="M767 795v-496h-46v224h-149v-218h-47v474h47v-215h149v231h46zM93 739h49v-326h3q80 0 154 6t157 22l5 -43q-86 -15 -160.5 -21t-155.5 -6h-52v368zM212 254h555v-308h-555v308zM721 -13v226h-462v-226h462z" />
    <glyph glyph-name="uniB0C5" unicode="&#xb0c5;" 
d="M767 795v-470h-46v208h-149v-201h-46v447h46v-206h149v222h46zM94 737h49v-306h2q80 0 154.5 6t156.5 22l6 -43q-84 -16 -158 -21.5t-159 -5.5h-51v348zM215 283h47v-120h459v120h46v-337h-552v337zM721 -13v134h-459v-134h459z" />
    <glyph glyph-name="uniB0C7" unicode="&#xb0c7;" 
d="M766 795v-570h-45v289h-150v-217h-46v482h46v-224h150v240h45zM92 716h49v-329h3q85 0 159 8.5t150 29.5l7 -42q-78 -21 -153.5 -29t-162.5 -8h-52v370zM299 21q71 35 118 87t47 113v38h48v-38q0 -61 47 -113t118 -87t139 -47l-19 -38q-99 20 -187.5 74.5t-122.5 130.5
q-34 -76 -122 -130.5t-186 -74.5l-20 38q69 12 140 47z" />
    <glyph glyph-name="uniB0C8" unicode="&#xb0c8;" 
d="M766 795v-499h-46v232h-150v-224h-46v475h46v-210h150v226h46zM93 724h49v-320h2q83 0 156 5.5t154 21.5l7 -42q-84 -16 -158 -21.5t-159 -5.5h-51v362zM197 34q42 36 66 80t24 85v70h46v-70q0 -64 36 -123.5t100 -92.5q63 36 100.5 99t37.5 117v70h46v-70
q0 -45 23 -88.5t64.5 -78.5t94.5 -53l-24 -37q-65 25 -112.5 70.5t-69.5 103.5q-19 -57 -60 -106.5t-99 -75.5q-62 25 -103 72.5t-59 106.5q-23 -55 -70.5 -101t-108.5 -70l-25 37q51 19 93 55z" />
    <glyph glyph-name="uniB0C9" unicode="&#xb0c9;" 
d="M767 795v-526h-46v249h-150v-218h-46v479h46v-220h150v236h46zM94 726h49v-323h2q81 0 155.5 6t155.5 23l6 -43q-85 -16 -159.5 -22t-157.5 -6h-51v365zM283 209q75 42 207 42q130 0 206 -42t76 -116t-76 -116t-206 -42q-132 0 -207 42t-75 116t75 116zM319 8
q64 -32 171 -32t170.5 32t63.5 85q0 54 -63.5 86t-170.5 32t-171 -32t-64 -86q0 -53 64 -85z" />
    <glyph glyph-name="uniB0D0" unicode="&#xb0d0;" 
d="M699 796v-228h149v-42h-149v-218h149v-42h-149v-334h-48v864h48zM83 711h49v-513h17q218 0 405 40l7 -43q-200 -40 -412 -40h-66v556z" />
    <glyph glyph-name="uniB0D1" unicode="&#xb0d1;" 
d="M708 796v-136h136v-42h-136v-140h136v-41h-136v-136h-49v495h49zM90 746h49v-327h16q106 0 203.5 8.5t199.5 29.5l7 -42q-108 -22 -206.5 -31t-203.5 -9h-65v371zM159 247h549v-315h-49v273h-500v42z" />
    <glyph glyph-name="uniB0D4" unicode="&#xb0d4;" 
d="M139 730v-353h17q215 0 402 40l7 -42q-107 -22 -205 -31t-204 -9h-66v395h49zM186 232h49v-236h505v-42h-554v278zM659 795h49v-166h136v-43h-136v-171h136v-43h-136v-202h-49v625z" />
    <glyph glyph-name="uniB0D7" unicode="&#xb0d7;" 
d="M711 236v-43h-497v-209h506v-41h-554v293h545zM82 747h48v-320h17q110 0 207 9t197 31l6 -42q-104 -22 -201.5 -31.5t-208.5 -9.5h-65v363zM651 795h49v-143h138v-43h-138v-146h138v-43h-138v-138h-49v513z" />
    <glyph glyph-name="uniB0D8" unicode="&#xb0d8;" 
d="M708 796v-119h136v-40h-136v-119h136v-42h-136v-122h-49v442h49zM90 758h48v-307h17q106 0 203 8.5t199 30.5l7 -41q-107 -22 -205.5 -31.5t-203.5 -9.5h-65v350zM175 308h533v-193h-484v-128h518v-41h-564v208h481v114h-484v40z" />
    <glyph glyph-name="uniB0E0" unicode="&#xb0e0;" 
d="M708 795v-133h137v-41h-137v-138h137v-42h-137v-135h-49v489h49zM90 751h48v-322h17q210 0 403 40l7 -42q-108 -22 -206.5 -31.5t-203.5 -9.5h-65v365zM176 254h532v-308h-532v308zM660 -13v227h-437v-227h437z" />
    <glyph glyph-name="uniB0E1" unicode="&#xb0e1;" 
d="M214 279v-124h438v124h48v-338h-534v338h48zM82 756h48v-311h17q208 0 403 39l7 -42q-213 -40 -410 -40h-65v354zM652 -18v133h-438v-133h438zM651 795h49v-129h138v-41h-138v-126h138v-42h-138v-124h-49v462z" />
    <glyph glyph-name="uniB0E3" unicode="&#xb0e3;" 
d="M708 796v-148h137v-42h-137v-147h137v-42h-137v-190h-49v569h49zM90 737h48v-334h17q207 0 403 42l7 -43q-107 -22 -205 -31t-205 -9h-65v375zM272.5 24.5q69.5 35.5 115 91t45.5 123.5v46h47v-46q0 -67 45 -121.5t113.5 -90t139.5 -49.5l-20 -38q-99 22 -183 75.5
t-118 132.5q-35 -80 -120.5 -134t-184.5 -77l-21 38q72 14 141.5 49.5z" />
    <glyph glyph-name="uniB0E5" unicode="&#xb0e5;" 
d="M708 796v-145h137v-41h-137v-141h137v-42h-137v-152h-49v521h49zM90 740h48v-328h17q201 0 403 39l7 -40q-109 -23 -207.5 -32.5t-202.5 -9.5h-65v371zM234 219q75 44 203 44t203 -44t75 -120q0 -50 -34 -87.5t-97 -57.5t-147 -20t-147 20t-97 57.5t-34 87.5q0 76 75 120
zM234.5 34q29.5 -28 82 -43.5t120.5 -15.5t120.5 15.5t82 43.5t29.5 65t-29.5 65t-82 43.5t-120.5 15.5t-120.5 -15.5t-82 -43.5t-29.5 -65t29.5 -65z" />
    <glyph glyph-name="uniB0EC" unicode="&#xb0ec;" 
d="M306.5 212q71.5 6 146.5 22l7 -44q-79 -17 -150 -22.5t-170 -5.5h-52v524h48v-480h4q95 0 166.5 6zM531 774h45v-213h147v234h46v-867h-46v340h-147v-290h-45v796zM723 311v208h-147v-208h147z" />
    <glyph glyph-name="uniB108" unicode="&#xb108;" 
d="M747 796v-864h-48v526h-287v41h287v297h48zM95 697h48v-510h14q113 0 203.5 7.5t183.5 26.5l6 -41q-98 -20 -189 -27.5t-204 -7.5h-62v552z" />
    <glyph glyph-name="uniB109" unicode="&#xb109;" 
d="M147 739v-342h13q118 0 206 7.5t178 26.5l7 -43q-94 -19 -183.5 -26.5t-207.5 -7.5h-62v385h49zM180 239h567v-307h-48v265h-519v42zM430 613h269v183h48v-515h-48v291h-269v41z" />
    <glyph glyph-name="uniB10B" unicode="&#xb10b;" 
d="M146 747v-338h13q116 0 204.5 7.5t179.5 27.5l7 -43q-94 -20 -183.5 -27.5t-207.5 -7.5h-62v381h49zM144 257h284v-325h-48v284h-236v41zM430 626h268v170h48v-488h-48v276h-268v42zM570 65q44 67 44 140v69h48v-69q0 -75 42.5 -141t116.5 -96l-26 -38q-58 26 -98.5 71.5
t-59.5 104.5q-20 -59 -61.5 -105.5t-99.5 -71.5l-26 37q76 32 120 99z" />
    <glyph glyph-name="uniB10C" unicode="&#xb10c;" 
d="M746 795v-629h-48v388h-268v40h268v201h48zM98 727h49v-363h13q115 0 203.5 7.5t179.5 26.5l8 -42q-95 -19 -185.5 -27t-205.5 -8h-62v406zM207 218h48v-222h517v-42h-565v264z" />
    <glyph glyph-name="uniB10F" unicode="&#xb10f;" 
d="M749 236v-43h-514v-209h523v-42h-572v294h563zM84 738h48v-355h13q113 0 202 7t183 25l8 -39q-100 -17 -190 -24t-203 -7h-61v393zM418 612h271v183h48v-509h-48v284h-271v42z" />
    <glyph glyph-name="uniB110" unicode="&#xb110;" 
d="M147 751v-318h13q118 0 206 7.5t178 26.5l8 -42q-95 -20 -185 -27.5t-207 -7.5h-62v361h49zM201 297h545v-189h-495v-121h533v-41h-579v202h494v108h-498v41zM430 637h268v159h48v-453h-48v252h-268v42z" />
    <glyph glyph-name="uniB112" unicode="&#xb112;" 
d="M147 749v-325h14q120 0 207.5 7t176.5 26l8 -42q-96 -19 -185.5 -26.5t-206.5 -7.5h-63v368h49zM151 286h271v-182h-221v-121q85 0 136.5 3t107.5 14l6 -40q-59 -11 -112.5 -14t-142.5 -3h-42v200h221v104h-224v39zM430 632h269v164h47v-468h-47v263h-269v41zM482 286
h264v-347h-264v347zM701 -22v270h-174v-270h174z" />
    <glyph glyph-name="uniB113" unicode="&#xb113;" 
d="M147 748v-318h14q118 0 206 7.5t178 26.5l8 -43q-96 -19 -185.5 -26.5t-206.5 -7.5h-63v361h49zM151 286h271v-182h-221v-121q85 0 136.5 3t107.5 14l6 -40q-59 -11 -112.5 -14t-142.5 -3h-42v200h221v104h-224v39zM430 638h269v158h48v-464h-48v264h-269v42zM482 296h45
v-127h174v127h46v-353h-265v353zM701 -17v146h-174v-146h174z" />
    <glyph glyph-name="uniB118" unicode="&#xb118;" 
d="M747 249v-303h-543v303h543zM98 740h49v-331h13q117 0 205.5 8t178.5 28l7 -44q-95 -19 -185 -27t-206 -8h-62v374zM700 -13v223h-450v-223h450zM430 621h269v175h48v-501h-48v286h-269v40z" />
    <glyph glyph-name="uniB119" unicode="&#xb119;" 
d="M147 750v-330h13q116 0 204.5 7.5t179.5 26.5l7 -43q-96 -19 -186 -26.5t-205 -7.5h-62v373h49zM203 289h47v-129h450v129h47v-343h-544v343zM700 -13v132h-450v-132h450zM430 630h269v166h48v-464h-48v255h-269v43z" />
    <glyph glyph-name="uniB11B" unicode="&#xb11b;" 
d="M146 732v-352h13q118 0 206 7.5t178 26.5l7 -43q-93 -19 -182 -26t-209 -7h-62v394h49zM290 21q70 34 116.5 87t46.5 119v44h47v-44q0 -65 45.5 -118t115 -87t141.5 -47l-22 -39q-100 22 -185.5 74.5t-118.5 129.5q-34 -79 -120 -131t-188 -74l-19 40q71 12 141 46z
M429 596h269v200h48v-600h-48v359h-269v41z" />
    <glyph glyph-name="uniB11C" unicode="&#xb11c;" 
d="M146 737v-336h13q120 0 207 7t176 26l8 -42q-94 -19 -183.5 -26.5t-207.5 -7.5h-62v379h49zM189 36q42 36 65.5 80t23.5 85v72h46v-72q0 -64 36 -123.5t100 -92.5q63 36 100.5 99t37.5 117v72h47v-72q0 -45 23 -89t64.5 -78.5t94.5 -52.5l-26 -37q-65 24 -112 70t-68 104
q-19 -57 -60 -106t-100 -76q-62 25 -103 72.5t-59 106.5q-23 -55 -70 -101t-108 -70l-25 37q51 19 93 55zM429 615h269v181h48v-507h-48v285h-269v41z" />
    <glyph glyph-name="uniB11D" unicode="&#xb11d;" 
d="M147 731v-332h13q120 0 207.5 7t176.5 26l7 -42q-94 -20 -183.5 -27.5t-207.5 -7.5h-62v376h49zM262 212q75 42 207 42q133 0 207.5 -42t74.5 -118q0 -75 -75 -117.5t-207 -42.5q-131 0 -206.5 42.5t-75.5 117.5q0 76 75 118zM298 7q64 -32 171 -32t171 32t64 87
t-64 87.5t-171 32.5t-171 -32.5t-64 -87.5t64 -87zM430 614h269v182h48v-540h-48v316h-269v42z" />
    <glyph glyph-name="uniB122" unicode="&#xb122;" 
d="M132 738v-355h13q113 0 202 7t183 25l8 -39q-100 -17 -190 -24t-203 -7h-61v393h48zM169 -14h136v219h-127v43h571v-43h-128v-219h139v-41h-591v41zM573 -14v219h-221v-219h221zM418 612h272v183h47v-509h-47v284h-272v42z" />
    <glyph glyph-name="uniB123" unicode="&#xb123;" 
d="M146 755v-302h14q118 0 206 7.5t177 26.5l9 -43q-96 -19 -186.5 -26.5t-205.5 -7.5h-63v345h49zM171 273h277v96h48v-96h275v-40h-600v40zM297 154.5q63 32.5 174 32.5t174.5 -33t63.5 -92q0 -61 -63.5 -94t-174.5 -33t-174 33t-63 94q0 60 63 92.5zM332 -3.5
q51 -23.5 139 -23.5q87 0 138 23.5t51 65.5q0 40 -51 63.5t-138 23.5t-138.5 -23.5t-51.5 -63.5q0 -42 51 -65.5zM429 647h269v149h48v-470h-48v281h-269v40z" />
    <glyph glyph-name="uniB124" unicode="&#xb124;" 
d="M141 696v-493h4q82 0 156.5 6t154.5 23l7 -43q-85 -16 -160.5 -22.5t-157.5 -6.5h-52v536h48zM332 494h211v277h47v-791h-47v472h-211v42zM726 796h47v-864h-47v864z" />
    <glyph glyph-name="uniB125" unicode="&#xb125;" 
d="M768 795v-503h-46v503h46zM95 734h49v-332h3q80 0 154.5 6t155.5 22l7 -42q-84 -17 -158 -22.5t-159 -5.5h-52v374zM197 246h571v-314h-47v271h-524v43zM347 610h205v166h46v-474h-46v266h-205v42z" />
    <glyph glyph-name="uniB128" unicode="&#xb128;" 
d="M768 795v-639h-46v639h46zM94 717h49v-351h4q165 0 309 27l8 -42q-85 -16 -160 -22t-157 -6h-53v394zM226 232h47v-236h528v-42h-575v278zM346 586h206v191h46v-596h-46v364h-206v41z" />
    <glyph glyph-name="uniB12B" unicode="&#xb12b;" 
d="M775 236v-43h-530v-209h538v-41h-587v293h579zM90 735h49v-338h4q95 0 166 6t147 23l5 -44q-79 -16 -151.5 -22t-166.5 -6h-53v381zM345 603h214v173h47v-492h-47v277h-214v42zM722 795h46v-516h-46v516z" />
    <glyph glyph-name="uniB12C" unicode="&#xb12c;" 
d="M768 795v-450h-46v450h46zM94 747h49v-308h3q80 0 154.5 6t156.5 21l7 -42q-85 -16 -160 -22t-158 -6h-52v351zM210 301h558v-190h-507v-127h544v-38h-593v205h510v110h-512v40zM346 631h205v145h46v-422h-46v236h-205v41z" />
    <glyph glyph-name="uniB134" unicode="&#xb134;" 
d="M768 257v-311h-551v311h551zM95 738h49v-327h3q82 0 155.5 6t154.5 22l6 -44q-86 -15 -160.5 -21t-155.5 -6h-52v370zM722 -13v230h-458v-230h458zM346 617h206v159h46v-464h-46v264h-206v41zM722 795h46v-493h-46v493z" />
    <glyph glyph-name="uniB135" unicode="&#xb135;" 
d="M768 795v-476h-46v476h46zM95 736h49v-329h3q80 0 154.5 6t155.5 22l8 -41q-86 -17 -160.5 -23t-157.5 -6h-52v371zM220 283h48v-120h454v120h46v-337h-548v337zM722 -13v134h-454v-134h454zM346 625h206v151h46v-449h-46v256h-206v42z" />
    <glyph glyph-name="uniB137" unicode="&#xb137;" 
d="M551 589v187h46v-489h-46v261h-204v41h204zM94 716h49v-346h3q80 0 154 6t156 22l6 -42q-85 -16 -160 -22t-156 -6h-52v388zM299.5 20.5q70.5 34.5 117.5 85.5t47 112v36h48v-36q0 -61 47 -112t117.5 -85.5t139.5 -46.5l-19 -38q-98 20 -187 73.5t-123 129.5
q-34 -76 -122 -129.5t-187 -73.5l-18 38q69 12 139.5 46.5zM721 795h46v-587h-46v587z" />
    <glyph glyph-name="uniB138" unicode="&#xb138;" 
d="M767 795v-513h-46v513h46zM94 736h49v-341h3q81 0 154.5 6t154.5 23l7 -43q-84 -16 -158 -21.5t-158 -5.5h-52v382zM197 36q42 36 66 80t24 85v58h46v-58q0 -64 36 -123.5t100 -92.5q63 36 100.5 98.5t37.5 117.5v58h46v-58q0 -45 23 -89t64.5 -78.5t94.5 -52.5l-24 -37
q-64 24 -112 70t-69 104q-19 -58 -60 -107t-100 -75q-62 25 -103 72.5t-59 106.5q-23 -55 -70.5 -101t-108.5 -70l-25 37q51 19 93 55zM345 600h206v176h46v-479h-46v262h-206v41z" />
    <glyph glyph-name="uniB139" unicode="&#xb139;" 
d="M768 795v-528h-46v528h46zM95 727h49v-340h3q82 0 155.5 5.5t154.5 21.5l6 -42q-85 -16 -159.5 -22t-156.5 -6h-52v383zM283.5 212.5q75.5 41.5 207.5 41.5q131 0 206.5 -41.5t75.5 -115.5t-75.5 -115.5t-206.5 -41.5q-133 0 -208 41t-75 116q0 74 75.5 115.5z
M319.5 11.5q64.5 -31.5 171.5 -31.5t170.5 31.5t63.5 85.5q0 53 -64 85t-170 32q-107 0 -171.5 -32t-64.5 -85q0 -54 64.5 -85.5zM346 593h206v183h46v-476h-46v253h-206v40z" />
    <glyph glyph-name="uniB140" unicode="&#xb140;" 
d="M747 796v-864h-48v409h-278v40h278v157h-278v41h278v217h48zM95 696h48v-512h14q114 0 203 7t180 26l6 -41q-95 -19 -185 -26.5t-204 -7.5h-62v554z" />
    <glyph glyph-name="uniB141" unicode="&#xb141;" 
d="M147 739v-375h12q117 0 203.5 7.5t175.5 26.5l8 -43q-94 -19 -182.5 -26.5t-204.5 -7.5h-61v418h49zM180 225h567v-293h-48v252h-519v41zM431 519h268v120h-268v40h268v117h48v-527h-48v209h-268v41z" />
    <glyph glyph-name="uniB144" unicode="&#xb144;" 
d="M746 795v-643h-48v310h-268v41h268v127h-268v41h268v124h48zM98 728h49v-392h13q99 0 190.5 7.5t191.5 25.5l7 -42q-103 -20 -194.5 -27t-194.5 -7h-62v435zM207 206h48v-210h517v-42h-565v252z" />
    <glyph glyph-name="uniB147" unicode="&#xb147;" 
d="M750 236v-43h-515v-209h523v-42h-573v294h565zM84 738h48v-357h13q113 0 201 7t181 25l8 -40q-99 -18 -187.5 -24.5t-202.5 -6.5h-61v396zM419 531h271v114h-271v40h271v110h48v-509h-48v203h-271v42z" />
    <glyph glyph-name="uniB148" unicode="&#xb148;" 
d="M147 752v-346h12q124 0 209 7t171 26l8 -43q-91 -18 -177 -24.5t-211 -6.5h-61v387h49zM201 287h545v-185h-495v-115h532v-41h-578v197h494v104h-498v40zM431 546h267v106h-267v40h267v104h48v-463h-48v172h-267v41z" />
    <glyph glyph-name="uniB150" unicode="&#xb150;" 
d="M147 749v-370h13q120 0 205 7t173 26l7 -42q-91 -19 -178.5 -26t-206.5 -7h-61v412h48zM205 245h542v-299h-542v299zM700 -13v217h-449v-217h449zM431 532h268v114h-268v40h268v110h48v-511h-48v207h-268v40z" />
    </font>
</defs>
</svg>
