<svg width="18" height="18" viewBox="0 0 18 18" fill="none" xmlns="http://www.w3.org/2000/svg">
<path d="M5.26458 16.4668H12.7313M8.99792 16.4668V11.1334M8.99792 11.1334C11.3543 11.1334 13.2646 9.2232 13.2646 6.86678V2.60011C13.2646 2.01101 12.787 1.53345 12.1979 1.53345H5.79792C5.20881 1.53345 4.73125 2.01101 4.73125 2.60011V6.86678C4.73125 9.2232 6.6415 11.1334 8.99792 11.1334ZM4.73125 3.66678H3.66458C2.48638 3.66678 1.53125 4.62191 1.53125 5.80011C1.53125 6.97832 2.48638 7.93345 3.66458 7.93345H4.73125M13.2646 3.66678H14.3313C15.5095 3.66678 16.4646 4.62191 16.4646 5.80011C16.4646 6.97832 15.5095 7.93345 14.3313 7.93345H13.2646" stroke="#DB5857" stroke-width="1.5"/>
</svg>
