<svg width="38" height="38" viewBox="0 0 38 38" fill="none" xmlns="http://www.w3.org/2000/svg">
<path d="M19 3.42438C24.0762 3.42438 24.6721 3.447 26.6785 3.53752C28.534 3.62048 29.5371 3.92973 30.2084 4.19373C31.0985 4.54069 31.7321 4.948 32.3958 5.61175C33.0596 6.27551 33.4744 6.90909 33.8139 7.79913C34.0703 8.47043 34.3871 9.4736 34.4701 11.3291C34.5606 13.3355 34.5832 13.9313 34.5832 19.0075C34.5832 24.0838 34.5606 24.6796 34.4701 26.686C34.3871 28.5415 34.0778 29.5447 33.8139 30.216C33.4669 31.106 33.0596 31.7396 32.3958 32.4033C31.7321 33.0671 31.0985 33.4819 30.2084 33.8214C29.5371 34.0778 28.534 34.3946 26.6785 34.4776C24.6721 34.5681 24.0762 34.5907 19 34.5907C13.9238 34.5907 13.3279 34.5681 11.3216 34.4776C9.46607 34.3946 8.46289 34.0854 7.79159 33.8214C6.90156 33.4744 6.26797 33.0671 5.60421 32.4033C4.94046 31.7396 4.52561 31.106 4.18619 30.216C3.92974 29.5447 3.61295 28.5415 3.52998 26.686C3.43946 24.6796 3.41684 24.0838 3.41684 19.0075C3.41684 13.9313 3.43946 13.3355 3.52998 11.3291C3.61295 9.4736 3.9222 8.47043 4.18619 7.79913C4.53315 6.90909 4.94046 6.27551 5.60421 5.61175C6.26797 4.948 6.90156 4.53315 7.79159 4.19373C8.46289 3.93728 9.46607 3.62048 11.3216 3.53752C13.3279 3.43946 13.9313 3.42438 19 3.42438ZM19 0C13.8408 0 13.1922 0.022628 11.1632 0.11314C9.14173 0.203652 7.76142 0.527987 6.55459 0.995633C5.30251 1.47836 4.24653 2.13458 3.19056 3.19055C2.13458 4.24653 1.48591 5.31004 0.995634 6.55459C0.527988 7.76141 0.203652 9.14172 0.11314 11.1707C0.022628 13.1921 0 13.8408 0 19C0 24.1592 0.022628 24.8079 0.11314 26.8368C0.203652 28.8583 0.527988 30.2386 0.995634 31.453C1.47837 32.705 2.13458 33.761 3.19056 34.817C4.24653 35.873 5.31005 36.5216 6.55459 37.0119C7.76142 37.4796 9.14173 37.8039 11.1707 37.8944C13.1997 37.9849 13.8408 38.0075 19.0076 38.0075C24.1743 38.0075 24.8154 37.9849 26.8444 37.8944C28.8659 37.8039 30.2462 37.4796 31.4605 37.0119C32.7126 36.5292 33.7686 35.873 34.8246 34.817C35.8805 33.761 36.5292 32.6975 37.0195 31.453C37.4871 30.2461 37.8115 28.8658 37.902 26.8368C37.9925 24.8079 38.0151 24.1667 38.0151 19C38.0151 13.8333 37.9925 13.1921 37.902 11.1632C37.8115 9.14172 37.4871 7.76141 37.0195 6.54704C36.5368 5.29496 35.8805 4.23898 34.8246 3.18301C33.7686 2.12703 32.7051 1.47836 31.4605 0.988091C30.2537 0.520445 28.8734 0.19611 26.8444 0.105597C24.8079 0.022628 24.1592 0 19 0Z" fill="#111111"/>
<path d="M19.0005 9.24805C13.615 9.24805 9.24023 13.6153 9.24023 19.0083C9.24023 24.4013 13.6074 28.7685 19.0005 28.7685C24.3935 28.7685 28.7607 24.4013 28.7607 19.0083C28.7607 13.6153 24.3935 9.24805 19.0005 9.24805ZM19.0005 25.3366C15.5007 25.3366 12.6646 22.5005 12.6646 19.0007C12.6646 15.5009 15.5007 12.6649 19.0005 12.6649C22.5003 12.6649 25.3363 15.5009 25.3363 19.0007C25.3363 22.5005 22.5003 25.3366 19.0005 25.3366Z" fill="#111111"/>
<path d="M29.1451 11.1339C30.4031 11.1339 31.423 10.1141 31.423 8.85601C31.423 7.59797 30.4031 6.57812 29.1451 6.57812C27.887 6.57812 26.8672 7.59797 26.8672 8.85601C26.8672 10.1141 27.887 11.1339 29.1451 11.1339Z" fill="#111111"/>
</svg>
