<svg width="24" height="24" viewBox="0 0 24 24" fill="none" xmlns="http://www.w3.org/2000/svg">
<path d="M12 24C18.6274 24 24 18.6274 24 12C24 5.37258 18.6274 0 12 0C5.37258 0 0 5.37258 0 12C0 18.6274 5.37258 24 12 24Z" fill="#4C4C4C"/>
<path d="M14.6068 13.034L14.9178 10.7709H12.9726V9.30291C12.9726 8.68377 13.2444 8.07961 14.1156 8.07961H15V6.15291C15 6.15291 14.1974 6 13.43 6C11.8279 6 10.7808 7.08384 10.7808 9.04602V10.7709H9V13.034H10.7808V18.5049C11.507 18.6317 12.2464 18.6317 12.9726 18.5049V13.034H14.6068Z" fill="#F2F2F2"/>
</svg>
