<svg width="20" height="20" viewBox="0 0 20 20" fill="none" xmlns="http://www.w3.org/2000/svg">
<path d="M10.0013 1.66797C14.6036 1.66797 18.3346 5.39893 18.3346 10.0013C18.3346 14.6036 14.6036 18.3346 10.0013 18.3346C5.39893 18.3346 1.66797 14.6036 1.66797 10.0013C1.66797 5.39893 5.39893 1.66797 10.0013 1.66797ZM10.0013 2.91797C6.08929 2.91797 2.91797 6.08929 2.91797 10.0013C2.91797 13.9133 6.08929 17.0846 10.0013 17.0846C13.9133 17.0846 17.0846 13.9133 17.0846 10.0013C17.0846 6.08929 13.9133 2.91797 10.0013 2.91797ZM12.8731 6.99884L12.9432 7.05936C13.1651 7.28125 13.1853 7.62847 13.0037 7.87314L12.9432 7.94324L10.8855 10.0013L12.9432 12.0594C13.1651 12.2812 13.1853 12.6285 13.0037 12.8731L12.9432 12.9432C12.7214 13.1651 12.3741 13.1853 12.1295 13.0037L12.0594 12.9432L10.0013 10.8855L7.94324 12.9432C7.72135 13.1651 7.37414 13.1853 7.12946 13.0037L7.05936 12.9432C6.83747 12.7214 6.8173 12.3741 6.99884 12.1295L7.05936 12.0594L9.11714 10.0013L7.05936 7.94324C6.83747 7.72135 6.8173 7.37414 6.99884 7.12946L7.05936 7.05936C7.28125 6.83747 7.62847 6.8173 7.87314 6.99884L7.94324 7.05936L10.0013 9.11714L12.0594 7.05936C12.2812 6.83747 12.6285 6.8173 12.8731 6.99884Z" fill="white"/>
</svg>
