<svg width="139" height="26" viewBox="0 0 139 26" fill="none" xmlns="http://www.w3.org/2000/svg">
<path d="M11.2068 8.33728H7.88281V6.69531H16.393V8.33728H13.0565V18.8499H11.2068V8.33728Z" fill="black"/>
<path d="M17.6719 6.68359H25.4312V8.4357H19.5241V11.8923H24.5752V13.5268H19.5241V17.0986H25.4312V18.8507H17.6719V6.68359Z" fill="black"/>
<path d="M35.366 15.4383C35.1664 16.4524 34.628 17.3686 33.8392 18.0365C33.052 18.6438 32.0799 18.962 31.0859 18.9375C30.2362 18.9481 29.4028 18.704 28.693 18.2367C28.1015 17.8714 27.6137 17.3603 27.2763 16.7524C27.1887 16.5697 27.1061 16.3945 27.026 16.2293C26.949 16.0184 26.8928 15.8004 26.8583 15.5785C26.7518 14.6439 26.7099 13.703 26.7332 12.7626C26.7091 11.8164 26.7509 10.8697 26.8583 9.92923C26.9213 9.52098 27.0596 9.128 27.2663 8.77034C27.6483 8.09427 28.2063 7.53433 28.8811 7.15002C29.5558 6.76571 30.3221 6.57139 31.0984 6.58772C32.1515 6.55678 33.1767 6.92924 33.9644 7.62897C34.6972 8.3077 35.1892 9.20649 35.366 10.1895H33.4162C33.2675 9.70325 32.9836 9.26922 32.5977 8.93804C32.1677 8.60704 31.6386 8.43067 31.0959 8.43744C30.7097 8.43613 30.3282 8.52167 29.9796 8.68774C29.6817 8.83902 29.4196 9.05239 29.2111 9.31349C28.9637 9.59723 28.7992 9.94362 28.7356 10.3147C28.6235 11.1239 28.5792 11.941 28.6029 12.7576C28.5785 13.5684 28.6229 14.3798 28.7356 15.183C28.7953 15.562 28.9601 15.9167 29.2111 16.2068C29.4435 16.4806 29.7321 16.7013 30.0573 16.8538C30.3825 17.0062 30.7368 17.0869 31.0959 17.0903C32.1288 17.0903 32.9014 16.538 33.4137 15.4333L35.366 15.4383Z" fill="black"/>
<path d="M43.3224 13.5268H38.5141V18.8357H36.6719V6.68359H38.5141V11.8923H43.3224V6.68359H45.1646V18.8357H43.3224V13.5268Z" fill="black"/>
<path d="M60.5727 14.7066H58.7881C58.2157 14.6873 57.6733 14.4464 57.2753 14.0347C56.8772 13.623 56.6547 13.0728 56.6547 12.5002C56.6547 11.9275 56.8772 11.3773 57.2753 10.9656C57.6733 10.5539 58.2157 10.313 58.7881 10.2938H65.0606V7.22007H58.8431C57.4632 7.24205 56.1469 7.80378 55.1763 8.78483C54.2057 9.76588 53.6581 11.0882 53.6509 12.4682C53.6437 13.8482 54.1775 15.1762 55.1378 16.1673C56.0981 17.1584 57.4085 17.7338 58.7881 17.7702H60.5727C60.8694 17.7602 61.165 17.8101 61.442 17.9167C61.719 18.0233 61.9718 18.1846 62.1852 18.391C62.3985 18.5973 62.5682 18.8445 62.6841 19.1177C62.8 19.391 62.8598 19.6848 62.8598 19.9816C62.8598 20.2785 62.8 20.5723 62.6841 20.8455C62.5682 21.1188 62.3985 21.366 62.1852 21.5723C61.9718 21.7786 61.719 21.9399 61.442 22.0466C61.165 22.1532 60.8694 22.203 60.5727 22.193H54.3552V23.8926H1.40418V1.61584H64.0294V4.33411H65.4185V0.261719H0V25.2617H60.5727C61.9525 25.2317 63.2657 24.6624 64.2309 23.676C65.1961 22.6895 65.7366 21.3643 65.7366 19.9841C65.7366 18.604 65.1961 17.2788 64.2309 16.2923C63.2657 15.3058 61.9525 14.7366 60.5727 14.7066Z" fill="#2262F6"/>
<path d="M104.11 7.22266H102.378C100.979 7.22266 99.6365 7.77856 98.647 8.76806C97.6574 9.75756 97.1016 11.0996 97.1016 12.499V25.1116H100.165V19.2796H106.32V25.1116H109.386V12.499C109.386 11.0996 108.83 9.75756 107.841 8.76806C106.851 7.77856 105.509 7.22266 104.11 7.22266ZM106.32 16.2134H100.165V12.499C100.166 11.922 100.393 11.3683 100.796 10.9559C101.2 10.5435 101.749 10.305 102.325 10.2913H104.11C104.687 10.2925 105.24 10.519 105.652 10.9226C106.064 11.3262 106.302 11.8748 106.315 12.4514V12.504L106.32 16.2134Z" fill="#2262F6"/>
<path d="M138.941 10.3293V7.26562H129.722H126.656V10.3293V14.7096V17.7732V22.0909V25.112V25.1546H138.941V22.0909H129.722V17.7732H136.728V14.7096H129.722V10.3293H138.941Z" fill="#2262F6"/>
<path d="M124.168 12.499C124.168 11.0996 123.612 9.75756 122.622 8.76806C121.633 7.77856 120.291 7.22266 118.891 7.22266H111.883V25.1116H114.949V17.7753H116.393L120.628 25.1116H124.168L119.877 17.6802C121.083 17.4503 122.172 16.8071 122.955 15.8614C123.738 14.9158 124.167 13.7268 124.168 12.499ZM118.944 14.7091H114.939V10.2863H118.881C119.458 10.2869 120.012 10.5132 120.424 10.9169C120.836 11.3206 121.074 11.8696 121.086 12.4464V12.499C121.086 13.0757 120.861 13.6295 120.457 14.0417C120.054 14.4539 119.505 14.6917 118.929 14.7041L118.944 14.7091Z" fill="#2262F6"/>
<path d="M79.8394 19.8353V12.499C79.8394 11.0996 79.2835 9.75756 78.294 8.76806C77.3045 7.77856 75.9625 7.22266 74.5631 7.22266H72.831C72.1381 7.22266 71.452 7.35913 70.8118 7.62429C70.1717 7.88945 69.59 8.27811 69.1001 8.76806C68.6101 9.25801 68.2215 9.83967 67.9563 10.4798C67.6912 11.12 67.5547 11.8061 67.5547 12.499V19.8353C67.5547 20.5282 67.6912 21.2143 67.9563 21.8545C68.2215 22.4946 68.6101 23.0763 69.1001 23.5662C69.59 24.0562 70.1717 24.4448 70.8118 24.71C71.452 24.9752 72.1381 25.1116 72.831 25.1116H81.2536V22.048H79.3588C79.6786 21.3543 79.8426 20.5991 79.8394 19.8353ZM76.7757 19.8353C76.7746 20.4123 76.5481 20.966 76.1446 21.3784C75.7411 21.7908 75.1925 22.0292 74.6157 22.0429H72.831C72.2545 22.0424 71.7011 21.8164 71.289 21.4133C70.8769 21.0101 70.6389 20.4617 70.6259 19.8854V12.499C70.6264 11.9222 70.8523 11.3685 71.2554 10.9561C71.6585 10.5436 72.2069 10.3051 72.7835 10.2913H74.5681C75.1451 10.2925 75.6988 10.519 76.1112 10.9225C76.5236 11.326 76.762 11.8746 76.7757 12.4514V12.504V19.8353Z" fill="#2262F6"/>
<path d="M91.5467 19.8353C91.5462 20.412 91.3203 20.9657 90.9172 21.3782C90.5141 21.7907 89.9657 22.0292 89.3891 22.0429H87.6045C87.0277 22.0425 86.474 21.8165 86.0615 21.4134C85.6491 21.0103 85.4105 20.4619 85.3968 19.8854V7.22266H82.3281V19.8353C82.3281 20.5282 82.4646 21.2143 82.7298 21.8545C82.9949 22.4946 83.3836 23.0763 83.8735 23.5662C84.3635 24.0562 84.9451 24.4448 85.5853 24.71C86.2255 24.9752 86.9116 25.1116 87.6045 25.1116H89.334C90.0271 25.112 90.7135 24.9757 91.354 24.7107C91.9944 24.4457 92.5764 24.0571 93.0666 23.5671C93.5568 23.0771 93.9457 22.4954 94.211 21.855C94.4763 21.2147 94.6129 20.5284 94.6129 19.8353V7.22266H91.5467V19.8353Z" fill="#2262F6"/>
</svg>
