<svg width="32" height="32" viewBox="0 0 32 32" fill="none" xmlns="http://www.w3.org/2000/svg">
<rect width="32" height="32" rx="16" fill="#111111"/>
<path d="M10 14.0013C10 13.2649 10.597 12.668 11.3333 12.668H11.9531C12.3989 12.668 12.8152 12.4452 13.0625 12.0742L13.6042 11.2617C13.8515 10.8908 14.2678 10.668 14.7136 10.668H17.2864C17.7322 10.668 18.1485 10.8908 18.3958 11.2617L18.9375 12.0742C19.1848 12.4452 19.6011 12.668 20.0469 12.668H20.6667C21.403 12.668 22 13.2649 22 14.0013V20.0013C22 20.7377 21.403 21.3346 20.6667 21.3346H11.3333C10.597 21.3346 10 20.7377 10 20.0013V14.0013Z" stroke="white" stroke-linecap="round" stroke-linejoin="round"/>
<path d="M18 16.668C18 17.7725 17.1046 18.668 16 18.668C14.8954 18.668 14 17.7725 14 16.668C14 15.5634 14.8954 14.668 16 14.668C17.1046 14.668 18 15.5634 18 16.668Z" stroke="white" stroke-linecap="round" stroke-linejoin="round"/>
</svg>
