<svg width="24" height="24" viewBox="0 0 24 24" fill="none" xmlns="http://www.w3.org/2000/svg">
<g clip-path="url(#clip0_4809_90564)">
<path d="M12 24C18.6274 24 24 18.6274 24 12C24 5.37258 18.6274 0 12 0C5.37258 0 0 5.37258 0 12C0 18.6274 5.37258 24 12 24Z" fill="#4C4C4C"/>
<path d="M11.9997 6.3804C13.8317 6.3804 14.0468 6.38856 14.7709 6.42123C15.4406 6.45117 15.8026 6.56278 16.0449 6.65806C16.3661 6.78328 16.5948 6.93027 16.8343 7.16982C17.0739 7.40938 17.2236 7.63804 17.3461 7.95925C17.4386 8.20153 17.553 8.56358 17.5829 9.23323C17.6156 9.95733 17.6237 10.1724 17.6237 12.0044C17.6237 13.8364 17.6156 14.0515 17.5829 14.7756C17.553 15.4452 17.4413 15.8073 17.3461 16.0495C17.2209 16.3708 17.0739 16.5994 16.8343 16.839C16.5948 17.0785 16.3661 17.2282 16.0449 17.3507C15.8026 17.4433 15.4406 17.5576 14.7709 17.5876C14.0468 17.6202 13.8317 17.6284 11.9997 17.6284C10.1677 17.6284 9.95265 17.6202 9.22856 17.5876C8.5589 17.5576 8.19685 17.446 7.95458 17.3507C7.63336 17.2255 7.4047 17.0785 7.16515 16.839C6.9256 16.5994 6.77588 16.3708 6.65338 16.0495C6.56083 15.8073 6.4465 15.4452 6.41655 14.7756C6.38389 14.0515 6.37572 13.8364 6.37572 12.0044C6.37572 10.1724 6.38389 9.95733 6.41655 9.23323C6.4465 8.56358 6.55811 8.20153 6.65338 7.95925C6.7786 7.63804 6.9256 7.40938 7.16515 7.16982C7.4047 6.93027 7.63336 6.78055 7.95458 6.65806C8.19685 6.5655 8.5589 6.45117 9.22856 6.42123C9.95265 6.38584 10.1704 6.3804 11.9997 6.3804ZM11.9997 5.14453C10.1378 5.14453 9.90366 5.1527 9.17139 5.18536C8.44185 5.21803 7.94369 5.33508 7.50814 5.50386C7.05626 5.67808 6.67516 5.9149 6.29406 6.29601C5.91295 6.67711 5.67885 7.06094 5.5019 7.5101C5.33313 7.94564 5.21608 8.4438 5.18341 9.17606C5.15074 9.9056 5.14258 10.1397 5.14258 12.0017C5.14258 13.8636 5.15074 14.0977 5.18341 14.83C5.21608 15.5595 5.33313 16.0577 5.5019 16.496C5.67612 16.9479 5.91295 17.329 6.29406 17.7101C6.67516 18.0912 7.05899 18.3253 7.50814 18.5022C7.94369 18.671 8.44185 18.788 9.17411 18.8207C9.90638 18.8534 10.1378 18.8615 12.0024 18.8615C13.8671 18.8615 14.0985 18.8534 14.8308 18.8207C15.5603 18.788 16.0585 18.671 16.4968 18.5022C16.9486 18.328 17.3297 18.0912 17.7108 17.7101C18.0919 17.329 18.3261 16.9451 18.503 16.496C18.6718 16.0604 18.7888 15.5623 18.8215 14.83C18.8542 14.0977 18.8623 13.8664 18.8623 12.0017C18.8623 10.137 18.8542 9.9056 18.8215 9.17334C18.7888 8.4438 18.6718 7.94564 18.503 7.50737C18.3288 7.05549 18.0919 6.67439 17.7108 6.29329C17.3297 5.91218 16.9459 5.67808 16.4968 5.50114C16.0612 5.33236 15.563 5.21531 14.8308 5.18264C14.0958 5.1527 13.8617 5.14453 11.9997 5.14453Z" fill="#F2F2F2"/>
<path d="M12 8.48047C10.0564 8.48047 8.47754 10.0566 8.47754 12.003C8.47754 13.9493 10.0537 15.5254 12 15.5254C13.9464 15.5254 15.5225 13.9493 15.5225 12.003C15.5225 10.0566 13.9464 8.48047 12 8.48047ZM12 14.2869C10.7369 14.2869 9.7134 13.2633 9.7134 12.0002C9.7134 10.7371 10.7369 9.71361 12 9.71361C13.2631 9.71361 14.2866 10.7371 14.2866 12.0002C14.2866 13.2633 13.2631 14.2869 12 14.2869Z" fill="#F2F2F2"/>
<path d="M15.661 9.16372C16.115 9.16372 16.4831 8.79566 16.4831 8.34163C16.4831 7.8876 16.115 7.51953 15.661 7.51953C15.2069 7.51953 14.8389 7.8876 14.8389 8.34163C14.8389 8.79566 15.2069 9.16372 15.661 9.16372Z" fill="#F2F2F2"/>
</g>
<defs>
<clipPath id="clip0_4809_90564">
<rect width="24" height="24" fill="white"/>
</clipPath>
</defs>
</svg>
