<svg width="20" height="19" viewBox="0 0 20 19" fill="none" xmlns="http://www.w3.org/2000/svg">
<path d="M12 7.5H16.7639C18.2507 7.5 19.2177 9.06463 18.5528 10.3944L15.0528 17.3944C14.714 18.072 14.0215 18.5 13.2639 18.5H9.24621C9.08269 18.5 8.91978 18.4799 8.76114 18.4403L5 17.5M12 7.5V2.5C12 1.39543 11.1046 0.5 10 0.5H9.90453C9.40497 0.5 9 0.90497 9 1.40453C9 2.11883 8.78857 2.81715 8.39234 3.41149L5 8.5V17.5M12 7.5H10M5 17.5H3C1.89543 17.5 1 16.6046 1 15.5V9.5C1 8.39543 1.89543 7.5 3 7.5H5.5" stroke="white" stroke-linecap="round" stroke-linejoin="round"/>
</svg>
