<svg width="20" height="19" viewBox="0 0 20 19" fill="none" xmlns="http://www.w3.org/2000/svg">
<path d="M6.68387 8.15807C6.88616 8.56185 7 9.01763 7 9.5C7 9.98237 6.88616 10.4381 6.68387 10.8419M6.68387 8.15807C6.19134 7.17492 5.17449 6.5 4 6.5C2.34315 6.5 1 7.84315 1 9.5C1 11.1569 2.34315 12.5 4 12.5C5.17449 12.5 6.19134 11.8251 6.68387 10.8419M6.68387 8.15807L13.3161 4.84193M6.68387 10.8419L13.3161 14.1581M13.3161 14.1581C13.8087 13.1749 14.8255 12.5 16 12.5C17.6569 12.5 19 13.8431 19 15.5C19 17.1569 17.6569 18.5 16 18.5C14.3431 18.5 13 17.1569 13 15.5C13 15.0176 13.1138 14.5619 13.3161 14.1581ZM13.3161 4.84193C13.1138 4.43815 13 3.98237 13 3.5C13 1.84315 14.3431 0.5 16 0.5C17.6569 0.5 19 1.84315 19 3.5C19 5.15685 17.6569 6.5 16 6.5C14.8255 6.5 13.8087 5.82508 13.3161 4.84193Z" stroke="white" stroke-linecap="round" stroke-linejoin="round"/>
</svg>
