<svg width="20" height="20" viewBox="0 0 20 20" fill="none" xmlns="http://www.w3.org/2000/svg">
<path d="M10.0003 1.66797C14.6027 1.66797 18.3337 5.39893 18.3337 10.0013C18.3337 14.6036 14.6027 18.3346 10.0003 18.3346C5.39795 18.3346 1.66699 14.6036 1.66699 10.0013C1.66699 5.39893 5.39795 1.66797 10.0003 1.66797ZM10.0003 2.91797C6.08831 2.91797 2.91699 6.08929 2.91699 10.0013C2.91699 13.9133 6.08831 17.0846 10.0003 17.0846C13.9123 17.0846 17.0837 13.9133 17.0837 10.0013C17.0837 6.08929 13.9123 2.91797 10.0003 2.91797ZM12.8722 6.99884L12.9422 7.05936C13.1642 7.28125 13.1843 7.62847 13.0027 7.87314L12.9422 7.94324L10.8845 10.0013L12.9422 12.0594C13.1642 12.2812 13.1843 12.6285 13.0027 12.8731L12.9422 12.9432C12.7204 13.1651 12.3732 13.1853 12.1285 13.0037L12.0584 12.9432L10.0003 10.8855L7.94227 12.9432C7.72038 13.1651 7.37316 13.1853 7.12848 13.0037L7.05838 12.9432C6.83649 12.7214 6.81633 12.3741 6.99787 12.1295L7.05838 12.0594L9.11616 10.0013L7.05838 7.94324C6.83649 7.72135 6.81633 7.37414 6.99787 7.12946L7.05838 7.05936C7.28028 6.83747 7.62749 6.8173 7.87217 6.99884L7.94227 7.05936L10.0003 9.11714L12.0584 7.05936C12.2802 6.83747 12.6275 6.8173 12.8722 6.99884Z" fill="white"/>
</svg>
