<svg width="29" height="28" viewBox="0 0 29 28" fill="none" xmlns="http://www.w3.org/2000/svg">
<path d="M10.5 15.5C11.3284 15.5 12 14.8284 12 14C12 13.1716 11.3284 12.5 10.5 12.5C9.67157 12.5 9 13.1716 9 14C9 14.8284 9.67157 15.5 10.5 15.5Z" fill="white"/>
<path d="M14.5 15.5C15.3284 15.5 16 14.8284 16 14C16 13.1716 15.3284 12.5 14.5 12.5C13.6716 12.5 13 13.1716 13 14C13 14.8284 13.6716 15.5 14.5 15.5Z" fill="white"/>
<path d="M18.5 15.5C19.3284 15.5 20 14.8284 20 14C20 13.1716 19.3284 12.5 18.5 12.5C17.6716 12.5 17 13.1716 17 14C17 14.8284 17.6716 15.5 18.5 15.5Z" fill="white"/>
<rect x="1" y="0.5" width="27" height="27" rx="13.5" stroke="white"/>
</svg>
