<svg width="10" height="12" viewBox="0 0 10 12" fill="none" xmlns="http://www.w3.org/2000/svg">
<path d="M0.100098 7.3999V9.4999C0.100098 10.6597 2.2939 11.5999 5.0001 11.5999C7.70629 11.5999 9.9001 10.6597 9.9001 9.4999V7.3999C9.9001 8.5597 7.70629 9.4999 5.0001 9.4999C2.2939 9.4999 0.100098 8.5597 0.100098 7.3999Z" fill="#6666D1"/>
<path d="M0.100098 3.8999V5.9999C0.100098 7.1597 2.2939 8.0999 5.0001 8.0999C7.70629 8.0999 9.9001 7.1597 9.9001 5.9999V3.8999C9.9001 5.0597 7.70629 5.9999 5.0001 5.9999C2.2939 5.9999 0.100098 5.0597 0.100098 3.8999Z" fill="#6666D1"/>
<path d="M9.9001 2.4999C9.9001 3.6597 7.70629 4.5999 5.0001 4.5999C2.2939 4.5999 0.100098 3.6597 0.100098 2.4999C0.100098 1.3401 2.2939 0.399902 5.0001 0.399902C7.70629 0.399902 9.9001 1.3401 9.9001 2.4999Z" fill="#6666D1"/>
</svg>
