<svg width="20" height="20" viewBox="0 0 20 20" fill="none" xmlns="http://www.w3.org/2000/svg">
<rect width="20" height="20" rx="10" fill="#4C4C4C"/>
<path d="M9.144 12.3453C9.144 11.7196 9.24 11.2147 9.432 10.8307C9.63111 10.4467 9.91556 10.116 10.2853 9.83867L10.456 9.71067C10.7262 9.51156 10.9182 9.34444 11.032 9.20933C11.1529 9.07422 11.2133 8.90711 11.2133 8.708C11.2133 8.31689 11.0889 8.01111 10.84 7.79067C10.5911 7.56311 10.2604 7.44933 9.848 7.44933C9.57067 7.44933 9.32533 7.53822 9.112 7.716C8.90578 7.89378 8.75644 8.15689 8.664 8.50533L7.384 8.18533C7.49067 7.77289 7.66844 7.41022 7.91733 7.09733C8.17333 6.78444 8.472 6.54622 8.81333 6.38267C9.15467 6.212 9.49956 6.12667 9.848 6.12667C10.3102 6.12667 10.7476 6.24044 11.16 6.468C11.5724 6.68844 11.9031 6.99422 12.152 7.38533C12.408 7.77644 12.536 8.21733 12.536 8.708C12.536 9.11333 12.3796 9.51511 12.0667 9.91333C11.7609 10.3044 11.4302 10.6351 11.0747 10.9053C10.9111 11.0262 10.7867 11.14 10.7013 11.2467C10.616 11.3533 10.5556 11.492 10.52 11.6627C10.4844 11.8262 10.4667 12.0538 10.4667 12.3453H9.144ZM9.08 14.0733C9.08 13.8671 9.144 13.6964 9.272 13.5613C9.4 13.4262 9.57778 13.3587 9.80533 13.3587C10.0329 13.3587 10.2071 13.4262 10.328 13.5613C10.456 13.6964 10.52 13.8671 10.52 14.0733C10.52 14.2867 10.456 14.4609 10.328 14.596C10.2071 14.7311 10.0329 14.7987 9.80533 14.7987C9.57778 14.7987 9.4 14.7311 9.272 14.596C9.144 14.4609 9.08 14.2867 9.08 14.0733Z" fill="white"/>
</svg>
