<svg width="24" height="25" viewBox="0 0 24 25" fill="none" xmlns="http://www.w3.org/2000/svg">
<path fill-rule="evenodd" clip-rule="evenodd" d="M12 24.5C18.6274 24.5 24 19.1274 24 12.5C24 5.87258 18.6274 0.5 12 0.5C5.37258 0.5 0 5.87258 0 12.5C0 19.1274 5.37258 24.5 12 24.5ZM17.5607 11.4393L13.0607 6.93934C12.4749 6.35355 11.5251 6.35355 10.9393 6.93934C10.3536 7.52513 10.3536 8.47487 10.9393 9.06066L12.8787 11L7.5 11C6.67157 11 6 11.6716 6 12.5C6 13.3284 6.67157 14 7.5 14H12.8787L10.9393 15.9393C10.3536 16.5251 10.3536 17.4749 10.9393 18.0607C11.5251 18.6464 12.4749 18.6464 13.0607 18.0607L17.5607 13.5607C18.1464 12.9749 18.1464 12.0251 17.5607 11.4393Z" fill="white"/>
</svg>
