<svg width="20" height="20" viewBox="0 0 20 20" fill="none" xmlns="http://www.w3.org/2000/svg">
<path fill-rule="evenodd" clip-rule="evenodd" d="M7.60039 2.67979C4.94942 2.67979 2.80039 4.82882 2.80039 7.47979C2.80039 10.1308 4.94942 12.2798 7.60039 12.2798C10.2514 12.2798 12.4004 10.1308 12.4004 7.47979C12.4004 4.82882 10.2514 2.67979 7.60039 2.67979ZM0.400391 7.47979C0.400391 3.50334 3.62394 0.279785 7.60039 0.279785C11.5768 0.279785 14.8004 3.50334 14.8004 7.47979C14.8004 9.03478 14.3074 10.4746 13.4693 11.6516L19.2489 17.4313C19.7175 17.8999 19.7175 18.6597 19.2489 19.1283C18.7803 19.5969 18.0205 19.5969 17.5519 19.1283L11.7722 13.3487C10.5953 14.1868 9.15539 14.6798 7.60039 14.6798C3.62394 14.6798 0.400391 11.4562 0.400391 7.47979Z" fill="white"/>
</svg>
