<svg width="14" height="14" viewBox="0 0 14 14" fill="none" xmlns="http://www.w3.org/2000/svg">
<path d="M7.48821 0.818738L9.07329 4.18094C9.151 4.34993 9.30396 4.46806 9.48194 4.49655L13.0298 5.0376C13.1738 5.05832 13.3038 5.13801 13.391 5.25897C13.4782 5.37993 13.5154 5.53212 13.4942 5.6817C13.4763 5.80465 13.4197 5.91795 13.3332 6.00375L10.7636 8.63167C10.6338 8.76119 10.5755 8.95016 10.6088 9.13407L11.228 12.8376C11.2728 13.1428 11.0746 13.4292 10.7822 13.4818C10.6616 13.5014 10.5382 13.4811 10.4293 13.4238L7.26531 11.6783C7.10725 11.5877 6.91564 11.5877 6.75759 11.6783L3.57504 13.4367C3.30803 13.5792 2.98047 13.4732 2.83823 13.1983C2.78277 13.0875 2.76322 12.961 2.7825 12.8376L3.40167 9.13407C3.43162 8.95039 3.37389 8.76302 3.24688 8.63167L0.658743 6.00375C0.447086 5.78053 0.447086 5.42184 0.658743 5.19862C0.745125 5.11542 0.852517 5.05956 0.968329 5.0376L4.51618 4.49655C4.69333 4.46598 4.84546 4.34849 4.92484 4.18094L6.50992 0.818738C6.57255 0.682411 6.68545 0.578171 6.82301 0.529663C6.96057 0.481155 7.11113 0.492491 7.24054 0.561098C7.34731 0.617427 7.43406 0.707668 7.48821 0.818738Z" fill="#C32D2C" stroke="#C32D2C" stroke-linecap="round" stroke-linejoin="round"/>
</svg>
