<svg width="24" height="24" viewBox="0 0 24 24" fill="none" xmlns="http://www.w3.org/2000/svg">
<g clip-path="url(#clip0_4809_90570)">
<path d="M12 24C18.6274 24 24 18.6274 24 12C24 5.37258 18.6274 0 12 0C5.37258 0 0 5.37258 0 12C0 18.6274 5.37258 24 12 24Z" fill="#4C4C4C"/>
<path d="M10.3734 16.8008C14.9017 16.8008 17.3785 13.3379 17.3785 10.3349C17.3785 10.2366 17.3785 10.1387 17.3713 10.0412C17.8531 9.7195 18.2691 9.32118 18.5996 8.8649C18.1503 9.04876 17.6736 9.16929 17.1855 9.22244C17.6995 8.93846 18.0842 8.49177 18.2679 7.96551C17.7847 8.23023 17.2559 8.41678 16.7046 8.5171C16.3334 8.15278 15.8424 7.91153 15.3077 7.83069C14.773 7.74986 14.2243 7.83394 13.7466 8.06992C13.2689 8.30591 12.8887 8.68065 12.665 9.13615C12.4412 9.59164 12.3864 10.1025 12.5089 10.5897C11.5301 10.5444 10.5725 10.3096 9.69834 9.90052C8.82419 9.49148 8.05299 8.91735 7.43481 8.21539C7.11997 8.71566 7.02355 9.30788 7.16516 9.87147C7.30677 10.4351 7.67578 10.9277 8.19705 11.2489C7.80523 11.2383 7.42193 11.1408 7.07961 10.9645V10.9933C7.07976 11.518 7.27653 12.0264 7.63654 12.4325C7.99655 12.8385 8.49764 13.1171 9.05481 13.2209C8.69235 13.3122 8.31205 13.3255 7.94313 13.2599C8.10052 13.7114 8.40682 14.1063 8.81923 14.3892C9.23163 14.6722 9.72952 14.8291 10.2433 14.8381C9.73283 15.2084 9.14827 15.4822 8.52305 15.6439C7.89783 15.8055 7.24422 15.8518 6.59961 15.78C7.72553 16.4469 9.03557 16.8006 10.3734 16.799" fill="#F2F2F2"/>
</g>
<defs>
<clipPath id="clip0_4809_90570">
<rect width="24" height="24" fill="white"/>
</clipPath>
</defs>
</svg>
