<svg width="69" height="70" viewBox="0 0 69 70" fill="none" xmlns="http://www.w3.org/2000/svg">
<circle cx="34.4999" cy="34.9999" r="33.5624" stroke="white"/>
<path d="M35.5 44H26.1C25.9409 44 25.7883 43.9368 25.6757 43.8243C25.5632 43.7117 25.5 43.5591 25.5 43.4V26.6C25.5 26.4409 25.5632 26.2883 25.6757 26.1757C25.7883 26.0632 25.9409 26 26.1 26H42.9C43.0591 26 43.2117 26.0632 43.3243 26.1757C43.4368 26.2883 43.5 26.4409 43.5 26.6V36" stroke="white" stroke-linecap="round" stroke-linejoin="round"/>
<path d="M25.5 39L32.5 36L38 38.5M38.5 42H41.5M44.5 42H41.5M41.5 42V39M41.5 42V45M38.5 33C37.9696 33 37.4609 32.7893 37.0858 32.4142C36.7107 32.0391 36.5 31.5304 36.5 31C36.5 30.4696 36.7107 29.9609 37.0858 29.5858C37.4609 29.2107 37.9696 29 38.5 29C39.0304 29 39.5391 29.2107 39.9142 29.5858C40.2893 29.9609 40.5 30.4696 40.5 31C40.5 31.5304 40.2893 32.0391 39.9142 32.4142C39.5391 32.7893 39.0304 33 38.5 33V33Z" stroke="white" stroke-linecap="round" stroke-linejoin="round"/>
</svg>
