<svg width="20" height="20" viewBox="0 0 20 20" fill="none" xmlns="http://www.w3.org/2000/svg">
<path d="M9.04896 1.92664C9.34833 1.00537 10.6517 1.00538 10.951 1.92664L12.4699 6.60055C12.6038 7.01254 12.9877 7.29148 13.4209 7.29149L18.3354 7.29168C19.3041 7.29172 19.7068 8.53127 18.9232 9.10067L14.9474 11.9895C14.5969 12.2441 14.4503 12.6955 14.5841 13.1075L16.1026 17.7815C16.4019 18.7028 15.3475 19.4689 14.5638 18.8995L10.5878 16.011C10.2373 15.7564 9.76272 15.7564 9.41225 16.011L5.43622 18.8995C4.65252 19.4689 3.5981 18.7028 3.8974 17.7815L5.41589 13.1075C5.54974 12.6955 5.40309 12.2441 5.05263 11.9895L1.07683 9.10067C0.293169 8.53127 0.695924 7.29172 1.66461 7.29168L6.57911 7.29149C7.01231 7.29148 7.39623 7.01254 7.53011 6.60055L9.04896 1.92664Z" stroke="white"/>
</svg>
