<svg width="24" height="24" viewBox="0 0 24 24" fill="none" xmlns="http://www.w3.org/2000/svg">
<g clip-path="url(#clip0_4809_90557)">
<path d="M12 24C18.6274 24 24 18.6274 24 12C24 5.37258 18.6274 0 12 0C5.37258 0 0 5.37258 0 12C0 18.6274 5.37258 24 12 24Z" fill="#4C4C4C"/>
<path d="M17.7491 9.11227C17.6812 8.85862 17.5475 8.62713 17.3614 8.44095C17.1752 8.25478 16.943 8.12046 16.6882 8.05143C15.75 7.80078 12 7.80078 12 7.80078C12 7.80078 8.25 7.80078 7.31182 8.05143C7.05697 8.12046 6.82483 8.25478 6.63864 8.44095C6.45246 8.62713 6.31875 8.85862 6.25091 9.11227C6 10.0485 6 12.0008 6 12.0008C6 12.0008 6 13.9531 6.25091 14.8893C6.31875 15.1429 6.45246 15.3744 6.63864 15.5606C6.82483 15.7468 7.05697 15.8811 7.31182 15.9501C8.25 16.2008 12 16.2008 12 16.2008C12 16.2008 15.75 16.2008 16.6882 15.9501C16.943 15.8811 17.1752 15.7468 17.3614 15.5606C17.5475 15.3744 17.6812 15.1429 17.7491 14.8893C18 13.9531 18 12.0008 18 12.0008C18 12.0008 18 10.0485 17.7491 9.11227Z" fill="#F2F2F2"/>
<path d="M10.7998 13.7992V10.1992L14.3998 11.9992L10.7998 13.7992Z" fill="#4C4C4C"/>
</g>
<defs>
<clipPath id="clip0_4809_90557">
<rect width="24" height="24" fill="white"/>
</clipPath>
</defs>
</svg>
