<svg width="12" height="12" viewBox="0 0 12 12" fill="none" xmlns="http://www.w3.org/2000/svg">
<path d="M7.05661 6.00002L11.3016 1.75502C11.3801 1.68779 11.4439 1.60505 11.4889 1.512C11.5339 1.41895 11.5592 1.3176 11.5632 1.21431C11.5672 1.11102 11.5498 1.00802 11.5121 0.911779C11.4744 0.815536 11.4172 0.728124 11.3441 0.655033C11.271 0.581942 11.1836 0.524749 11.0874 0.487043C10.9911 0.449337 10.8881 0.431933 10.7848 0.435923C10.6815 0.439912 10.5802 0.46521 10.4871 0.510227C10.3941 0.555244 10.3113 0.61901 10.2441 0.697522L5.99911 4.94252L1.75411 0.697522C1.61063 0.574652 1.42608 0.510447 1.23732 0.517738C1.04856 0.525029 0.869509 0.603278 0.735938 0.736849C0.602367 0.87042 0.524118 1.04947 0.516827 1.23823C0.509536 1.42699 0.573741 1.61155 0.696611 1.75502L4.94161 6.00002L0.696611 10.245C0.556922 10.3855 0.478516 10.5756 0.478516 10.7738C0.478516 10.9719 0.556922 11.162 0.696611 11.3025C0.837133 11.4422 1.02722 11.5206 1.22536 11.5206C1.4235 11.5206 1.61359 11.4422 1.75411 11.3025L5.99911 7.05752L10.2441 11.3025C10.3846 11.4422 10.5747 11.5206 10.7729 11.5206C10.971 11.5206 11.1611 11.4422 11.3016 11.3025C11.4413 11.162 11.5197 10.9719 11.5197 10.7738C11.5197 10.5756 11.4413 10.3855 11.3016 10.245L7.05661 6.00002Z" fill="#333333"/>
</svg>
