<svg width="20" height="19" viewBox="0 0 20 19" fill="none" xmlns="http://www.w3.org/2000/svg">
<path d="M6.68387 10.8419C6.88616 10.4381 7 9.98237 7 9.5C7 9.01763 6.88616 8.56185 6.68387 8.15807M6.68387 10.8419C6.19134 11.8251 5.17449 12.5 4 12.5C2.34315 12.5 1 11.1569 1 9.5C1 7.84315 2.34315 6.5 4 6.5C5.17449 6.5 6.19134 7.17492 6.68387 8.15807M6.68387 10.8419L13.3161 14.1581M6.68387 8.15807L13.3161 4.84193M13.3161 4.84193C13.8087 5.82508 14.8255 6.5 16 6.5C17.6569 6.5 19 5.15685 19 3.5C19 1.84315 17.6569 0.5 16 0.5C14.3431 0.5 13 1.84315 13 3.5C13 3.98237 13.1138 4.43815 13.3161 4.84193ZM13.3161 14.1581C13.1138 14.5619 13 15.0176 13 15.5C13 17.1569 14.3431 18.5 16 18.5C17.6569 18.5 19 17.1569 19 15.5C19 13.8431 17.6569 12.5 16 12.5C14.8255 12.5 13.8087 13.1749 13.3161 14.1581Z" stroke="#111111" stroke-linecap="round" stroke-linejoin="round"/>
</svg>
