<svg width="14" height="14" viewBox="0 0 14 14" fill="none" xmlns="http://www.w3.org/2000/svg">
<path d="M13.2997 0.70875C12.9097 0.31875 12.2797 0.31875 11.8897 0.70875L6.99973 5.58875L2.10973 0.69875C1.71973 0.30875 1.08973 0.30875 0.699727 0.69875C0.309727 1.08875 0.309727 1.71875 0.699727 2.10875L5.58973 6.99875L0.699727 11.8887C0.309727 12.2787 0.309727 12.9087 0.699727 13.2987C1.08973 13.6887 1.71973 13.6887 2.10973 13.2987L6.99973 8.40875L11.8897 13.2987C12.2797 13.6887 12.9097 13.6887 13.2997 13.2987C13.6897 12.9087 13.6897 12.2787 13.2997 11.8887L8.40973 6.99875L13.2997 2.10875C13.6797 1.72875 13.6797 1.08875 13.2997 0.70875Z" fill="white"/>
</svg>
