<svg width="18" height="18" viewBox="0 0 18 18" fill="none" xmlns="http://www.w3.org/2000/svg">
<path fill-rule="evenodd" clip-rule="evenodd" d="M8.69324 16.3008C12.8942 16.3008 16.2998 12.8952 16.2998 8.69421C16.2998 4.49321 12.8942 1.08763 8.69324 1.08763C4.49224 1.08763 1.08665 4.49321 1.08665 8.69421C1.08665 12.8952 4.49224 16.3008 8.69324 16.3008ZM8.69324 17.3874C13.4944 17.3874 17.3865 13.4954 17.3865 8.69421C17.3865 3.89307 13.4944 0.000976562 8.69324 0.000976562C3.89209 0.000976562 0 3.89307 0 8.69421C0 13.4954 3.89209 17.3874 8.69324 17.3874Z" fill="#FAFAFA"/>
<path d="M9.22191 6.49939C9.32396 6.40223 9.45976 6.34852 9.60066 6.34959C9.74155 6.35066 9.87653 6.40642 9.97709 6.5051C10.0777 6.60379 10.136 6.73769 10.1397 6.87854C10.1434 7.01939 10.0923 7.15618 9.99705 7.26005L7.10655 10.875C7.05685 10.9285 6.99686 10.9715 6.93018 11.0013C6.86349 11.0311 6.79148 11.0472 6.71844 11.0485C6.6454 11.0499 6.57284 11.0365 6.5051 11.0092C6.43735 10.9818 6.37581 10.9411 6.32416 10.8895L4.4073 8.97262C4.35392 8.92287 4.31111 8.86289 4.28141 8.79624C4.25171 8.7296 4.23575 8.65765 4.23446 8.5847C4.23317 8.51174 4.24659 8.43928 4.27392 8.37162C4.30125 8.30397 4.34192 8.24251 4.39351 8.19092C4.44511 8.13933 4.50656 8.09865 4.57422 8.07133C4.64187 8.044 4.71433 8.03058 4.78729 8.03187C4.86024 8.03316 4.93219 8.04912 4.99883 8.07882C5.06548 8.10852 5.12547 8.15133 5.17521 8.20471L6.69218 9.72096L9.20742 6.51533C9.21193 6.50973 9.21677 6.50441 9.22191 6.49939ZM8.55543 10.223L9.22191 10.8895C9.27355 10.941 9.33504 10.9816 9.40272 11.0089C9.47039 11.0362 9.54287 11.0495 9.61582 11.0482C9.68877 11.0468 9.7607 11.0308 9.82732 11.001C9.89394 10.9713 9.95388 10.9284 10.0036 10.875L12.8955 7.26005C12.9475 7.20876 12.9886 7.14753 13.0163 7.08001C13.0441 7.01249 13.0579 6.94007 13.0571 6.86707C13.0562 6.79407 13.0407 6.722 13.0114 6.65514C12.982 6.58829 12.9395 6.52803 12.8864 6.47797C12.8333 6.4279 12.7706 6.38906 12.7021 6.36376C12.6336 6.33845 12.5608 6.32721 12.4878 6.3307C12.4149 6.33419 12.3435 6.35233 12.2777 6.38405C12.212 6.41578 12.1533 6.46042 12.1052 6.51533L9.5892 9.72096L9.23784 9.36888L8.5547 10.223H8.55543Z" fill="#FAFAFA"/>
</svg>
