<svg width="69" height="70" viewBox="0 0 69 70" fill="none" xmlns="http://www.w3.org/2000/svg">
<circle cx="34.4999" cy="34.9999" r="33.0624" stroke="white" stroke-width="2"/>
<path d="M41.7075 27.7911L41.7076 27.7912C42.3745 28.4581 42.6336 29.0162 42.7348 29.3775C42.7795 29.5368 42.7947 29.6625 42.7989 29.7479L36.8837 35.6631L36.8836 35.6631L31.1109 41.4334C31.0866 41.317 31.0477 41.172 30.9854 41.0055C30.8321 40.5959 30.5401 40.064 29.9886 39.513C29.4368 38.9612 28.905 38.6693 28.4956 38.5161C28.3269 38.453 28.1803 38.414 28.0633 38.3898L33.8377 32.6163L33.8377 32.6162L39.7534 26.7006C39.8386 26.7048 39.964 26.72 40.123 26.7645C40.4841 26.8657 41.0417 27.1248 41.7075 27.7911ZM30.6512 41.7477C30.7066 41.7465 30.7558 41.7454 30.7996 41.7445L30.7996 41.7445L30.6512 41.7477ZM27.5158 41.9903C27.7506 42.221 27.9484 42.4864 28.1025 42.7772L26.3489 43.149L26.7208 41.3954C27.0122 41.5504 27.2782 41.749 27.5097 41.9843L27.5097 41.9844L27.5158 41.9903ZM27.7542 38.8507L27.7574 38.6957L27.7574 38.6957C27.7564 38.7411 27.7554 38.7925 27.7542 38.8507Z" stroke="white"/>
</svg>
