<svg width="32" height="32" viewBox="0 0 32 32" fill="none" xmlns="http://www.w3.org/2000/svg">
<rect width="32" height="32" rx="16" fill="#1877F2"/>
<path d="M10.6665 18.668L13.7237 15.6108C14.2444 15.0901 15.0886 15.0901 15.6093 15.6108L18.6665 18.668M17.3332 17.3346L18.3904 16.2774C18.9111 15.7567 19.7553 15.7567 20.276 16.2774L21.3332 17.3346M17.3332 13.3346H17.3398M11.9998 21.3346H19.9998C20.7362 21.3346 21.3332 20.7377 21.3332 20.0013V12.0013C21.3332 11.2649 20.7362 10.668 19.9998 10.668H11.9998C11.2635 10.668 10.6665 11.2649 10.6665 12.0013V20.0013C10.6665 20.7377 11.2635 21.3346 11.9998 21.3346Z" stroke="white" stroke-linecap="round" stroke-linejoin="round"/>
</svg>
