<svg width="20" height="20" viewBox="0 0 20 20" fill="none" xmlns="http://www.w3.org/2000/svg">
<path d="M12 8H16.7639C18.2507 8 19.2177 9.56463 18.5528 10.8944L15.0528 17.8944C14.714 18.572 14.0215 19 13.2639 19H9.24621C9.08269 19 8.91978 18.9799 8.76114 18.9403L5 18M12 8V3C12 1.89543 11.1046 1 10 1H9.90453C9.40497 1 9 1.40497 9 1.90453C9 2.61883 8.78857 3.31715 8.39234 3.91149L5 9V18M12 8H10M5 18H3C1.89543 18 1 17.1046 1 16V10C1 8.89543 1.89543 8 3 8H5.5" stroke="#C32D2C" stroke-linecap="round" stroke-linejoin="round"/>
</svg>
