<svg width="16" height="17" viewBox="0 0 16 17" fill="none" xmlns="http://www.w3.org/2000/svg">
<path d="M2.22566 1.31096C1.83514 0.920435 1.20197 0.920435 0.811448 1.31096C0.420924 1.70148 0.420924 2.33465 0.811448 2.72517L6.58618 8.49991L0.811508 14.2746C0.420984 14.6651 0.420983 15.2983 0.811508 15.6888C1.20203 16.0793 1.8352 16.0793 2.22572 15.6888L8.0004 9.91412L13.7751 15.6888C14.1656 16.0793 14.7988 16.0793 15.1893 15.6888C15.5798 15.2983 15.5798 14.6651 15.1893 14.2746L9.41461 8.49991L15.1893 2.72517C15.5799 2.33465 15.5799 1.70148 15.1893 1.31096C14.7988 0.920435 14.1657 0.920435 13.7751 1.31096L8.0004 7.08569L2.22566 1.31096Z" fill="#C32D2C"/>
</svg>
