<svg width="14" height="15" viewBox="0 0 14 15" fill="none" xmlns="http://www.w3.org/2000/svg">
<path d="M7.48821 1.31874L9.07329 4.68094C9.151 4.84993 9.30396 4.96806 9.48194 4.99655L13.0298 5.5376C13.1738 5.55832 13.3038 5.63801 13.391 5.75897C13.4782 5.87993 13.5154 6.03212 13.4942 6.1817C13.4763 6.30465 13.4197 6.41795 13.3332 6.50375L10.7636 9.13167C10.6338 9.26119 10.5755 9.45016 10.6088 9.63407L11.228 13.3376C11.2728 13.6428 11.0746 13.9292 10.7822 13.9818C10.6616 14.0014 10.5382 13.9811 10.4293 13.9238L7.26531 12.1783C7.10725 12.0877 6.91564 12.0877 6.75759 12.1783L3.57504 13.9367C3.30803 14.0792 2.98047 13.9732 2.83823 13.6983C2.78277 13.5875 2.76322 13.461 2.7825 13.3376L3.40167 9.63407C3.43162 9.45039 3.37389 9.26302 3.24688 9.13167L0.658743 6.50375C0.447086 6.28053 0.447086 5.92184 0.658743 5.69862C0.745125 5.61542 0.852517 5.55956 0.968329 5.5376L4.51618 4.99655C4.69333 4.96598 4.84546 4.84849 4.92484 4.68094L6.50992 1.31874C6.57255 1.18241 6.68545 1.07817 6.82301 1.02966C6.96057 0.981155 7.11113 0.992491 7.24054 1.0611C7.34731 1.11743 7.43406 1.20767 7.48821 1.31874Z" fill="#C32D2C" stroke="#C32D2C" stroke-linecap="round" stroke-linejoin="round"/>
</svg>
